<?xml version="1.0" encoding="UTF-8" standalone="no"?>
<!DOCTYPE svg PUBLIC "-//W3C//DTD SVG 1.1//EN" "http://www.w3.org/Graphics/SVG/1.1/DTD/svg11.dtd">
<svg xmlns="http://www.w3.org/2000/svg" version="1.1" viewBox="0.00 0.00 500.00 500.00">
<g stroke-width="2.00" fill="none" stroke-linecap="butt">
<path stroke="#5a6276" stroke-opacity="0.961" vector-effect="non-scaling-stroke" d="
  M 416.35 263.47
  L 415.45 263.48"
/>
<path stroke="#5a6276" stroke-opacity="0.961" vector-effect="non-scaling-stroke" d="
  M 337.72 128.02
  L 336.76 127.23"
/>
<path stroke="#5a6276" stroke-opacity="0.961" vector-effect="non-scaling-stroke" d="
  M 87.27 262.48
  Q 86.88 262.56 86.46 262.45"
/>
<path stroke="#2b3145" vector-effect="non-scaling-stroke" d="
  M 360.38 352.89
  Q 358.91 351.70 358.02 351.75
  Q 349.30 352.18 341.01 354.73
  Q 339.35 355.24 334.90 354.29
  Q 334.82 354.28 334.80 354.35
  L 334.70 354.65
  Q 334.58 355.03 334.19 355.12
  Q 325.42 357.33 316.96 354.55"
/>
<path stroke="#757e89" vector-effect="non-scaling-stroke" d="
  M 275.57 365.70
  L 274.57 367.95"
/>
<path stroke="#3d4459" vector-effect="non-scaling-stroke" d="
  M 272.91 377.25
  Q 272.70 377.41 272.73 377.80
  A 0.65 0.65 0.0 0 0 273.24 378.37
  L 274.14 378.55"
/>
<path stroke="#757e89" vector-effect="non-scaling-stroke" d="
  M 274.14 378.55
  Q 276.07 379.34 276.31 380.96
  A 0.65 0.64 80.2 0 1 275.80 381.69
  L 273.02 382.26"
/>
<path stroke="#2b3145" vector-effect="non-scaling-stroke" d="
  M 264.40 381.05
  Q 263.73 380.06 263.25 380.20
  Q 258.37 381.59 253.42 382.60
  Q 252.93 382.70 252.68 383.13
  L 252.46 383.50"
/>
<path stroke="#757e89" vector-effect="non-scaling-stroke" d="
  M 252.46 383.50
  Q 251.40 382.89 250.52 383.54"
/>
<path stroke="#2b3145" vector-effect="non-scaling-stroke" d="
  M 250.52 383.54
  Q 244.60 380.49 239.13 379.57"
/>
<path stroke="#757e89" vector-effect="non-scaling-stroke" d="
  M 224.70 382.35
  Q 222.68 381.29 225.07 379.20"
/>
<path stroke="#757e89" vector-effect="non-scaling-stroke" d="
  M 223.21 373.99
  L 221.75 372.78"
/>
<path stroke="#757e89" vector-effect="non-scaling-stroke" d="
  M 201.15 371.14
  Q 200.00 371.71 199.90 374.45
  Q 199.51 385.57 199.81 391.61
  Q 199.82 391.85 199.59 391.78
  Q 199.45 391.74 199.32 391.69
  Q 199.19 391.64 199.19 391.50
  L 199.20 371.08
  Q 199.20 370.78 199.35 370.53
  L 199.51 370.26
  Q 199.70 369.94 199.48 369.65
  Q 198.92 368.87 198.32 368.76"
/>
<path stroke="#3d4459" vector-effect="non-scaling-stroke" d="
  M 163.55 351.90
  Q 162.32 351.13 161.64 352.92
  A 1.11 1.10 2.7 0 1 160.91 353.58
  L 145.96 357.74"
/>
<path stroke="#0e1018" vector-effect="non-scaling-stroke" d="
  M 74.04 261.33
  Q 74.46 260.99 74.57 261.79"
/>
<path stroke="#69738c" stroke-opacity="0.961" vector-effect="non-scaling-stroke" d="
  M 330.20 379.47
  Q 330.49 378.10 329.76 378.13
  C 326.00 378.29 317.77 378.80 315.55 375.00"
/>
<path stroke="#848f9f" vector-effect="non-scaling-stroke" d="
  M 315.55 375.00
  Q 316.13 373.89 316.94 373.36"
/>
<path stroke="#69738c" stroke-opacity="0.961" vector-effect="non-scaling-stroke" d="
  M 316.94 373.36
  L 321.50 368.23
  A 1.26 1.26 0.0 0 0 320.30 366.16
  L 314.23 367.42"
/>
<path stroke="#848f9f" vector-effect="non-scaling-stroke" d="
  M 314.23 367.42
  L 302.97 367.73
  A 0.63 0.63 0.0 0 1 302.32 367.09
  L 302.34 365.25"
/>
<path stroke="#96a2b3" vector-effect="non-scaling-stroke" d="
  M 183.30 364.76
  L 179.82 367.39
  Q 179.45 367.68 178.97 367.71
  L 168.77 368.32
  Q 167.97 368.36 168.44 369.02
  L 169.94 371.13
  Q 170.19 371.49 170.10 371.91
  Q 169.71 373.69 169.02 374.75
  Q 168.20 375.99 167.22 375.18
  Q 166.83 374.86 166.37 375.06
  L 165.70 375.35"
/>
<path stroke="#848f9f" vector-effect="non-scaling-stroke" d="
  M 250.52 383.54
  Q 250.27 384.68 251.13 385.23
  A 0.88 0.87 -43.3 0 0 252.03 385.25
  Q 253.02 384.69 252.46 383.50"
/>
<path stroke="#69738c" stroke-opacity="0.961" vector-effect="non-scaling-stroke" d="
  M 268.75 398.60
  Q 268.70 400.35 267.10 401.09
  Q 266.57 401.34 266.59 401.92
  L 266.73 406.43"
/>
<path stroke="#69738c" stroke-opacity="0.961" vector-effect="non-scaling-stroke" d="
  M 244.02 396.47
  Q 243.29 395.97 243.02 395.15"
/>
<path stroke="#69738c" stroke-opacity="0.961" vector-effect="non-scaling-stroke" d="
  M 239.41 393.98
  Q 233.88 392.37 228.92 392.59"
/>
<path stroke="#848f9f" vector-effect="non-scaling-stroke" d="
  M 229.87 387.98
  L 230.37 387.98
  A 0.42 0.42 0.0 0 1 230.53 388.79
  L 224.37 391.38
  A 0.69 0.69 0.0 0 0 224.66 392.71
  L 228.92 392.59"
/>
<path stroke="#b7c4d3" stroke-opacity="0.961" vector-effect="non-scaling-stroke" d="
  M 228.92 392.59
  Q 227.44 393.78 227.27 395.39
  Q 227.21 395.97 227.73 396.22
  L 231.50 398.04
  A 0.62 0.62 0.0 0 1 231.69 399.02
  L 229.61 401.31"
/>
<path stroke="#b7c4d3" stroke-opacity="0.961" vector-effect="non-scaling-stroke" d="
  M 314.23 367.42
  Q 315.09 367.56 314.64 368.29"
/>
<path stroke="#b7c4d3" stroke-opacity="0.961" vector-effect="non-scaling-stroke" d="
  M 316.57 372.32
  Q 316.27 372.75 316.94 373.36"
/>
<path stroke="#b7c4d3" stroke-opacity="0.961" vector-effect="non-scaling-stroke" d="
  M 315.55 375.00
  L 301.23 384.72
  A 0.45 0.45 0.0 0 0 301.49 385.54
  Q 307.10 385.43 312.99 384.56
  Q 316.24 384.08 317.67 386.81"
/>
<path stroke="#a5b1b6" stroke-opacity="0.635" vector-effect="non-scaling-stroke" d="
  M 272.82 400.48
  Q 272.06 399.67 272.03 398.99
  Q 272.00 398.46 272.86 397.84
  Q 273.83 397.15 274.56 396.23
  Q 274.90 395.80 274.47 395.46
  Q 272.62 394.00 270.14 393.91"
/>
<path stroke="#848f9f" vector-effect="non-scaling-stroke" d="
  M 267.77 393.50
  Q 267.52 392.27 268.22 392.34
  Q 273.74 392.92 278.90 392.21
  A 0.56 0.56 0.0 0 0 279.00 391.13
  Q 274.73 389.69 272.01 387.14"
/>
<path stroke="#96a2b3" vector-effect="non-scaling-stroke" d="
  M 274.14 378.55
  L 274.53 377.50"
/>
<path stroke="#5a6276" stroke-opacity="0.961" vector-effect="non-scaling-stroke" d="
  M 288.98 357.26
  Q 287.99 356.92 287.54 358.44"
/>
<path stroke="#757e89" vector-effect="non-scaling-stroke" d="
  M 287.54 358.44
  L 285.20 358.45"
/>
<path stroke="#b7c4d3" stroke-opacity="0.961" vector-effect="non-scaling-stroke" d="
  M 289.53 358.21
  Q 288.45 358.66 287.54 358.44"
/>
<path stroke="#b7c4d3" stroke-opacity="0.961" vector-effect="non-scaling-stroke" d="
  M 205.98 368.89
  Q 203.23 370.38 203.20 369.37"
/>
<path stroke="#3d4459" vector-effect="non-scaling-stroke" d="
  M 406.60 286.08
  Q 406.43 285.68 406.50 285.19"
/>
<path stroke="#5a6276" stroke-opacity="0.961" vector-effect="non-scaling-stroke" d="
  M 358.38 180.06
  Q 358.18 179.92 358.24 179.39"
/>
<path stroke="#2b3145" vector-effect="non-scaling-stroke" d="
  M 288.67 163.66
  C 282.14 165.63 289.46 175.51 293.19 170.95
  C 296.76 166.58 293.19 164.08 289.54 162.16
  Q 288.94 161.85 288.99 162.52
  L 289.04 163.11
  Q 289.07 163.53 288.67 163.66"
/>
<path stroke="#2b3145" vector-effect="non-scaling-stroke" d="
  M 290.89 215.14
  L 288.63 221.46
  Q 288.58 221.62 288.74 221.66
  Q 288.89 221.71 289.06 221.78
  A 0.47 0.46 25.6 0 0 289.65 221.58
  L 291.08 219.00
  A 0.26 0.25 65.5 0 1 291.55 219.18
  L 290.66 223.39
  A 1.00 1.00 0.0 0 0 292.38 224.27
  Q 296.45 219.79 296.42 213.84
  C 296.37 204.36 297.24 194.20 286.44 190.14
  Q 284.27 189.32 282.38 191.17
  Q 282.03 191.52 281.98 192.01
  C 281.76 194.48 282.54 202.80 285.94 204.03
  Q 286.43 204.20 286.57 204.70
  Q 286.84 205.64 287.63 206.25
  A 0.92 0.90 15.2 0 1 287.98 206.85
  L 289.07 215.25
  A 0.40 0.40 0.0 0 0 289.84 215.36
  Q 290.03 214.92 290.51 214.76
  Q 291.10 214.55 290.89 215.14"
/>
<path stroke="#191d29" stroke-opacity="0.635" vector-effect="non-scaling-stroke" d="
  M 239.1472 197.7517
  A 3.31 0.49 -13.6 0 0 235.8148 198.0537
  A 3.31 0.49 -13.6 0 0 232.7128 199.3083
  A 3.31 0.49 -13.6 0 0 236.0452 199.0063
  A 3.31 0.49 -13.6 0 0 239.1472 197.7517"
/>
<path stroke="#191d29" stroke-opacity="0.635" vector-effect="non-scaling-stroke" d="
  M 251.41 198.23
  Q 251.54 198.28 251.68 198.19
  A 0.28 0.28 0.0 0 0 251.51 197.68
  Q 246.82 198.12 242.21 199.77
  C 240.42 200.41 238.23 200.10 236.61 201.09
  Q 235.84 201.56 236.74 201.49
  Q 244.21 200.87 251.16 198.24
  Q 251.28 198.19 251.41 198.23"
/>
<path stroke="#191d29" stroke-opacity="0.635" vector-effect="non-scaling-stroke" d="
  M 264.50 202.51
  Q 267.17 201.67 268.50 199.20
  Q 268.54 199.13 268.52 199.05
  Q 268.46 198.88 268.41 198.72
  A 0.12 0.11 -36.1 0 0 268.21 198.69
  Q 267.03 200.34 264.81 201.54
  Q 264.36 201.79 264.50 202.51"
/>
<path stroke="#191d29" stroke-opacity="0.635" vector-effect="non-scaling-stroke" d="
  M 250.5109 200.4613
  A 4.77 0.54 -15.3 0 0 245.7675 201.1991
  A 4.77 0.54 -15.3 0 0 241.3091 202.9787
  A 4.77 0.54 -15.3 0 0 246.0525 202.2409
  A 4.77 0.54 -15.3 0 0 250.5109 200.4613"
/>
<path stroke="#191d29" stroke-opacity="0.635" vector-effect="non-scaling-stroke" d="
  M 263.15 207.00
  C 266.75 206.29 268.72 203.42 271.10 201.02
  Q 271.44 200.68 270.98 200.53
  Q 270.64 200.42 270.26 200.77
  Q 268.28 202.54 266.46 204.47
  A 1.58 1.54 -81.3 0 1 266.05 204.78
  L 262.92 206.31
  A 0.37 0.37 0.0 0 0 263.15 207.00"
/>
<path stroke="#191d29" stroke-opacity="0.635" vector-effect="non-scaling-stroke" d="
  M 235.2443 201.6345
  A 0.78 0.50 -11.5 0 0 234.3803 201.3000
  A 0.78 0.50 -11.5 0 0 233.7157 201.9455
  A 0.78 0.50 -11.5 0 0 234.5797 202.2800
  A 0.78 0.50 -11.5 0 0 235.2443 201.6345"
/>
<path stroke="#191d29" stroke-opacity="0.635" vector-effect="non-scaling-stroke" d="
  M 230.73 202.37
  A 0.37 0.37 0.0 0 0 230.33 202.82
  Q 230.50 203.51 231.17 203.44
  Q 231.83 203.38 232.03 202.93
  Q 232.21 202.55 231.79 202.50
  L 230.73 202.37"
/>
<path stroke="#191d29" stroke-opacity="0.635" vector-effect="non-scaling-stroke" d="
  M 248.55 206.57
  L 253.22 203.99
  A 0.01 0.01 0.0 0 0 253.23 203.98
  L 253.12 203.78
  A 0.75 0.29 61.1 0 0 252.51 203.27
  L 248.32 205.58
  A 0.75 0.29 61.1 0 0 248.43 206.37
  L 248.54 206.57
  A 0.01 0.01 0.0 0 0 248.55 206.57"
/>
<path stroke="#2b3145" vector-effect="non-scaling-stroke" d="
  M 239.9591 203.8234
  A 3.04 0.76 -14.8 0 0 236.8259 203.8652
  A 3.04 0.76 -14.8 0 0 234.0809 205.3766
  A 3.04 0.76 -14.8 0 0 237.2141 205.3348
  A 3.04 0.76 -14.8 0 0 239.9591 203.8234"
/>
<path stroke="#191d29" stroke-opacity="0.635" vector-effect="non-scaling-stroke" d="
  M 233.31 213.24
  C 230.39 214.43 226.89 215.61 224.17 217.14
  Q 223.44 217.56 222.77 217.32
  A 0.51 0.51 0.0 0 0 222.19 218.11
  Q 222.40 218.38 222.94 218.18
  Q 225.40 217.24 227.98 216.65
  C 230.77 216.01 232.28 214.39 234.92 213.44
  C 239.22 211.91 243.28 209.20 247.31 206.92
  A 0.37 0.36 34.4 0 0 247.18 206.24
  Q 246.84 206.19 246.38 206.44
  Q 240.18 209.90 233.66 212.68
  Q 233.60 212.71 233.57 212.78
  Q 233.53 212.92 233.48 213.06
  Q 233.44 213.19 233.31 213.24"
/>
<path stroke="#191d29" stroke-opacity="0.635" vector-effect="non-scaling-stroke" d="
  M 227.3121 209.3664
  A 0.27 0.27 0.0 0 0 226.9756 209.1860
  L 214.5496 212.9376
  A 0.27 0.27 0.0 0 0 214.3692 213.2741
  L 214.5079 213.7336
  A 0.27 0.27 0.0 0 0 214.8444 213.9140
  L 227.2704 210.1624
  A 0.27 0.27 0.0 0 0 227.4508 209.8259
  L 227.3121 209.3664"
/>
<path stroke="#191d29" stroke-opacity="0.635" vector-effect="non-scaling-stroke" d="
  M 234.2227 209.9159
  A 0.26 0.26 0.0 0 0 233.8931 209.7530
  L 212.7135 216.9219
  A 0.26 0.26 0.0 0 0 212.5506 217.2515
  L 212.7173 217.7441
  A 0.26 0.26 0.0 0 0 213.0469 217.9070
  L 234.2265 210.7381
  A 0.26 0.26 0.0 0 0 234.3894 210.4085
  L 234.2227 209.9159"
/>
<path stroke="#191d29" stroke-opacity="0.635" vector-effect="non-scaling-stroke" d="
  M 268.0844 210.4897
  A 1.20 0.43 -14.0 0 0 266.8160 210.3628
  A 1.20 0.43 -14.0 0 0 265.7556 211.0703
  A 1.20 0.43 -14.0 0 0 267.0240 211.1972
  A 1.20 0.43 -14.0 0 0 268.0844 210.4897"
/>
<path stroke="#191d29" stroke-opacity="0.635" vector-effect="non-scaling-stroke" d="
  M 272.31 212.70
  Q 273.27 212.04 273.00 210.81
  Q 272.74 209.66 272.33 210.76
  L 271.76 212.27
  A 0.37 0.36 -6.8 0 0 272.31 212.70"
/>
<path stroke="#191d29" stroke-opacity="0.635" vector-effect="non-scaling-stroke" d="
  M 247.1385 222.1920
  A 0.26 0.26 0.0 0 0 247.1014 221.8262
  L 246.8379 221.6113
  A 0.26 0.26 0.0 0 0 246.4721 221.6484
  L 241.9215 227.2280
  A 0.26 0.26 0.0 0 0 241.9586 227.5938
  L 242.2221 227.8087
  A 0.26 0.26 0.0 0 0 242.5879 227.7716
  L 247.1385 222.1920"
/>
<path stroke="#2b3145" vector-effect="non-scaling-stroke" d="
  M 238.21 224.42
  Q 239.88 223.59 240.54 221.89
  A 0.26 0.26 0.0 0 0 240.12 221.60
  L 237.78 223.80
  A 0.38 0.38 0.0 0 0 238.21 224.42"
/>
<path stroke="#191d29" stroke-opacity="0.635" vector-effect="non-scaling-stroke" d="
  M 236.51 243.97
  C 239.69 242.53 241.97 238.90 244.38 236.59
  Q 250.98 230.24 256.14 222.67
  A 0.36 0.35 48.9 0 0 256.16 222.29
  L 255.96 221.96
  A 0.29 0.29 0.0 0 0 255.47 221.94
  Q 247.02 233.78 236.29 243.62
  Q 235.32 244.51 236.51 243.97"
/>
<path stroke="#2b3145" vector-effect="non-scaling-stroke" d="
  M 233.2129 222.3107
  A 3.87 0.54 -41.4 0 0 229.9529 224.4649
  A 3.87 0.54 -41.4 0 0 227.4071 227.4293
  A 3.87 0.54 -41.4 0 0 230.6671 225.2751
  A 3.87 0.54 -41.4 0 0 233.2129 222.3107"
/>
<path stroke="#191d29" stroke-opacity="0.635" vector-effect="non-scaling-stroke" d="
  M 242.36 228.54
  L 241.81 227.87
  A 0.22 0.22 0.0 0 0 241.50 227.84
  L 241.43 227.90
  A 5.00 0.52 -39.1 0 0 237.87 231.46
  L 238.04 231.66
  A 5.00 0.52 -39.1 0 0 242.25 228.91
  L 242.32 228.85
  A 0.22 0.22 0.0 0 0 242.36 228.54"
/>
<path stroke="#191d29" stroke-opacity="0.635" vector-effect="non-scaling-stroke" d="
  M 214.01 236.33
  Q 204.10 242.81 201.20 243.91
  Q 196.03 245.88 190.91 247.99
  C 190.10 248.33 188.93 248.37 188.14 248.81
  Q 187.21 249.33 188.28 249.24
  C 193.50 248.80 200.29 245.34 205.04 243.03
  C 208.36 241.41 211.52 238.67 215.12 236.79"
/>
<path stroke="#191d29" stroke-opacity="0.635" vector-effect="non-scaling-stroke" d="
  M 237.2565 232.8531
  A 0.38 0.38 0.0 0 0 237.2537 232.3157
  L 237.2252 232.2875
  A 0.38 0.38 0.0 0 0 236.6878 232.2904
  L 227.9235 241.1469
  A 0.38 0.38 0.0 0 0 227.9263 241.6843
  L 227.9548 241.7125
  A 0.38 0.38 0.0 0 0 228.4922 241.7096
  L 237.2565 232.8531"
/>
<path stroke="#191d29" stroke-opacity="0.635" vector-effect="non-scaling-stroke" d="
  M 193.2155 234.4343
  A 3.80 0.54 -14.1 0 0 189.3984 234.8363
  A 3.80 0.54 -14.1 0 0 185.8445 236.2857
  A 3.80 0.54 -14.1 0 0 189.6616 235.8837
  A 3.80 0.54 -14.1 0 0 193.2155 234.4343"
/>
<path stroke="#191d29" stroke-opacity="0.635" vector-effect="non-scaling-stroke" d="
  M 225.1751 235.4475
  A 0.27 0.27 0.0 0 0 224.7943 235.4189
  L 218.1379 241.1443
  A 0.27 0.27 0.0 0 0 218.1093 241.5251
  L 218.3049 241.7525
  A 0.27 0.27 0.0 0 0 218.6857 241.7811
  L 225.3421 236.0557
  A 0.27 0.27 0.0 0 0 225.3707 235.6749
  L 225.1751 235.4475"
/>
<path stroke="#191d29" stroke-opacity="0.635" vector-effect="non-scaling-stroke" d="
  M 199.86 237.74
  Q 197.70 237.40 192.55 240.73
  Q 192.13 241.00 192.57 241.24
  Q 192.94 241.44 193.49 241.20
  Q 198.22 239.15 202.91 236.96
  A 0.31 0.31 0.0 0 0 202.87 236.39
  Q 201.67 236.00 201.17 237.05
  A 1.24 1.23 -72.5 0 1 199.86 237.74"
/>
<path stroke="#191d29" stroke-opacity="0.635" vector-effect="non-scaling-stroke" d="
  M 212.56 245.25
  Q 212.85 245.20 212.72 244.72
  A 0.35 0.35 0.0 0 0 212.14 244.56
  C 210.84 245.87 208.93 246.34 207.55 247.41
  C 204.82 249.52 201.39 250.58 198.28 252.06
  A 0.15 0.14 24.8 0 0 198.38 252.33
  Q 206.07 250.39 212.32 245.35
  Q 212.42 245.27 212.56 245.25"
/>
<path stroke="#757e89" vector-effect="non-scaling-stroke" d="
  M 116.37 248.44
  A 0.84 0.84 0.0 0 0 115.53 247.60
  A 0.84 0.84 0.0 0 0 114.69 248.44
  A 0.84 0.84 0.0 0 0 115.53 249.28
  A 0.84 0.84 0.0 0 0 116.37 248.44"
/>
<path stroke="#2b3145" vector-effect="non-scaling-stroke" d="
  M 356.6679 253.3554
  A 1.33 0.56 115.0 0 0 357.7375 252.3867
  A 1.33 0.56 115.0 0 0 357.7921 250.9446
  A 1.33 0.56 115.0 0 0 356.7225 251.9133
  A 1.33 0.56 115.0 0 0 356.6679 253.3554"
/>
<path stroke="#2b3145" vector-effect="non-scaling-stroke" d="
  M 173.08 263.93
  Q 172.90 264.48 173.45 264.29
  Q 174.19 264.05 174.50 263.25
  Q 174.74 262.63 174.12 262.86
  Q 173.33 263.16 173.08 263.93"
/>
<path stroke="#191d29" stroke-opacity="0.635" vector-effect="non-scaling-stroke" d="
  M 297.43 274.67
  L 298.08 274.33
  Q 298.70 273.99 298.02 273.78
  Q 297.64 273.66 297.21 273.71
  Q 296.96 273.75 296.80 273.92
  Q 296.41 274.36 296.97 274.67
  A 0.50 0.50 0.0 0 0 297.43 274.67"
/>
<path stroke="#3d4459" vector-effect="non-scaling-stroke" d="
  M 375.44 294.56
  Q 375.52 295.09 376.01 295.18
  Q 376.62 295.30 376.81 294.49
  A 0.61 0.61 0.0 0 0 376.43 293.77
  Q 375.90 293.57 375.45 293.93
  Q 375.28 294.06 375.26 294.21
  Q 375.23 294.44 375.44 294.56"
/>
<path stroke="#191d29" stroke-opacity="0.635" vector-effect="non-scaling-stroke" d="
  M 302.23 317.78
  Q 305.24 318.41 308.33 317.83
  Q 308.43 317.81 308.44 317.59
  A 0.14 0.14 0.0 0 0 308.28 317.44
  Q 303.74 317.85 299.50 316.27
  A 0.41 0.41 0.0 0 0 299.05 316.93
  Q 299.96 317.97 301.34 317.76
  Q 301.78 317.69 302.23 317.78"
/>
<path stroke="#191d29" stroke-opacity="0.635" vector-effect="non-scaling-stroke" d="
  M 147.67 318.01
  Q 147.99 318.19 148.20 317.78
  A 0.27 0.27 0.0 0 0 147.94 317.38
  L 146.04 317.54
  A 0.23 0.23 0.0 0 0 146.05 318.00
  Q 146.63 318.04 147.22 317.94
  Q 147.46 317.89 147.67 318.01"
/>
<path stroke="#191d29" stroke-opacity="0.635" vector-effect="non-scaling-stroke" d="
  M 316.81 317.51
  Q 316.56 317.42 316.24 317.60
  A 0.21 0.21 0.0 0 0 316.34 317.99
  L 320.00 318.01
  A 0.25 0.24 -43.0 0 0 320.02 317.52
  Q 318.59 317.44 317.16 317.56
  Q 316.98 317.58 316.81 317.51"
/>
<path stroke="#3d4459" vector-effect="non-scaling-stroke" d="
  M 251.5360 369.8698
  A 1.25 0.79 -4.6 0 0 250.2266 369.1825
  A 1.25 0.79 -4.6 0 0 249.0440 370.0702
  A 1.25 0.79 -4.6 0 0 250.3534 370.7575
  A 1.25 0.79 -4.6 0 0 251.5360 369.8698"
/>
<path stroke="#31384a" stroke-opacity="0.635" vector-effect="non-scaling-stroke" d="
  M 289.9451 168.0823
  A 1.01 0.84 132.7 0 0 291.2473 167.9097
  A 1.01 0.84 132.7 0 0 291.3149 166.5977
  A 1.01 0.84 132.7 0 0 290.0127 166.7703
  A 1.01 0.84 132.7 0 0 289.9451 168.0823"
/>
</g>
<circle fill="#3a425a" cx="184.09" cy="75.54" r="1.38"/>
<path fill="#9da9c2" fill-opacity="0.922" d="
  M 416.35 263.47
  L 415.45 263.48
  C 421.60 201.07 391.95 141.83 339.59 106.45
  Q 338.79 105.90 338.09 106.98
  Q 337.84 107.36 337.88 108.50
  Q 338.18 118.25 337.72 128.02
  L 336.76 127.23
  L 336.64 106.11
  A 2.01 2.00 16.6 0 0 335.74 104.46
  C 322.42 95.77 307.24 90.32 291.97 86.14
  C 272.88 80.90 253.00 80.13 233.43 82.02
  C 211.11 84.19 188.44 92.74 169.08 103.84
  Q 168.71 104.05 168.30 104.61
  A 1.81 1.76 5.3 0 1 167.54 105.22
  C 160.21 108.47 153.63 114.46 147.83 118.96
  C 138.13 126.49 130.11 136.27 122.19 145.56
  C 119.69 148.49 117.82 151.99 115.59 155.22
  C 94.58 185.69 83.35 225.84 87.27 262.48
  Q 86.88 262.56 86.46 262.45
  Q 83.76 235.71 90.63 209.52
  C 92.21 203.53 93.56 197.32 95.68 191.72
  C 105.57 165.60 120.47 143.03 140.67 124.05
  C 146.38 118.68 153.17 113.67 159.64 108.73
  Q 160.95 107.73 164.32 106.01
  C 166.58 104.86 168.40 103.04 170.44 101.94
  C 176.23 98.82 181.70 95.59 188.04 93.18
  C 202.22 87.79 216.52 82.94 232.45 81.33
  C 268.31 77.70 303.96 83.83 335.50 102.99
  A 0.65 0.64 16.9 0 0 336.48 102.47
  L 336.83 95.42
  Q 336.85 94.94 337.33 95.00
  L 337.61 95.04
  Q 337.95 95.08 337.95 95.42
  L 338.02 104.10
  A 1.47 1.47 0.0 0 0 339.03 105.48
  Q 341.41 106.28 343.76 107.93
  C 392.38 142.24 423.05 201.96 416.35 263.47
  Z"
/>
<circle fill="#3a425a" cx="252.38" cy="88.21" r="0.91"/>
<ellipse fill="#3a425a" cx="0.00" cy="0.00" transform="translate(252.34,92.35) rotate(68.3)" rx="0.83" ry="0.80"/>
<ellipse fill="#3a425a" cx="0.00" cy="0.00" transform="translate(252.31,96.25) rotate(-40.9)" rx="1.08" ry="0.94"/>
<path fill="#5d6882" d="
  M 168.22 96.36
  Q 168.42 96.66 168.16 96.97
  A 0.38 0.38 0.0 0 1 167.61 97.00
  Q 167.10 96.53 167.25 95.75
  A 0.42 0.35 -40.9 0 1 168.02 95.74
  Q 168.00 95.88 168.00 96.00
  Q 168.00 96.03 168.22 96.36
  Z"
/>
<circle fill="#1c202f" cx="140.80" cy="103.82" r="3.06"/>
<path fill="#1c202f" d="
  M 336.76 127.23
  L 337.72 128.02
  C 337.47 129.17 337.77 130.08 338.83 130.77
  C 343.11 133.54 346.46 137.25 350.25 140.60
  C 356.43 146.06 361.34 152.21 366.58 158.43
  Q 367.58 159.62 368.60 161.32
  C 372.46 167.74 376.77 173.60 380.18 180.31
  Q 385.71 191.19 390.89 207.16
  Q 391.18 208.04 392.31 208.24
  C 393.80 208.52 394.87 209.05 394.72 210.67
  A 1.05 1.05 0.0 0 1 394.22 211.49
  C 392.69 212.44 392.37 213.29 392.75 215.12
  Q 396.38 232.78 396.58 250.85
  A 1.25 1.23 23.6 0 0 396.92 251.70
  L 399.76 254.80
  A 1.33 1.33 0.0 0 1 398.96 257.01
  L 396.84 257.31
  Q 396.43 257.36 396.39 257.77
  L 393.95 282.89
  Q 393.91 283.33 394.35 283.30
  Q 399.83 283.01 402.32 278.43
  C 404.26 274.85 401.26 271.24 403.88 267.89
  C 407.01 263.89 410.83 265.57 414.75 264.71
  Q 415.71 264.50 415.45 263.48
  L 416.35 263.47
  Q 415.84 264.41 416.47 264.82
  C 419.24 266.63 421.85 261.91 421.61 259.47
  Q 421.56 258.96 421.95 259.30
  Q 423.56 260.69 422.77 262.28
  Q 420.29 267.32 414.67 266.52
  C 410.17 265.87 402.52 266.09 404.01 273.03
  C 405.32 279.18 401.20 283.37 395.34 284.14
  Q 393.50 284.38 393.29 286.68
  Q 393.00 289.80 391.96 292.72
  Q 391.33 294.51 392.33 294.78
  Q 390.89 296.53 390.22 299.01
  C 388.79 304.30 386.72 309.14 384.78 314.35
  Q 384.54 315.00 385.23 315.00
  L 423.00 315.00
  Q 424.75 315.00 423.37 316.08
  Q 421.72 317.36 423.31 318.71
  A 0.48 0.48 0.0 0 1 423.00 319.56
  L 383.12 319.73
  Q 382.53 319.73 382.26 320.27
  Q 373.48 337.93 360.38 352.89
  Q 358.91 351.70 358.02 351.75
  Q 349.30 352.18 341.01 354.73
  Q 339.35 355.24 334.90 354.29
  Q 334.82 354.28 334.80 354.35
  L 334.70 354.65
  Q 334.58 355.03 334.19 355.12
  Q 325.42 357.33 316.96 354.55
  L 317.54 353.79
  A 0.34 0.34 0.0 0 0 317.33 353.24
  L 311.65 352.22
  A 0.92 0.92 0.0 0 1 310.92 351.55
  Q 310.43 349.68 308.54 349.50
  A 1.08 1.08 0.0 0 1 308.06 347.51
  C 312.79 344.52 318.50 342.99 319.83 336.89
  Q 319.94 336.37 319.44 336.51
  Q 315.85 337.49 312.26 336.38
  A 1.03 1.02 26.2 0 1 311.72 334.82
  C 313.23 332.64 315.48 331.14 316.79 329.10
  Q 319.39 325.05 320.64 320.67
  A 0.85 0.85 0.0 0 0 319.39 319.70
  C 313.34 323.22 310.88 320.32 305.32 319.82
  Q 302.42 319.56 299.44 319.86
  A 0.96 0.93 6.7 0 0 298.64 320.47
  L 294.76 331.04
  A 0.49 0.49 0.0 0 1 293.84 331.06
  L 289.51 320.55
  A 0.94 0.93 -6.6 0 0 288.78 319.98
  C 285.48 319.47 283.14 319.91 280.63 322.46
  Q 271.94 331.27 259.05 330.80
  A 2.26 2.25 79.1 0 0 256.91 333.97
  L 257.56 335.43
  A 1.34 1.32 0.8 0 0 258.20 336.08
  Q 261.23 337.49 263.42 339.96
  A 0.89 0.89 0.0 0 1 262.60 341.43
  L 256.66 340.43
  A 0.64 0.63 -2.9 0 0 255.94 341.22
  L 257.58 347.24
  Q 257.72 347.76 258.22 347.97
  C 260.43 348.91 268.40 349.42 269.44 353.38
  Q 269.56 353.84 269.33 354.24
  C 267.94 356.68 260.59 354.67 258.03 354.18
  Q 256.67 353.92 256.70 355.30
  Q 256.71 355.82 257.87 356.63
  Q 266.01 362.32 275.57 365.70
  L 274.57 367.95
  Q 268.72 367.47 262.64 368.53
  A 0.23 0.23 0.0 0 0 262.50 368.90
  Q 266.85 374.32 272.91 377.25
  Q 272.70 377.41 272.73 377.80
  A 0.65 0.65 0.0 0 0 273.24 378.37
  L 274.14 378.55
  Q 276.07 379.34 276.31 380.96
  A 0.65 0.64 80.2 0 1 275.80 381.69
  L 273.02 382.26
  Q 269.68 381.62 265.72 380.61
  Q 264.43 380.28 264.40 381.05
  Q 263.73 380.06 263.25 380.20
  Q 258.37 381.59 253.42 382.60
  Q 252.93 382.70 252.68 383.13
  L 252.46 383.50
  Q 251.40 382.89 250.52 383.54
  Q 244.60 380.49 239.13 379.57
  L 224.70 382.35
  Q 222.68 381.29 225.07 379.20
  Q 233.49 376.10 240.06 370.39
  A 0.58 0.57 -59.7 0 0 239.80 369.39
  L 231.74 367.76
  A 1.05 1.05 0.0 0 1 231.31 365.90
  C 235.95 362.36 240.25 360.67 243.43 355.61
  A 0.75 0.75 0.0 0 0 242.77 354.46
  L 231.50 354.78
  A 0.71 0.71 0.0 0 1 231.27 353.39
  C 234.84 352.28 243.99 349.41 244.71 345.33
  Q 245.17 342.75 245.67 340.35
  A 0.79 0.78 -6.6 0 0 244.57 339.48
  C 237.74 342.67 232.40 345.64 224.21 345.99
  A 0.59 0.57 -88.9 0 0 223.66 346.53
  Q 223.47 349.72 224.44 352.72
  Q 224.58 353.17 224.43 353.61
  C 222.27 360.03 225.42 367.89 223.21 373.99
  L 221.75 372.78
  Q 221.92 372.78 222.09 372.76
  Q 222.45 372.71 222.46 372.35
  C 222.51 366.97 221.95 360.69 222.63 355.43
  Q 222.76 354.47 221.97 353.84
  Q 221.57 353.52 221.75 353.04
  Q 222.92 349.95 222.72 346.58
  A 1.12 1.11 2.2 0 0 221.75 345.54
  Q 211.91 344.21 205.72 336.51
  Q 200.94 330.58 195.72 325.02
  C 191.18 320.20 184.55 322.80 181.34 318.26
  A 0.36 0.36 0.0 0 1 181.80 317.74
  L 184.98 319.47
  Q 185.46 319.73 185.98 319.57
  Q 187.98 318.92 188.91 316.90
  A 0.52 0.51 19.8 0 0 188.57 316.19
  C 186.17 315.52 183.69 316.06 181.54 315.87
  Q 176.35 315.40 171.57 316.93
  A 0.39 0.39 0.0 0 0 171.62 317.69
  Q 176.81 318.61 180.28 321.93
  C 184.11 325.58 187.88 324.61 191.51 327.27
  C 196.51 330.92 200.08 336.30 200.01 342.70
  Q 199.85 355.85 200.27 369.00
  Q 200.29 369.66 201.15 371.14
  Q 200.00 371.71 199.90 374.45
  Q 199.51 385.57 199.81 391.61
  Q 199.82 391.85 199.59 391.78
  Q 199.45 391.74 199.32 391.69
  Q 199.19 391.64 199.19 391.50
  L 199.20 371.08
  Q 199.20 370.78 199.35 370.53
  L 199.51 370.26
  Q 199.70 369.94 199.48 369.65
  Q 198.92 368.87 198.32 368.76
  C 199.60 361.01 199.02 351.08 198.98 342.32
  C 198.95 337.07 196.33 333.05 192.76 329.60
  C 189.36 326.33 184.56 327.01 180.76 324.05
  C 177.04 321.14 175.83 319.83 170.75 319.80
  Q 164.22 319.76 158.04 319.86
  A 0.82 0.82 0.0 0 0 157.49 321.28
  Q 164.18 327.48 172.60 331.11
  A 1.14 1.14 0.0 0 1 172.25 333.29
  Q 165.37 333.89 158.53 332.87
  A 1.01 1.00 72.3 0 0 157.66 334.56
  Q 165.68 342.98 176.11 348.09
  Q 178.79 349.41 176.04 350.56
  Q 175.91 350.62 174.18 350.52
  Q 168.46 350.23 162.79 349.50
  A 0.61 0.61 0.0 0 0 162.26 350.52
  L 163.55 351.90
  Q 162.32 351.13 161.64 352.92
  A 1.11 1.10 2.7 0 1 160.91 353.58
  L 145.96 357.74
  Q 130.50 341.35 119.85 320.13
  A 0.70 0.69 -12.8 0 0 119.22 319.74
  L 79.69 319.77
  A 0.31 0.30 21.1 0 1 79.46 319.26
  Q 81.09 317.49 79.45 315.73
  A 0.44 0.44 0.0 0 1 79.77 315.00
  L 116.93 315.00
  A 0.64 0.64 0.0 0 0 117.51 314.10
  Q 113.26 304.77 110.47 294.51
  Q 110.10 293.15 109.50 292.21
  Q 109.20 291.72 108.63 291.69
  Q 100.01 291.20 94.38 284.80
  A 1.14 1.13 33.5 0 0 92.45 285.19
  L 89.72 293.46
  A 0.81 0.81 0.0 0 1 88.20 293.50
  L 84.44 283.74
  Q 84.28 283.33 84.42 282.91
  L 88.04 271.58
  A 1.16 1.16 0.0 0 0 86.71 270.09
  C 80.93 271.20 73.24 268.58 74.04 261.33
  Q 74.46 260.99 74.57 261.79
  C 74.68 268.46 80.81 269.83 86.23 269.41
  A 1.16 1.16 0.0 0 0 87.30 268.19
  L 87.24 266.95
  A 0.72 0.71 90.0 0 0 86.58 266.28
  C 82.80 265.98 78.96 266.02 79.22 260.76
  Q 79.25 260.14 79.82 259.94
  Q 80.34 259.76 80.20 260.29
  C 79.26 263.77 83.29 265.62 86.03 264.96
  Q 87.47 264.61 86.46 262.45
  Q 86.88 262.56 87.27 262.48
  Q 87.27 263.62 87.69 264.59
  A 0.77 0.77 0.0 0 0 88.47 265.06
  C 95.00 264.53 99.24 265.62 99.16 273.03
  Q 99.07 280.66 106.91 282.43
  A 0.56 0.56 0.0 0 0 107.59 281.84
  L 105.96 262.57
  A 1.00 1.00 0.0 0 0 104.82 261.67
  L 99.43 262.42
  A 0.83 0.83 0.0 0 1 98.62 261.15
  Q 100.37 258.40 103.18 256.59
  C 109.18 252.71 103.32 250.27 105.62 247.33
  Q 105.90 246.96 105.91 246.50
  Q 106.13 225.87 112.32 206.19
  A 0.71 0.70 27.7 0 0 112.08 205.43
  L 110.76 204.42
  Q 110.31 204.08 110.20 203.54
  C 109.76 201.36 111.96 201.10 113.54 200.89
  A 0.88 0.88 0.0 0 0 114.24 200.34
  Q 119.24 187.43 120.79 184.26
  C 130.54 164.22 146.96 142.75 166.50 129.52
  A 0.92 0.91 73.3 0 0 166.90 128.76
  L 166.70 111.02
  A 0.75 0.74 69.1 0 1 166.94 110.47
  Q 168.59 108.95 168.68 110.81
  Q 169.08 118.62 169.00 126.17
  A 0.62 0.62 0.0 0 0 169.96 126.70
  C 194.07 110.80 223.39 100.45 251.56 101.07
  C 282.49 101.74 310.71 110.33 335.87 128.51
  A 0.55 0.55 0.0 0 0 336.75 128.07
  L 336.76 127.23
  Z
  M 358.38 180.06
  Q 358.18 179.92 358.24 179.39
  Q 358.58 179.63 358.84 179.31
  A 0.36 0.35 -41.4 0 0 358.87 178.94
  C 354.65 171.32 345.83 163.40 339.01 158.89
  C 325.91 150.23 311.70 144.66 296.46 144.10
  Q 295.39 144.06 294.84 143.14
  Q 291.40 137.32 285.66 132.84
  C 266.69 118.03 244.95 116.82 224.61 129.84
  C 216.52 135.03 207.71 145.07 205.32 154.50
  C 204.89 156.20 203.88 157.21 202.11 156.49
  A 0.58 0.58 0.0 0 1 201.78 155.78
  C 208.18 135.36 227.66 119.11 249.14 118.05
  A 1.34 1.34 0.0 0 0 250.41 116.79
  L 250.98 105.46
  A 1.11 1.11 0.0 0 0 249.82 104.29
  C 237.03 104.90 224.20 106.13 212.04 109.93
  C 195.98 114.94 182.21 121.67 168.38 131.82
  Q 168.07 132.05 168.07 132.43
  L 168.13 161.06
  A 1.31 1.30 -84.0 0 0 169.16 162.34
  C 174.52 163.49 181.39 167.98 181.64 174.21
  A 1.53 1.53 0.0 0 0 183.09 175.67
  Q 187.90 175.89 192.59 175.69
  C 196.97 175.50 201.82 172.39 205.82 170.60
  C 207.97 169.63 207.21 167.48 207.36 165.94
  C 208.94 149.17 220.52 135.27 235.45 129.08
  C 260.05 118.88 287.97 131.48 296.77 156.41
  A 1.29 1.29 0.0 0 0 297.44 157.15
  Q 303.68 159.96 308.17 165.10
  A 1.49 1.46 -18.5 0 0 309.18 165.59
  Q 318.89 166.14 328.26 168.73
  Q 329.67 169.13 328.69 170.11
  A 0.71 0.65 12.0 0 1 328.40 170.28
  Q 319.12 172.99 310.01 176.31
  C 304.82 178.20 298.48 189.51 298.46 194.75
  C 298.44 201.10 299.70 209.19 298.79 215.73
  C 294.50 246.50 266.16 272.35 235.32 274.72
  A 0.63 0.63 0.0 0 0 234.82 275.65
  Q 235.01 276.02 235.57 276.06
  Q 251.19 277.19 266.85 276.74
  A 2.58 2.40 -30.6 0 1 267.99 276.99
  L 272.36 279.18
  A 1.49 1.46 52.0 0 0 273.34 279.31
  Q 280.93 277.68 288.51 276.02
  Q 290.42 275.60 291.00 274.75
  C 294.57 269.53 299.87 271.03 304.68 273.58
  A 1.57 1.55 54.7 0 0 305.63 273.75
  C 309.46 273.23 313.47 274.51 316.94 272.89
  Q 317.50 272.62 317.94 273.06
  L 318.98 274.11
  A 1.16 1.09 -11.3 0 0 319.35 274.34
  L 327.61 277.15
  A 0.86 0.86 0.0 0 0 328.75 276.34
  Q 328.75 273.76 328.78 270.98
  Q 328.78 270.78 328.86 270.69
  Q 328.95 270.59 329.12 270.55
  Q 329.60 270.44 329.61 270.93
  Q 329.79 278.07 331.52 285.01
  Q 331.96 286.75 333.75 286.75
  L 345.99 286.75
  Q 346.46 286.75 346.77 286.38
  Q 350.40 282.02 352.80 276.88
  Q 353.59 275.19 351.70 274.97
  A 1.19 1.17 20.6 0 0 350.60 275.46
  Q 347.96 279.12 343.40 278.37
  A 1.43 1.42 37.7 0 1 343.05 275.66
  Q 348.11 273.42 351.62 269.13
  A 0.71 0.71 0.0 0 0 351.05 267.97
  C 343.92 268.19 332.71 269.42 332.75 258.74
  C 332.77 252.73 333.62 243.41 330.45 239.77
  Q 330.23 239.52 330.56 239.49
  Q 330.82 239.46 331.02 239.74
  C 334.33 244.32 333.49 252.02 333.63 257.52
  C 333.92 269.13 343.36 267.17 352.80 266.72
  Q 353.34 266.69 353.60 266.21
  L 356.31 261.12
  A 0.68 0.68 0.0 0 0 355.33 260.24
  Q 350.09 263.74 343.76 262.04
  A 1.43 1.43 0.0 0 1 343.89 259.25
  C 346.80 258.75 355.39 257.24 356.41 254.34
  Q 356.57 253.91 356.10 253.92
  L 353.11 253.98
  A 1.39 1.39 0.0 0 1 352.63 251.28
  Q 356.03 250.11 357.38 246.82
  A 1.13 1.13 0.0 0 0 356.46 245.27
  Q 354.94 245.10 353.66 244.30
  Q 352.53 243.59 353.81 243.21
  Q 358.51 241.81 358.74 238.83
  Q 359.12 234.08 359.05 229.32
  Q 359.03 228.37 359.65 228.05
  Q 360.19 227.76 360.26 228.37
  Q 360.92 234.02 361.80 239.73
  Q 362.20 242.34 365.85 243.14
  A 0.63 0.63 0.0 0 1 365.98 244.32
  L 362.90 245.73
  A 0.58 0.58 0.0 0 0 362.70 246.64
  L 366.68 251.20
  A 0.78 0.78 0.0 0 1 365.83 252.44
  L 363.95 251.77
  A 0.52 0.52 0.0 0 0 363.40 252.61
  Q 365.96 255.31 369.29 257.13
  A 1.99 1.99 0.0 0 1 368.72 260.83
  Q 365.37 261.48 363.61 258.61
  A 0.45 0.45 0.0 0 0 362.80 259.00
  C 364.31 263.10 365.26 269.22 371.65 266.48
  Q 372.10 266.29 372.20 265.81
  Q 372.95 262.41 373.56 258.96
  Q 373.88 257.18 372.51 256.92
  A 1.08 1.08 0.0 0 1 372.04 255.02
  Q 374.16 253.33 375.09 250.83
  A 0.71 0.71 0.0 0 0 374.73 249.94
  L 373.02 249.13
  A 1.51 1.51 0.0 0 1 373.10 246.37
  C 374.98 245.60 376.23 244.32 376.44 242.15
  Q 379.61 210.27 362.33 182.92
  Q 360.42 179.89 358.38 180.06
  Z
  M 341.04 157.77
  C 368.02 177.91 382.67 209.52 377.96 243.28
  Q 377.90 243.76 378.38 243.72
  Q 379.50 243.62 379.75 242.50
  Q 381.72 233.72 383.24 223.04
  Q 383.64 220.18 384.70 217.68
  A 1.02 1.01 -49.3 0 1 386.50 217.54
  Q 388.00 220.00 388.65 223.02
  Q 390.60 232.01 392.68 240.82
  A 0.30 0.29 -50.6 0 0 393.26 240.76
  Q 393.52 235.50 392.75 230.24
  C 385.87 183.22 359.68 144.08 318.31 120.93
  C 314.59 118.85 310.37 117.35 306.31 115.53
  Q 281.47 104.41 254.22 104.55
  Q 253.67 104.56 253.72 105.10
  L 254.62 116.31
  A 1.87 1.86 89.0 0 0 256.40 118.03
  Q 267.99 118.52 278.23 124.58
  C 287.59 130.12 291.81 133.26 297.31 141.81
  A 1.07 1.07 0.0 0 0 298.10 142.29
  C 308.30 143.27 316.72 144.57 326.70 149.60
  Q 337.10 154.83 341.04 157.77
  Z
  M 284.91 140.03
  C 271.58 126.78 252.11 123.02 234.92 130.57
  C 221.66 136.39 209.16 150.66 208.57 166.20
  C 208.49 168.13 209.61 169.43 209.69 171.01
  Q 209.99 176.49 209.43 181.99
  C 208.85 187.79 214.57 195.72 218.27 199.89
  Q 218.61 200.27 219.02 199.97
  C 227.66 193.45 237.90 188.56 247.38 183.33
  C 253.11 180.17 254.71 176.04 258.24 169.25
  Q 260.20 165.48 266.70 159.96
  C 273.88 153.86 285.77 153.60 294.38 156.19
  A 0.52 0.52 0.0 0 0 295.03 155.55
  C 293.24 149.16 289.83 144.92 284.91 140.03
  Z
  M 158.19 233.35
  L 169.40 235.84
  A 0.76 0.76 0.0 0 0 170.29 234.86
  C 169.62 232.80 170.00 230.74 170.00 229.00
  Q 170.01 211.33 169.99 194.08
  A 1.61 1.60 86.0 0 0 168.16 192.49
  C 154.82 194.37 146.50 178.03 155.24 168.19
  Q 160.09 162.75 166.28 162.20
  Q 166.73 162.17 166.73 161.72
  L 166.79 134.99
  Q 166.80 133.17 165.29 134.20
  Q 161.97 136.47 158.02 140.04
  C 128.07 167.04 110.36 204.59 108.72 244.68
  Q 108.68 245.62 109.48 245.14
  L 110.10 244.78
  A 0.34 0.32 79.0 0 0 110.25 244.54
  Q 111.32 233.43 114.09 222.64
  A 1.47 1.47 0.0 0 1 116.71 222.15
  Q 117.53 223.28 117.80 225.29
  Q 118.83 232.97 120.45 240.61
  C 121.04 243.39 122.08 244.70 125.03 244.53
  A 0.73 0.72 81.8 0 1 125.77 245.09
  L 126.16 246.70
  Q 126.36 247.56 125.49 247.69
  L 122.82 248.08
  A 0.49 0.49 0.0 0 0 122.44 248.77
  L 124.43 253.06
  Q 124.73 253.72 125.45 253.81
  L 131.40 254.61
  A 1.02 1.02 0.0 0 0 132.42 253.08
  Q 129.70 248.50 134.74 246.20
  A 0.38 0.38 0.0 0 0 134.73 245.50
  L 132.32 244.48
  A 0.94 0.94 0.0 0 1 132.73 242.67
  C 138.43 242.94 135.98 229.48 137.63 228.69
  A 0.58 0.57 76.1 0 1 138.45 229.19
  Q 138.67 234.29 139.59 239.43
  C 140.14 242.49 141.79 241.59 143.66 243.02
  Q 144.16 243.40 143.75 243.87
  Q 142.85 244.89 141.49 245.03
  A 1.21 1.21 0.0 0 0 141.13 247.34
  C 148.46 250.57 165.51 246.74 173.36 244.17
  Q 174.52 243.79 173.37 243.38
  C 172.11 242.92 170.23 244.14 168.81 244.25
  C 163.28 244.67 156.12 245.80 150.77 244.44
  Q 149.93 244.23 150.38 243.51
  A 0.95 0.94 17.3 0 1 151.21 243.08
  Q 158.94 243.43 166.76 243.15
  Q 171.24 242.99 174.22 239.67
  A 0.77 0.77 0.0 0 0 173.70 238.39
  Q 165.40 237.87 157.79 234.61
  A 0.67 0.66 62.7 0 1 158.19 233.35
  Z
  M 288.67 163.66
  C 282.14 165.63 289.46 175.51 293.19 170.95
  C 296.76 166.58 293.19 164.08 289.54 162.16
  Q 288.94 161.85 288.99 162.52
  L 289.04 163.11
  Q 289.07 163.53 288.67 163.66
  Z
  M 181.28 177.57
  A 14.37 14.37 0.0 0 0 166.91 163.20
  A 14.37 14.37 0.0 0 0 152.54 177.57
  A 14.37 14.37 0.0 0 0 166.91 191.94
  A 14.37 14.37 0.0 0 0 181.28 177.57
  Z
  M 314.3117 169.9097
  A 8.05 0.77 -8.0 0 0 306.2328 170.2675
  A 8.05 0.77 -8.0 0 0 298.3683 172.1503
  A 8.05 0.77 -8.0 0 0 306.4472 171.7925
  A 8.05 0.77 -8.0 0 0 314.3117 169.9097
  Z
  M 217.26 209.73
  Q 215.61 209.13 214.12 209.87
  Q 213.69 210.08 213.22 210.15
  L 207.20 210.99
  A 0.61 0.61 0.0 0 1 206.70 209.93
  C 210.02 206.87 213.47 204.50 217.01 201.87
  A 1.07 1.07 0.0 0 0 217.19 200.32
  C 213.20 195.64 208.63 189.05 207.99 182.75
  A 1.61 1.60 5.5 0 0 206.86 181.38
  Q 202.23 180.00 197.67 178.03
  C 193.48 176.22 187.61 176.98 183.07 177.01
  A 0.88 0.87 14.4 0 0 182.30 177.46
  C 181.34 179.21 181.56 181.64 181.05 183.03
  Q 178.86 189.02 172.80 191.82
  A 0.97 0.96 -12.6 0 0 172.24 192.69
  L 172.27 235.83
  Q 172.27 236.39 172.83 236.42
  L 178.44 236.79
  Q 179.02 236.82 179.39 236.37
  C 181.76 233.38 185.14 231.80 187.35 229.51
  C 191.60 225.11 194.81 221.28 200.69 218.49
  C 203.31 217.24 204.25 215.75 205.02 213.14
  A 1.00 1.00 0.0 0 1 205.78 212.44
  L 217.24 210.00
  A 0.14 0.14 0.0 0 0 217.26 209.73
  Z
  M 290.89 215.14
  L 288.63 221.46
  Q 288.58 221.62 288.74 221.66
  Q 288.89 221.71 289.06 221.78
  A 0.47 0.46 25.6 0 0 289.65 221.58
  L 291.08 219.00
  A 0.26 0.25 65.5 0 1 291.55 219.18
  L 290.66 223.39
  A 1.00 1.00 0.0 0 0 292.38 224.27
  Q 296.45 219.79 296.42 213.84
  C 296.37 204.36 297.24 194.20 286.44 190.14
  Q 284.27 189.32 282.38 191.17
  Q 282.03 191.52 281.98 192.01
  C 281.76 194.48 282.54 202.80 285.94 204.03
  Q 286.43 204.20 286.57 204.70
  Q 286.84 205.64 287.63 206.25
  A 0.92 0.90 15.2 0 1 287.98 206.85
  L 289.07 215.25
  A 0.40 0.40 0.0 0 0 289.84 215.36
  Q 290.03 214.92 290.51 214.76
  Q 291.10 214.55 290.89 215.14
  Z
  M 239.1472 197.7517
  A 3.31 0.49 -13.6 0 0 235.8148 198.0537
  A 3.31 0.49 -13.6 0 0 232.7128 199.3083
  A 3.31 0.49 -13.6 0 0 236.0452 199.0063
  A 3.31 0.49 -13.6 0 0 239.1472 197.7517
  Z
  M 251.41 198.23
  Q 251.54 198.28 251.68 198.19
  A 0.28 0.28 0.0 0 0 251.51 197.68
  Q 246.82 198.12 242.21 199.77
  C 240.42 200.41 238.23 200.10 236.61 201.09
  Q 235.84 201.56 236.74 201.49
  Q 244.21 200.87 251.16 198.24
  Q 251.28 198.19 251.41 198.23
  Z
  M 264.50 202.51
  C 262.52 202.80 260.98 204.60 259.77 205.39
  Q 253.95 209.21 248.42 212.83
  A 0.42 0.42 0.0 0 0 248.81 213.57
  C 252.66 211.96 255.76 208.92 258.46 207.24
  Q 261.23 205.50 263.90 203.64
  Q 264.93 202.92 264.50 202.51
  Q 267.17 201.67 268.50 199.20
  Q 268.54 199.13 268.52 199.05
  Q 268.46 198.88 268.41 198.72
  A 0.12 0.11 -36.1 0 0 268.21 198.69
  Q 267.03 200.34 264.81 201.54
  Q 264.36 201.79 264.50 202.51
  Z
  M 250.5109 200.4613
  A 4.77 0.54 -15.3 0 0 245.7675 201.1991
  A 4.77 0.54 -15.3 0 0 241.3091 202.9787
  A 4.77 0.54 -15.3 0 0 246.0525 202.2409
  A 4.77 0.54 -15.3 0 0 250.5109 200.4613
  Z
  M 260.75 200.44
  C 253.20 206.64 244.48 210.75 236.09 215.85
  Q 235.66 216.10 235.98 216.48
  Q 236.12 216.65 236.34 216.71
  Q 236.64 216.79 237.10 216.57
  Q 241.75 214.30 246.01 211.41
  C 250.30 208.49 255.37 206.47 259.53 202.79
  Q 259.86 202.50 260.71 202.09
  Q 261.50 201.71 261.62 200.93
  A 0.54 0.54 0.0 0 0 260.75 200.44
  Z
  M 263.15 207.00
  C 266.75 206.29 268.72 203.42 271.10 201.02
  Q 271.44 200.68 270.98 200.53
  Q 270.64 200.42 270.26 200.77
  Q 268.28 202.54 266.46 204.47
  A 1.58 1.54 -81.3 0 1 266.05 204.78
  L 262.92 206.31
  A 0.37 0.37 0.0 0 0 263.15 207.00
  Z
  M 235.2443 201.6345
  A 0.78 0.50 -11.5 0 0 234.3803 201.3000
  A 0.78 0.50 -11.5 0 0 233.7157 201.9455
  A 0.78 0.50 -11.5 0 0 234.5797 202.2800
  A 0.78 0.50 -11.5 0 0 235.2443 201.6345
  Z
  M 230.73 202.37
  A 0.37 0.37 0.0 0 0 230.33 202.82
  Q 230.50 203.51 231.17 203.44
  Q 231.83 203.38 232.03 202.93
  Q 232.21 202.55 231.79 202.50
  L 230.73 202.37
  Z
  M 248.55 206.57
  L 253.22 203.99
  A 0.01 0.01 0.0 0 0 253.23 203.98
  L 253.12 203.78
  A 0.75 0.29 61.1 0 0 252.51 203.27
  L 248.32 205.58
  A 0.75 0.29 61.1 0 0 248.43 206.37
  L 248.54 206.57
  A 0.01 0.01 0.0 0 0 248.55 206.57
  Z
  M 239.9591 203.8234
  A 3.04 0.76 -14.8 0 0 236.8259 203.8652
  A 3.04 0.76 -14.8 0 0 234.0809 205.3766
  A 3.04 0.76 -14.8 0 0 237.2141 205.3348
  A 3.04 0.76 -14.8 0 0 239.9591 203.8234
  Z
  M 233.31 213.24
  C 230.39 214.43 226.89 215.61 224.17 217.14
  Q 223.44 217.56 222.77 217.32
  A 0.51 0.51 0.0 0 0 222.19 218.11
  Q 222.40 218.38 222.94 218.18
  Q 225.40 217.24 227.98 216.65
  C 230.77 216.01 232.28 214.39 234.92 213.44
  C 239.22 211.91 243.28 209.20 247.31 206.92
  A 0.37 0.36 34.4 0 0 247.18 206.24
  Q 246.84 206.19 246.38 206.44
  Q 240.18 209.90 233.66 212.68
  Q 233.60 212.71 233.57 212.78
  Q 233.53 212.92 233.48 213.06
  Q 233.44 213.19 233.31 213.24
  Z
  M 227.3121 209.3664
  A 0.27 0.27 0.0 0 0 226.9756 209.1860
  L 214.5496 212.9376
  A 0.27 0.27 0.0 0 0 214.3692 213.2741
  L 214.5079 213.7336
  A 0.27 0.27 0.0 0 0 214.8444 213.9140
  L 227.2704 210.1624
  A 0.27 0.27 0.0 0 0 227.4508 209.8259
  L 227.3121 209.3664
  Z
  M 234.2227 209.9159
  A 0.26 0.26 0.0 0 0 233.8931 209.7530
  L 212.7135 216.9219
  A 0.26 0.26 0.0 0 0 212.5506 217.2515
  L 212.7173 217.7441
  A 0.26 0.26 0.0 0 0 213.0469 217.9070
  L 234.2265 210.7381
  A 0.26 0.26 0.0 0 0 234.3894 210.4085
  L 234.2227 209.9159
  Z
  M 268.0844 210.4897
  A 1.20 0.43 -14.0 0 0 266.8160 210.3628
  A 1.20 0.43 -14.0 0 0 265.7556 211.0703
  A 1.20 0.43 -14.0 0 0 267.0240 211.1972
  A 1.20 0.43 -14.0 0 0 268.0844 210.4897
  Z
  M 272.31 212.70
  Q 273.27 212.04 273.00 210.81
  Q 272.74 209.66 272.33 210.76
  L 271.76 212.27
  A 0.37 0.36 -6.8 0 0 272.31 212.70
  Z
  M 247.1385 222.1920
  A 0.26 0.26 0.0 0 0 247.1014 221.8262
  L 246.8379 221.6113
  A 0.26 0.26 0.0 0 0 246.4721 221.6484
  L 241.9215 227.2280
  A 0.26 0.26 0.0 0 0 241.9586 227.5938
  L 242.2221 227.8087
  A 0.26 0.26 0.0 0 0 242.5879 227.7716
  L 247.1385 222.1920
  Z
  M 238.21 224.42
  Q 239.88 223.59 240.54 221.89
  A 0.26 0.26 0.0 0 0 240.12 221.60
  L 237.78 223.80
  A 0.38 0.38 0.0 0 0 238.21 224.42
  Z
  M 236.51 243.97
  C 239.69 242.53 241.97 238.90 244.38 236.59
  Q 250.98 230.24 256.14 222.67
  A 0.36 0.35 48.9 0 0 256.16 222.29
  L 255.96 221.96
  A 0.29 0.29 0.0 0 0 255.47 221.94
  Q 247.02 233.78 236.29 243.62
  Q 235.32 244.51 236.51 243.97
  Z
  M 233.2129 222.3107
  A 3.87 0.54 -41.4 0 0 229.9529 224.4649
  A 3.87 0.54 -41.4 0 0 227.4071 227.4293
  A 3.87 0.54 -41.4 0 0 230.6671 225.2751
  A 3.87 0.54 -41.4 0 0 233.2129 222.3107
  Z
  M 242.36 228.54
  L 241.81 227.87
  A 0.22 0.22 0.0 0 0 241.50 227.84
  L 241.43 227.90
  A 5.00 0.52 -39.1 0 0 237.87 231.46
  L 238.04 231.66
  A 5.00 0.52 -39.1 0 0 242.25 228.91
  L 242.32 228.85
  A 0.22 0.22 0.0 0 0 242.36 228.54
  Z
  M 214.01 236.33
  Q 204.10 242.81 201.20 243.91
  Q 196.03 245.88 190.91 247.99
  C 190.10 248.33 188.93 248.37 188.14 248.81
  Q 187.21 249.33 188.28 249.24
  C 193.50 248.80 200.29 245.34 205.04 243.03
  C 208.36 241.41 211.52 238.67 215.12 236.79
  L 220.50 232.15
  A 0.32 0.32 0.0 0 0 220.10 231.66
  L 214.01 236.33
  Z
  M 237.2565 232.8531
  A 0.38 0.38 0.0 0 0 237.2537 232.3157
  L 237.2252 232.2875
  A 0.38 0.38 0.0 0 0 236.6878 232.2904
  L 227.9235 241.1469
  A 0.38 0.38 0.0 0 0 227.9263 241.6843
  L 227.9548 241.7125
  A 0.38 0.38 0.0 0 0 228.4922 241.7096
  L 237.2565 232.8531
  Z
  M 193.2155 234.4343
  A 3.80 0.54 -14.1 0 0 189.3984 234.8363
  A 3.80 0.54 -14.1 0 0 185.8445 236.2857
  A 3.80 0.54 -14.1 0 0 189.6616 235.8837
  A 3.80 0.54 -14.1 0 0 193.2155 234.4343
  Z
  M 225.1751 235.4475
  A 0.27 0.27 0.0 0 0 224.7943 235.4189
  L 218.1379 241.1443
  A 0.27 0.27 0.0 0 0 218.1093 241.5251
  L 218.3049 241.7525
  A 0.27 0.27 0.0 0 0 218.6857 241.7811
  L 225.3421 236.0557
  A 0.27 0.27 0.0 0 0 225.3707 235.6749
  L 225.1751 235.4475
  Z
  M 199.86 237.74
  Q 197.70 237.40 192.55 240.73
  Q 192.13 241.00 192.57 241.24
  Q 192.94 241.44 193.49 241.20
  Q 198.22 239.15 202.91 236.96
  A 0.31 0.31 0.0 0 0 202.87 236.39
  Q 201.67 236.00 201.17 237.05
  A 1.24 1.23 -72.5 0 1 199.86 237.74
  Z
  M 212.56 245.25
  Q 212.85 245.20 212.72 244.72
  A 0.35 0.35 0.0 0 0 212.14 244.56
  C 210.84 245.87 208.93 246.34 207.55 247.41
  C 204.82 249.52 201.39 250.58 198.28 252.06
  A 0.15 0.14 24.8 0 0 198.38 252.33
  Q 206.07 250.39 212.32 245.35
  Q 212.42 245.27 212.56 245.25
  Z
  M 116.37 248.44
  A 0.84 0.84 0.0 0 0 115.53 247.60
  A 0.84 0.84 0.0 0 0 114.69 248.44
  A 0.84 0.84 0.0 0 0 115.53 249.28
  A 0.84 0.84 0.0 0 0 116.37 248.44
  Z
  M 386.2784 248.5661
  A 1.13 0.89 -15.6 0 0 384.9507 248.0128
  A 1.13 0.89 -15.6 0 0 384.1016 249.1739
  A 1.13 0.89 -15.6 0 0 385.4293 249.7272
  A 1.13 0.89 -15.6 0 0 386.2784 248.5661
  Z
  M 158.96 250.47
  L 142.18 251.58
  A 1.02 1.01 -41.6 0 0 142.06 253.59
  C 146.68 254.44 155.14 252.12 159.00 250.70
  Q 159.77 250.42 158.96 250.47
  Z
  M 356.6679 253.3554
  A 1.33 0.56 115.0 0 0 357.7375 252.3867
  A 1.33 0.56 115.0 0 0 357.7921 250.9446
  A 1.33 0.56 115.0 0 0 356.7225 251.9133
  A 1.33 0.56 115.0 0 0 356.6679 253.3554
  Z
  M 146.17 267.22
  C 153.51 264.90 160.65 260.24 168.18 255.68
  Q 168.98 255.20 169.24 254.43
  Q 169.48 253.75 168.83 254.07
  Q 156.74 259.98 143.84 263.75
  Q 143.44 263.87 143.47 264.29
  Q 143.61 266.05 145.06 267.05
  A 1.28 1.25 53.0 0 0 146.17 267.22
  Z
  M 377.53 267.11
  L 381.64 257.42
  A 0.75 0.75 0.0 0 0 381.25 256.44
  L 381.24 256.43
  A 4.92 4.58 -67.0 0 0 375.10 259.17
  L 374.25 261.18
  A 4.92 4.58 -67.0 0 0 376.54 267.50
  L 376.55 267.50
  A 0.75 0.75 0.0 0 0 377.53 267.11
  Z
  M 211.18 274.89
  L 213.22 273.09
  A 0.75 0.75 0.0 0 0 212.63 271.79
  L 207.20 272.45
  Q 206.16 272.58 206.88 271.82
  L 208.80 269.79
  A 0.66 0.66 0.0 0 0 208.22 268.68
  L 203.20 269.44
  Q 202.17 269.59 202.88 268.83
  L 204.59 267.00
  A 0.55 0.54 19.4 0 0 204.15 266.09
  L 198.94 266.46
  A 0.41 0.41 0.0 0 1 198.62 265.76
  L 200.61 263.77
  A 0.60 0.60 0.0 0 0 200.17 262.75
  L 193.75 262.98
  A 0.46 0.45 13.1 0 1 193.33 262.31
  Q 194.11 260.84 195.38 259.77
  Q 195.50 259.67 195.50 259.50
  Q 195.50 259.37 195.50 259.23
  A 0.10 0.10 0.0 0 0 195.37 259.13
  L 187.53 261.64
  A 0.56 0.47 -73.2 0 0 187.30 261.79
  C 181.70 268.37 173.10 277.24 163.51 276.75
  A 0.45 0.45 0.0 0 1 163.20 276.00
  L 172.60 265.34
  A 0.44 0.44 0.0 0 0 171.98 264.71
  C 165.74 270.16 153.35 279.07 144.54 277.24
  A 0.75 0.75 0.0 0 0 143.82 278.47
  Q 149.28 284.81 157.66 286.97
  Q 159.04 287.33 158.96 288.58
  A 1.35 1.34 -88.6 0 1 157.66 289.83
  L 147.74 290.07
  A 0.73 0.73 0.0 0 0 147.15 291.20
  Q 149.53 294.80 153.46 297.28
  C 155.99 298.88 160.65 300.96 161.90 303.75
  A 0.73 0.72 79.4 0 1 161.21 304.77
  Q 158.76 304.66 157.35 306.55
  A 0.65 0.65 0.0 0 1 156.92 306.81
  L 153.83 307.38
  A 0.55 0.55 0.0 0 0 153.51 308.27
  C 156.51 311.86 160.14 314.71 165.09 314.90
  Q 177.17 315.35 189.25 315.23
  Q 190.98 315.21 192.26 314.00
  C 200.72 306.00 213.02 300.35 223.34 295.02
  C 225.82 293.74 227.20 292.41 228.46 290.10
  Q 229.29 288.59 227.73 287.84
  Q 220.27 284.26 212.20 282.37
  A 1.75 1.75 0.0 0 1 211.55 279.27
  L 215.60 276.21
  A 0.71 0.71 0.0 0 0 215.05 274.94
  L 211.48 275.54
  A 0.37 0.37 0.0 0 1 211.18 274.89
  Z
  M 135.67 265.05
  L 134.66 264.66
  Q 134.15 264.47 133.61 264.50
  Q 127.51 264.81 121.89 262.39
  A 0.73 0.73 0.0 0 0 120.93 263.33
  L 122.96 268.44
  A 2.17 2.16 70.6 0 0 125.60 269.71
  Q 130.78 268.11 135.16 266.13
  Q 135.74 265.87 135.77 265.21
  A 0.16 0.15 -77.8 0 0 135.67 265.05
  Z
  M 173.08 263.93
  Q 172.90 264.48 173.45 264.29
  Q 174.19 264.05 174.50 263.25
  Q 174.74 262.63 174.12 262.86
  Q 173.33 263.16 173.08 263.93
  Z
  M 98.64 287.58
  C 101.52 289.93 105.28 290.24 108.73 291.14
  Q 109.51 291.35 109.39 290.54
  L 108.44 284.36
  A 0.85 0.85 0.0 0 0 107.72 283.64
  Q 97.10 282.05 97.94 271.59
  C 98.34 266.52 92.28 265.77 88.62 266.38
  Q 88.07 266.47 88.04 267.02
  Q 87.95 268.45 89.05 269.44
  Q 89.38 269.74 89.48 270.17
  C 91.36 278.20 92.62 282.69 98.64 287.58
  Z
  M 370.19 267.96
  L 368.38 268.05
  A 0.65 0.65 0.0 0 0 367.76 268.73
  L 367.77 268.89
  A 2.17 1.42 87.1 0 0 369.30 270.99
  L 369.58 270.97
  A 2.17 1.42 87.1 0 0 370.88 268.73
  L 370.88 268.57
  A 0.65 0.65 0.0 0 0 370.19 267.96
  Z
  M 372.74 272.99
  L 376.42 268.51
  A 0.16 0.16 0.0 0 0 376.40 268.29
  L 376.36 268.25
  A 2.92 2.12 -50.6 0 0 372.86 269.16
  L 372.69 269.38
  A 2.92 2.12 -50.6 0 0 372.47 272.98
  L 372.52 273.02
  A 0.16 0.16 0.0 0 0 372.74 272.99
  Z
  M 297.43 274.67
  L 298.08 274.33
  Q 298.70 273.99 298.02 273.78
  Q 297.64 273.66 297.21 273.71
  Q 296.96 273.75 296.80 273.92
  Q 296.41 274.36 296.97 274.67
  A 0.50 0.50 0.0 0 0 297.43 274.67
  Z
  M 125.02 276.61
  C 126.51 281.80 131.44 279.46 133.27 276.39
  A 0.73 0.73 0.0 0 0 132.56 275.29
  L 125.38 276.07
  A 0.43 0.42 -11.5 0 0 125.02 276.61
  Z
  M 379.3100 277.7187
  A 1.47 1.27 106.6 0 0 380.9471 276.6728
  A 1.47 1.27 106.6 0 0 380.1500 274.9013
  A 1.47 1.27 106.6 0 0 378.5129 275.9472
  A 1.47 1.27 106.6 0 0 379.3100 277.7187
  Z
  M 217.55 280.67
  Q 229.29 285.15 241.51 287.99
  Q 242.00 288.11 242.46 287.95
  Q 249.30 285.59 255.98 282.88
  Q 257.30 282.34 256.95 281.25
  A 0.81 0.80 -6.3 0 0 256.24 280.69
  Q 245.25 279.91 234.42 279.71
  C 232.26 279.67 230.19 280.62 227.80 280.50
  Q 227.28 280.48 226.94 280.08
  Q 225.87 278.84 226.44 277.35
  Q 226.64 276.81 226.11 276.58
  Q 219.87 273.86 217.28 280.04
  A 0.48 0.48 0.0 0 0 217.55 280.67
  Z
  M 374.14 278.89
  L 370.11 276.60
  A 0.86 0.86 0.0 0 0 368.86 277.57
  Q 369.69 280.77 371.80 283.41
  Q 372.29 284.02 372.69 283.34
  L 374.51 280.25
  A 0.99 0.98 30.1 0 0 374.14 278.89
  Z
  M 311.16 283.30
  Q 311.20 283.31 311.25 283.34
  Q 311.25 283.34 311.27 283.57
  L 313.81 314.15
  Q 313.86 314.75 314.46 314.75
  L 320.87 314.75
  A 0.91 0.90 -75.3 0 0 321.66 314.28
  L 326.74 305.04
  A 0.64 0.64 0.0 0 0 325.86 304.17
  Q 323.22 305.68 321.13 303.57
  Q 320.68 303.11 321.06 302.60
  L 322.97 300.01
  A 0.49 0.49 0.0 0 0 322.91 299.36
  L 321.87 298.37
  A 0.50 0.50 0.0 0 1 321.91 297.61
  L 327.85 292.90
  A 1.13 1.12 -71.0 0 0 326.89 290.92
  Q 325.16 291.34 323.82 290.36
  A 1.36 1.36 0.0 0 1 324.16 287.98
  L 327.90 286.63
  Q 328.56 286.39 328.60 285.70
  L 328.80 282.63
  Q 328.84 281.94 328.18 281.78
  C 321.76 280.28 315.68 277.20 309.00 277.46
  Q 304.95 277.62 293.49 279.18
  C 287.93 279.94 280.67 290.77 276.33 294.11
  Q 268.15 300.41 257.46 300.43
  C 255.68 300.44 253.21 301.21 252.07 302.07
  Q 243.45 308.59 234.87 315.13
  Q 230.22 318.68 224.68 318.75
  A 0.97 0.97 0.0 0 0 223.72 319.72
  L 223.85 343.53
  Q 223.86 344.00 224.32 344.02
  C 232.89 344.41 235.54 340.73 241.82 335.89
  C 244.83 333.57 245.53 331.21 246.24 327.75
  Q 247.57 321.27 249.67 314.12
  A 1.26 1.25 -55.8 0 1 251.86 313.70
  C 254.01 316.43 254.10 321.30 255.00 324.65
  Q 255.15 325.21 255.69 325.02
  Q 259.29 323.78 263.11 323.76
  C 273.93 323.70 278.67 312.53 289.26 314.88
  A 1.08 1.08 0.0 0 0 290.50 314.23
  L 293.47 306.76
  A 0.61 0.61 0.0 0 1 294.60 306.76
  L 297.18 313.15
  A 2.78 2.78 0.0 0 0 299.81 314.88
  L 308.46 314.69
  A 0.74 0.74 0.0 0 0 309.19 313.99
  L 311.00 283.50
  Q 311.02 283.28 311.16 283.30
  Z
  M 267.41 289.36
  Q 265.70 288.84 264.04 289.57
  A 0.54 0.53 -18.1 0 1 263.30 289.20
  Q 263.09 288.17 263.91 287.49
  A 0.72 0.72 0.0 0 0 263.21 286.26
  L 243.67 293.22
  Q 243.03 293.45 243.02 294.13
  L 242.99 296.75
  A 2.72 2.72 0.0 0 1 239.80 299.40
  Q 237.26 298.95 234.72 299.63
  A 0.51 0.51 0.0 0 1 234.27 298.74
  Q 235.23 297.96 235.62 296.90
  A 0.74 0.74 0.0 0 0 234.60 295.98
  Q 228.22 299.20 222.00 302.46
  C 214.06 306.60 218.50 317.46 226.81 316.19
  Q 229.19 315.83 232.81 313.35
  Q 241.51 307.36 249.91 300.96
  C 255.63 296.59 261.23 298.84 266.79 296.74
  C 275.66 293.39 279.31 287.72 285.65 281.48
  A 0.49 0.49 0.0 0 0 285.20 280.66
  L 271.59 283.74
  A 1.00 0.99 -86.7 0 0 270.86 284.40
  C 270.20 286.47 270.59 288.12 268.39 289.27
  Q 267.92 289.52 267.41 289.36
  Z
  M 382.7445 285.7162
  A 1.85 1.58 97.0 0 0 384.5382 284.0726
  A 1.85 1.58 97.0 0 0 383.1955 282.0438
  A 1.85 1.58 97.0 0 0 381.4018 283.6874
  A 1.85 1.58 97.0 0 0 382.7445 285.7162
  Z
  M 135.3362 286.9660
  A 0.91 0.76 74.3 0 0 135.8216 285.8843
  A 0.91 0.76 74.3 0 0 134.8438 285.2140
  A 0.91 0.76 74.3 0 0 134.3584 286.2957
  A 0.91 0.76 74.3 0 0 135.3362 286.9660
  Z
  M 122.6653 289.4763
  A 0.85 0.75 37.4 0 0 122.4455 288.3642
  A 0.85 0.75 37.4 0 0 121.3147 288.4437
  A 0.85 0.75 37.4 0 0 121.5345 289.5558
  A 0.85 0.75 37.4 0 0 122.6653 289.4763
  Z
  M 334.43 295.56
  L 332.57 294.94
  A 0.53 0.52 -5.9 0 0 331.95 295.70
  C 334.08 299.39 340.05 303.03 344.08 300.57
  Q 348.57 297.83 352.07 293.16
  A 0.32 0.32 0.0 0 0 351.82 292.65
  L 345.01 292.61
  Q 344.34 292.61 344.10 291.99
  Q 343.78 291.20 343.04 290.72
  Q 342.59 290.43 342.06 290.52
  Q 337.89 291.21 333.68 290.70
  A 0.97 0.97 0.0 0 0 332.88 292.36
  L 335.08 294.48
  A 0.65 0.65 0.0 0 1 334.43 295.56
  Z
  M 375.44 294.56
  Q 375.52 295.09 376.01 295.18
  Q 376.62 295.30 376.81 294.49
  A 0.61 0.61 0.0 0 0 376.43 293.77
  Q 375.90 293.57 375.45 293.93
  Q 375.28 294.06 375.26 294.21
  Q 375.23 294.44 375.44 294.56
  Z
  M 239.3667 298.3425
  A 1.93 0.87 110.1 0 0 240.8470 296.8290
  A 1.93 0.87 110.1 0 0 240.6933 294.7175
  A 1.93 0.87 110.1 0 0 239.2130 296.2310
  A 1.93 0.87 110.1 0 0 239.3667 298.3425
  Z
  M 119.56 296.84
  Q 119.54 295.90 118.92 295.79
  A 1.11 1.11 0.0 0 0 118.25 297.88
  Q 119.16 298.32 119.20 298.24
  A 2.64 2.63 -30.8 0 0 119.56 296.84
  Z
  M 141.59 299.50
  A 1.29 1.29 0.0 0 0 140.30 298.21
  A 1.29 1.29 0.0 0 0 139.01 299.50
  A 1.29 1.29 0.0 0 0 140.30 300.79
  A 1.29 1.29 0.0 0 0 141.59 299.50
  Z
  M 155.25 301.89
  L 149.65 299.42
  A 0.15 0.15 0.0 0 0 149.45 299.49
  L 149.45 299.51
  A 3.06 1.77 23.8 0 0 151.53 302.37
  L 151.81 302.49
  A 3.06 1.77 23.8 0 0 155.32 302.10
  L 155.33 302.09
  A 0.15 0.15 0.0 0 0 155.25 301.89
  Z
  M 346.41 304.29
  C 349.10 304.01 354.61 305.05 355.40 301.75
  A 0.64 0.64 0.0 0 0 355.04 301.02
  L 351.79 299.55
  A 0.96 0.96 0.0 0 0 350.80 299.67
  L 346.05 303.39
  A 0.50 0.50 0.0 0 0 346.41 304.29
  Z
  M 379.81 301.93
  A 1.68 1.68 0.0 0 0 378.13 300.25
  A 1.68 1.68 0.0 0 0 376.45 301.93
  A 1.68 1.68 0.0 0 0 378.13 303.61
  A 1.68 1.68 0.0 0 0 379.81 301.93
  Z
  M 364.15 303.12
  A 1.67 1.67 0.0 0 0 362.48 301.45
  A 1.67 1.67 0.0 0 0 360.81 303.12
  A 1.67 1.67 0.0 0 0 362.48 304.79
  A 1.67 1.67 0.0 0 0 364.15 303.12
  Z
  M 335.91 311.92
  Q 341.22 311.84 346.48 311.69
  C 347.72 311.65 348.90 311.16 349.36 310.04
  A 1.21 1.21 0.0 0 0 347.98 308.39
  Q 343.70 309.37 340.85 306.39
  A 1.30 1.27 68.7 0 0 339.98 306.00
  Q 335.57 305.83 332.45 302.82
  A 0.46 0.46 0.0 0 0 331.68 303.25
  Q 332.58 307.61 334.96 311.40
  A 1.10 1.09 73.5 0 0 335.91 311.92
  Z
  M 206.17 334.04
  Q 211.54 340.95 220.81 344.00
  A 1.26 1.26 0.0 0 0 222.46 342.80
  L 222.33 319.14
  Q 222.32 318.57 221.81 318.32
  Q 215.38 315.26 214.97 308.01
  Q 214.94 307.58 215.06 307.16
  L 215.76 304.75
  A 0.50 0.50 0.0 0 0 215.09 304.15
  Q 202.00 309.69 191.67 319.39
  A 0.67 0.66 -52.1 0 0 191.80 320.46
  C 196.84 323.27 202.43 329.21 206.17 334.04
  Z
  M 143.5751 309.5808
  A 1.14 0.80 97.3 0 0 144.5135 308.5517
  A 1.14 0.80 97.3 0 0 143.8649 307.3192
  A 1.14 0.80 97.3 0 0 142.9265 308.3483
  A 1.14 0.80 97.3 0 0 143.5751 309.5808
  Z
  M 255.56 327.28
  L 255.56 330.19
  A 0.64 0.64 0.0 0 0 256.46 330.78
  L 258.85 329.75
  Q 259.28 329.57 259.74 329.54
  C 269.37 329.03 273.65 327.06 280.63 320.59
  C 282.92 318.47 285.05 318.01 288.00 318.28
  A 0.66 0.65 -74.0 0 0 288.64 317.92
  L 288.99 317.20
  A 0.80 0.80 0.0 0 0 288.37 316.06
  C 279.73 314.95 275.50 321.99 267.76 324.40
  C 264.35 325.46 260.09 324.74 256.18 326.35
  Q 255.56 326.60 255.56 327.28
  Z
  M 302.23 317.78
  Q 305.24 318.41 308.33 317.83
  Q 308.43 317.81 308.44 317.59
  A 0.14 0.14 0.0 0 0 308.28 317.44
  Q 303.74 317.85 299.50 316.27
  A 0.41 0.41 0.0 0 0 299.05 316.93
  Q 299.96 317.97 301.34 317.76
  Q 301.78 317.69 302.23 317.78
  Z
  M 147.67 318.01
  Q 147.99 318.19 148.20 317.78
  A 0.27 0.27 0.0 0 0 147.94 317.38
  L 146.04 317.54
  A 0.23 0.23 0.0 0 0 146.05 318.00
  Q 146.63 318.04 147.22 317.94
  Q 147.46 317.89 147.67 318.01
  Z
  M 316.81 317.51
  Q 316.56 317.42 316.24 317.60
  A 0.21 0.21 0.0 0 0 316.34 317.99
  L 320.00 318.01
  A 0.25 0.24 -43.0 0 0 320.02 317.52
  Q 318.59 317.44 317.16 317.56
  Q 316.98 317.58 316.81 317.51
  Z
  M 340.87 322.56
  C 342.26 323.59 343.32 324.74 344.81 325.56
  A 0.71 0.70 -53.3 0 0 345.66 325.43
  L 349.37 321.60
  A 0.75 0.75 0.0 0 0 348.87 320.33
  L 340.47 320.02
  A 0.78 0.78 0.0 0 0 339.70 321.07
  Q 340.01 321.92 340.87 322.56
  Z
  M 142.82 324.97
  A 1.41 1.41 0.0 0 0 141.41 323.56
  A 1.41 1.41 0.0 0 0 140.00 324.97
  A 1.41 1.41 0.0 0 0 141.41 326.38
  A 1.41 1.41 0.0 0 0 142.82 324.97
  Z
  M 361.6896 326.8999
  A 0.97 0.79 75.7 0 0 362.2155 325.7649
  A 0.97 0.79 75.7 0 0 361.2104 325.0201
  A 0.97 0.79 75.7 0 0 360.6845 326.1551
  A 0.97 0.79 75.7 0 0 361.6896 326.8999
  Z
  M 338.29 326.95
  L 338.21 329.43
  A 0.25 0.25 0.0 0 0 338.45 329.69
  L 338.80 329.70
  A 2.90 1.33 1.9 0 0 341.74 328.47
  L 341.75 328.15
  A 2.90 1.33 1.9 0 0 338.90 326.72
  L 338.55 326.71
  A 0.25 0.25 0.0 0 0 338.29 326.95
  Z
  M 325.75 328.50
  Q 325.75 328.84 326.22 328.72
  A 0.44 0.44 0.0 0 0 326.51 328.12
  L 326.28 327.63
  A 0.52 0.52 0.0 0 0 325.31 327.68
  Q 325.12 328.25 325.50 328.25
  Q 325.75 328.25 325.75 328.50
  Z
  M 251.88 333.17
  Q 252.06 332.46 251.33 332.50
  L 250.74 332.53
  A 0.59 0.59 0.0 0 0 250.54 333.67
  Q 251.65 334.11 251.88 333.17
  Z
  M 350.21 335.83
  A 0.88 0.88 0.0 0 0 349.62 334.23
  L 343.95 334.72
  A 0.88 0.88 0.0 0 0 343.29 336.09
  L 344.89 338.48
  A 0.88 0.88 0.0 0 0 346.13 338.71
  L 350.21 335.83
  Z
  M 323.26 345.83
  L 322.50 343.69
  A 0.78 0.78 0.0 0 0 321.50 343.21
  L 321.42 343.24
  A 8.49 1.83 -19.6 0 0 314.03 347.82
  L 314.09 347.98
  A 8.49 1.83 -19.6 0 0 322.70 346.86
  L 322.79 346.83
  A 0.78 0.78 0.0 0 0 323.26 345.83
  Z
  M 332.94 344.94
  A 1.16 1.16 0.0 0 0 331.78 343.78
  A 1.16 1.16 0.0 0 0 330.62 344.94
  A 1.16 1.16 0.0 0 0 331.78 346.10
  A 1.16 1.16 0.0 0 0 332.94 344.94
  Z
  M 350.1240 347.1925
  A 0.99 0.86 119.4 0 0 351.3592 346.7522
  A 0.99 0.86 119.4 0 0 351.0960 345.4675
  A 0.99 0.86 119.4 0 0 349.8608 345.9078
  A 0.99 0.86 119.4 0 0 350.1240 347.1925
  Z
  M 345.2959 348.4135
  A 1.03 0.86 110.7 0 0 346.4645 347.7540
  A 1.03 0.86 110.7 0 0 346.0241 346.4865
  A 1.03 0.86 110.7 0 0 344.8555 347.1460
  A 1.03 0.86 110.7 0 0 345.2959 348.4135
  Z
  M 335.25 353.19
  Q 335.26 353.39 335.25 353.60
  A 0.52 0.52 0.0 0 0 336.10 354.02
  Q 336.96 353.30 336.06 352.72
  A 0.53 0.52 -74.9 0 0 335.25 353.19
  Z
  M 252.4980 361.5366
  A 1.23 1.00 133.2 0 0 254.0690 361.3245
  A 1.23 1.00 133.2 0 0 254.1820 359.7434
  A 1.23 1.00 133.2 0 0 252.6110 359.9555
  A 1.23 1.00 133.2 0 0 252.4980 361.5366
  Z
  M 244.27 360.92
  L 238.18 364.56
  A 0.17 0.17 0.0 0 0 238.12 364.80
  L 238.14 364.83
  A 3.54 2.03 -30.9 0 0 242.22 364.75
  L 242.53 364.57
  A 3.54 2.03 -30.9 0 0 244.52 361.01
  L 244.50 360.97
  A 0.17 0.17 0.0 0 0 244.27 360.92
  Z
  M 251.5360 369.8698
  A 1.25 0.79 -4.6 0 0 250.2266 369.1825
  A 1.25 0.79 -4.6 0 0 249.0440 370.0702
  A 1.25 0.79 -4.6 0 0 250.3534 370.7575
  A 1.25 0.79 -4.6 0 0 251.5360 369.8698
  Z"
/>
<circle fill="#3a425a" cx="228.83" cy="111.86" r="1.18"/>
<circle fill="#1c202f" cx="406.34" cy="139.90" r="3.05"/>
<circle fill="#000000" cx="96.07" cy="141.14" r="1.36"/>
<circle fill="#1c202f" cx="193.98" cy="143.69" r="2.94"/>
<rect fill="#1c202f" x="-2.06" y="-2.06" transform="translate(252.62,160.96) rotate(44.0)" width="4.12" height="4.12" rx="0.27"/>
<path fill="#3a425a" d="
  M 289.04 163.11
  L 288.99 162.52
  Q 288.94 161.85 289.54 162.16
  C 293.19 164.08 296.76 166.58 293.19 170.95
  C 289.46 175.51 282.14 165.63 288.67 163.66
  Q 289.07 163.53 289.04 163.11
  Z
  M 289.9451 168.0823
  A 1.01 0.84 132.7 0 0 291.2473 167.9097
  A 1.01 0.84 132.7 0 0 291.3149 166.5977
  A 1.01 0.84 132.7 0 0 290.0127 166.7703
  A 1.01 0.84 132.7 0 0 289.9451 168.0823
  Z"
/>
<ellipse fill="#1c202f" cx="0.00" cy="0.00" transform="translate(167.06,177.60) rotate(1.7)" rx="12.91" ry="12.64"/>
<ellipse fill="#0f1311" fill-opacity="0.271" cx="0.00" cy="0.00" transform="translate(290.63,167.34) rotate(132.7)" rx="1.01" ry="0.84"/>
<circle fill="#1c202f" cx="86.48" cy="176.52" r="3.21"/>
<circle fill="#1c202f" cx="225.47" cy="176.55" r="3.27"/>
<path fill="#9da9c2" fill-opacity="0.922" d="
  M 358.24 179.39
  Q 358.18 179.92 358.38 180.06
  Q 347.91 180.71 338.57 179.73
  Q 336.38 179.50 338.58 179.38
  Q 348.92 178.84 358.24 179.39
  Z"
/>
<path fill="#3a425a" d="
  M 290.51 214.76
  Q 290.03 214.92 289.84 215.36
  A 0.40 0.40 0.0 0 1 289.07 215.25
  L 287.98 206.85
  A 0.92 0.90 15.2 0 0 287.63 206.25
  Q 286.84 205.64 286.57 204.70
  Q 286.43 204.20 285.94 204.03
  C 282.54 202.80 281.76 194.48 281.98 192.01
  Q 282.03 191.52 282.38 191.17
  Q 284.27 189.32 286.44 190.14
  C 297.24 194.20 296.37 204.36 296.42 213.84
  Q 296.45 219.79 292.38 224.27
  A 1.00 1.00 0.0 0 1 290.66 223.39
  L 291.55 219.18
  A 0.26 0.25 65.5 0 0 291.08 219.00
  L 289.65 221.58
  A 0.47 0.46 25.6 0 1 289.06 221.78
  Q 288.89 221.71 288.74 221.66
  Q 288.58 221.62 288.63 221.46
  L 290.89 215.14
  Q 291.10 214.55 290.51 214.76
  Z"
/>
<circle fill="#000000" cx="430.37" cy="194.56" r="1.81"/>
<ellipse fill="#0f1311" fill-opacity="0.271" cx="0.00" cy="0.00" transform="translate(235.93,198.53) rotate(-13.6)" rx="3.31" ry="0.49"/>
<path fill="#0f1311" fill-opacity="0.271" d="
  M 251.16 198.24
  Q 244.21 200.87 236.74 201.49
  Q 235.84 201.56 236.61 201.09
  C 238.23 200.10 240.42 200.41 242.21 199.77
  Q 246.82 198.12 251.51 197.68
  A 0.28 0.28 0.0 0 1 251.68 198.19
  Q 251.54 198.28 251.41 198.23
  Q 251.28 198.19 251.16 198.24
  Z"
/>
<path fill="#0f1311" fill-opacity="0.271" d="
  M 264.50 202.51
  Q 264.36 201.79 264.81 201.54
  Q 267.03 200.34 268.21 198.69
  A 0.12 0.11 -36.1 0 1 268.41 198.72
  Q 268.46 198.88 268.52 199.05
  Q 268.54 199.13 268.50 199.20
  Q 267.17 201.67 264.50 202.51
  Z"
/>
<circle fill="#1c202f" cx="153.04" cy="202.27" r="3.15"/>
<ellipse fill="#0f1311" fill-opacity="0.271" cx="0.00" cy="0.00" transform="translate(245.91,201.72) rotate(-15.3)" rx="4.77" ry="0.54"/>
<path fill="#0f1311" fill-opacity="0.271" d="
  M 271.10 201.02
  C 268.72 203.42 266.75 206.29 263.15 207.00
  A 0.37 0.37 0.0 0 1 262.92 206.31
  L 266.05 204.78
  A 1.58 1.54 -81.3 0 0 266.46 204.47
  Q 268.28 202.54 270.26 200.77
  Q 270.64 200.42 270.98 200.53
  Q 271.44 200.68 271.10 201.02
  Z"
/>
<ellipse fill="#0f1311" fill-opacity="0.271" cx="0.00" cy="0.00" transform="translate(234.48,201.79) rotate(-11.5)" rx="0.78" ry="0.50"/>
<path fill="#0f1311" fill-opacity="0.271" d="
  M 230.73 202.37
  L 231.79 202.50
  Q 232.21 202.55 232.03 202.93
  Q 231.83 203.38 231.17 203.44
  Q 230.50 203.51 230.33 202.82
  A 0.37 0.37 0.0 0 1 230.73 202.37
  Z"
/>
<path fill="#0f1311" fill-opacity="0.271" d="
  M 248.55 206.57
  A 0.01 0.01 0.0 0 1 248.54 206.57
  L 248.43 206.37
  A 0.75 0.29 61.1 0 1 248.32 205.58
  L 252.51 203.27
  A 0.75 0.29 61.1 0 1 253.12 203.78
  L 253.23 203.98
  A 0.01 0.01 0.0 0 1 253.22 203.99
  L 248.55 206.57
  Z"
/>
<ellipse fill="#3a425a" cx="0.00" cy="0.00" transform="translate(237.02,204.60) rotate(-14.8)" rx="3.04" ry="0.76"/>
<path fill="#0f1311" fill-opacity="0.271" d="
  M 233.48 213.06
  Q 233.53 212.92 233.57 212.78
  Q 233.60 212.71 233.66 212.68
  Q 240.18 209.90 246.38 206.44
  Q 246.84 206.19 247.18 206.24
  A 0.37 0.36 34.4 0 1 247.31 206.92
  C 243.28 209.20 239.22 211.91 234.92 213.44
  C 232.28 214.39 230.77 216.01 227.98 216.65
  Q 225.40 217.24 222.94 218.18
  Q 222.40 218.38 222.19 218.11
  A 0.51 0.51 0.0 0 1 222.77 217.32
  Q 223.44 217.56 224.17 217.14
  C 226.89 215.61 230.39 214.43 233.31 213.24
  Q 233.44 213.19 233.48 213.06
  Z"
/>
<rect fill="#0f1311" fill-opacity="0.271" x="-6.76" y="-0.51" transform="translate(220.91,211.55) rotate(-16.8)" width="13.52" height="1.02" rx="0.27"/>
<rect fill="#0f1311" fill-opacity="0.271" x="-11.44" y="-0.52" transform="translate(223.47,213.83) rotate(-18.7)" width="22.88" height="1.04" rx="0.26"/>
<ellipse fill="#0f1311" fill-opacity="0.271" cx="0.00" cy="0.00" transform="translate(266.92,210.78) rotate(-14.0)" rx="1.20" ry="0.43"/>
<path fill="#0f1311" fill-opacity="0.271" d="
  M 272.31 212.70
  A 0.37 0.36 -6.8 0 1 271.76 212.27
  L 272.33 210.76
  Q 272.74 209.66 273.00 210.81
  Q 273.27 212.04 272.31 212.70
  Z"
/>
<rect fill="#0f1311" fill-opacity="0.271" x="-0.43" y="-3.86" transform="translate(244.53,224.71) rotate(39.2)" width="0.86" height="7.72" rx="0.26"/>
<path fill="#3a425a" d="
  M 238.21 224.42
  A 0.38 0.38 0.0 0 1 237.78 223.80
  L 240.12 221.60
  A 0.26 0.26 0.0 0 1 240.54 221.89
  Q 239.88 223.59 238.21 224.42
  Z"
/>
<path fill="#0f1311" fill-opacity="0.271" d="
  M 244.38 236.59
  C 241.97 238.90 239.69 242.53 236.51 243.97
  Q 235.32 244.51 236.29 243.62
  Q 247.02 233.78 255.47 221.94
  A 0.29 0.29 0.0 0 1 255.96 221.96
  L 256.16 222.29
  A 0.36 0.35 48.9 0 1 256.14 222.67
  Q 250.98 230.24 244.38 236.59
  Z"
/>
<ellipse fill="#3a425a" cx="0.00" cy="0.00" transform="translate(230.31,224.87) rotate(-41.4)" rx="3.87" ry="0.54"/>
<path fill="#0f1311" fill-opacity="0.271" d="
  M 242.36 228.54
  A 0.22 0.22 0.0 0 1 242.32 228.85
  L 242.25 228.91
  A 5.00 0.52 -39.1 0 1 238.04 231.66
  L 237.87 231.46
  A 5.00 0.52 -39.1 0 1 241.43 227.90
  L 241.50 227.84
  A 0.22 0.22 0.0 0 1 241.81 227.87
  L 242.36 228.54
  Z"
/>
<path fill="#000000" d="
  M 321.19 231.69
  Q 321.83 230.47 322.98 229.75
  Q 323.29 229.55 323.08 229.86
  L 321.42 232.28
  Q 321.12 232.72 321.00 232.21
  Q 320.91 231.84 321.19 231.69
  Z"
/>
<rect fill="#0f1311" fill-opacity="0.271" x="-0.40" y="-6.61" transform="translate(232.59,237.00) rotate(44.7)" width="0.80" height="13.22" rx="0.38"/>
<path fill="#000000" d="
  M 338.65 260.65
  C 336.41 257.63 337.10 248.13 336.87 244.51
  C 336.56 239.74 333.44 233.60 328.06 233.71
  Q 327.65 233.71 327.52 233.33
  Q 327.47 233.18 327.45 232.94
  A 0.73 0.73 0.0 0 1 328.40 232.17
  C 338.58 235.48 338.79 245.02 338.55 254.05
  Q 338.47 257.27 339.29 260.34
  A 0.36 0.36 0.0 0 1 338.65 260.65
  Z"
/>
<ellipse fill="#0f1311" fill-opacity="0.271" cx="0.00" cy="0.00" transform="translate(189.53,235.36) rotate(-14.1)" rx="3.80" ry="0.54"/>
<rect fill="#0f1311" fill-opacity="0.271" x="-4.66" y="-0.42" transform="translate(221.74,238.60) rotate(-40.7)" width="9.32" height="0.84" rx="0.27"/>
<path fill="#000000" d="
  M 321.57 236.10
  Q 322.23 236.71 322.46 237.61
  Q 322.64 238.28 322.14 237.80
  Q 321.50 237.18 321.31 236.24
  Q 321.21 235.75 321.57 236.10
  Z"
/>
<path fill="#0f1311" fill-opacity="0.271" d="
  M 199.86 237.74
  A 1.24 1.23 -72.5 0 0 201.17 237.05
  Q 201.67 236.00 202.87 236.39
  A 0.31 0.31 0.0 0 1 202.91 236.96
  Q 198.22 239.15 193.49 241.20
  Q 192.94 241.44 192.57 241.24
  Q 192.13 241.00 192.55 240.73
  Q 197.70 237.40 199.86 237.74
  Z"
/>
<path fill="#0f1311" fill-opacity="0.271" d="
  M 214.01 236.33
  Q 213.75 236.84 215.12 236.79
  C 211.52 238.67 208.36 241.41 205.04 243.03
  C 200.29 245.34 193.50 248.80 188.28 249.24
  Q 187.21 249.33 188.14 248.81
  C 188.93 248.37 190.10 248.33 190.91 247.99
  Q 196.03 245.88 201.20 243.91
  Q 204.10 242.81 214.01 236.33
  Z"
/>
<path fill="#0f1311" fill-opacity="0.271" d="
  M 212.32 245.35
  Q 206.07 250.39 198.38 252.33
  A 0.15 0.14 24.8 0 1 198.28 252.06
  C 201.39 250.58 204.82 249.52 207.55 247.41
  C 208.93 246.34 210.84 245.87 212.14 244.56
  A 0.35 0.35 0.0 0 1 212.72 244.72
  Q 212.85 245.20 212.56 245.25
  Q 212.42 245.27 212.32 245.35
  Z"
/>
<ellipse fill="#1c202f" cx="0.00" cy="0.00" transform="translate(292.20,248.21) rotate(7.5)" rx="1.55" ry="1.39"/>
<circle fill="#cedce3" cx="115.53" cy="248.44" r="0.84"/>
<ellipse fill="#3a425a" cx="0.00" cy="0.00" transform="translate(357.23,252.15) rotate(115.0)" rx="1.33" ry="0.56"/>
<path fill="#5d6882" d="
  M 425.57 256.34
  C 429.90 260.89 428.40 267.26 422.49 269.52
  Q 420.51 270.28 414.75 270.48
  Q 414.11 270.50 414.23 269.88
  L 414.36 269.24
  Q 414.44 268.83 414.84 268.95
  C 423.07 271.45 431.21 264.16 424.94 256.63
  Q 424.73 256.38 425.03 256.24
  Q 425.16 256.18 425.33 256.21
  Q 425.46 256.23 425.57 256.34
  Z"
/>
<path fill="#000000" d="
  M 74.57 261.79
  Q 74.46 260.99 74.04 261.33
  Q 74.23 259.78 74.86 258.84
  Q 75.37 258.09 75.18 258.97
  L 74.57 261.79
  Z"
/>
<path fill="#3a425a" d="
  M 173.08 263.93
  Q 173.33 263.16 174.12 262.86
  Q 174.74 262.63 174.50 263.25
  Q 174.19 264.05 173.45 264.29
  Q 172.90 264.48 173.08 263.93
  Z"
/>
<ellipse fill="#3a425a" cx="0.00" cy="0.00" transform="translate(320.03,265.10) rotate(62.6)" rx="1.10" ry="0.94"/>
<path fill="#1c202f" d="
  M 406.60 286.08
  Q 406.43 285.68 406.50 285.19
  Q 410.53 278.90 411.31 271.28
  A 1.06 1.06 0.0 0 1 412.89 270.47
  C 413.01 270.54 416.60 281.56 417.29 283.01
  Q 417.51 283.48 417.18 283.89
  C 415.07 286.47 414.22 291.56 412.76 294.23
  A 0.40 0.40 0.0 0 1 412.04 294.19
  Q 410.35 290.10 409.24 285.82
  A 0.37 0.37 0.0 0 0 409.16 285.66
  Q 407.13 283.19 406.60 286.08
  Z"
/>
<path fill="#0f1311" fill-opacity="0.271" d="
  M 297.43 274.67
  A 0.50 0.50 0.0 0 1 296.97 274.67
  Q 296.41 274.36 296.80 273.92
  Q 296.96 273.75 297.21 273.71
  Q 297.64 273.66 298.02 273.78
  Q 298.70 273.99 298.08 274.33
  L 297.43 274.67
  Z"
/>
<path fill="#5d6882" d="
  M 406.50 285.19
  Q 406.43 285.68 406.60 286.08
  C 404.42 291.58 397.66 293.56 392.33 294.78
  C 397.65 292.05 403.54 291.24 406.50 285.19
  Z"
/>
<path fill="#5d6882" d="
  M 375.44 294.56
  Q 375.23 294.44 375.26 294.21
  Q 375.28 294.06 375.45 293.93
  Q 375.90 293.57 376.43 293.77
  A 0.61 0.61 0.0 0 1 376.81 294.49
  Q 376.62 295.30 376.01 295.18
  Q 375.52 295.09 375.44 294.56
  Z"
/>
<circle fill="#000000" cx="69.22" cy="296.84" r="1.11"/>
<circle fill="#1c202f" cx="198.71" cy="298.53" r="1.44"/>
<path fill="#0f1311" fill-opacity="0.271" d="
  M 301.34 317.76
  Q 299.96 317.97 299.05 316.93
  A 0.41 0.41 0.0 0 1 299.50 316.27
  Q 303.74 317.85 308.28 317.44
  A 0.14 0.14 0.0 0 1 308.44 317.59
  Q 308.43 317.81 308.33 317.83
  Q 305.24 318.41 302.23 317.78
  Q 301.78 317.69 301.34 317.76
  Z"
/>
<path fill="#0f1311" fill-opacity="0.271" d="
  M 147.22 317.94
  Q 146.63 318.04 146.05 318.00
  A 0.23 0.23 0.0 0 1 146.04 317.54
  L 147.94 317.38
  A 0.27 0.27 0.0 0 1 148.20 317.78
  Q 147.99 318.19 147.67 318.01
  Q 147.46 317.89 147.22 317.94
  Z"
/>
<path fill="#0f1311" fill-opacity="0.271" d="
  M 317.16 317.56
  Q 318.59 317.44 320.02 317.52
  A 0.25 0.24 -43.0 0 1 320.00 318.01
  L 316.34 317.99
  A 0.21 0.21 0.0 0 1 316.24 317.60
  Q 316.56 317.42 316.81 317.51
  Q 316.98 317.58 317.16 317.56
  Z"
/>
<circle fill="#1c202f" cx="89.26" cy="335.26" r="2.04"/>
<path fill="#5d6882" d="
  M 163.55 351.90
  Q 168.48 357.22 177.44 363.81
  Q 180.52 366.08 183.30 364.76
  L 179.82 367.39
  Q 179.45 367.68 178.97 367.71
  L 168.77 368.32
  Q 167.97 368.36 168.44 369.02
  L 169.94 371.13
  Q 170.19 371.49 170.10 371.91
  Q 169.71 373.69 169.02 374.75
  Q 168.20 375.99 167.22 375.18
  Q 166.83 374.86 166.37 375.06
  L 165.70 375.35
  Q 155.39 367.86 145.96 357.74
  L 160.91 353.58
  A 1.11 1.10 2.7 0 0 161.64 352.92
  Q 162.32 351.13 163.55 351.90
  Z"
/>
<path fill="#3a425a" d="
  M 360.38 352.89
  Q 347.04 367.87 330.20 379.47
  Q 330.49 378.10 329.76 378.13
  C 326.00 378.29 317.77 378.80 315.55 375.00
  Q 316.13 373.89 316.94 373.36
  L 321.50 368.23
  A 1.26 1.26 0.0 0 0 320.30 366.16
  L 314.23 367.42
  L 302.97 367.73
  A 0.63 0.63 0.0 0 1 302.32 367.09
  L 302.34 365.25
  L 316.96 354.55
  Q 325.42 357.33 334.19 355.12
  Q 334.58 355.03 334.70 354.65
  L 334.80 354.35
  Q 334.82 354.28 334.90 354.29
  Q 339.35 355.24 341.01 354.73
  Q 349.30 352.18 358.02 351.75
  Q 358.91 351.70 360.38 352.89
  Z"
/>
<path fill="#0f1311" fill-opacity="0.271" d="
  M 205.30 358.30
  Q 204.78 357.31 204.44 357.47
  L 204.55 356.83
  Q 204.96 354.47 205.17 356.85
  L 205.30 358.30
  Z"
/>
<path fill="#1c202f" d="
  M 288.98 357.26
  Q 287.99 356.92 287.54 358.44
  L 285.20 358.45
  C 280.26 355.52 289.41 350.68 288.98 357.26
  Z"
/>
<circle fill="#3a425a" cx="185.98" cy="358.06" r="1.06"/>
<path fill="#9da9c2" fill-opacity="0.922" d="
  M 288.98 357.26
  Q 288.97 357.67 289.53 358.21
  Q 288.45 358.66 287.54 358.44
  Q 287.99 356.92 288.98 357.26
  Z"
/>
<path fill="#9da9c2" fill-opacity="0.922" d="
  M 204.44 357.47
  Q 204.78 357.31 205.30 358.30
  Q 204.88 363.92 205.98 368.89
  Q 203.23 370.38 203.20 369.37
  Q 204.91 363.56 204.44 357.47
  Z"
/>
<path fill="#cedce3" d="
  M 287.54 358.44
  Q 288.45 358.66 289.53 358.21
  Q 297.85 357.83 302.34 365.25
  L 302.32 367.09
  A 0.63 0.63 0.0 0 0 302.97 367.73
  L 314.23 367.42
  Q 315.09 367.56 314.64 368.29
  L 316.57 372.32
  Q 316.27 372.75 316.94 373.36
  Q 316.13 373.89 315.55 375.00
  L 301.23 384.72
  A 0.45 0.45 0.0 0 0 301.49 385.54
  Q 307.10 385.43 312.99 384.56
  Q 316.24 384.08 317.67 386.81
  C 306.44 393.02 293.46 397.01 281.00 399.73
  Q 276.86 400.64 272.82 400.48
  Q 272.06 399.67 272.03 398.99
  Q 272.00 398.46 272.86 397.84
  Q 273.83 397.15 274.56 396.23
  Q 274.90 395.80 274.47 395.46
  Q 272.62 394.00 270.14 393.91
  L 267.77 393.50
  Q 267.52 392.27 268.22 392.34
  Q 273.74 392.92 278.90 392.21
  A 0.56 0.56 0.0 0 0 279.00 391.13
  Q 274.73 389.69 272.01 387.14
  Q 273.84 385.79 274.06 384.06
  Q 274.86 383.22 273.02 382.26
  L 275.80 381.69
  A 0.65 0.64 80.2 0 0 276.31 380.96
  Q 276.07 379.34 274.14 378.55
  L 274.53 377.50
  L 273.63 373.89
  Q 273.50 373.40 273.73 372.95
  Q 274.95 370.60 274.57 367.95
  L 275.57 365.70
  Q 279.27 362.13 284.81 359.56
  Q 285.44 359.27 285.20 358.45
  L 287.54 358.44
  Z"
/>
<circle fill="#1c202f" cx="396.11" cy="363.40" r="3.04"/>
<path fill="#cedce3" d="
  M 198.32 368.76
  Q 198.92 368.87 199.48 369.65
  Q 199.70 369.94 199.51 370.26
  L 199.35 370.53
  Q 199.20 370.78 199.20 371.08
  L 199.19 391.50
  Q 199.19 391.64 199.32 391.69
  Q 199.45 391.74 199.59 391.78
  Q 199.82 391.85 199.81 391.61
  Q 199.51 385.57 199.90 374.45
  Q 200.00 371.71 201.15 371.14
  Q 202.42 371.79 203.20 369.37
  Q 203.23 370.38 205.98 368.89
  Q 211.67 369.47 216.81 370.32
  C 218.76 370.65 220.05 371.84 221.75 372.78
  L 223.21 373.99
  L 225.07 379.20
  Q 222.68 381.29 224.70 382.35
  Q 225.09 384.81 227.86 385.23
  Q 228.38 385.31 228.19 385.81
  Q 226.80 389.31 229.87 387.98
  L 230.37 387.98
  A 0.42 0.42 0.0 0 1 230.53 388.79
  L 224.37 391.38
  A 0.69 0.69 0.0 0 0 224.66 392.71
  L 228.92 392.59
  Q 227.44 393.78 227.27 395.39
  Q 227.21 395.97 227.73 396.22
  L 231.50 398.04
  A 0.62 0.62 0.0 0 1 231.69 399.02
  L 229.61 401.31
  Q 197.52 396.75 170.22 378.76
  Q 167.86 377.20 165.70 375.35
  L 166.37 375.06
  Q 166.83 374.86 167.22 375.18
  Q 168.20 375.99 169.02 374.75
  Q 169.71 373.69 170.10 371.91
  Q 170.19 371.49 169.94 371.13
  L 168.44 369.02
  Q 167.97 368.36 168.77 368.32
  L 178.97 367.71
  Q 179.45 367.68 179.82 367.39
  L 183.30 364.76
  L 192.28 364.03
  Q 192.79 363.99 193.18 364.32
  C 194.95 365.79 195.95 368.13 198.32 368.76
  Z"
/>
<path fill="#9da9c2" fill-opacity="0.922" d="
  M 316.94 373.36
  Q 316.27 372.75 316.57 372.32
  L 320.01 368.21
  A 0.67 0.67 0.0 0 0 319.33 367.13
  L 314.64 368.29
  Q 315.09 367.56 314.23 367.42
  L 320.30 366.16
  A 1.26 1.26 0.0 0 1 321.50 368.23
  L 316.94 373.36
  Z"
/>
<ellipse fill="#5d6882" cx="0.00" cy="0.00" transform="translate(250.29,369.97) rotate(-4.6)" rx="1.25" ry="0.79"/>
<path fill="#9da9c2" fill-opacity="0.922" d="
  M 315.55 375.00
  C 317.77 378.80 326.00 378.29 329.76 378.13
  Q 330.49 378.10 330.20 379.47
  L 317.67 386.81
  Q 316.24 384.08 312.99 384.56
  Q 307.10 385.43 301.49 385.54
  A 0.45 0.45 0.0 0 1 301.23 384.72
  L 315.55 375.00
  Z"
/>
<path fill="#5d6882" d="
  M 272.91 377.25
  L 274.53 377.50
  L 274.14 378.55
  L 273.24 378.37
  A 0.65 0.65 0.0 0 1 272.73 377.80
  Q 272.70 377.41 272.91 377.25
  Z"
/>
<path fill="#3a425a" d="
  M 250.52 383.54
  Q 250.27 384.68 251.13 385.23
  A 0.88 0.87 -43.3 0 0 252.03 385.25
  Q 253.02 384.69 252.46 383.50
  L 252.68 383.13
  Q 252.93 382.70 253.42 382.60
  Q 258.37 381.59 263.25 380.20
  Q 263.73 380.06 264.40 381.05
  L 272.01 387.14
  Q 274.73 389.69 279.00 391.13
  A 0.56 0.56 0.0 0 1 278.90 392.21
  Q 273.74 392.92 268.22 392.34
  Q 267.52 392.27 267.77 393.50
  L 261.57 393.00
  A 0.54 0.53 -17.3 0 0 261.11 393.87
  Q 264.10 397.51 268.75 398.60
  Q 268.70 400.35 267.10 401.09
  Q 266.57 401.34 266.59 401.92
  L 266.73 406.43
  Q 264.75 405.43 264.81 403.20
  Q 264.82 402.69 264.52 402.28
  C 263.53 400.93 262.57 399.82 260.75 399.56
  C 255.50 398.81 249.12 396.49 244.02 396.47
  Q 243.29 395.97 243.02 395.15
  Q 241.93 393.17 239.41 393.98
  Q 233.88 392.37 228.92 392.59
  L 224.66 392.71
  A 0.69 0.69 0.0 0 1 224.37 391.38
  L 230.53 388.79
  A 0.42 0.42 0.0 0 0 230.37 387.98
  L 229.87 387.98
  Q 235.26 385.00 239.13 379.57
  Q 244.60 380.49 250.52 383.54
  Z"
/>
<path fill="#cedce3" d="
  M 252.46 383.50
  Q 253.02 384.69 252.03 385.25
  A 0.88 0.87 -43.3 0 1 251.13 385.23
  Q 250.27 384.68 250.52 383.54
  Q 251.40 382.89 252.46 383.50
  Z"
/>
<path fill="#9da9c2" fill-opacity="0.922" d="
  M 239.41 393.98
  Q 238.05 393.68 238.03 395.09
  A 1.55 1.53 -75.8 0 0 238.85 396.49
  Q 240.53 397.38 243.02 395.15
  Q 243.29 395.97 244.02 396.47
  L 240.61 398.44
  Q 235.33 398.96 238.40 400.86
  C 238.36 402.46 238.40 405.00 237.10 406.14
  C 234.76 408.18 227.15 407.17 224.11 406.65
  A 0.48 0.48 0.0 0 1 224.00 405.74
  L 230.61 402.88
  A 0.69 0.68 -18.5 0 0 231.00 402.11
  Q 230.78 401.06 229.61 401.31
  L 231.69 399.02
  A 0.62 0.62 0.0 0 0 231.50 398.04
  L 227.73 396.22
  Q 227.21 395.97 227.27 395.39
  Q 227.44 393.78 228.92 392.59
  Q 233.88 392.37 239.41 393.98
  Z"
/>
<path fill="#0f1311" fill-opacity="0.271" d="
  M 270.14 393.91
  Q 272.62 394.00 274.47 395.46
  Q 274.90 395.80 274.56 396.23
  Q 273.83 397.15 272.86 397.84
  Q 272.00 398.46 272.03 398.99
  Q 272.06 399.67 272.82 400.48
  Q 272.18 400.39 271.59 400.67
  L 269.52 398.77
  Q 270.31 398.86 270.48 398.24
  Q 270.98 396.35 270.14 393.91
  Z"
/>
<circle fill="#1c202f" cx="320.58" cy="399.80" r="1.99"/>
<path fill="#0f1311" fill-opacity="0.271" d="
  M 240.61 398.44
  Q 238.91 399.53 238.40 400.86
  Q 235.33 398.96 240.61 398.44
  Z"
/>
<path fill="#9da9c2" fill-opacity="0.922" d="
  M 268.75 398.60
  Q 268.86 398.85 269.52 398.77
  L 271.59 400.67
  Q 273.69 403.27 276.35 404.42
  Q 279.61 405.83 276.20 406.81
  Q 272.27 407.95 266.73 406.43
  L 266.59 401.92
  Q 266.57 401.34 267.10 401.09
  Q 268.70 400.35 268.75 398.60
  Z"
/>
<ellipse fill="#000000" cx="0.00" cy="0.00" transform="translate(250.03,440.11) rotate(-1.4)" rx="3.90" ry="3.56"/>
<path fill="#000000" d="
  M 223.89 448.52
  C 225.19 448.22 226.35 447.31 227.47 447.06
  C 234.28 445.53 235.32 450.48 235.27 455.97
  Q 235.22 461.87 235.26 467.77
  A 0.73 0.72 -0.4 0 1 234.53 468.50
  L 230.28 468.50
  A 1.28 1.28 0.0 0 1 229.00 467.22
  L 229.00 453.28
  A 1.70 1.70 0.0 0 0 227.17 451.59
  C 223.72 451.87 223.24 454.55 223.41 457.61
  Q 223.70 462.74 223.40 467.88
  A 0.68 0.68 0.0 0 1 222.71 468.52
  L 217.94 468.46
  Q 217.25 468.45 217.25 467.76
  L 217.25 439.92
  A 0.71 0.70 -3.2 0 1 217.88 439.22
  L 222.53 438.67
  Q 223.50 438.56 223.49 439.54
  L 223.38 448.11
  Q 223.37 448.64 223.89 448.52
  Z"
/>
<path fill="#000000" d="
  M 212.73 466.94
  C 197.36 474.92 188.46 460.84 193.61 447.35
  C 196.52 439.75 206.53 439.52 212.87 442.78
  A 0.61 0.60 30.4 0 1 213.10 443.65
  L 211.40 446.29
  A 1.32 1.32 0.0 0 1 209.48 446.62
  C 196.35 436.56 193.79 473.15 210.43 462.14
  A 0.78 0.78 0.0 0 1 211.45 462.28
  L 213.23 464.33
  A 1.69 1.69 0.0 0 1 212.73 466.94
  Z"
/>
<path fill="#000000" d="
  M 294.45 468.66
  L 294.52 475.95
  A 0.88 0.88 0.0 0 1 293.74 476.82
  L 289.37 477.32
  A 0.72 0.72 0.0 0 1 288.56 476.61
  L 288.26 448.52
  A 0.82 0.81 81.3 0 1 288.82 447.74
  Q 291.96 446.70 294.35 448.58
  A 0.67 0.66 -43.3 0 0 295.15 448.60
  C 299.10 445.78 304.90 446.00 306.52 451.22
  C 308.21 456.69 308.63 468.94 300.11 469.05
  C 298.54 469.07 296.83 468.50 295.02 468.18
  Q 294.45 468.08 294.45 468.66
  Z
  M 297.6070 464.7680
  A 6.67 3.60 91.4 0 0 301.3689 458.1880
  A 6.67 3.60 91.4 0 0 297.9330 451.4320
  A 6.67 3.60 91.4 0 0 294.1711 458.0120
  A 6.67 3.60 91.4 0 0 297.6070 464.7680
  Z"
/>
<path fill="#000000" d="
  M 267.30 452.23
  L 265.32 451.56
  A 0.82 0.82 0.0 0 1 264.76 450.72
  L 264.96 448.12
  Q 265.01 447.50 265.63 447.50
  L 271.79 447.50
  A 0.74 0.73 -5.8 0 1 272.51 448.08
  L 273.12 451.07
  Q 273.25 451.74 273.79 451.31
  C 274.73 450.56 275.02 449.39 275.88 448.69
  Q 279.21 445.97 283.60 447.31
  A 0.65 0.65 0.0 0 1 284.04 448.03
  L 282.82 455.74
  A 0.89 0.88 0.8 0 1 282.05 456.48
  Q 278.89 456.85 278.75 453.72
  A 0.80 0.80 0.0 0 0 277.46 453.13
  Q 272.50 457.02 273.88 463.48
  Q 274.02 464.09 274.64 464.16
  L 277.31 464.46
  Q 277.89 464.53 277.94 465.11
  L 278.18 467.79
  A 0.66 0.65 -2.4 0 1 277.52 468.50
  L 265.69 468.50
  Q 265.11 468.50 264.91 467.95
  Q 263.79 464.79 266.88 464.20
  A 0.79 0.77 -5.0 0 0 267.52 463.45
  L 267.83 452.98
  A 0.78 0.78 0.0 0 0 267.30 452.23
  Z"
/>
<path fill="#000000" d="
  M 242.03 451.07
  L 242.03 448.45
  A 0.90 0.90 0.0 0 1 242.92 447.55
  L 253.11 447.39
  A 0.90 0.90 0.0 0 1 254.03 448.30
  L 253.95 463.45
  A 0.90 0.90 0.0 0 0 254.90 464.36
  L 258.06 464.21
  A 0.90 0.90 0.0 0 1 259.00 465.12
  L 258.99 467.61
  A 0.90 0.90 0.0 0 1 258.09 468.50
  L 242.66 468.50
  A 0.90 0.90 0.0 0 1 241.76 467.60
  L 241.76 465.16
  A 0.90 0.90 0.0 0 1 242.66 464.26
  L 246.30 464.24
  A 0.90 0.90 0.0 0 0 247.20 463.36
  L 247.38 452.96
  A 0.90 0.90 0.0 0 0 246.50 452.04
  L 242.91 451.97
  A 0.90 0.90 0.0 0 1 242.03 451.07
  Z"
/>
</svg>
