<svg width="104" height="103" viewBox="0 0 104 103" fill="none" xmlns="http://www.w3.org/2000/svg">
<path d="M2.51204 39.7111L2.22495 39.5796C1.57899 39.2507 1.07659 38.7574 0.717725 38.1325C0.215317 37.2775 0 36.4882 0 35.666L0.0717725 35.2385C0.0717725 34.5807 0.251204 33.9888 0.57418 33.4297L0.86127 32.9364C1.00481 32.6733 1.22013 32.4431 1.39956 32.2129C1.61488 31.9826 1.65077 31.6867 1.57899 31.4236L1.39956 30.8974C1.18425 30.2396 1.0407 29.5819 1.0407 28.9242L0.933042 28.5295C0.933042 27.806 1.14836 27.0825 1.65077 26.5563L2.00963 26.1288C2.26083 25.7999 2.65558 25.6026 3.08622 25.471C3.44508 25.3724 3.69628 25.0435 3.73217 24.6488L3.80394 23.5307C3.80394 22.6427 4.27046 21.8206 4.98819 21.2286L5.84946 20.6366C6.02889 20.4722 6.20832 20.3077 6.35186 20.0447C6.5313 19.8473 6.56718 19.5842 6.5313 19.3869C6.45952 19.058 6.5313 18.9594 6.71073 18.9265C7.28491 19.1238 7.64377 19.058 7.89497 18.7949L8.36149 18.2359L9.6534 16.9204C10.0123 16.5915 10.1558 15.9995 9.94049 15.5391L9.50985 14.6841C9.43808 14.4867 9.50985 14.2565 9.68928 14.1908C10.1558 14.1908 10.4788 14.3552 10.6223 14.6183L10.7659 14.8485C10.9812 15.2431 11.4836 15.4405 11.8425 15.276C12.632 15.0129 13.2779 14.9472 13.888 14.9472H15.0363C15.8258 14.9472 16.4718 14.4539 16.6153 13.6975C16.7589 12.7766 17.1177 12.0531 17.6201 11.5598C18.1584 11.0007 18.7685 10.5732 19.4862 10.2443C20.4193 9.78389 20.9934 9.12615 21.1729 8.27109C21.4241 7.21871 22.0341 6.4623 22.8595 5.969L25.5869 4.55486L26.3764 4.12732C26.8429 3.86423 27.2735 3.53536 27.6324 3.14071L28.3501 2.35142C28.709 2.02255 29.0679 1.79234 29.4985 1.69368C29.8573 1.59502 30.3598 1.52925 30.7904 1.56213L32.2258 1.6608C32.9436 1.6608 33.5177 1.82523 34.0919 2.05544L34.4508 2.21988C34.8096 2.35142 35.1685 2.28565 35.3479 2.05544L35.6709 1.891L37.214 0.411088C37.5729 0.0822176 38.0035 -0.0493306 38.47 0.0164435C38.9366 0.0822176 39.4031 0.246653 39.8337 0.443975C40.4797 0.772845 41.018 0.904394 41.628 0.904394H41.9869C42.7764 0.904394 43.5659 1.00305 44.3554 1.16749L44.8937 1.29904C45.432 1.43059 45.9703 1.23326 46.3291 0.83862C46.4368 0.674184 46.688 0.641297 46.8315 0.772846C46.9392 0.83862 46.9751 0.904394 47.011 1.00305C47.0827 1.6608 47.5134 2.1541 48.0876 2.31854L48.6617 2.48297C49.2718 2.64741 49.8101 3.00916 50.169 3.46958C50.5278 3.96289 50.9585 4.45619 51.4609 4.78506L51.8197 5.11393C52.1786 5.44281 52.681 5.57435 53.1834 5.54147H55.3007C56.162 5.54147 56.9873 5.67301 57.8127 6.00189C58.6022 6.33076 59.4276 6.39653 60.1812 6.13343C60.9707 5.90322 61.7961 5.80456 62.6215 5.90322L64.1646 6.13343C64.8823 6.19921 65.6 6.52808 66.0307 7.02138L66.2101 7.18582C66.569 7.51469 66.9278 7.94222 67.2867 8.40264C67.502 8.83017 68.0044 9.06038 68.5068 9.06038H70.7318C71.2701 9.06038 71.8084 9.15904 72.239 9.38925C72.7055 9.71812 73.1003 10.047 73.4591 10.3759L73.818 10.8034C74.2486 11.2638 74.4639 11.8887 74.4281 12.5464C74.4281 13.0726 74.8587 13.533 75.4329 13.533L76.1506 13.5988C76.653 13.5988 77.0836 13.9277 77.3348 14.3552L77.6937 15.0129L78.6267 16.9204C78.7703 17.2493 78.8062 17.5781 78.7703 17.8412C78.7703 18.1701 78.878 18.4332 79.1292 18.5647L79.488 18.7949C79.9545 19.1238 80.2057 19.6171 80.134 20.1762L79.8828 21.7219L79.811 22.3796C79.7392 22.7085 79.9187 23.136 80.2416 23.3662C80.7799 23.6951 81.0311 24.1226 81.067 24.616V25.2737C81.067 25.6026 80.9952 25.9972 80.7081 26.2603C80.4928 26.5234 80.3493 26.8523 80.3493 27.2469L80.4569 28.0033C80.4569 28.5295 80.8158 28.9899 81.1747 29.3188C81.6771 29.6477 81.9642 30.1739 82.0359 30.7001C82.1795 31.5222 82.2154 32.18 82.2154 32.8377V33.5941C82.2154 33.8572 82.2154 34.1203 82.323 34.3834C82.3948 34.6136 82.5742 34.8438 82.7895 34.9754L83.5073 35.4687C84.225 35.8962 84.7274 36.4553 85.0145 37.2117C85.3734 37.9352 85.481 38.6916 85.481 39.448V39.7111C85.481 40.3031 85.4092 40.9279 85.1939 41.487C85.0145 42.079 85.0504 42.638 85.3016 43.1314C85.5887 43.5918 85.7681 44.118 85.8399 44.677C85.9834 45.3348 85.9117 45.9925 85.6605 46.5187L85.5887 46.7489C85.4092 47.1436 85.1222 47.5053 84.7633 47.8013C84.4044 48.1302 84.0456 48.3275 83.8303 48.5577C83.6149 48.755 83.4714 49.0839 83.5791 49.3799L83.6867 49.8403C83.8661 50.4981 83.8661 51.1558 83.6867 51.7478V52.0109C83.5432 52.5042 83.3278 52.9317 83.1125 53.3263C82.8613 53.7539 82.5025 54.0827 82.0359 54.3129L81.4976 54.6418C81.2464 54.7734 81.067 55.0693 81.067 55.3653C81.067 55.6942 80.9235 56.0231 80.7081 56.2204L80.1699 56.8781C79.811 57.3057 79.3445 57.6674 78.8421 57.8647C78.3397 58.1936 77.909 58.5225 77.586 58.8514C77.2272 59.246 76.9401 59.7064 76.7965 60.1668C76.653 60.7588 76.1506 61.0877 75.6123 61.0877H73.6744C73.172 61.0877 72.7055 61.4166 72.4902 61.8112C72.239 62.3374 71.9878 62.6991 71.6648 63.028C71.306 63.3569 71.0906 63.7515 70.9471 64.2119C70.8753 64.6066 70.5165 64.8697 70.1576 64.7381C69.6911 64.5408 69.2246 64.7381 69.0092 65.067C68.5786 65.7248 68.148 66.2181 67.6814 66.6456L67.4302 66.8429C66.9637 67.1718 66.3537 67.4349 65.8154 67.4349C65.1694 67.4349 64.8464 67.698 64.7388 68.0926C64.6311 68.4215 64.5593 68.849 64.5235 69.2108C64.4517 69.6054 64.3081 69.9672 64.1646 70.2961L63.9852 70.4934C63.6263 70.9867 63.3392 71.48 62.9804 71.9075L62.8368 72.1048C62.3703 72.6639 61.7602 73.0914 61.0425 73.2559C60.1812 73.519 59.4276 73.5848 58.674 73.5848H58.1716C57.8127 73.5848 57.4539 73.7821 57.2027 74.1109L56.9873 74.4398L56.772 74.8345L56.3055 75.558C55.9466 76.1499 55.4084 76.5446 54.6906 76.7419C53.9729 76.9063 53.1475 76.9721 52.3939 76.9392L51.8197 76.8735C51.3173 76.8735 50.8508 76.7419 50.3843 76.5446C50.0254 76.413 49.523 76.5446 49.3077 76.8735C48.9488 77.3339 48.5182 77.597 48.0517 77.7285L46.9751 78.0574C46.2574 78.2218 45.4679 78.2218 44.7143 78.0574L44.1401 77.893C43.7812 77.893 43.4223 77.7285 43.1353 77.5641C42.7764 77.3996 42.4175 77.3339 42.0587 77.3668L41.5921 77.4325C40.8744 77.4983 40.2285 77.4325 39.5825 77.2681L38.6136 77.0708C38.183 76.9392 37.7882 76.6761 37.537 76.3144C37.3576 75.9855 36.9628 75.7224 36.4604 75.6566H35.3121C34.5943 75.558 33.9484 75.3278 33.5177 74.8345L32.0823 73.5848L31.5799 73.1901L30.7904 72.6639L30.3239 72.3351C29.7856 72.0062 29.1396 71.7431 28.4578 71.6773L26.3046 71.3484C26.0893 71.3484 25.9458 71.2827 25.7304 71.2498L24.905 71.0853C24.5462 71.0196 24.1873 70.7565 23.9361 70.4276C23.7208 70.0987 23.3261 69.9672 22.9672 70.0987C22.2495 70.3618 21.6753 70.4276 21.1011 70.5263H20.5987C19.6657 70.592 18.8044 70.4605 17.9431 70.0987C17.0818 69.7699 16.5077 69.2766 15.9694 68.6517C15.5387 68.0926 14.8928 67.6651 14.1033 67.5335L13.0985 67.3362C12.3808 67.2047 11.663 66.9416 11.0171 66.5469C10.2994 66.0865 9.94049 65.659 9.6534 65.1328C9.36631 64.6395 9.18688 64.0804 9.15099 63.4884V63.2253C9.07922 62.5676 8.57681 61.9756 7.89497 61.8112C7.06959 61.581 6.45952 61.2521 5.92123 60.8246C5.41882 60.3971 5.13173 59.7722 5.13173 59.1145L5.2035 57.6674C5.2035 57.1083 5.02407 56.615 4.59344 56.2533C4.1628 55.8586 3.87571 55.3653 3.87571 54.8391L3.76806 53.6552C3.69628 52.8001 3.51685 51.9451 3.30153 51.09C3.08622 50.3336 3.40919 49.5772 4.09103 49.2155L4.34223 49.051C4.7011 48.8208 4.84464 48.3933 4.62932 47.9986L4.34223 47.6698C3.98337 47.3409 3.62451 47.1107 3.26565 47.012C2.97856 46.9463 2.90679 46.6832 2.90679 46.5187L3.26565 46.1241C3.48097 45.8939 3.44508 45.5321 3.26565 45.3348C2.97856 45.0717 2.83501 44.7428 2.79913 44.414L2.72735 42.1119C2.72735 41.6514 2.79913 41.191 2.94267 40.7306C3.08622 40.336 2.94267 39.8755 2.51204 39.6782V39.7111ZM38.0394 35.37C38.2906 35.1398 38.2547 34.7123 38.0394 34.5478C37.6805 34.2847 37.4293 33.9888 37.214 33.6599L36.8552 33.1337C36.604 32.7062 36.281 32.3444 35.9221 32.0155L35.8504 31.9498C35.4915 31.6867 35.2403 31.3578 35.025 30.9631C34.8455 30.6343 34.8455 30.3054 35.025 29.9765L35.2403 29.6477C35.4556 29.3188 35.5991 28.8584 35.5991 28.4637V28.3322C35.5991 28.0033 35.4556 27.6744 35.2403 27.3456C35.0967 27.0825 34.9532 26.7536 34.8814 26.4247V26.2274C34.7738 25.8328 34.8814 25.4052 35.1685 25.0764C35.4556 24.6488 35.6709 24.2542 35.7786 23.7609V23.6951C35.9221 23.3662 35.8503 22.9387 35.635 22.6098C35.4197 22.281 35.3479 21.9521 35.4915 21.5575L35.7427 20.8997C35.958 20.3077 36.281 19.7816 36.7116 19.3211L37.214 18.8278L37.5729 18.4332L37.7882 18.2359C38.0035 18.0385 38.0394 17.7097 37.86 17.4466C37.6805 17.1177 37.5729 16.7888 37.6447 16.46L37.7164 15.9995C37.8241 15.3418 38.0753 14.6841 38.5418 14.1579L38.6854 14.0263C39.2237 13.3686 39.9055 12.9411 40.695 12.7108L41.6639 12.382C42.0946 12.2504 42.3816 11.8229 42.3816 11.3954C42.3816 10.8692 42.5611 10.4087 42.8841 9.98122L43.0635 9.81678C43.4223 9.2577 43.853 8.69862 44.1401 8.10666L44.3913 7.67912C44.463 7.58046 44.4989 7.44891 44.4989 7.35025C44.4989 6.79117 44.1401 6.29787 43.5659 6.26498L41.9869 6.16632C41.0897 6.10055 40.1926 6.16632 39.3313 6.16632L36.281 6.49519C35.8145 6.49519 35.4556 6.82406 35.4197 7.28448C35.4197 7.7449 35.0609 8.13954 34.6302 8.27109L33.3383 8.59996L32.9795 8.69862L31.9029 9.02749C31.1134 9.2577 30.4674 9.78389 30.1086 10.5074L29.8215 10.9349C29.4626 11.6585 28.8525 12.2504 28.0989 12.678C27.3812 13.1055 27.0223 13.7961 26.9506 14.5854V14.9143C26.8788 15.572 26.6635 16.2298 26.2328 16.6902L26.0534 16.9533C25.7663 17.2821 25.6945 17.7097 25.874 18.0714C26.0534 18.4661 26.1611 18.8936 26.1252 19.3211V21.0642C26.1252 21.5246 25.7663 21.9192 25.4075 22.0508C24.905 22.2152 24.5821 22.577 24.4385 23.0374L24.2591 23.6951C24.1156 24.3529 24.3668 25.0106 24.9768 25.4052C25.551 25.7999 25.9099 26.3919 26.0534 27.1154V27.7073C26.1611 28.3651 26.5558 29.0228 27.2018 29.3517C27.8477 29.7463 28.3501 30.3383 28.6372 30.996L28.8166 31.5222C29.1037 32.2457 29.7497 32.6733 30.4674 32.739H30.6827C31.3287 32.739 31.9029 33.0679 32.2617 33.5941C32.6206 34.1203 33.1948 34.4821 33.8407 34.5807L34.8455 34.8438C35.4556 35.0083 36.0298 35.3042 36.4963 35.7318L36.5681 35.7975C36.9269 36.0606 37.5011 36.0278 37.8241 35.666L38.0753 35.4029L38.0394 35.37ZM42.1304 32.3444C42.4893 32.5417 42.8482 32.4431 42.9917 32.1471L43.0994 31.9826C43.3506 31.5222 43.6735 31.0618 44.0324 30.6672L44.7501 29.6806C44.8578 29.6806 44.8937 29.6148 44.9296 29.549L45.7908 28.4966C46.1497 28.1678 46.5803 27.9375 47.0827 27.9375C47.5493 27.9375 47.944 27.7073 48.1593 27.2798C48.3029 26.8194 48.5182 26.3919 48.9488 26.0301L49.1283 25.8328C49.4871 25.5039 49.846 25.3395 50.2048 25.175C50.6714 25.1093 51.102 25.0435 51.5326 25.0435H52.6092C53.0399 25.0435 53.3987 24.879 53.614 24.5502C53.8294 24.2213 54.1523 23.9911 54.5112 23.8267L54.8701 23.6951C55.4442 23.4649 56.0902 23.3005 56.7361 23.2347L57.4539 23.1689C57.8845 23.1689 58.351 23.1689 58.7817 23.3991C59.1405 23.6293 59.607 23.5965 59.9659 23.3334L60.2171 23.2018C60.7554 22.8729 61.3655 22.6098 62.0114 22.5441H62.0832C62.8009 22.4125 63.4469 22.4125 64.1646 22.4454H64.5235C65.2412 22.5441 65.8513 22.7743 66.3178 23.2676L66.4254 23.3991C66.7843 23.728 67.3585 23.9911 67.8609 23.9911H68.4709C68.6504 23.9911 68.8298 23.9253 68.9375 23.7609C69.0451 23.6622 69.2246 23.5636 69.404 23.5636H69.7628C70.2653 23.5636 70.7318 23.6951 71.1983 23.8267L71.8084 24.0569C72.3825 24.2213 72.9926 24.3857 73.6027 24.4515H74.0333C74.3204 24.4515 74.4998 24.2871 74.4998 24.0569C74.4998 23.728 74.4281 23.3991 74.2486 23.136L73.9974 22.6098C73.7103 22.1823 73.495 21.7219 73.2797 21.2944L73.2079 21.1299C73.0285 20.8011 73.0285 20.4722 73.2079 20.1433V19.9789C73.2797 19.7158 73.1362 19.4198 72.8491 19.3211H72.562C71.9878 19.1567 71.4854 18.8607 71.1265 18.4332L70.7677 18.1043C70.4088 17.7754 70.1935 17.2821 70.0499 16.7888C69.8705 16.3613 69.4758 16.0324 68.9734 16.0324H67.4661C66.9278 15.9667 66.4613 15.7036 66.1383 15.3089L65.9948 15.1445C65.7436 14.8156 65.5283 14.421 65.3847 14.0263C65.2053 13.6975 64.8105 13.5001 64.4517 13.5988L64.021 13.7303C63.3033 13.9605 62.5856 14.0592 61.8679 13.9934L61.2937 13.9277C60.6836 13.9277 60.1095 13.6975 59.6429 13.3686L59.2841 13.1384C58.997 12.9411 58.7099 12.8095 58.3869 12.678C58.028 12.5464 57.741 12.6122 57.5256 12.8424L57.3462 13.0397C56.9873 13.3686 56.4849 13.6317 55.9825 13.6975L54.0447 13.7961C53.6858 13.7961 53.3269 13.9605 53.0757 14.1908C52.7887 14.421 52.4657 14.5854 52.1068 14.6512H52.035C51.6762 14.6512 51.3173 14.8814 50.9585 15.1116V15.1774C50.5996 15.5062 50.1331 15.6707 49.6665 15.6707L49.523 15.7364C49.0924 15.7364 48.6617 15.7364 48.2311 15.8351H47.8005C47.1904 15.9338 46.7239 16.3942 46.5803 16.9862L46.4368 17.7426C46.3291 18.2688 46.0779 18.7292 45.7191 19.1567C45.3602 19.5513 44.9296 19.8144 44.3913 19.8144H43.853H43.7812C43.4223 19.8802 43.0635 20.242 43.1353 20.6366C43.207 21.1957 43.1353 21.689 43.0276 22.1823L42.8841 22.7414C42.7405 23.2347 42.3816 23.6293 41.9151 23.7938L41.6998 23.8924H41.628C41.4127 24.024 41.2692 24.32 41.4486 24.5502C41.6639 24.879 41.7357 25.2079 41.6998 25.5368L41.5921 26.5892C41.5921 26.9838 41.4127 27.3456 41.2333 27.6744C41.018 28.0033 41.018 28.3322 41.1615 28.6611L41.5204 29.3846C41.6998 29.7134 41.7357 30.0423 41.628 30.437C41.5204 30.7658 41.4486 31.0947 41.4845 31.4236C41.4845 31.7524 41.6998 32.0813 41.9869 32.2129L42.0587 32.2786L42.1304 32.3444ZM70.4806 56.1217C70.8394 56.4506 71.3777 56.5822 71.8084 56.3191L72.5261 55.8915C72.885 55.6613 73.172 55.3324 73.3156 54.9049V54.8391L73.6744 53.8525L73.8898 53.5237L74.0333 53.1948L74.1769 52.9646C74.3204 52.7015 74.5357 52.5042 74.8946 52.4055L75.0381 52.3397C75.3252 52.274 75.5046 52.0109 75.5046 51.7478C75.5046 51.4189 75.6841 51.1558 75.8635 50.9256L76.1506 50.6954L76.8683 49.8403V49.7745C77.0836 49.5114 77.2272 49.2155 77.299 48.8866C77.3707 48.5577 77.299 48.2288 77.1554 47.9L77.0836 47.7684C76.9401 47.4396 76.8683 47.2093 76.8324 46.9134L76.7248 45.9925L76.6171 45.0059C76.6171 44.677 76.7607 44.3482 76.976 44.0193C77.2272 43.7562 77.4066 43.4273 77.5502 43.0985V42.9669L77.6219 42.9011C77.6937 42.5723 77.5143 42.2434 77.1913 42.2434C76.8324 42.079 76.4736 41.8159 76.3659 41.4212L76.2583 41.2239C76.0788 40.6319 75.9712 40.04 75.9712 39.448L76.0429 37.8037V37.705C76.0429 37.1459 75.5405 36.7184 74.9664 36.7184H74.8946C74.1769 36.7184 73.6027 36.5211 73.1003 36.0606L72.8132 35.7318L72.0955 34.9754L71.1624 33.9888C70.8035 33.5283 70.4447 33.1337 69.9782 32.739C69.6193 32.4102 69.081 32.0813 68.5427 32.0155L67.825 31.9169C67.4661 31.8511 66.9996 31.6867 66.6049 31.4565C66.3178 31.2591 65.8871 31.3249 65.6 31.588L65.1335 32.0484L64.9182 32.18C64.667 32.2457 64.4158 32.1142 64.3081 31.8511C64.1646 31.4565 64.1646 30.996 64.3799 30.6014V30.4041C64.3799 30.1739 64.1646 30.0094 63.9493 30.0752H63.3751C62.7291 30.0752 62.0832 30.0094 61.4731 29.7463L61.1143 29.6148C60.7554 29.4503 60.3248 29.3517 59.93 29.3517C59.5712 29.3517 59.2123 29.4175 58.8534 29.6148L58.7099 29.7134C58.2793 29.9765 57.7768 30.1081 57.2744 30.141H56.0902C55.5519 30.141 55.0136 30.3054 54.6547 30.5685C54.1882 30.8316 53.6858 30.996 53.1475 31.0947L52.1786 31.2262C51.748 31.3249 51.2814 31.4893 50.8867 31.7853C50.5278 32.1142 50.0254 32.3115 49.5589 32.4431L49.3795 32.5088C48.8053 32.6733 48.3029 33.0021 47.944 33.4955L47.5134 33.8901C47.2622 34.219 47.2622 34.6136 47.5134 34.9425C47.7287 35.2714 48.1593 35.37 48.59 35.2714L49.1283 35.074C49.4153 34.9754 49.7383 35.074 49.9895 35.2056C50.2048 35.37 50.5278 35.4687 50.8508 35.4358L51.748 35.3371C52.2504 35.3371 52.7528 35.3371 53.2552 35.4687C53.7935 35.6331 54.26 35.7975 54.6906 36.1264C55.1213 36.4553 55.5878 36.5868 56.1261 36.6526C56.6644 36.7184 57.2027 36.817 57.7051 36.9815L58.0639 37.0473C58.4228 37.1459 58.7099 37.3761 58.9252 37.705C59.1046 37.9681 59.2841 38.3627 59.2841 38.6916V38.7903C59.2841 39.1849 59.6429 39.448 60.0018 39.448H60.2171C60.7913 39.448 61.4014 39.5138 62.0114 39.6782L62.2626 39.7769C62.6215 39.9084 62.9804 40.1057 63.2316 40.4346C63.5186 40.7635 63.6981 41.0924 63.8057 41.4212L63.9134 41.8816C64.0211 42.375 64.0569 42.8683 64.0569 43.3945V43.5589C64.0569 43.8878 64.3081 44.2166 64.7029 44.3482C65.0618 44.4139 65.4924 44.5455 65.8871 44.7428L66.0666 44.8086C66.5331 45.0717 66.9996 45.4006 67.3585 45.7952L67.5379 46.0254C68.0044 46.5187 68.2556 47.1436 68.2556 47.7684V47.9986C68.2556 48.4919 68.148 48.9852 67.9685 49.4457C67.825 49.8403 67.9685 50.3007 68.4351 50.4323L68.6863 50.5967C69.2246 50.794 69.6911 51.1558 70.0499 51.5833C70.4088 52.0766 70.5523 52.6357 70.5523 53.2277V54.2143C70.4806 54.5432 70.3729 54.8063 70.1935 55.0365C70.0141 55.2667 70.0141 55.5955 70.1935 55.8258L70.4088 56.1546L70.4806 56.1217ZM47.5134 39.2836H47.4416C47.2981 39.2836 47.2263 39.448 47.2622 39.6124L47.4057 40.2702C47.5493 40.7964 47.621 41.3226 47.6928 41.8488C47.7646 42.375 48.0517 42.8354 48.4823 43.1642H48.6258C49.1641 43.5589 49.4871 44.1509 49.523 44.7428V46.3872C49.4512 46.716 49.523 47.0449 49.7383 47.308L49.9178 47.4724C50.2766 47.8671 50.4202 48.3275 50.456 48.7879L50.5637 50.5967C50.5637 51.0242 50.2766 51.386 49.846 51.4518L49.4871 51.5176C49.2359 51.5176 49.1283 51.7806 49.1283 52.0109C49.1283 52.274 49.2359 52.5699 49.3436 52.833V52.8988C49.4512 53.2277 49.4871 53.5565 49.4512 53.8854L49.3077 54.7734C49.1641 55.4311 48.9488 56.0231 48.59 56.615L48.3388 57.0097C48.1593 57.3386 47.9081 57.5359 47.621 57.6674C47.2622 57.799 47.011 58.0621 46.9033 58.3909L46.6162 59.5749C46.4368 60.2326 46.1138 60.8904 45.6832 61.5481H45.6114C45.1808 62.0743 44.6425 62.5347 43.9965 62.8636L43.5659 63.1267L42.4893 63.62C42.1304 63.7515 41.9151 64.0475 41.8434 64.4093L41.6639 65.4945C41.5563 66.1523 41.3051 66.7114 40.8027 67.1389L40.3361 67.6322L39.7978 68.1255L39.2595 68.6517C38.8289 69.1121 38.183 69.3094 37.4652 69.2108L36.1733 68.9806L34.9891 68.849H34.6661C34.5226 68.9806 34.4867 69.1779 34.5943 69.3752C34.8455 69.7699 35.2403 70.033 35.6709 70.033L36.4604 70.1645C36.8193 70.1645 37.2499 70.3289 37.6088 70.4934C37.9676 70.7236 38.3265 70.888 38.7571 70.9867H38.8289C39.2954 71.1511 39.7978 71.184 40.2644 71.1511L40.8027 71.0853C41.4127 71.0196 41.9869 71.0853 42.4893 71.2827L42.9199 71.4142C43.0994 71.48 43.3865 71.4142 43.5659 71.2498C43.7812 71.0525 43.9965 70.9209 44.2836 70.8222L44.5707 70.7565C45.0372 70.6249 45.5037 70.5591 46.0062 70.5591H46.2932C46.7239 70.5591 47.1186 70.6249 47.4775 70.8222L47.621 70.888C47.8722 70.9867 48.1593 70.888 48.3388 70.6907C48.4464 70.4605 48.6976 70.2303 48.9488 70.033L49.846 69.4739L50.4202 69.145L50.7073 68.9806C51.0661 68.7504 51.5685 68.6517 51.9992 68.6517L53.2911 68.553C53.7935 68.4873 54.2241 68.1584 54.3676 67.698C54.5112 67.2047 54.7265 66.7114 55.0854 66.2838C55.4442 65.8563 55.8031 65.4945 56.162 65.1657C56.6285 64.8368 57.095 64.6724 57.5974 64.6395H57.8845C58.4587 64.5408 58.8893 64.0475 58.8534 63.5213V63.4555V61.3179C58.9252 60.989 59.0687 60.5615 59.2841 60.2326L60.0018 59.246L60.2889 58.9171C60.5042 58.7527 60.6477 58.5225 60.8989 58.2594L61.2578 57.8319C61.4731 57.503 61.4731 57.0755 61.186 56.7795C60.8272 56.4506 60.6477 55.9902 60.576 55.5298V55.3982C60.5042 54.872 60.5042 54.3129 60.6836 53.7539V53.5894C60.8631 53.1619 61.1143 52.7344 61.4014 52.3397C61.6884 52.0109 61.6526 51.5504 61.2937 51.2873L60.6836 50.794C60.1812 50.3994 59.8941 49.8074 59.8224 49.2155L59.7506 48.5577C59.7506 48.3604 59.7506 48.1302 59.6788 47.9L59.607 47.4067C59.5353 46.8476 59.1764 46.4201 58.674 46.0912L58.4228 46.0254C58.0639 45.8281 57.7051 45.5321 57.418 45.1375C57.1309 44.8086 56.9873 44.3482 56.8797 43.8878L56.772 43.3287C56.772 43.1314 56.6285 42.9998 56.4132 42.9011L55.839 42.7367L54.6906 42.4078C54.3318 42.3421 53.9729 42.079 53.7217 41.8488H53.6499C53.4346 41.5857 53.0757 41.5857 52.8604 41.783L52.5016 42.1119C52.4298 42.2105 52.358 42.2434 52.2504 42.2105C52.035 42.2105 51.8915 42.0461 51.9633 41.8816C52.035 41.3555 51.8197 40.8293 51.3532 40.5004L50.8867 40.1715L49.8101 39.5138C49.523 39.4151 49.0924 39.5138 48.9488 39.8427L48.8053 40.04C48.8053 40.1057 48.6976 40.1386 48.6617 40.1715C48.5182 40.1715 48.3029 40.1715 48.3029 40.0071L48.1952 39.8427C48.0876 39.6453 47.8364 39.5138 47.621 39.448L47.5134 39.2836ZM43.207 42.5723L43.0276 42.4078C42.8482 42.2763 42.6687 42.3092 42.4893 42.4736C42.2381 42.8683 42.0228 43.2958 41.9151 43.7233V43.7891C41.8075 44.2166 41.3768 44.5126 40.9462 44.4468H40.5873H40.5156C40.0132 44.4468 39.6184 44.8415 39.6184 45.3019C39.6184 45.8939 39.4031 46.4858 39.0083 46.9463L38.793 47.1436C38.4342 47.5711 37.8959 47.8671 37.3576 48.0315L37.0705 48.0973C36.7116 48.196 36.4245 48.4262 36.3528 48.8208C36.3528 49.1497 36.1374 49.4786 35.8504 49.7417L35.4915 50.0047C35.0609 50.4323 34.4149 50.6625 33.7689 50.7283L31.9746 50.8927C31.4005 50.8927 30.898 51.2216 30.5392 51.7149C30.1803 52.2082 29.642 52.5371 29.1037 52.6028L28.3142 52.6686C27.7401 52.7344 27.13 52.7344 26.5199 52.6028L26.1611 52.5371L25.1921 52.3068C24.8333 52.2082 24.5462 52.3068 24.3309 52.5371L23.972 52.9646C23.5055 53.4579 22.8236 53.6881 22.1777 53.6223L19.8451 53.3592C19.4862 53.3592 19.1991 53.1948 18.8762 53.0304C18.5173 52.833 18.2661 52.6028 18.0149 52.3726L17.1177 51.386C17.0101 51.3202 16.8306 51.2873 16.6512 51.3202L16.1488 51.5176L14.1392 51.978C13.7803 52.0766 13.3138 51.978 12.9549 51.7806C12.5961 51.5176 12.1654 51.4518 11.7348 51.4518H11.2683C10.8376 51.5504 10.5506 51.978 10.6941 52.3726L10.8376 53.0304C10.9453 53.3592 10.9094 53.7539 10.73 54.0827C10.5506 54.4116 10.5864 54.7405 10.8376 55.0694L11.053 55.3324C11.3401 55.7271 11.7707 56.056 12.1295 56.3848C12.4884 56.7137 12.8473 57.0426 13.1344 57.4701L13.6727 58.3581C13.9597 58.8185 14.3904 59.0816 14.9646 59.0816C15.5029 59.0816 16.0411 59.246 16.4718 59.5749L17.5484 60.4957C17.8355 60.7259 18.2661 60.7588 18.5532 60.5615L18.7326 60.4957C18.9479 60.4957 19.0915 60.6273 19.0915 60.8246V60.989C19.0915 61.4166 19.4503 61.8112 19.9169 61.9756L21.5317 62.3045C22.1059 62.4689 22.6801 62.6334 23.2184 62.9622H23.5055C23.7926 62.9622 24.0438 62.732 24.0079 62.4361V61.285C24.0079 60.9561 24.1514 60.6273 24.4385 60.4957L24.618 60.4299C24.7974 60.4957 24.9768 60.6273 24.905 60.7588V61.3179C24.905 61.7454 25.0486 62.1401 25.3716 62.4361C25.7304 62.7649 26.197 62.8307 26.5917 62.6991C27.0223 62.5347 27.453 62.5018 27.9195 62.5347L29.2473 62.6005C29.8932 62.6663 30.5033 62.6005 31.0416 62.3703C31.6875 62.173 32.2258 61.9099 32.7282 61.5481L32.9436 61.4165L34.0202 60.5286C34.379 60.1997 34.8455 60.0353 35.2762 60.0353H36.7116C37.4293 59.9695 38.0753 59.3776 38.1471 58.7198L38.2906 58.0621C38.2906 57.6345 38.5059 57.2399 38.8289 56.911C39.1878 56.5822 39.5466 56.3848 39.9055 56.2533L40.3361 56.0889C40.9462 55.8586 41.4127 55.3653 41.628 54.7734L41.8434 53.9841C42.0228 53.3263 42.3816 52.6686 42.9199 52.2411L42.9917 52.1753C43.4223 51.8464 43.4941 51.1887 43.207 50.7283L43.0994 50.4981C42.8482 50.1692 42.8123 49.6759 42.9917 49.2483C43.1711 48.7879 43.3506 48.3933 43.6377 47.9986L43.9965 47.5382C44.1401 47.2751 44.1401 46.8805 43.9248 46.6503C43.7094 46.3872 43.5659 46.0583 43.5659 45.7294L43.4941 45.269V44.1509C43.5659 43.822 43.4941 43.3945 43.3865 43.0656L43.2429 42.6709L43.207 42.5723ZM38.0753 40.0729V39.9742C38.0753 39.6453 37.86 39.448 37.5729 39.448H36.6398C36.281 39.5138 35.9221 39.5138 35.635 39.448H34.0202C33.1948 39.448 32.4053 39.3165 31.6158 39.1191L30.7545 38.9218L30.0368 38.7245L28.4219 38.2312C27.5606 38.001 26.9147 37.4748 26.5199 36.7513L26.3405 36.4224C26.0893 35.9291 25.551 35.666 25.0127 35.7647C24.4026 35.7647 23.7926 35.7647 23.2184 35.5016L22.7878 35.3371C21.9624 35.0083 21.3523 34.3505 21.3523 33.4626L21.2088 32.5746C21.1011 32.1142 20.7781 31.6867 20.3475 31.5222C19.8451 31.3249 19.3786 31.0618 18.912 30.7658L18.7326 30.6672C18.1943 30.2725 17.7278 29.7463 17.4766 29.1215L17.4048 28.9242C17.2254 28.398 17.1895 27.8389 17.3331 27.2798L17.4048 27.0825C17.5484 26.6549 17.5843 26.2274 17.5843 25.767C17.5843 25.3724 17.4048 24.9777 17.0818 24.6817L16.5794 24.2542C16.0053 23.8267 15.6464 23.2018 15.6105 22.5112C15.5387 21.7877 15.5387 21.097 15.6823 20.4064V20.3077V20.2091C15.6823 19.8144 15.3234 19.5513 14.9646 19.5513H14.8569C14.3904 19.5513 13.9956 19.8144 13.7803 20.2091C13.6009 20.6695 13.3138 21.0313 12.9908 21.393L12.8473 21.5575L12.1295 22.2152L11.7707 22.5441C11.4118 22.8729 11.1965 23.3662 11.1247 23.8595C11.053 24.3529 10.9094 24.8462 10.6941 25.3066L10.6223 25.471C10.4429 25.8657 10.1558 26.2274 9.79694 26.4576C9.43808 26.7207 9.18688 27.1154 9.18688 27.51L9.1151 29.0228C9.1151 29.6806 9.00745 30.3383 8.75624 30.996L8.68447 31.2591C8.50504 31.6867 8.68447 32.1471 9.1151 32.3444L10.6223 32.9364L10.7659 33.0021C10.8735 33.0021 10.9094 33.0679 10.9453 33.1666C11.053 33.2981 10.9453 33.4955 10.8376 33.4955L10.4788 33.6599C10.2635 33.7257 10.1199 33.923 10.0481 34.1532L9.97637 34.4821V34.5478L9.61751 36.3895C9.54574 36.6526 9.54574 36.9486 9.54574 37.2446C9.54574 37.5077 9.72517 37.7379 9.97637 37.8365L10.7659 38.1654C11.1247 38.3627 11.5554 38.5929 11.8425 38.8232L12.2013 39.0862C12.309 39.2178 12.4884 39.3493 12.632 39.4151L12.7755 39.5467C13.0267 39.744 13.2061 40.0071 13.2779 40.3031L13.6368 41.783C13.6368 42.1776 13.9956 42.5065 14.3545 42.6052L14.9287 42.7696C14.9287 42.7696 15.0363 42.7696 15.1081 42.8354L15.8258 43.0327C16.4 43.1971 16.9024 43.4931 17.3331 43.8878C17.7637 44.2166 18.1943 44.6442 18.5532 45.1046L18.6967 45.2361C18.9838 45.565 19.4145 45.7294 19.8451 45.6308C20.2757 45.5321 20.7422 45.4992 21.2088 45.4992H21.7471C22.1059 45.4992 22.5724 45.5979 22.9672 45.8281C23.3261 46.0254 23.7926 46.157 24.2232 46.3214H24.3309C24.7615 46.4858 25.228 46.4201 25.5869 46.1899C25.9458 45.9268 26.4123 45.7952 26.8788 45.7952L28.5654 45.8939C28.9243 45.8939 29.2832 45.8281 29.4626 45.565H29.5344L30.1444 45.0388L30.3239 44.8744C30.611 44.5455 31.0416 44.4139 31.4722 44.3811H33.0871C33.5177 44.3811 33.9125 44.0522 34.0919 43.7233C34.2714 43.3945 34.6302 43.1314 35.0609 43.0656L35.7786 42.934C36.0657 42.934 36.3169 42.7038 36.4245 42.4078C36.5322 42.079 36.7116 41.8159 36.9628 41.6186L37.537 41.0924C37.8959 40.7635 38.0753 40.4346 38.1471 40.04L38.0753 40.0729Z" fill="black"/>
</svg>
