<svg width="739" height="540" viewBox="0 0 739 540" fill="none" xmlns="http://www.w3.org/2000/svg">
<rect x="5.51733" y="58.9636" width="727.722" height="475.673" fill="white" stroke="#252424" stroke-width="10"/>
<rect x="33.3265" y="107.584" width="270.955" height="40.4342" rx="12.5" fill="#48AE70" stroke="#252424" stroke-width="3"/>
<rect x="400.231" y="107.584" width="270.955" height="40.4342" rx="12.5" fill="#48AE70" stroke="#252424" stroke-width="3"/>
<rect x="33.3265" y="203.93" width="637.859" height="230.755" rx="14.5" fill="#48AE70" stroke="#252424" stroke-width="3"/>
<path d="M38.0185 189.59V194.369H36.4345V189.608L32.2495 181.976H33.9775L37.2625 188.186L40.5835 181.976H42.2035L38.0185 189.59ZM48.0374 184.694C48.9314 184.694 49.6784 184.898 50.2784 185.306C50.8844 185.708 51.3374 186.278 51.6374 187.016C51.9434 187.754 52.0964 188.624 52.0964 189.626C52.0964 190.592 51.9404 191.447 51.6284 192.191C51.3164 192.935 50.8574 193.52 50.2514 193.946C49.6514 194.366 48.9074 194.576 48.0194 194.576C47.1314 194.576 46.3844 194.372 45.7784 193.964C45.1724 193.556 44.7134 192.983 44.4014 192.245C44.0954 191.501 43.9424 190.634 43.9424 189.644C43.9424 188.666 44.0984 187.805 44.4104 187.061C44.7224 186.317 45.1814 185.738 45.7874 185.324C46.3994 184.904 47.1494 184.694 48.0374 184.694ZM48.0374 185.927C47.2214 185.927 46.6034 186.23 46.1834 186.836C45.7694 187.436 45.5624 188.372 45.5624 189.644C45.5624 190.892 45.7664 191.819 46.1744 192.425C46.5884 193.031 47.2034 193.334 48.0194 193.334C48.8354 193.334 49.4474 193.031 49.8554 192.425C50.2694 191.819 50.4764 190.886 50.4764 189.626C50.4764 188.366 50.2724 187.436 49.8644 186.836C49.4564 186.23 48.8474 185.927 48.0374 185.927ZM56.7334 184.892V191.606C56.7334 192.23 56.8624 192.68 57.1204 192.956C57.3784 193.232 57.7804 193.37 58.3264 193.37C58.8484 193.37 59.3404 193.223 59.8024 192.929C60.2704 192.629 60.6334 192.275 60.8914 191.867V184.892H62.4034V194.369H61.1164L60.9904 193.091C60.6184 193.571 60.1594 193.94 59.6134 194.198C59.0674 194.45 58.5154 194.576 57.9574 194.576C57.0394 194.576 56.3524 194.333 55.8964 193.847C55.4464 193.355 55.2214 192.668 55.2214 191.786V184.892H56.7334ZM66.1044 194.369V193.208H67.5804V186.053H66.1044V184.892H68.7324L69.0114 187.133C69.3774 186.353 69.8214 185.75 70.3434 185.324C70.8654 184.898 71.5554 184.685 72.4134 184.685C72.6774 184.685 72.9114 184.706 73.1154 184.748C73.3254 184.784 73.5384 184.832 73.7544 184.892L73.3134 186.242C73.1154 186.188 72.9354 186.149 72.7734 186.125C72.6114 186.095 72.4254 186.08 72.2154 186.08C71.4894 186.08 70.8654 186.338 70.3434 186.854C69.8214 187.37 69.4044 188.15 69.0924 189.194V193.208H71.0184V194.369H66.1044ZM72.2964 188.096V186.035L72.4494 184.892H73.7544L73.5384 188.096H72.2964ZM93.8463 184.694C94.1523 184.694 94.4433 184.76 94.7193 184.892C95.0013 185.024 95.2323 185.279 95.4123 185.657C95.5923 186.035 95.6823 186.587 95.6823 187.313V194.369H94.2783V187.556C94.2783 186.962 94.2423 186.533 94.1703 186.269C94.0983 186.005 93.8913 185.873 93.5493 185.873C93.2673 185.873 92.9853 185.963 92.7033 186.143C92.4273 186.317 92.1573 186.605 91.8933 187.007V194.369H90.4803V187.556C90.4803 186.962 90.4443 186.533 90.3723 186.269C90.3003 186.005 90.0933 185.873 89.7513 185.873C89.4573 185.873 89.1723 185.963 88.8963 186.143C88.6263 186.317 88.3593 186.605 88.0953 187.007V194.369H86.7003V184.892H87.8883L87.9783 185.99C88.2363 185.624 88.5243 185.318 88.8423 185.072C89.1663 184.82 89.5653 184.694 90.0393 184.694C90.3993 184.694 90.7383 184.781 91.0563 184.955C91.3743 185.123 91.6083 185.453 91.7583 185.945C92.0163 185.573 92.3073 185.273 92.6313 185.045C92.9553 184.811 93.3603 184.694 93.8463 184.694ZM99.5813 190.166C99.6113 190.898 99.7523 191.498 100.004 191.966C100.256 192.428 100.589 192.77 101.003 192.992C101.417 193.208 101.867 193.316 102.353 193.316C102.839 193.316 103.277 193.244 103.667 193.1C104.063 192.956 104.468 192.743 104.882 192.461L105.593 193.46C105.149 193.808 104.642 194.081 104.072 194.279C103.508 194.477 102.929 194.576 102.335 194.576C101.417 194.576 100.634 194.369 99.9863 193.955C99.3383 193.541 98.8433 192.965 98.5013 192.227C98.1653 191.483 97.9973 190.622 97.9973 189.644C97.9973 188.684 98.1683 187.832 98.5103 187.088C98.8523 186.344 99.3323 185.759 99.9503 185.333C100.568 184.907 101.297 184.694 102.137 184.694C102.935 184.694 103.622 184.883 104.198 185.261C104.774 185.633 105.215 186.167 105.521 186.863C105.833 187.553 105.989 188.378 105.989 189.338C105.989 189.5 105.986 189.653 105.98 189.797C105.974 189.935 105.965 190.058 105.953 190.166H99.5813ZM102.155 185.936C101.453 185.936 100.865 186.185 100.391 186.683C99.9233 187.181 99.6563 187.952 99.5903 188.996H104.531C104.513 187.982 104.291 187.22 103.865 186.71C103.439 186.194 102.869 185.936 102.155 185.936ZM112.408 193.325C113.134 193.325 113.707 193.19 114.127 192.92C114.553 192.644 114.766 192.278 114.766 191.822C114.766 191.534 114.712 191.285 114.604 191.075C114.502 190.865 114.289 190.676 113.965 190.508C113.641 190.34 113.143 190.172 112.471 190.004C111.817 189.842 111.247 189.656 110.761 189.446C110.281 189.23 109.906 188.951 109.636 188.609C109.372 188.267 109.24 187.823 109.24 187.277C109.24 186.743 109.39 186.284 109.69 185.9C109.996 185.51 110.419 185.213 110.959 185.009C111.499 184.799 112.126 184.694 112.84 184.694C113.602 184.694 114.265 184.796 114.829 185C115.399 185.198 115.882 185.444 116.278 185.738L115.612 186.764C115.252 186.518 114.856 186.317 114.424 186.161C113.992 185.999 113.47 185.918 112.858 185.918C112.114 185.918 111.586 186.035 111.274 186.269C110.962 186.497 110.806 186.794 110.806 187.16C110.806 187.436 110.881 187.667 111.031 187.853C111.187 188.033 111.448 188.198 111.814 188.348C112.18 188.492 112.684 188.651 113.326 188.825C113.944 188.987 114.481 189.182 114.937 189.41C115.399 189.638 115.759 189.938 116.017 190.31C116.275 190.682 116.404 191.162 116.404 191.75C116.404 192.422 116.212 192.968 115.828 193.388C115.444 193.802 114.946 194.105 114.334 194.297C113.728 194.483 113.086 194.576 112.408 194.576C111.55 194.576 110.818 194.453 110.212 194.207C109.612 193.955 109.108 193.652 108.7 193.298L109.564 192.299C109.936 192.605 110.362 192.854 110.842 193.046C111.328 193.232 111.85 193.325 112.408 193.325ZM123.201 193.325C123.927 193.325 124.5 193.19 124.92 192.92C125.346 192.644 125.559 192.278 125.559 191.822C125.559 191.534 125.505 191.285 125.397 191.075C125.295 190.865 125.082 190.676 124.758 190.508C124.434 190.34 123.936 190.172 123.264 190.004C122.61 189.842 122.04 189.656 121.554 189.446C121.074 189.23 120.699 188.951 120.429 188.609C120.165 188.267 120.033 187.823 120.033 187.277C120.033 186.743 120.183 186.284 120.483 185.9C120.789 185.51 121.212 185.213 121.752 185.009C122.292 184.799 122.919 184.694 123.633 184.694C124.395 184.694 125.058 184.796 125.622 185C126.192 185.198 126.675 185.444 127.071 185.738L126.405 186.764C126.045 186.518 125.649 186.317 125.217 186.161C124.785 185.999 124.263 185.918 123.651 185.918C122.907 185.918 122.379 186.035 122.067 186.269C121.755 186.497 121.599 186.794 121.599 187.16C121.599 187.436 121.674 187.667 121.824 187.853C121.98 188.033 122.241 188.198 122.607 188.348C122.973 188.492 123.477 188.651 124.119 188.825C124.737 188.987 125.274 189.182 125.73 189.41C126.192 189.638 126.552 189.938 126.81 190.31C127.068 190.682 127.197 191.162 127.197 191.75C127.197 192.422 127.005 192.968 126.621 193.388C126.237 193.802 125.739 194.105 125.127 194.297C124.521 194.483 123.879 194.576 123.201 194.576C122.343 194.576 121.611 194.453 121.005 194.207C120.405 193.955 119.901 193.652 119.493 193.298L120.357 192.299C120.729 192.605 121.155 192.854 121.635 193.046C122.121 193.232 122.643 193.325 123.201 193.325ZM137.558 192.299C137.558 192.677 137.621 192.953 137.747 193.127C137.873 193.301 138.068 193.43 138.332 193.514L137.963 194.576C137.555 194.522 137.198 194.393 136.892 194.189C136.586 193.979 136.364 193.664 136.226 193.244C135.884 193.682 135.458 194.015 134.948 194.243C134.438 194.465 133.874 194.576 133.256 194.576C132.308 194.576 131.561 194.309 131.015 193.775C130.469 193.241 130.196 192.533 130.196 191.651C130.196 190.673 130.577 189.923 131.339 189.401C132.101 188.879 133.202 188.618 134.642 188.618H136.037V187.826C136.037 187.142 135.836 186.659 135.434 186.377C135.038 186.089 134.486 185.945 133.778 185.945C133.466 185.945 133.1 185.984 132.68 186.062C132.26 186.134 131.804 186.257 131.312 186.431L130.916 185.288C131.498 185.072 132.044 184.919 132.554 184.829C133.064 184.739 133.55 184.694 134.012 184.694C135.194 184.694 136.079 184.97 136.667 185.522C137.261 186.068 137.558 186.812 137.558 187.754V192.299ZM133.643 193.424C134.111 193.424 134.558 193.307 134.984 193.073C135.41 192.833 135.761 192.503 136.037 192.083V189.644H134.669C133.625 189.644 132.887 189.824 132.455 190.184C132.029 190.544 131.816 191.027 131.816 191.633C131.816 192.221 131.966 192.668 132.266 192.974C132.572 193.274 133.031 193.424 133.643 193.424ZM149.269 183.884L149.737 185.306C149.335 185.432 148.906 185.51 148.45 185.54C147.994 185.57 147.499 185.585 146.965 185.585C147.511 185.837 147.922 186.164 148.198 186.566C148.474 186.962 148.612 187.43 148.612 187.97C148.612 188.594 148.471 189.149 148.189 189.635C147.907 190.121 147.499 190.502 146.965 190.778C146.437 191.054 145.798 191.192 145.048 191.192C144.73 191.192 144.463 191.177 144.247 191.147C144.037 191.117 143.833 191.072 143.635 191.012C143.491 191.108 143.371 191.24 143.275 191.408C143.185 191.576 143.14 191.75 143.14 191.93C143.14 192.158 143.23 192.347 143.41 192.497C143.59 192.647 143.923 192.722 144.409 192.722H146.119C146.755 192.722 147.325 192.836 147.829 193.064C148.339 193.292 148.738 193.598 149.026 193.982C149.32 194.366 149.467 194.804 149.467 195.296C149.467 196.226 149.071 196.94 148.279 197.438C147.493 197.936 146.38 198.185 144.94 198.185C143.932 198.185 143.137 198.08 142.555 197.87C141.973 197.666 141.556 197.351 141.304 196.925C141.058 196.505 140.935 195.974 140.935 195.332H142.303C142.303 195.698 142.375 196.001 142.519 196.241C142.663 196.481 142.924 196.658 143.302 196.772C143.68 196.892 144.223 196.952 144.931 196.952C145.627 196.952 146.194 196.892 146.632 196.772C147.076 196.658 147.403 196.484 147.613 196.25C147.829 196.022 147.937 195.737 147.937 195.395C147.937 194.945 147.733 194.606 147.325 194.378C146.917 194.15 146.407 194.036 145.795 194.036H144.103C143.287 194.036 142.684 193.856 142.294 193.496C141.91 193.136 141.718 192.722 141.718 192.254C141.718 191.948 141.805 191.651 141.979 191.363C142.159 191.075 142.42 190.82 142.762 190.598C142.216 190.31 141.814 189.953 141.556 189.527C141.298 189.101 141.169 188.585 141.169 187.979C141.169 187.337 141.328 186.77 141.646 186.278C141.964 185.78 142.408 185.39 142.978 185.108C143.548 184.826 144.205 184.685 144.949 184.685C145.747 184.679 146.395 184.646 146.893 184.586C147.391 184.52 147.817 184.427 148.171 184.307C148.531 184.187 148.897 184.046 149.269 183.884ZM144.949 185.792C144.187 185.792 143.623 185.999 143.257 186.413C142.897 186.821 142.717 187.343 142.717 187.979C142.717 188.621 142.903 189.149 143.275 189.563C143.647 189.977 144.217 190.184 144.985 190.184C145.657 190.184 146.167 189.989 146.515 189.599C146.869 189.209 147.046 188.666 147.046 187.97C147.046 187.256 146.869 186.716 146.515 186.35C146.167 185.978 145.645 185.792 144.949 185.792ZM153.546 190.166C153.576 190.898 153.717 191.498 153.969 191.966C154.221 192.428 154.554 192.77 154.968 192.992C155.382 193.208 155.832 193.316 156.318 193.316C156.804 193.316 157.242 193.244 157.632 193.1C158.028 192.956 158.433 192.743 158.847 192.461L159.558 193.46C159.114 193.808 158.607 194.081 158.037 194.279C157.473 194.477 156.894 194.576 156.3 194.576C155.382 194.576 154.599 194.369 153.951 193.955C153.303 193.541 152.808 192.965 152.466 192.227C152.13 191.483 151.962 190.622 151.962 189.644C151.962 188.684 152.133 187.832 152.475 187.088C152.817 186.344 153.297 185.759 153.915 185.333C154.533 184.907 155.262 184.694 156.102 184.694C156.9 184.694 157.587 184.883 158.163 185.261C158.739 185.633 159.18 186.167 159.486 186.863C159.798 187.553 159.954 188.378 159.954 189.338C159.954 189.5 159.951 189.653 159.945 189.797C159.939 189.935 159.93 190.058 159.918 190.166H153.546ZM156.12 185.936C155.418 185.936 154.83 186.185 154.356 186.683C153.888 187.181 153.621 187.952 153.555 188.996H158.496C158.478 187.982 158.256 187.22 157.83 186.71C157.404 186.194 156.834 185.936 156.12 185.936Z" fill="#252424"/>
<rect x="31.8265" y="463.035" width="320.919" height="39.4856" rx="19.7428" fill="#48AE70"/>
<path d="M38.0185 93.2452V98.0242H36.4345V93.2632L32.2495 85.6312H33.9775L37.2625 91.8412L40.5835 85.6312H42.2035L38.0185 93.2452ZM48.0374 88.3492C48.9314 88.3492 49.6784 88.5532 50.2784 88.9612C50.8844 89.3632 51.3374 89.9332 51.6374 90.6712C51.9434 91.4092 52.0964 92.2792 52.0964 93.2812C52.0964 94.2472 51.9404 95.1022 51.6284 95.8462C51.3164 96.5902 50.8574 97.1752 50.2514 97.6012C49.6514 98.0212 48.9074 98.2312 48.0194 98.2312C47.1314 98.2312 46.3844 98.0272 45.7784 97.6192C45.1724 97.2112 44.7134 96.6382 44.4014 95.9002C44.0954 95.1562 43.9424 94.2892 43.9424 93.2992C43.9424 92.3212 44.0984 91.4602 44.4104 90.7162C44.7224 89.9722 45.1814 89.3932 45.7874 88.9792C46.3994 88.5592 47.1494 88.3492 48.0374 88.3492ZM48.0374 89.5822C47.2214 89.5822 46.6034 89.8852 46.1834 90.4912C45.7694 91.0912 45.5624 92.0272 45.5624 93.2992C45.5624 94.5472 45.7664 95.4742 46.1744 96.0802C46.5884 96.6862 47.2034 96.9892 48.0194 96.9892C48.8354 96.9892 49.4474 96.6862 49.8554 96.0802C50.2694 95.4742 50.4764 94.5412 50.4764 93.2812C50.4764 92.0212 50.2724 91.0912 49.8644 90.4912C49.4564 89.8852 48.8474 89.5822 48.0374 89.5822ZM56.7334 88.5472V95.2612C56.7334 95.8852 56.8624 96.3352 57.1204 96.6112C57.3784 96.8872 57.7804 97.0252 58.3264 97.0252C58.8484 97.0252 59.3404 96.8782 59.8024 96.5842C60.2704 96.2842 60.6334 95.9302 60.8914 95.5222V88.5472H62.4034V98.0242H61.1164L60.9904 96.7462C60.6184 97.2262 60.1594 97.5952 59.6134 97.8532C59.0674 98.1052 58.5154 98.2312 57.9574 98.2312C57.0394 98.2312 56.3524 97.9882 55.8964 97.5022C55.4464 97.0102 55.2214 96.3232 55.2214 95.4412V88.5472H56.7334ZM66.1044 98.0242V96.8632H67.5804V89.7082H66.1044V88.5472H68.7324L69.0114 90.7882C69.3774 90.0082 69.8214 89.4052 70.3434 88.9792C70.8654 88.5532 71.5554 88.3402 72.4134 88.3402C72.6774 88.3402 72.9114 88.3612 73.1154 88.4032C73.3254 88.4392 73.5384 88.4872 73.7544 88.5472L73.3134 89.8972C73.1154 89.8432 72.9354 89.8042 72.7734 89.7802C72.6114 89.7502 72.4254 89.7352 72.2154 89.7352C71.4894 89.7352 70.8654 89.9932 70.3434 90.5092C69.8214 91.0252 69.4044 91.8052 69.0924 92.8492V96.8632H71.0184V98.0242H66.1044ZM72.2964 91.7512V89.6902L72.4494 88.5472H73.7544L73.5384 91.7512H72.2964ZM87.6003 98.0242V88.5472H88.8873L89.0043 89.8612C89.3883 89.3752 89.8683 89.0032 90.4443 88.7452C91.0263 88.4812 91.5903 88.3492 92.1363 88.3492C93.0663 88.3492 93.7413 88.5952 94.1613 89.0872C94.5873 89.5792 94.8003 90.2632 94.8003 91.1392V98.0242H93.2883V92.2552C93.2883 91.6072 93.2523 91.0852 93.1803 90.6892C93.1083 90.2872 92.9583 89.9962 92.7303 89.8162C92.5023 89.6302 92.1483 89.5372 91.6683 89.5372C91.2963 89.5372 90.9453 89.6182 90.6153 89.7802C90.2913 89.9422 90.0003 90.1462 89.7423 90.3922C89.4903 90.6322 89.2803 90.8752 89.1123 91.1212V98.0242H87.6003ZM105.179 95.9542C105.179 96.3322 105.242 96.6082 105.368 96.7822C105.494 96.9562 105.689 97.0852 105.953 97.1692L105.584 98.2312C105.176 98.1772 104.819 98.0482 104.513 97.8442C104.207 97.6342 103.985 97.3192 103.847 96.8992C103.505 97.3372 103.079 97.6702 102.569 97.8982C102.059 98.1202 101.495 98.2312 100.877 98.2312C99.9293 98.2312 99.1823 97.9642 98.6363 97.4302C98.0903 96.8962 97.8173 96.1882 97.8173 95.3062C97.8173 94.3282 98.1983 93.5782 98.9603 93.0562C99.7223 92.5342 100.823 92.2732 102.263 92.2732H103.658V91.4812C103.658 90.7972 103.457 90.3142 103.055 90.0322C102.659 89.7442 102.107 89.6002 101.399 89.6002C101.087 89.6002 100.721 89.6392 100.301 89.7172C99.8813 89.7892 99.4253 89.9122 98.9333 90.0862L98.5373 88.9432C99.1193 88.7272 99.6653 88.5742 100.175 88.4842C100.685 88.3942 101.171 88.3492 101.633 88.3492C102.815 88.3492 103.7 88.6252 104.288 89.1772C104.882 89.7232 105.179 90.4672 105.179 91.4092V95.9542ZM101.264 97.0792C101.732 97.0792 102.179 96.9622 102.605 96.7282C103.031 96.4882 103.382 96.1582 103.658 95.7382V93.2992H102.29C101.246 93.2992 100.508 93.4792 100.076 93.8392C99.6503 94.1992 99.4373 94.6822 99.4373 95.2882C99.4373 95.8762 99.5873 96.3232 99.8873 96.6292C100.193 96.9292 100.652 97.0792 101.264 97.0792ZM115.432 88.3492C115.738 88.3492 116.029 88.4152 116.305 88.5472C116.587 88.6792 116.818 88.9342 116.998 89.3122C117.178 89.6902 117.268 90.2422 117.268 90.9682V98.0242H115.864V91.2112C115.864 90.6172 115.828 90.1882 115.756 89.9242C115.684 89.6602 115.477 89.5282 115.135 89.5282C114.853 89.5282 114.571 89.6182 114.289 89.7982C114.013 89.9722 113.743 90.2602 113.479 90.6622V98.0242H112.066V91.2112C112.066 90.6172 112.03 90.1882 111.958 89.9242C111.886 89.6602 111.679 89.5282 111.337 89.5282C111.043 89.5282 110.758 89.6182 110.482 89.7982C110.212 89.9722 109.945 90.2602 109.681 90.6622V98.0242H108.286V88.5472H109.474L109.564 89.6452C109.822 89.2792 110.11 88.9732 110.428 88.7272C110.752 88.4752 111.151 88.3492 111.625 88.3492C111.985 88.3492 112.324 88.4362 112.642 88.6102C112.96 88.7782 113.194 89.1082 113.344 89.6002C113.602 89.2282 113.893 88.9282 114.217 88.7002C114.541 88.4662 114.946 88.3492 115.432 88.3492ZM121.167 93.8212C121.197 94.5532 121.338 95.1532 121.59 95.6212C121.842 96.0832 122.175 96.4252 122.589 96.6472C123.003 96.8632 123.453 96.9712 123.939 96.9712C124.425 96.9712 124.863 96.8992 125.253 96.7552C125.649 96.6112 126.054 96.3982 126.468 96.1162L127.179 97.1152C126.735 97.4632 126.228 97.7362 125.658 97.9342C125.094 98.1322 124.515 98.2312 123.921 98.2312C123.003 98.2312 122.22 98.0242 121.572 97.6102C120.924 97.1962 120.429 96.6202 120.087 95.8822C119.751 95.1382 119.583 94.2772 119.583 93.2992C119.583 92.3392 119.754 91.4872 120.096 90.7432C120.438 89.9992 120.918 89.4142 121.536 88.9882C122.154 88.5622 122.883 88.3492 123.723 88.3492C124.521 88.3492 125.208 88.5382 125.784 88.9162C126.36 89.2882 126.801 89.8222 127.107 90.5182C127.419 91.2082 127.575 92.0332 127.575 92.9932C127.575 93.1552 127.572 93.3082 127.566 93.4522C127.56 93.5902 127.551 93.7132 127.539 93.8212H121.167ZM123.741 89.5912C123.039 89.5912 122.451 89.8402 121.977 90.3382C121.509 90.8362 121.242 91.6072 121.176 92.6512H126.117C126.099 91.6372 125.877 90.8752 125.451 90.3652C125.025 89.8492 124.455 89.5912 123.741 89.5912Z" fill="#252424"/>
<path d="M404.923 93.2452V98.0242H403.339V93.2632L399.154 85.6312H400.882L404.167 91.8412L407.488 85.6312H409.108L404.923 93.2452ZM414.942 88.3492C415.836 88.3492 416.583 88.5532 417.183 88.9612C417.789 89.3632 418.242 89.9332 418.542 90.6712C418.848 91.4092 419.001 92.2792 419.001 93.2812C419.001 94.2472 418.845 95.1022 418.533 95.8462C418.221 96.5902 417.762 97.1752 417.156 97.6012C416.556 98.0212 415.812 98.2312 414.924 98.2312C414.036 98.2312 413.289 98.0272 412.683 97.6192C412.077 97.2112 411.618 96.6382 411.306 95.9002C411 95.1562 410.847 94.2892 410.847 93.2992C410.847 92.3212 411.003 91.4602 411.315 90.7162C411.627 89.9722 412.086 89.3932 412.692 88.9792C413.304 88.5592 414.054 88.3492 414.942 88.3492ZM414.942 89.5822C414.126 89.5822 413.508 89.8852 413.088 90.4912C412.674 91.0912 412.467 92.0272 412.467 93.2992C412.467 94.5472 412.671 95.4742 413.079 96.0802C413.493 96.6862 414.108 96.9892 414.924 96.9892C415.74 96.9892 416.352 96.6862 416.76 96.0802C417.174 95.4742 417.381 94.5412 417.381 93.2812C417.381 92.0212 417.177 91.0912 416.769 90.4912C416.361 89.8852 415.752 89.5822 414.942 89.5822ZM423.638 88.5472V95.2612C423.638 95.8852 423.767 96.3352 424.025 96.6112C424.283 96.8872 424.685 97.0252 425.231 97.0252C425.753 97.0252 426.245 96.8782 426.707 96.5842C427.175 96.2842 427.538 95.9302 427.796 95.5222V88.5472H429.308V98.0242H428.021L427.895 96.7462C427.523 97.2262 427.064 97.5952 426.518 97.8532C425.972 98.1052 425.42 98.2312 424.862 98.2312C423.944 98.2312 423.257 97.9882 422.801 97.5022C422.351 97.0102 422.126 96.3232 422.126 95.4412V88.5472H423.638ZM433.009 98.0242V96.8632H434.485V89.7082H433.009V88.5472H435.637L435.916 90.7882C436.282 90.0082 436.726 89.4052 437.248 88.9792C437.77 88.5532 438.46 88.3402 439.318 88.3402C439.582 88.3402 439.816 88.3612 440.02 88.4032C440.23 88.4392 440.443 88.4872 440.659 88.5472L440.218 89.8972C440.02 89.8432 439.84 89.8042 439.678 89.7802C439.516 89.7502 439.33 89.7352 439.12 89.7352C438.394 89.7352 437.77 89.9932 437.248 90.5092C436.726 91.0252 436.309 91.8052 435.997 92.8492V96.8632H437.923V98.0242H433.009ZM439.201 91.7512V89.6902L439.354 88.5472H440.659L440.443 91.7512H439.201ZM455.693 93.8212C455.723 94.5532 455.864 95.1532 456.116 95.6212C456.368 96.0832 456.701 96.4252 457.115 96.6472C457.529 96.8632 457.979 96.9712 458.465 96.9712C458.951 96.9712 459.389 96.8992 459.779 96.7552C460.175 96.6112 460.58 96.3982 460.994 96.1162L461.705 97.1152C461.261 97.4632 460.754 97.7362 460.184 97.9342C459.62 98.1322 459.041 98.2312 458.447 98.2312C457.529 98.2312 456.746 98.0242 456.098 97.6102C455.45 97.1962 454.955 96.6202 454.613 95.8822C454.277 95.1382 454.109 94.2772 454.109 93.2992C454.109 92.3392 454.28 91.4872 454.622 90.7432C454.964 89.9992 455.444 89.4142 456.062 88.9882C456.68 88.5622 457.409 88.3492 458.249 88.3492C459.047 88.3492 459.734 88.5382 460.31 88.9162C460.886 89.2882 461.327 89.8222 461.633 90.5182C461.945 91.2082 462.101 92.0332 462.101 92.9932C462.101 93.1552 462.098 93.3082 462.092 93.4522C462.086 93.5902 462.077 93.7132 462.065 93.8212H455.693ZM458.267 89.5912C457.565 89.5912 456.977 89.8402 456.503 90.3382C456.035 90.8362 455.768 91.6072 455.702 92.6512H460.643C460.625 91.6372 460.403 90.8752 459.977 90.3652C459.551 89.8492 458.981 89.5912 458.267 89.5912ZM471.544 88.3492C471.85 88.3492 472.141 88.4152 472.417 88.5472C472.699 88.6792 472.93 88.9342 473.11 89.3122C473.29 89.6902 473.38 90.2422 473.38 90.9682V98.0242H471.976V91.2112C471.976 90.6172 471.94 90.1882 471.868 89.9242C471.796 89.6602 471.589 89.5282 471.247 89.5282C470.965 89.5282 470.683 89.6182 470.401 89.7982C470.125 89.9722 469.855 90.2602 469.591 90.6622V98.0242H468.178V91.2112C468.178 90.6172 468.142 90.1882 468.07 89.9242C467.998 89.6602 467.791 89.5282 467.449 89.5282C467.155 89.5282 466.87 89.6182 466.594 89.7982C466.324 89.9722 466.057 90.2602 465.793 90.6622V98.0242H464.398V88.5472H465.586L465.676 89.6452C465.934 89.2792 466.222 88.9732 466.54 88.7272C466.864 88.4752 467.263 88.3492 467.737 88.3492C468.097 88.3492 468.436 88.4362 468.754 88.6102C469.072 88.7782 469.306 89.1082 469.456 89.6002C469.714 89.2282 470.005 88.9282 470.329 88.7002C470.653 88.4662 471.058 88.3492 471.544 88.3492ZM482.877 95.9542C482.877 96.3322 482.94 96.6082 483.066 96.7822C483.192 96.9562 483.387 97.0852 483.651 97.1692L483.282 98.2312C482.874 98.1772 482.517 98.0482 482.211 97.8442C481.905 97.6342 481.683 97.3192 481.545 96.8992C481.203 97.3372 480.777 97.6702 480.267 97.8982C479.757 98.1202 479.193 98.2312 478.575 98.2312C477.627 98.2312 476.88 97.9642 476.334 97.4302C475.788 96.8962 475.515 96.1882 475.515 95.3062C475.515 94.3282 475.896 93.5782 476.658 93.0562C477.42 92.5342 478.521 92.2732 479.961 92.2732H481.356V91.4812C481.356 90.7972 481.155 90.3142 480.753 90.0322C480.357 89.7442 479.805 89.6002 479.097 89.6002C478.785 89.6002 478.419 89.6392 477.999 89.7172C477.579 89.7892 477.123 89.9122 476.631 90.0862L476.235 88.9432C476.817 88.7272 477.363 88.5742 477.873 88.4842C478.383 88.3942 478.869 88.3492 479.331 88.3492C480.513 88.3492 481.398 88.6252 481.986 89.1772C482.58 89.7232 482.877 90.4672 482.877 91.4092V95.9542ZM478.962 97.0792C479.43 97.0792 479.877 96.9622 480.303 96.7282C480.729 96.4882 481.08 96.1582 481.356 95.7382V93.2992H479.988C478.944 93.2992 478.206 93.4792 477.774 93.8392C477.348 94.1992 477.135 94.6822 477.135 95.2882C477.135 95.8762 477.285 96.3232 477.585 96.6292C477.891 96.9292 478.35 97.0792 478.962 97.0792ZM491.68 88.5472V96.8272H494.353V98.0242H487.243V96.8272H490.168V89.7442H487.333V88.5472H491.68ZM490.474 84.1102C490.81 84.1102 491.077 84.2122 491.275 84.4162C491.479 84.6202 491.581 84.8692 491.581 85.1632C491.581 85.4692 491.479 85.7272 491.275 85.9372C491.077 86.1412 490.81 86.2432 490.474 86.2432C490.156 86.2432 489.895 86.1412 489.691 85.9372C489.487 85.7272 489.385 85.4692 489.385 85.1632C489.385 84.8692 489.487 84.6202 489.691 84.4162C489.895 84.2122 490.156 84.1102 490.474 84.1102ZM501.366 84.7312V95.6842C501.366 96.1522 501.51 96.4852 501.798 96.6832C502.092 96.8752 502.47 96.9712 502.932 96.9712C503.22 96.9712 503.493 96.9412 503.751 96.8812C504.009 96.8212 504.267 96.7402 504.525 96.6382L504.93 97.7452C504.672 97.8712 504.351 97.9822 503.967 98.0782C503.589 98.1802 503.16 98.2312 502.68 98.2312C501.84 98.2312 501.159 98.0002 500.637 97.5382C500.115 97.0702 499.854 96.4252 499.854 95.6032V85.9282H496.947V84.7312H501.366Z" fill="#252424"/>
<path d="M289.74 9.015C291.09 9.015 292.22 9.185 293.13 9.525C294.04 9.865 294.905 10.365 295.725 11.025L294.27 12.72C293.62 12.17 292.93 11.78 292.2 11.55C291.48 11.31 290.725 11.19 289.935 11.19C288.805 11.19 287.76 11.46 286.8 12C285.84 12.53 285.065 13.415 284.475 14.655C283.895 15.885 283.605 17.555 283.605 19.665C283.605 21.715 283.88 23.36 284.43 24.6C284.99 25.84 285.745 26.735 286.695 27.285C287.645 27.835 288.705 28.11 289.875 28.11C291.035 28.11 291.985 27.935 292.725 27.585C293.475 27.235 294.125 26.835 294.675 26.385L296.025 28.095C295.395 28.705 294.575 29.235 293.565 29.685C292.555 30.125 291.315 30.345 289.845 30.345C288.175 30.345 286.66 29.935 285.3 29.115C283.95 28.295 282.88 27.095 282.09 25.515C281.3 23.925 280.905 21.975 280.905 19.665C280.905 17.345 281.305 15.395 282.105 13.815C282.915 12.235 283.99 11.04 285.33 10.23C286.68 9.42 288.15 9.015 289.74 9.015ZM306.018 13.875C307.508 13.875 308.753 14.215 309.753 14.895C310.763 15.565 311.518 16.515 312.018 17.745C312.528 18.975 312.783 20.425 312.783 22.095C312.783 23.705 312.523 25.13 312.003 26.37C311.483 27.61 310.718 28.585 309.708 29.295C308.708 29.995 307.468 30.345 305.988 30.345C304.508 30.345 303.263 30.005 302.253 29.325C301.243 28.645 300.478 27.69 299.958 26.46C299.448 25.22 299.193 23.775 299.193 22.125C299.193 20.495 299.453 19.06 299.973 17.82C300.493 16.58 301.258 15.615 302.268 14.925C303.288 14.225 304.538 13.875 306.018 13.875ZM306.018 15.93C304.658 15.93 303.628 16.435 302.928 17.445C302.238 18.445 301.893 20.005 301.893 22.125C301.893 24.205 302.233 25.75 302.913 26.76C303.603 27.77 304.628 28.275 305.988 28.275C307.348 28.275 308.368 27.77 309.048 26.76C309.738 25.75 310.083 24.195 310.083 22.095C310.083 19.995 309.743 18.445 309.063 17.445C308.383 16.435 307.368 15.93 306.018 15.93ZM317.992 30V14.205H320.137L320.332 16.395C320.972 15.585 321.772 14.965 322.732 14.535C323.702 14.095 324.642 13.875 325.552 13.875C327.102 13.875 328.227 14.285 328.927 15.105C329.637 15.925 329.992 17.065 329.992 18.525V30H327.472V20.385C327.472 19.305 327.412 18.435 327.292 17.775C327.172 17.105 326.922 16.62 326.542 16.32C326.162 16.01 325.572 15.855 324.772 15.855C324.152 15.855 323.567 15.99 323.017 16.26C322.477 16.53 321.992 16.87 321.562 17.28C321.142 17.68 320.792 18.085 320.512 18.495V30H317.992ZM348.52 29.205C347.98 29.565 347.325 29.845 346.555 30.045C345.785 30.245 345.03 30.345 344.29 30.345C342.59 30.345 341.28 29.9 340.36 29.01C339.44 28.12 338.98 26.975 338.98 25.575V16.155H335.35V14.205H338.98V10.62L341.5 10.32V14.205H346.96L346.66 16.155H341.5V25.545C341.5 26.425 341.73 27.095 342.19 27.555C342.66 28.015 343.435 28.245 344.515 28.245C345.105 28.245 345.65 28.175 346.15 28.035C346.65 27.895 347.115 27.715 347.545 27.495L348.52 29.205ZM365.278 26.55C365.278 27.18 365.383 27.64 365.593 27.93C365.803 28.22 366.128 28.435 366.568 28.575L365.953 30.345C365.273 30.255 364.678 30.04 364.168 29.7C363.658 29.35 363.288 28.825 363.058 28.125C362.488 28.855 361.778 29.41 360.928 29.79C360.078 30.16 359.138 30.345 358.108 30.345C356.528 30.345 355.283 29.9 354.373 29.01C353.463 28.12 353.008 26.94 353.008 25.47C353.008 23.84 353.643 22.59 354.913 21.72C356.183 20.85 358.018 20.415 360.418 20.415H362.743V19.095C362.743 17.955 362.408 17.15 361.738 16.68C361.078 16.2 360.158 15.96 358.978 15.96C358.458 15.96 357.848 16.025 357.148 16.155C356.448 16.275 355.688 16.48 354.868 16.77L354.208 14.865C355.178 14.505 356.088 14.25 356.938 14.1C357.788 13.95 358.598 13.875 359.368 13.875C361.338 13.875 362.813 14.335 363.793 15.255C364.783 16.165 365.278 17.405 365.278 18.975V26.55ZM358.753 28.425C359.533 28.425 360.278 28.23 360.988 27.84C361.698 27.44 362.283 26.89 362.743 26.19V22.125H360.463C358.723 22.125 357.493 22.425 356.773 23.025C356.063 23.625 355.708 24.43 355.708 25.44C355.708 26.42 355.958 27.165 356.458 27.675C356.968 28.175 357.733 28.425 358.753 28.425ZM379.096 28.17C379.886 28.17 380.621 28.04 381.301 27.78C381.991 27.52 382.626 27.19 383.206 26.79L384.436 28.44C383.746 29.03 382.916 29.495 381.946 29.835C380.976 30.175 380.026 30.345 379.096 30.345C377.526 30.345 376.186 30.01 375.076 29.34C373.976 28.66 373.136 27.71 372.556 26.49C371.976 25.26 371.686 23.82 371.686 22.17C371.686 20.59 371.976 19.175 372.556 17.925C373.146 16.665 373.991 15.675 375.091 14.955C376.201 14.235 377.546 13.875 379.126 13.875C380.136 13.875 381.081 14.03 381.961 14.34C382.851 14.64 383.666 15.095 384.406 15.705L383.176 17.385C382.506 16.915 381.831 16.565 381.151 16.335C380.481 16.095 379.796 15.975 379.096 15.975C377.736 15.975 376.616 16.485 375.736 17.505C374.856 18.525 374.416 20.08 374.416 22.17C374.416 23.57 374.616 24.715 375.016 25.605C375.426 26.485 375.981 27.135 376.681 27.555C377.391 27.965 378.196 28.17 379.096 28.17ZM402.485 29.205C401.945 29.565 401.29 29.845 400.52 30.045C399.75 30.245 398.995 30.345 398.255 30.345C396.555 30.345 395.245 29.9 394.325 29.01C393.405 28.12 392.945 26.975 392.945 25.575V16.155H389.315V14.205H392.945V10.62L395.465 10.32V14.205H400.925L400.625 16.155H395.465V25.545C395.465 26.425 395.695 27.095 396.155 27.555C396.625 28.015 397.4 28.245 398.48 28.245C399.07 28.245 399.615 28.175 400.115 28.035C400.615 27.895 401.08 27.715 401.51 27.495L402.485 29.205ZM438.821 9.345L439.991 30H437.486L436.841 19.215C436.811 18.485 436.781 17.745 436.751 16.995C436.721 16.245 436.701 15.525 436.691 14.835C436.681 14.145 436.676 13.53 436.676 12.99C436.676 12.45 436.676 12.03 436.676 11.73L433.196 26.295H430.586L426.851 11.73C426.861 12.02 426.871 12.45 426.881 13.02C426.891 13.58 426.896 14.215 426.896 14.925C426.906 15.635 426.901 16.365 426.881 17.115C426.871 17.855 426.851 18.545 426.821 19.185L426.266 30H423.821L424.991 9.345H428.621L431.966 23.49L435.161 9.345H438.821ZM445.89 22.995C445.94 24.215 446.175 25.215 446.595 25.995C447.015 26.765 447.57 27.335 448.26 27.705C448.95 28.065 449.7 28.245 450.51 28.245C451.32 28.245 452.05 28.125 452.7 27.885C453.36 27.645 454.035 27.29 454.725 26.82L455.91 28.485C455.17 29.065 454.325 29.52 453.375 29.85C452.435 30.18 451.47 30.345 450.48 30.345C448.95 30.345 447.645 30 446.565 29.31C445.485 28.62 444.66 27.66 444.09 26.43C443.53 25.19 443.25 23.755 443.25 22.125C443.25 20.525 443.535 19.105 444.105 17.865C444.675 16.625 445.475 15.65 446.505 14.94C447.535 14.23 448.75 13.875 450.15 13.875C451.48 13.875 452.625 14.19 453.585 14.82C454.545 15.44 455.28 16.33 455.79 17.49C456.31 18.64 456.57 20.015 456.57 21.615C456.57 21.885 456.565 22.14 456.555 22.38C456.545 22.61 456.53 22.815 456.51 22.995H445.89ZM450.18 15.945C449.01 15.945 448.03 16.36 447.24 17.19C446.46 18.02 446.015 19.305 445.905 21.045H454.14C454.11 19.355 453.74 18.085 453.03 17.235C452.32 16.375 451.37 15.945 450.18 15.945Z" fill="#4AC279"/>
</svg>
