<svg width="739" height="487" viewBox="0 0 739 487" fill="none" xmlns="http://www.w3.org/2000/svg">
<rect x="5.51733" y="5.96362" width="727.722" height="475.673" fill="white" stroke="#252424" stroke-width="10"/>
<rect x="33.3265" y="54.5845" width="270.955" height="40.4342" rx="12.5" fill="#48AE70" stroke="#252424" stroke-width="3"/>
<rect x="400.231" y="54.5845" width="270.955" height="40.4342" rx="12.5" fill="#48AE70" stroke="#252424" stroke-width="3"/>
<rect x="33.3265" y="150.93" width="637.859" height="230.755" rx="14.5" fill="#48AE70" stroke="#252424" stroke-width="3"/>
<path d="M38.0185 136.59V141.369H36.4345V136.608L32.2495 128.976H33.9775L37.2625 135.186L40.5835 128.976H42.2035L38.0185 136.59ZM48.0374 131.694C48.9314 131.694 49.6784 131.898 50.2784 132.306C50.8844 132.708 51.3374 133.278 51.6374 134.016C51.9434 134.754 52.0964 135.624 52.0964 136.626C52.0964 137.592 51.9404 138.447 51.6284 139.191C51.3164 139.935 50.8574 140.52 50.2514 140.946C49.6514 141.366 48.9074 141.576 48.0194 141.576C47.1314 141.576 46.3844 141.372 45.7784 140.964C45.1724 140.556 44.7134 139.983 44.4014 139.245C44.0954 138.501 43.9424 137.634 43.9424 136.644C43.9424 135.666 44.0984 134.805 44.4104 134.061C44.7224 133.317 45.1814 132.738 45.7874 132.324C46.3994 131.904 47.1494 131.694 48.0374 131.694ZM48.0374 132.927C47.2214 132.927 46.6034 133.23 46.1834 133.836C45.7694 134.436 45.5624 135.372 45.5624 136.644C45.5624 137.892 45.7664 138.819 46.1744 139.425C46.5884 140.031 47.2034 140.334 48.0194 140.334C48.8354 140.334 49.4474 140.031 49.8554 139.425C50.2694 138.819 50.4764 137.886 50.4764 136.626C50.4764 135.366 50.2724 134.436 49.8644 133.836C49.4564 133.23 48.8474 132.927 48.0374 132.927ZM56.7334 131.892V138.606C56.7334 139.23 56.8624 139.68 57.1204 139.956C57.3784 140.232 57.7804 140.37 58.3264 140.37C58.8484 140.37 59.3404 140.223 59.8024 139.929C60.2704 139.629 60.6334 139.275 60.8914 138.867V131.892H62.4034V141.369H61.1164L60.9904 140.091C60.6184 140.571 60.1594 140.94 59.6134 141.198C59.0674 141.45 58.5154 141.576 57.9574 141.576C57.0394 141.576 56.3524 141.333 55.8964 140.847C55.4464 140.355 55.2214 139.668 55.2214 138.786V131.892H56.7334ZM66.1044 141.369V140.208H67.5804V133.053H66.1044V131.892H68.7324L69.0114 134.133C69.3774 133.353 69.8214 132.75 70.3434 132.324C70.8654 131.898 71.5554 131.685 72.4134 131.685C72.6774 131.685 72.9114 131.706 73.1154 131.748C73.3254 131.784 73.5384 131.832 73.7544 131.892L73.3134 133.242C73.1154 133.188 72.9354 133.149 72.7734 133.125C72.6114 133.095 72.4254 133.08 72.2154 133.08C71.4894 133.08 70.8654 133.338 70.3434 133.854C69.8214 134.37 69.4044 135.15 69.0924 136.194V140.208H71.0184V141.369H66.1044ZM72.2964 135.096V133.035L72.4494 131.892H73.7544L73.5384 135.096H72.2964ZM93.8463 131.694C94.1523 131.694 94.4433 131.76 94.7193 131.892C95.0013 132.024 95.2323 132.279 95.4123 132.657C95.5923 133.035 95.6823 133.587 95.6823 134.313V141.369H94.2783V134.556C94.2783 133.962 94.2423 133.533 94.1703 133.269C94.0983 133.005 93.8913 132.873 93.5493 132.873C93.2673 132.873 92.9853 132.963 92.7033 133.143C92.4273 133.317 92.1573 133.605 91.8933 134.007V141.369H90.4803V134.556C90.4803 133.962 90.4443 133.533 90.3723 133.269C90.3003 133.005 90.0933 132.873 89.7513 132.873C89.4573 132.873 89.1723 132.963 88.8963 133.143C88.6263 133.317 88.3593 133.605 88.0953 134.007V141.369H86.7003V131.892H87.8883L87.9783 132.99C88.2363 132.624 88.5243 132.318 88.8423 132.072C89.1663 131.82 89.5653 131.694 90.0393 131.694C90.3993 131.694 90.7383 131.781 91.0563 131.955C91.3743 132.123 91.6083 132.453 91.7583 132.945C92.0163 132.573 92.3073 132.273 92.6313 132.045C92.9553 131.811 93.3603 131.694 93.8463 131.694ZM99.5813 137.166C99.6113 137.898 99.7523 138.498 100.004 138.966C100.256 139.428 100.589 139.77 101.003 139.992C101.417 140.208 101.867 140.316 102.353 140.316C102.839 140.316 103.277 140.244 103.667 140.1C104.063 139.956 104.468 139.743 104.882 139.461L105.593 140.46C105.149 140.808 104.642 141.081 104.072 141.279C103.508 141.477 102.929 141.576 102.335 141.576C101.417 141.576 100.634 141.369 99.9863 140.955C99.3383 140.541 98.8433 139.965 98.5013 139.227C98.1653 138.483 97.9973 137.622 97.9973 136.644C97.9973 135.684 98.1683 134.832 98.5103 134.088C98.8523 133.344 99.3323 132.759 99.9503 132.333C100.568 131.907 101.297 131.694 102.137 131.694C102.935 131.694 103.622 131.883 104.198 132.261C104.774 132.633 105.215 133.167 105.521 133.863C105.833 134.553 105.989 135.378 105.989 136.338C105.989 136.5 105.986 136.653 105.98 136.797C105.974 136.935 105.965 137.058 105.953 137.166H99.5813ZM102.155 132.936C101.453 132.936 100.865 133.185 100.391 133.683C99.9233 134.181 99.6563 134.952 99.5903 135.996H104.531C104.513 134.982 104.291 134.22 103.865 133.71C103.439 133.194 102.869 132.936 102.155 132.936ZM112.408 140.325C113.134 140.325 113.707 140.19 114.127 139.92C114.553 139.644 114.766 139.278 114.766 138.822C114.766 138.534 114.712 138.285 114.604 138.075C114.502 137.865 114.289 137.676 113.965 137.508C113.641 137.34 113.143 137.172 112.471 137.004C111.817 136.842 111.247 136.656 110.761 136.446C110.281 136.23 109.906 135.951 109.636 135.609C109.372 135.267 109.24 134.823 109.24 134.277C109.24 133.743 109.39 133.284 109.69 132.9C109.996 132.51 110.419 132.213 110.959 132.009C111.499 131.799 112.126 131.694 112.84 131.694C113.602 131.694 114.265 131.796 114.829 132C115.399 132.198 115.882 132.444 116.278 132.738L115.612 133.764C115.252 133.518 114.856 133.317 114.424 133.161C113.992 132.999 113.47 132.918 112.858 132.918C112.114 132.918 111.586 133.035 111.274 133.269C110.962 133.497 110.806 133.794 110.806 134.16C110.806 134.436 110.881 134.667 111.031 134.853C111.187 135.033 111.448 135.198 111.814 135.348C112.18 135.492 112.684 135.651 113.326 135.825C113.944 135.987 114.481 136.182 114.937 136.41C115.399 136.638 115.759 136.938 116.017 137.31C116.275 137.682 116.404 138.162 116.404 138.75C116.404 139.422 116.212 139.968 115.828 140.388C115.444 140.802 114.946 141.105 114.334 141.297C113.728 141.483 113.086 141.576 112.408 141.576C111.55 141.576 110.818 141.453 110.212 141.207C109.612 140.955 109.108 140.652 108.7 140.298L109.564 139.299C109.936 139.605 110.362 139.854 110.842 140.046C111.328 140.232 111.85 140.325 112.408 140.325ZM123.201 140.325C123.927 140.325 124.5 140.19 124.92 139.92C125.346 139.644 125.559 139.278 125.559 138.822C125.559 138.534 125.505 138.285 125.397 138.075C125.295 137.865 125.082 137.676 124.758 137.508C124.434 137.34 123.936 137.172 123.264 137.004C122.61 136.842 122.04 136.656 121.554 136.446C121.074 136.23 120.699 135.951 120.429 135.609C120.165 135.267 120.033 134.823 120.033 134.277C120.033 133.743 120.183 133.284 120.483 132.9C120.789 132.51 121.212 132.213 121.752 132.009C122.292 131.799 122.919 131.694 123.633 131.694C124.395 131.694 125.058 131.796 125.622 132C126.192 132.198 126.675 132.444 127.071 132.738L126.405 133.764C126.045 133.518 125.649 133.317 125.217 133.161C124.785 132.999 124.263 132.918 123.651 132.918C122.907 132.918 122.379 133.035 122.067 133.269C121.755 133.497 121.599 133.794 121.599 134.16C121.599 134.436 121.674 134.667 121.824 134.853C121.98 135.033 122.241 135.198 122.607 135.348C122.973 135.492 123.477 135.651 124.119 135.825C124.737 135.987 125.274 136.182 125.73 136.41C126.192 136.638 126.552 136.938 126.81 137.31C127.068 137.682 127.197 138.162 127.197 138.75C127.197 139.422 127.005 139.968 126.621 140.388C126.237 140.802 125.739 141.105 125.127 141.297C124.521 141.483 123.879 141.576 123.201 141.576C122.343 141.576 121.611 141.453 121.005 141.207C120.405 140.955 119.901 140.652 119.493 140.298L120.357 139.299C120.729 139.605 121.155 139.854 121.635 140.046C122.121 140.232 122.643 140.325 123.201 140.325ZM137.558 139.299C137.558 139.677 137.621 139.953 137.747 140.127C137.873 140.301 138.068 140.43 138.332 140.514L137.963 141.576C137.555 141.522 137.198 141.393 136.892 141.189C136.586 140.979 136.364 140.664 136.226 140.244C135.884 140.682 135.458 141.015 134.948 141.243C134.438 141.465 133.874 141.576 133.256 141.576C132.308 141.576 131.561 141.309 131.015 140.775C130.469 140.241 130.196 139.533 130.196 138.651C130.196 137.673 130.577 136.923 131.339 136.401C132.101 135.879 133.202 135.618 134.642 135.618H136.037V134.826C136.037 134.142 135.836 133.659 135.434 133.377C135.038 133.089 134.486 132.945 133.778 132.945C133.466 132.945 133.1 132.984 132.68 133.062C132.26 133.134 131.804 133.257 131.312 133.431L130.916 132.288C131.498 132.072 132.044 131.919 132.554 131.829C133.064 131.739 133.55 131.694 134.012 131.694C135.194 131.694 136.079 131.97 136.667 132.522C137.261 133.068 137.558 133.812 137.558 134.754V139.299ZM133.643 140.424C134.111 140.424 134.558 140.307 134.984 140.073C135.41 139.833 135.761 139.503 136.037 139.083V136.644H134.669C133.625 136.644 132.887 136.824 132.455 137.184C132.029 137.544 131.816 138.027 131.816 138.633C131.816 139.221 131.966 139.668 132.266 139.974C132.572 140.274 133.031 140.424 133.643 140.424ZM149.269 130.884L149.737 132.306C149.335 132.432 148.906 132.51 148.45 132.54C147.994 132.57 147.499 132.585 146.965 132.585C147.511 132.837 147.922 133.164 148.198 133.566C148.474 133.962 148.612 134.43 148.612 134.97C148.612 135.594 148.471 136.149 148.189 136.635C147.907 137.121 147.499 137.502 146.965 137.778C146.437 138.054 145.798 138.192 145.048 138.192C144.73 138.192 144.463 138.177 144.247 138.147C144.037 138.117 143.833 138.072 143.635 138.012C143.491 138.108 143.371 138.24 143.275 138.408C143.185 138.576 143.14 138.75 143.14 138.93C143.14 139.158 143.23 139.347 143.41 139.497C143.59 139.647 143.923 139.722 144.409 139.722H146.119C146.755 139.722 147.325 139.836 147.829 140.064C148.339 140.292 148.738 140.598 149.026 140.982C149.32 141.366 149.467 141.804 149.467 142.296C149.467 143.226 149.071 143.94 148.279 144.438C147.493 144.936 146.38 145.185 144.94 145.185C143.932 145.185 143.137 145.08 142.555 144.87C141.973 144.666 141.556 144.351 141.304 143.925C141.058 143.505 140.935 142.974 140.935 142.332H142.303C142.303 142.698 142.375 143.001 142.519 143.241C142.663 143.481 142.924 143.658 143.302 143.772C143.68 143.892 144.223 143.952 144.931 143.952C145.627 143.952 146.194 143.892 146.632 143.772C147.076 143.658 147.403 143.484 147.613 143.25C147.829 143.022 147.937 142.737 147.937 142.395C147.937 141.945 147.733 141.606 147.325 141.378C146.917 141.15 146.407 141.036 145.795 141.036H144.103C143.287 141.036 142.684 140.856 142.294 140.496C141.91 140.136 141.718 139.722 141.718 139.254C141.718 138.948 141.805 138.651 141.979 138.363C142.159 138.075 142.42 137.82 142.762 137.598C142.216 137.31 141.814 136.953 141.556 136.527C141.298 136.101 141.169 135.585 141.169 134.979C141.169 134.337 141.328 133.77 141.646 133.278C141.964 132.78 142.408 132.39 142.978 132.108C143.548 131.826 144.205 131.685 144.949 131.685C145.747 131.679 146.395 131.646 146.893 131.586C147.391 131.52 147.817 131.427 148.171 131.307C148.531 131.187 148.897 131.046 149.269 130.884ZM144.949 132.792C144.187 132.792 143.623 132.999 143.257 133.413C142.897 133.821 142.717 134.343 142.717 134.979C142.717 135.621 142.903 136.149 143.275 136.563C143.647 136.977 144.217 137.184 144.985 137.184C145.657 137.184 146.167 136.989 146.515 136.599C146.869 136.209 147.046 135.666 147.046 134.97C147.046 134.256 146.869 133.716 146.515 133.35C146.167 132.978 145.645 132.792 144.949 132.792ZM153.546 137.166C153.576 137.898 153.717 138.498 153.969 138.966C154.221 139.428 154.554 139.77 154.968 139.992C155.382 140.208 155.832 140.316 156.318 140.316C156.804 140.316 157.242 140.244 157.632 140.1C158.028 139.956 158.433 139.743 158.847 139.461L159.558 140.46C159.114 140.808 158.607 141.081 158.037 141.279C157.473 141.477 156.894 141.576 156.3 141.576C155.382 141.576 154.599 141.369 153.951 140.955C153.303 140.541 152.808 139.965 152.466 139.227C152.13 138.483 151.962 137.622 151.962 136.644C151.962 135.684 152.133 134.832 152.475 134.088C152.817 133.344 153.297 132.759 153.915 132.333C154.533 131.907 155.262 131.694 156.102 131.694C156.9 131.694 157.587 131.883 158.163 132.261C158.739 132.633 159.18 133.167 159.486 133.863C159.798 134.553 159.954 135.378 159.954 136.338C159.954 136.5 159.951 136.653 159.945 136.797C159.939 136.935 159.93 137.058 159.918 137.166H153.546ZM156.12 132.936C155.418 132.936 154.83 133.185 154.356 133.683C153.888 134.181 153.621 134.952 153.555 135.996H158.496C158.478 134.982 158.256 134.22 157.83 133.71C157.404 133.194 156.834 132.936 156.12 132.936Z" fill="#252424"/>
<rect x="31.8265" y="410.035" width="320.919" height="39.4856" rx="19.7428" fill="#48AE70"/>
<path d="M38.0185 40.2452V45.0242H36.4345V40.2632L32.2495 32.6312H33.9775L37.2625 38.8412L40.5835 32.6312H42.2035L38.0185 40.2452ZM48.0374 35.3492C48.9314 35.3492 49.6784 35.5532 50.2784 35.9612C50.8844 36.3632 51.3374 36.9332 51.6374 37.6712C51.9434 38.4092 52.0964 39.2792 52.0964 40.2812C52.0964 41.2472 51.9404 42.1022 51.6284 42.8462C51.3164 43.5902 50.8574 44.1752 50.2514 44.6012C49.6514 45.0212 48.9074 45.2312 48.0194 45.2312C47.1314 45.2312 46.3844 45.0272 45.7784 44.6192C45.1724 44.2112 44.7134 43.6382 44.4014 42.9002C44.0954 42.1562 43.9424 41.2892 43.9424 40.2992C43.9424 39.3212 44.0984 38.4602 44.4104 37.7162C44.7224 36.9722 45.1814 36.3932 45.7874 35.9792C46.3994 35.5592 47.1494 35.3492 48.0374 35.3492ZM48.0374 36.5822C47.2214 36.5822 46.6034 36.8852 46.1834 37.4912C45.7694 38.0912 45.5624 39.0272 45.5624 40.2992C45.5624 41.5472 45.7664 42.4742 46.1744 43.0802C46.5884 43.6862 47.2034 43.9892 48.0194 43.9892C48.8354 43.9892 49.4474 43.6862 49.8554 43.0802C50.2694 42.4742 50.4764 41.5412 50.4764 40.2812C50.4764 39.0212 50.2724 38.0912 49.8644 37.4912C49.4564 36.8852 48.8474 36.5822 48.0374 36.5822ZM56.7334 35.5472V42.2612C56.7334 42.8852 56.8624 43.3352 57.1204 43.6112C57.3784 43.8872 57.7804 44.0252 58.3264 44.0252C58.8484 44.0252 59.3404 43.8782 59.8024 43.5842C60.2704 43.2842 60.6334 42.9302 60.8914 42.5222V35.5472H62.4034V45.0242H61.1164L60.9904 43.7462C60.6184 44.2262 60.1594 44.5952 59.6134 44.8532C59.0674 45.1052 58.5154 45.2312 57.9574 45.2312C57.0394 45.2312 56.3524 44.9882 55.8964 44.5022C55.4464 44.0102 55.2214 43.3232 55.2214 42.4412V35.5472H56.7334ZM66.1044 45.0242V43.8632H67.5804V36.7082H66.1044V35.5472H68.7324L69.0114 37.7882C69.3774 37.0082 69.8214 36.4052 70.3434 35.9792C70.8654 35.5532 71.5554 35.3402 72.4134 35.3402C72.6774 35.3402 72.9114 35.3612 73.1154 35.4032C73.3254 35.4392 73.5384 35.4872 73.7544 35.5472L73.3134 36.8972C73.1154 36.8432 72.9354 36.8042 72.7734 36.7802C72.6114 36.7502 72.4254 36.7352 72.2154 36.7352C71.4894 36.7352 70.8654 36.9932 70.3434 37.5092C69.8214 38.0252 69.4044 38.8052 69.0924 39.8492V43.8632H71.0184V45.0242H66.1044ZM72.2964 38.7512V36.6902L72.4494 35.5472H73.7544L73.5384 38.7512H72.2964ZM87.6003 45.0242V35.5472H88.8873L89.0043 36.8612C89.3883 36.3752 89.8683 36.0032 90.4443 35.7452C91.0263 35.4812 91.5903 35.3492 92.1363 35.3492C93.0663 35.3492 93.7413 35.5952 94.1613 36.0872C94.5873 36.5792 94.8003 37.2632 94.8003 38.1392V45.0242H93.2883V39.2552C93.2883 38.6072 93.2523 38.0852 93.1803 37.6892C93.1083 37.2872 92.9583 36.9962 92.7303 36.8162C92.5023 36.6302 92.1483 36.5372 91.6683 36.5372C91.2963 36.5372 90.9453 36.6182 90.6153 36.7802C90.2913 36.9422 90.0003 37.1462 89.7423 37.3922C89.4903 37.6322 89.2803 37.8752 89.1123 38.1212V45.0242H87.6003ZM105.179 42.9542C105.179 43.3322 105.242 43.6082 105.368 43.7822C105.494 43.9562 105.689 44.0852 105.953 44.1692L105.584 45.2312C105.176 45.1772 104.819 45.0482 104.513 44.8442C104.207 44.6342 103.985 44.3192 103.847 43.8992C103.505 44.3372 103.079 44.6702 102.569 44.8982C102.059 45.1202 101.495 45.2312 100.877 45.2312C99.9293 45.2312 99.1823 44.9642 98.6363 44.4302C98.0903 43.8962 97.8173 43.1882 97.8173 42.3062C97.8173 41.3282 98.1983 40.5782 98.9603 40.0562C99.7223 39.5342 100.823 39.2732 102.263 39.2732H103.658V38.4812C103.658 37.7972 103.457 37.3142 103.055 37.0322C102.659 36.7442 102.107 36.6002 101.399 36.6002C101.087 36.6002 100.721 36.6392 100.301 36.7172C99.8813 36.7892 99.4253 36.9122 98.9333 37.0862L98.5373 35.9432C99.1193 35.7272 99.6653 35.5742 100.175 35.4842C100.685 35.3942 101.171 35.3492 101.633 35.3492C102.815 35.3492 103.7 35.6252 104.288 36.1772C104.882 36.7232 105.179 37.4672 105.179 38.4092V42.9542ZM101.264 44.0792C101.732 44.0792 102.179 43.9622 102.605 43.7282C103.031 43.4882 103.382 43.1582 103.658 42.7382V40.2992H102.29C101.246 40.2992 100.508 40.4792 100.076 40.8392C99.6503 41.1992 99.4373 41.6822 99.4373 42.2882C99.4373 42.8762 99.5873 43.3232 99.8873 43.6292C100.193 43.9292 100.652 44.0792 101.264 44.0792ZM115.432 35.3492C115.738 35.3492 116.029 35.4152 116.305 35.5472C116.587 35.6792 116.818 35.9342 116.998 36.3122C117.178 36.6902 117.268 37.2422 117.268 37.9682V45.0242H115.864V38.2112C115.864 37.6172 115.828 37.1882 115.756 36.9242C115.684 36.6602 115.477 36.5282 115.135 36.5282C114.853 36.5282 114.571 36.6182 114.289 36.7982C114.013 36.9722 113.743 37.2602 113.479 37.6622V45.0242H112.066V38.2112C112.066 37.6172 112.03 37.1882 111.958 36.9242C111.886 36.6602 111.679 36.5282 111.337 36.5282C111.043 36.5282 110.758 36.6182 110.482 36.7982C110.212 36.9722 109.945 37.2602 109.681 37.6622V45.0242H108.286V35.5472H109.474L109.564 36.6452C109.822 36.2792 110.11 35.9732 110.428 35.7272C110.752 35.4752 111.151 35.3492 111.625 35.3492C111.985 35.3492 112.324 35.4362 112.642 35.6102C112.96 35.7782 113.194 36.1082 113.344 36.6002C113.602 36.2282 113.893 35.9282 114.217 35.7002C114.541 35.4662 114.946 35.3492 115.432 35.3492ZM121.167 40.8212C121.197 41.5532 121.338 42.1532 121.59 42.6212C121.842 43.0832 122.175 43.4252 122.589 43.6472C123.003 43.8632 123.453 43.9712 123.939 43.9712C124.425 43.9712 124.863 43.8992 125.253 43.7552C125.649 43.6112 126.054 43.3982 126.468 43.1162L127.179 44.1152C126.735 44.4632 126.228 44.7362 125.658 44.9342C125.094 45.1322 124.515 45.2312 123.921 45.2312C123.003 45.2312 122.22 45.0242 121.572 44.6102C120.924 44.1962 120.429 43.6202 120.087 42.8822C119.751 42.1382 119.583 41.2772 119.583 40.2992C119.583 39.3392 119.754 38.4872 120.096 37.7432C120.438 36.9992 120.918 36.4142 121.536 35.9882C122.154 35.5622 122.883 35.3492 123.723 35.3492C124.521 35.3492 125.208 35.5382 125.784 35.9162C126.36 36.2882 126.801 36.8222 127.107 37.5182C127.419 38.2082 127.575 39.0332 127.575 39.9932C127.575 40.1552 127.572 40.3082 127.566 40.4522C127.56 40.5902 127.551 40.7132 127.539 40.8212H121.167ZM123.741 36.5912C123.039 36.5912 122.451 36.8402 121.977 37.3382C121.509 37.8362 121.242 38.6072 121.176 39.6512H126.117C126.099 38.6372 125.877 37.8752 125.451 37.3652C125.025 36.8492 124.455 36.5912 123.741 36.5912Z" fill="#252424"/>
<path d="M404.923 40.2452V45.0242H403.339V40.2632L399.154 32.6312H400.882L404.167 38.8412L407.488 32.6312H409.108L404.923 40.2452ZM414.942 35.3492C415.836 35.3492 416.583 35.5532 417.183 35.9612C417.789 36.3632 418.242 36.9332 418.542 37.6712C418.848 38.4092 419.001 39.2792 419.001 40.2812C419.001 41.2472 418.845 42.1022 418.533 42.8462C418.221 43.5902 417.762 44.1752 417.156 44.6012C416.556 45.0212 415.812 45.2312 414.924 45.2312C414.036 45.2312 413.289 45.0272 412.683 44.6192C412.077 44.2112 411.618 43.6382 411.306 42.9002C411 42.1562 410.847 41.2892 410.847 40.2992C410.847 39.3212 411.003 38.4602 411.315 37.7162C411.627 36.9722 412.086 36.3932 412.692 35.9792C413.304 35.5592 414.054 35.3492 414.942 35.3492ZM414.942 36.5822C414.126 36.5822 413.508 36.8852 413.088 37.4912C412.674 38.0912 412.467 39.0272 412.467 40.2992C412.467 41.5472 412.671 42.4742 413.079 43.0802C413.493 43.6862 414.108 43.9892 414.924 43.9892C415.74 43.9892 416.352 43.6862 416.76 43.0802C417.174 42.4742 417.381 41.5412 417.381 40.2812C417.381 39.0212 417.177 38.0912 416.769 37.4912C416.361 36.8852 415.752 36.5822 414.942 36.5822ZM423.638 35.5472V42.2612C423.638 42.8852 423.767 43.3352 424.025 43.6112C424.283 43.8872 424.685 44.0252 425.231 44.0252C425.753 44.0252 426.245 43.8782 426.707 43.5842C427.175 43.2842 427.538 42.9302 427.796 42.5222V35.5472H429.308V45.0242H428.021L427.895 43.7462C427.523 44.2262 427.064 44.5952 426.518 44.8532C425.972 45.1052 425.42 45.2312 424.862 45.2312C423.944 45.2312 423.257 44.9882 422.801 44.5022C422.351 44.0102 422.126 43.3232 422.126 42.4412V35.5472H423.638ZM433.009 45.0242V43.8632H434.485V36.7082H433.009V35.5472H435.637L435.916 37.7882C436.282 37.0082 436.726 36.4052 437.248 35.9792C437.77 35.5532 438.46 35.3402 439.318 35.3402C439.582 35.3402 439.816 35.3612 440.02 35.4032C440.23 35.4392 440.443 35.4872 440.659 35.5472L440.218 36.8972C440.02 36.8432 439.84 36.8042 439.678 36.7802C439.516 36.7502 439.33 36.7352 439.12 36.7352C438.394 36.7352 437.77 36.9932 437.248 37.5092C436.726 38.0252 436.309 38.8052 435.997 39.8492V43.8632H437.923V45.0242H433.009ZM439.201 38.7512V36.6902L439.354 35.5472H440.659L440.443 38.7512H439.201ZM455.693 40.8212C455.723 41.5532 455.864 42.1532 456.116 42.6212C456.368 43.0832 456.701 43.4252 457.115 43.6472C457.529 43.8632 457.979 43.9712 458.465 43.9712C458.951 43.9712 459.389 43.8992 459.779 43.7552C460.175 43.6112 460.58 43.3982 460.994 43.1162L461.705 44.1152C461.261 44.4632 460.754 44.7362 460.184 44.9342C459.62 45.1322 459.041 45.2312 458.447 45.2312C457.529 45.2312 456.746 45.0242 456.098 44.6102C455.45 44.1962 454.955 43.6202 454.613 42.8822C454.277 42.1382 454.109 41.2772 454.109 40.2992C454.109 39.3392 454.28 38.4872 454.622 37.7432C454.964 36.9992 455.444 36.4142 456.062 35.9882C456.68 35.5622 457.409 35.3492 458.249 35.3492C459.047 35.3492 459.734 35.5382 460.31 35.9162C460.886 36.2882 461.327 36.8222 461.633 37.5182C461.945 38.2082 462.101 39.0332 462.101 39.9932C462.101 40.1552 462.098 40.3082 462.092 40.4522C462.086 40.5902 462.077 40.7132 462.065 40.8212H455.693ZM458.267 36.5912C457.565 36.5912 456.977 36.8402 456.503 37.3382C456.035 37.8362 455.768 38.6072 455.702 39.6512H460.643C460.625 38.6372 460.403 37.8752 459.977 37.3652C459.551 36.8492 458.981 36.5912 458.267 36.5912ZM471.544 35.3492C471.85 35.3492 472.141 35.4152 472.417 35.5472C472.699 35.6792 472.93 35.9342 473.11 36.3122C473.29 36.6902 473.38 37.2422 473.38 37.9682V45.0242H471.976V38.2112C471.976 37.6172 471.94 37.1882 471.868 36.9242C471.796 36.6602 471.589 36.5282 471.247 36.5282C470.965 36.5282 470.683 36.6182 470.401 36.7982C470.125 36.9722 469.855 37.2602 469.591 37.6622V45.0242H468.178V38.2112C468.178 37.6172 468.142 37.1882 468.07 36.9242C467.998 36.6602 467.791 36.5282 467.449 36.5282C467.155 36.5282 466.87 36.6182 466.594 36.7982C466.324 36.9722 466.057 37.2602 465.793 37.6622V45.0242H464.398V35.5472H465.586L465.676 36.6452C465.934 36.2792 466.222 35.9732 466.54 35.7272C466.864 35.4752 467.263 35.3492 467.737 35.3492C468.097 35.3492 468.436 35.4362 468.754 35.6102C469.072 35.7782 469.306 36.1082 469.456 36.6002C469.714 36.2282 470.005 35.9282 470.329 35.7002C470.653 35.4662 471.058 35.3492 471.544 35.3492ZM482.877 42.9542C482.877 43.3322 482.94 43.6082 483.066 43.7822C483.192 43.9562 483.387 44.0852 483.651 44.1692L483.282 45.2312C482.874 45.1772 482.517 45.0482 482.211 44.8442C481.905 44.6342 481.683 44.3192 481.545 43.8992C481.203 44.3372 480.777 44.6702 480.267 44.8982C479.757 45.1202 479.193 45.2312 478.575 45.2312C477.627 45.2312 476.88 44.9642 476.334 44.4302C475.788 43.8962 475.515 43.1882 475.515 42.3062C475.515 41.3282 475.896 40.5782 476.658 40.0562C477.42 39.5342 478.521 39.2732 479.961 39.2732H481.356V38.4812C481.356 37.7972 481.155 37.3142 480.753 37.0322C480.357 36.7442 479.805 36.6002 479.097 36.6002C478.785 36.6002 478.419 36.6392 477.999 36.7172C477.579 36.7892 477.123 36.9122 476.631 37.0862L476.235 35.9432C476.817 35.7272 477.363 35.5742 477.873 35.4842C478.383 35.3942 478.869 35.3492 479.331 35.3492C480.513 35.3492 481.398 35.6252 481.986 36.1772C482.58 36.7232 482.877 37.4672 482.877 38.4092V42.9542ZM478.962 44.0792C479.43 44.0792 479.877 43.9622 480.303 43.7282C480.729 43.4882 481.08 43.1582 481.356 42.7382V40.2992H479.988C478.944 40.2992 478.206 40.4792 477.774 40.8392C477.348 41.1992 477.135 41.6822 477.135 42.2882C477.135 42.8762 477.285 43.3232 477.585 43.6292C477.891 43.9292 478.35 44.0792 478.962 44.0792ZM491.68 35.5472V43.8272H494.353V45.0242H487.243V43.8272H490.168V36.7442H487.333V35.5472H491.68ZM490.474 31.1102C490.81 31.1102 491.077 31.2122 491.275 31.4162C491.479 31.6202 491.581 31.8692 491.581 32.1632C491.581 32.4692 491.479 32.7272 491.275 32.9372C491.077 33.1412 490.81 33.2432 490.474 33.2432C490.156 33.2432 489.895 33.1412 489.691 32.9372C489.487 32.7272 489.385 32.4692 489.385 32.1632C489.385 31.8692 489.487 31.6202 489.691 31.4162C489.895 31.2122 490.156 31.1102 490.474 31.1102ZM501.366 31.7312V42.6842C501.366 43.1522 501.51 43.4852 501.798 43.6832C502.092 43.8752 502.47 43.9712 502.932 43.9712C503.22 43.9712 503.493 43.9412 503.751 43.8812C504.009 43.8212 504.267 43.7402 504.525 43.6382L504.93 44.7452C504.672 44.8712 504.351 44.9822 503.967 45.0782C503.589 45.1802 503.16 45.2312 502.68 45.2312C501.84 45.2312 501.159 45.0002 500.637 44.5382C500.115 44.0702 499.854 43.4252 499.854 42.6032V32.9282H496.947V31.7312H501.366Z" fill="#252424"/>
</svg>
