<svg width="85" height="80" viewBox="0 0 85 80" fill="none" xmlns="http://www.w3.org/2000/svg">
<g clip-path="url(#clip0_53_9613)">
<path fill-rule="evenodd" clip-rule="evenodd" d="M42.5 0.945068C26.8992 0.945068 14.2475 12.8494 14.2475 27.5357C14.2475 39.2838 22.3424 49.2513 33.5684 52.7669C34.9802 53.0132 35.4988 52.1901 35.4988 51.4876C35.4988 50.8538 35.4722 48.7588 35.4603 46.5376C27.5998 48.1457 25.9416 43.4001 25.9416 43.4001C24.6566 40.3263 22.8046 39.5088 22.8046 39.5088C20.2413 37.8588 22.9972 37.8926 22.9972 37.8926C25.8347 38.0801 27.3288 40.6332 27.3288 40.6332C29.8483 44.6982 33.9382 43.5226 35.5499 42.8432C35.8043 41.1244 36.5361 39.9507 37.3442 39.2869C31.0688 38.6151 24.472 36.3344 24.472 26.1457C24.472 23.2426 25.5757 20.8707 27.3833 19.0082C27.0898 18.3382 26.1229 15.6332 27.6569 11.9707C27.6569 11.9707 30.0289 11.2569 35.4264 14.6976C37.6809 14.1082 40.0981 13.8126 42.4987 13.8026C44.8999 13.8132 47.3184 14.1088 49.5763 14.6976C54.9684 11.2576 57.3378 11.9713 57.3378 11.9713C58.8758 15.6338 57.9089 18.3382 57.6154 19.0088C59.427 20.8701 60.5227 23.2426 60.5227 26.1463C60.5227 36.3588 53.9132 38.6076 47.6219 39.2651C48.6353 40.0901 49.5384 41.7088 49.5384 44.1901C49.5384 47.7476 49.5065 50.6107 49.5065 51.4863C49.5065 52.1926 50.0152 53.0226 51.4469 52.7613C62.6669 49.2413 70.7512 39.2776 70.7512 27.5332C70.7525 12.8501 58.1035 0.945068 42.5 0.945068Z" fill="#181616"/>
<path d="M24.9488 39.1225C24.8858 39.255 24.6646 39.2943 24.4641 39.2037C24.2582 39.1162 24.144 38.9368 24.2104 38.8037C24.2702 38.6687 24.492 38.6306 24.6972 38.7212C24.903 38.8087 25.0192 38.99 24.9488 39.1225ZM26.093 40.325C25.9582 40.4418 25.6946 40.3875 25.5153 40.2012C25.3307 40.0156 25.2961 39.7675 25.4329 39.6487C25.5711 39.5312 25.8267 39.5862 26.0107 39.7718C26.1966 39.9593 26.2331 40.205 26.0924 40.3243L26.093 40.325ZM27.2067 41.855C27.034 41.9687 26.7504 41.8625 26.5758 41.6256C26.4018 41.39 26.4018 41.1068 26.5791 40.9925C26.7544 40.8787 27.0333 40.9812 27.21 41.2156C27.384 41.4562 27.384 41.74 27.2067 41.855ZM28.7327 43.335C28.5779 43.4956 28.2479 43.4525 28.0068 43.2331C27.7598 43.0187 27.6914 42.7143 27.8461 42.5537C28.0035 42.3931 28.3349 42.4381 28.5779 42.6556C28.8236 42.8693 28.898 43.175 28.7327 43.335ZM30.8391 44.1937C30.77 44.4025 30.4526 44.4968 30.1325 44.4087C29.8124 44.3175 29.6039 44.0737 29.6677 43.8637C29.7341 43.6537 30.0542 43.5556 30.3762 43.65C30.695 43.74 30.9048 43.9812 30.8391 44.1937ZM33.15 44.3531C33.1586 44.5718 32.887 44.7543 32.551 44.7581C32.2137 44.7656 31.9401 44.5881 31.9361 44.3718C31.9361 44.1506 32.2017 43.9706 32.5391 43.9656C32.8751 43.9593 33.15 44.1356 33.15 44.3531ZM35.3016 44.0087C35.3414 44.2225 35.109 44.4425 34.775 44.5006C34.4469 44.5581 34.1441 44.4256 34.1016 44.2131C34.0618 43.9943 34.2988 43.7756 34.6262 43.7181C34.9602 43.6631 35.2591 43.7912 35.3016 44.0087Z" fill="#181616"/>
<path d="M16.5053 67.6888H9.39981C9.31175 67.6888 9.2273 67.7217 9.16503 67.7804C9.10276 67.839 9.06778 67.9184 9.06778 68.0013V71.2713C9.06778 71.3542 9.10276 71.4337 9.16503 71.4923C9.2273 71.5509 9.31175 71.5838 9.39981 71.5838H12.1709V75.6463C12.1709 75.6463 11.5487 75.8463 9.8268 75.8463C7.79743 75.8463 4.96122 75.1488 4.96122 69.2788C4.96122 63.4082 7.91497 62.6351 10.6881 62.6351C13.088 62.6351 14.1213 63.0326 14.78 63.2244C14.9859 63.2832 15.1785 63.0894 15.1785 62.9169L15.9707 59.7576C15.972 59.7103 15.9611 59.6634 15.9389 59.6209C15.9166 59.5785 15.8838 59.5417 15.8432 59.5138C15.5756 59.3338 13.946 58.4763 9.82813 58.4763C5.08407 58.4763 0.217819 60.3751 0.217819 69.5076C0.217819 78.6388 5.7893 79.9994 10.4842 79.9994C14.3716 79.9994 16.7297 78.4357 16.7297 78.4357C16.8267 78.3857 16.8373 78.2576 16.8373 78.1982V68.0007C16.8373 67.9178 16.8023 67.8383 16.7401 67.7797C16.6778 67.7211 16.5933 67.6888 16.5053 67.6888ZM52.797 59.2563H48.7953C48.7517 59.2565 48.7085 59.2648 48.6682 59.2806C48.6279 59.2965 48.5914 59.3198 48.5607 59.349C48.53 59.3782 48.5057 59.4128 48.4892 59.4508C48.4727 59.4889 48.4644 59.5296 48.4646 59.5707L48.4659 66.8482H42.2291V59.5707C42.2293 59.5297 42.221 59.489 42.2046 59.451C42.1881 59.413 42.1639 59.3784 42.1332 59.3492C42.1026 59.32 42.0661 59.2968 42.0259 59.2808C41.9858 59.2649 41.9426 59.2566 41.899 59.2563H37.8981C37.8544 59.2565 37.8112 59.2648 37.7709 59.2806C37.7307 59.2965 37.6941 59.3198 37.6634 59.349C37.6327 59.3782 37.6084 59.4128 37.5919 59.4508C37.5754 59.4889 37.5671 59.5296 37.5674 59.5707V79.2769C37.5674 79.4501 37.7161 79.5913 37.8981 79.5913H41.899C41.9427 79.5911 41.9859 79.5827 42.0261 79.5668C42.0663 79.5508 42.1028 79.5275 42.1335 79.4982C42.1641 79.469 42.1883 79.4343 42.2048 79.3962C42.2212 79.3582 42.2294 79.3174 42.2291 79.2763V70.8476H48.4659L48.4553 79.2763C48.4553 79.4501 48.6041 79.5913 48.7874 79.5913H52.797C52.8406 79.5911 52.8838 79.5827 52.924 79.5668C52.9643 79.5508 53.0007 79.5275 53.0314 79.4982C53.062 79.469 53.0863 79.4343 53.1027 79.3962C53.1191 79.3582 53.1273 79.3174 53.127 79.2763V59.5701C53.1274 59.529 53.1192 59.4883 53.1028 59.4502C53.0864 59.4122 53.0622 59.3776 53.0315 59.3484C53.0008 59.3192 52.9643 59.2961 52.924 59.2803C52.8838 59.2645 52.8406 59.2563 52.797 59.2563ZM21.4758 59.7044C20.052 59.7044 18.8966 60.8001 18.8966 62.1563C18.8966 63.5107 20.052 64.6094 21.4758 64.6094C22.9009 64.6094 24.0557 63.5107 24.0557 62.1563C24.0557 60.8001 22.9002 59.7044 21.4758 59.7044ZM23.4388 65.7094H19.4504C19.2671 65.7094 19.1038 65.8869 19.1038 66.0594V79.0919C19.1038 79.4751 19.3574 79.5888 19.6855 79.5888H23.2781C23.6732 79.5888 23.7695 79.4063 23.7695 79.0857V66.0238C23.7696 65.9828 23.7612 65.9421 23.7447 65.9041C23.7282 65.8662 23.7039 65.8316 23.6731 65.8025C23.6424 65.7733 23.6059 65.7502 23.5657 65.7343C23.5255 65.7185 23.4824 65.7096 23.4388 65.7094ZM68.3334 65.7388H64.3623C64.3187 65.7391 64.2756 65.7476 64.2354 65.7636C64.1953 65.7796 64.1588 65.8029 64.1283 65.8321C64.0977 65.8614 64.0735 65.896 64.0571 65.934C64.0408 65.9721 64.0325 66.0128 64.0329 66.0538V75.7163C64.0329 75.7163 63.0235 76.4101 61.5925 76.4101C60.1614 76.4101 59.7816 75.7994 59.7816 74.4801V66.0538C59.7819 66.0127 59.7737 65.972 59.7572 65.9339C59.7408 65.8958 59.7166 65.8612 59.686 65.8319C59.6553 65.8026 59.6188 65.7794 59.5786 65.7634C59.5384 65.7474 59.4952 65.7391 59.4515 65.7388H55.422C55.3338 65.7395 55.2495 65.773 55.1875 65.832C55.1255 65.8911 55.0909 65.9708 55.0913 66.0538V75.1176C55.0913 79.0363 57.4122 79.9951 60.6043 79.9951C63.2234 79.9951 65.3351 78.6326 65.3351 78.6326C65.3351 78.6326 65.4347 79.3513 65.4812 79.4357C65.5277 79.5207 65.6452 79.6063 65.7734 79.6063L68.3367 79.5957C68.3805 79.5955 68.4238 79.5873 68.4642 79.5713C68.5045 79.5554 68.5412 79.5322 68.572 79.5029C68.6028 79.4737 68.6273 79.439 68.6438 79.4009C68.6604 79.3627 68.6689 79.3219 68.6687 79.2807L68.6667 66.0519C68.6664 65.969 68.6313 65.8896 68.5692 65.8309C68.507 65.7722 68.4228 65.7389 68.3347 65.7382L68.3334 65.7388ZM79.1855 65.2963C76.9303 65.2963 75.3963 66.2432 75.3963 66.2432V59.5701C75.3966 59.529 75.3883 59.4883 75.3718 59.4503C75.3554 59.4123 75.3311 59.3777 75.3005 59.3485C75.2698 59.3194 75.2334 59.2961 75.1932 59.2802C75.153 59.2643 75.1099 59.2559 75.0663 59.2557H71.0547C71.0109 59.2557 70.9676 59.2638 70.9272 59.2797C70.8868 59.2955 70.8501 59.3187 70.8192 59.3479C70.7883 59.3771 70.7639 59.4118 70.7474 59.4499C70.7308 59.488 70.7224 59.5289 70.7227 59.5701V79.2763C70.7224 79.3175 70.7308 79.3584 70.7474 79.3965C70.7639 79.4346 70.7883 79.4693 70.8192 79.4985C70.8501 79.5277 70.8868 79.5509 70.9272 79.5667C70.9676 79.5826 71.0109 79.5907 71.0547 79.5907H73.8384C73.9646 79.5907 74.0589 79.5301 74.1286 79.4232C74.197 79.3169 74.2973 78.5144 74.2973 78.5144C74.2973 78.5144 75.9375 79.9769 79.044 79.9769C82.6897 79.9769 84.7815 78.2369 84.7815 72.1632C84.7815 66.0894 81.4413 65.2957 79.1848 65.2957L79.1855 65.2963ZM77.6183 76.3988C76.2417 76.3594 75.3073 75.7713 75.3073 75.7713V69.5307C75.3073 69.5307 76.2291 68.9994 77.3593 68.9032C78.789 68.7826 80.167 69.1894 80.167 72.3994C80.167 75.7851 79.5461 76.4532 77.619 76.3982L77.6183 76.3988ZM35.3248 76.3251C35.1502 76.3251 34.7026 76.3919 34.2424 76.3919C32.7682 76.3919 32.2681 75.7469 32.2681 74.9119V69.3707H35.2697C35.3135 69.3707 35.3569 69.3625 35.3974 69.3467C35.4378 69.3308 35.4746 69.3076 35.5054 69.2783C35.5363 69.249 35.5607 69.2143 35.5772 69.1761C35.5937 69.1378 35.6021 69.0969 35.6017 69.0557V66.0207C35.6019 65.9796 35.5934 65.9388 35.5768 65.9007C35.5602 65.8627 35.5358 65.8281 35.5049 65.7989C35.4741 65.7698 35.4374 65.7466 35.3971 65.7309C35.3567 65.7151 35.3134 65.7069 35.2697 65.7069H32.2681L32.2635 61.9757C32.2635 61.8338 32.1865 61.7632 32.0125 61.7632H27.9218C27.7638 61.7632 27.6781 61.8294 27.6781 61.9726V65.8288C27.6781 65.8288 25.6282 66.2944 25.49 66.3319C25.4211 66.3509 25.3605 66.3904 25.3174 66.4444C25.2743 66.4985 25.251 66.5643 25.251 66.6319V69.0551C25.2507 69.0961 25.259 69.1368 25.2755 69.1748C25.2919 69.2128 25.3162 69.2474 25.3468 69.2766C25.3775 69.3058 25.4139 69.329 25.4541 69.3449C25.4943 69.3609 25.5374 69.3692 25.581 69.3694H27.6781V75.1994C27.6781 79.5307 30.9055 79.9557 33.0836 79.9557C34.0777 79.9557 35.2684 79.6557 35.4649 79.5869C35.5845 79.5451 35.6529 79.4294 35.6529 79.3038L35.6555 76.6382C35.6542 76.5556 35.6188 76.4767 35.5568 76.4182C35.4949 76.3597 35.4112 76.3261 35.3235 76.3244L35.3248 76.3251Z" fill="#100E0F"/>
</g>
<defs>
<clipPath id="clip0_53_9613">
<rect width="85" height="80" fill="white"/>
</clipPath>
</defs>
</svg>
