<svg width="654" height="112" viewBox="0 0 654 112" fill="none" xmlns="http://www.w3.org/2000/svg">
<path d="M5.5 106.5V5.5H648.5V106.5H5.5Z" fill="white" stroke="black" stroke-width="11"/>
<path d="M181.069 68V45.131H186.481V63.7265H196.398L195.837 68H181.069ZM214.848 62.951C214.848 63.611 214.936 64.0895 215.112 64.3865C215.299 64.6835 215.596 64.909 216.003 65.063L214.931 68.495C213.897 68.396 213.022 68.1705 212.307 67.8185C211.603 67.4555 211.048 66.911 210.641 66.185C209.97 66.988 209.112 67.5875 208.067 67.9835C207.022 68.3685 205.955 68.561 204.866 68.561C203.062 68.561 201.621 68.0495 200.543 67.0265C199.476 65.9925 198.942 64.667 198.942 63.05C198.942 61.147 199.685 59.6785 201.17 58.6445C202.666 57.6105 204.767 57.0935 207.473 57.0935H209.832V56.4335C209.832 55.5205 209.535 54.844 208.941 54.404C208.358 53.964 207.5 53.744 206.367 53.744C205.806 53.744 205.086 53.8265 204.206 53.9915C203.326 54.1455 202.446 54.371 201.566 54.668L200.361 51.203C201.494 50.774 202.671 50.4495 203.892 50.2295C205.124 50.0095 206.224 49.8995 207.192 49.8995C209.799 49.8995 211.724 50.433 212.967 51.5C214.221 52.556 214.848 54.085 214.848 56.087V62.951ZM206.664 64.832C207.225 64.832 207.814 64.667 208.43 64.337C209.046 63.996 209.513 63.5175 209.832 62.9015V60.0635H208.545C207.093 60.0635 206.026 60.289 205.344 60.74C204.662 61.18 204.321 61.829 204.321 62.687C204.321 63.358 204.525 63.886 204.932 64.271C205.35 64.645 205.927 64.832 206.664 64.832ZM235.658 66.977C234.976 67.417 234.151 67.791 233.183 68.099C232.215 68.407 231.126 68.561 229.916 68.561C227.628 68.561 225.929 67.978 224.818 66.812C223.707 65.635 223.151 64.04 223.151 62.027V54.074H219.472V50.477H223.151V46.682L228.365 46.055V50.477H234.008L233.497 54.074H228.365V62.027C228.365 62.896 228.563 63.5175 228.959 63.8915C229.355 64.2655 229.988 64.4525 230.857 64.4525C231.473 64.4525 232.034 64.381 232.54 64.238C233.057 64.084 233.519 63.8915 233.926 63.6605L235.658 66.977ZM244.192 60.7565C244.313 61.7135 244.561 62.489 244.935 63.083C245.32 63.666 245.809 64.095 246.403 64.37C246.997 64.634 247.663 64.766 248.4 64.766C249.203 64.766 249.978 64.634 250.726 64.37C251.474 64.106 252.195 63.754 252.888 63.314L254.983 66.152C254.158 66.856 253.157 67.4335 251.98 67.8845C250.814 68.3355 249.483 68.561 247.987 68.561C245.985 68.561 244.308 68.165 242.955 67.373C241.602 66.57 240.584 65.47 239.902 64.073C239.22 62.676 238.879 61.07 238.879 59.255C238.879 57.528 239.209 55.9605 239.869 54.5525C240.529 53.1335 241.492 52.006 242.757 51.17C244.033 50.323 245.589 49.8995 247.426 49.8995C249.098 49.8995 250.545 50.257 251.766 50.972C252.998 51.687 253.949 52.7155 254.62 54.0575C255.302 55.3995 255.643 57.011 255.643 58.892C255.643 59.189 255.632 59.508 255.61 59.849C255.599 60.19 255.577 60.4925 255.544 60.7565H244.192ZM247.426 53.3975C246.491 53.3975 245.738 53.733 245.166 54.404C244.594 55.075 244.247 56.1475 244.126 57.6215H250.561C250.55 56.3455 250.303 55.3225 249.819 54.5525C249.335 53.7825 248.537 53.3975 247.426 53.3975ZM266.487 64.832C267.356 64.832 268.055 64.6945 268.583 64.4195C269.122 64.1445 269.391 63.732 269.391 63.182C269.391 62.808 269.287 62.4945 269.078 62.2415C268.869 61.9885 268.467 61.7465 267.873 61.5155C267.279 61.2845 266.399 61.0095 265.233 60.6905C264.166 60.4045 263.22 60.0415 262.395 59.6015C261.581 59.1615 260.943 58.595 260.481 57.902C260.03 57.209 259.805 56.3455 259.805 55.3115C259.805 54.2665 260.096 53.337 260.679 52.523C261.262 51.709 262.12 51.071 263.253 50.609C264.386 50.136 265.772 49.8995 267.411 49.8995C268.973 49.8995 270.332 50.103 271.487 50.51C272.653 50.906 273.659 51.412 274.506 52.028L272.427 55.097C271.701 54.646 270.92 54.2885 270.084 54.0245C269.248 53.7495 268.407 53.612 267.56 53.612C266.713 53.612 266.08 53.7275 265.662 53.9585C265.255 54.1785 265.052 54.514 265.052 54.965C265.052 55.262 265.156 55.5205 265.365 55.7405C265.585 55.9495 265.992 56.1695 266.586 56.4005C267.18 56.6205 268.049 56.8955 269.193 57.2255C270.326 57.5445 271.311 57.913 272.147 58.331C272.994 58.749 273.648 59.31 274.11 60.014C274.572 60.707 274.803 61.6255 274.803 62.7695C274.803 64.0455 274.424 65.118 273.665 65.987C272.906 66.845 271.899 67.4885 270.645 67.9175C269.391 68.3465 268.016 68.561 266.52 68.561C264.826 68.561 263.33 68.319 262.032 67.835C260.734 67.351 259.629 66.713 258.716 65.921L261.339 62.984C262.021 63.512 262.791 63.952 263.649 64.304C264.518 64.656 265.464 64.832 266.487 64.832ZM295.02 66.977C294.338 67.417 293.513 67.791 292.545 68.099C291.577 68.407 290.488 68.561 289.278 68.561C286.99 68.561 285.29 67.978 284.179 66.812C283.068 65.635 282.513 64.04 282.513 62.027V54.074H278.833V50.477H282.513V46.682L287.727 46.055V50.477H293.37L292.858 54.074H287.727V62.027C287.727 62.896 287.925 63.5175 288.321 63.8915C288.717 64.2655 289.349 64.4525 290.218 64.4525C290.834 64.4525 291.395 64.381 291.901 64.238C292.418 64.084 292.88 63.8915 293.287 63.6605L295.02 66.977Z" fill="#4AC279"/>
<path d="M329.957 52.589C329.957 51.775 329.803 51.104 329.495 50.576C329.198 50.037 328.742 49.641 328.126 49.388C327.521 49.124 326.756 48.992 325.832 48.992H323.984V56.4665H326.113C326.916 56.4665 327.603 56.329 328.175 56.054C328.747 55.779 329.187 55.3555 329.495 54.7835C329.803 54.2115 329.957 53.48 329.957 52.589ZM335.534 52.5725C335.534 54.3435 335.155 55.8065 334.396 56.9615C333.637 58.1165 332.575 58.98 331.211 59.552C329.847 60.113 328.263 60.3935 326.459 60.3935H323.984V68H318.572V45.131H325.766C328.868 45.131 331.272 45.747 332.977 46.979C334.682 48.211 335.534 50.0755 335.534 52.5725ZM338.772 68V64.502H341.082V53.942H338.772V50.477H345.058L346.015 54.4205C346.642 52.9135 347.44 51.7915 348.408 51.0545C349.387 50.3175 350.58 49.949 351.988 49.949C352.582 49.949 353.11 49.9985 353.572 50.0975C354.034 50.1855 354.469 50.312 354.876 50.477L353.292 54.7835C352.973 54.6955 352.654 54.6295 352.335 54.5855C352.016 54.5415 351.664 54.5195 351.279 54.5195C350.135 54.5195 349.128 54.987 348.259 55.922C347.401 56.857 346.747 58.045 346.296 59.486V64.502H349.761V68H338.772ZM350.635 57.803V52.688L351.411 50.477H354.876L353.902 57.803H350.635ZM365.984 49.8995C367.788 49.8995 369.322 50.2845 370.587 51.0545C371.852 51.8245 372.82 52.908 373.491 54.305C374.162 55.691 374.498 57.319 374.498 59.189C374.498 61.136 374.157 62.8135 373.475 64.2215C372.804 65.6185 371.836 66.691 370.571 67.439C369.306 68.187 367.777 68.561 365.984 68.561C364.202 68.561 362.673 68.1925 361.397 67.4555C360.132 66.7185 359.158 65.6515 358.476 64.2545C357.805 62.8575 357.47 61.18 357.47 59.222C357.47 57.363 357.805 55.735 358.476 54.338C359.158 52.941 360.132 51.852 361.397 51.071C362.673 50.29 364.202 49.8995 365.984 49.8995ZM365.984 53.744C364.917 53.744 364.125 54.184 363.608 55.064C363.102 55.933 362.849 57.319 362.849 59.222C362.849 61.158 363.102 62.5605 363.608 63.4295C364.125 64.2985 364.917 64.733 365.984 64.733C367.051 64.733 367.837 64.2985 368.343 63.4295C368.86 62.5605 369.119 61.147 369.119 59.189C369.119 57.297 368.86 55.9165 368.343 55.0475C367.837 54.1785 367.051 53.744 365.984 53.744ZM391.464 50.477V62.918C391.464 65.448 390.991 67.527 390.045 69.155C389.11 70.794 387.713 72.092 385.854 73.049C384.006 74.017 381.718 74.7705 378.99 75.3095L378.165 71.333C379.936 70.926 381.421 70.42 382.62 69.815C383.819 69.21 384.721 68.3905 385.326 67.3565C385.942 66.3115 386.25 64.942 386.25 63.248V54.041H379.947V50.477H391.464ZM388.081 41.303C388.983 41.303 389.72 41.5835 390.292 42.1445C390.864 42.7055 391.15 43.404 391.15 44.24C391.15 45.076 390.864 45.78 390.292 46.352C389.72 46.913 388.983 47.1935 388.081 47.1935C387.168 47.1935 386.42 46.913 385.837 46.352C385.265 45.78 384.979 45.076 384.979 44.24C384.979 43.404 385.265 42.7055 385.837 42.1445C386.42 41.5835 387.168 41.303 388.081 41.303ZM402.489 60.7565C402.61 61.7135 402.858 62.489 403.232 63.083C403.617 63.666 404.106 64.095 404.7 64.37C405.294 64.634 405.96 64.766 406.697 64.766C407.5 64.766 408.275 64.634 409.023 64.37C409.771 64.106 410.492 63.754 411.185 63.314L413.28 66.152C412.455 66.856 411.454 67.4335 410.277 67.8845C409.111 68.3355 407.78 68.561 406.284 68.561C404.282 68.561 402.605 68.165 401.252 67.373C399.899 66.57 398.881 65.47 398.199 64.073C397.517 62.676 397.176 61.07 397.176 59.255C397.176 57.528 397.506 55.9605 398.166 54.5525C398.826 53.1335 399.789 52.006 401.054 51.17C402.33 50.323 403.886 49.8995 405.723 49.8995C407.395 49.8995 408.842 50.257 410.063 50.972C411.295 51.687 412.246 52.7155 412.917 54.0575C413.599 55.3995 413.94 57.011 413.94 58.892C413.94 59.189 413.929 59.508 413.907 59.849C413.896 60.19 413.874 60.4925 413.841 60.7565H402.489ZM405.723 53.3975C404.788 53.3975 404.035 53.733 403.463 54.404C402.891 55.075 402.544 56.1475 402.423 57.6215H408.858C408.847 56.3455 408.6 55.3225 408.116 54.5525C407.632 53.7825 406.834 53.3975 405.723 53.3975ZM427.045 64.4525C427.76 64.4525 428.431 64.315 429.058 64.04C429.696 63.754 430.328 63.391 430.955 62.951L433.282 66.251C432.512 66.911 431.571 67.461 430.46 67.901C429.36 68.341 428.128 68.561 426.764 68.561C424.883 68.561 423.266 68.176 421.913 67.406C420.56 66.625 419.521 65.547 418.795 64.172C418.069 62.786 417.706 61.18 417.706 59.354C417.706 57.528 418.074 55.9055 418.811 54.4865C419.559 53.0565 420.615 51.9345 421.979 51.1205C423.354 50.3065 424.982 49.8995 426.863 49.8995C428.194 49.8995 429.377 50.0865 430.411 50.4605C431.456 50.8235 432.413 51.368 433.282 52.094L431.021 55.229C430.427 54.811 429.8 54.4865 429.14 54.2555C428.48 54.0245 427.793 53.909 427.078 53.909C425.901 53.909 424.949 54.327 424.223 55.163C423.508 55.988 423.151 57.385 423.151 59.354C423.151 60.641 423.321 61.6585 423.662 62.4065C424.003 63.1435 424.465 63.6715 425.048 63.9905C425.642 64.2985 426.308 64.4525 427.045 64.4525ZM453.316 66.977C452.634 67.417 451.809 67.791 450.841 68.099C449.873 68.407 448.784 68.561 447.574 68.561C445.286 68.561 443.587 67.978 442.476 66.812C441.365 65.635 440.809 64.04 440.809 62.027V54.074H437.13V50.477H440.809V46.682L446.023 46.055V50.477H451.666L451.155 54.074H446.023V62.027C446.023 62.896 446.221 63.5175 446.617 63.8915C447.013 64.2655 447.646 64.4525 448.515 64.4525C449.131 64.4525 449.692 64.381 450.198 64.238C450.715 64.084 451.177 63.8915 451.584 63.6605L453.316 66.977ZM464.359 64.832C465.228 64.832 465.926 64.6945 466.454 64.4195C466.993 64.1445 467.263 63.732 467.263 63.182C467.263 62.808 467.158 62.4945 466.949 62.2415C466.74 61.9885 466.339 61.7465 465.745 61.5155C465.151 61.2845 464.271 61.0095 463.105 60.6905C462.038 60.4045 461.092 60.0415 460.267 59.6015C459.453 59.1615 458.815 58.595 458.353 57.902C457.902 57.209 457.676 56.3455 457.676 55.3115C457.676 54.2665 457.968 53.337 458.551 52.523C459.134 51.709 459.992 51.071 461.125 50.609C462.258 50.136 463.644 49.8995 465.283 49.8995C466.845 49.8995 468.203 50.103 469.358 50.51C470.524 50.906 471.531 51.412 472.378 52.028L470.299 55.097C469.573 54.646 468.792 54.2885 467.956 54.0245C467.12 53.7495 466.278 53.612 465.431 53.612C464.584 53.612 463.952 53.7275 463.534 53.9585C463.127 54.1785 462.923 54.514 462.923 54.965C462.923 55.262 463.028 55.5205 463.237 55.7405C463.457 55.9495 463.864 56.1695 464.458 56.4005C465.052 56.6205 465.921 56.8955 467.065 57.2255C468.198 57.5445 469.182 57.913 470.018 58.331C470.865 58.749 471.52 59.31 471.982 60.014C472.444 60.707 472.675 61.6255 472.675 62.7695C472.675 64.0455 472.295 65.118 471.536 65.987C470.777 66.845 469.771 67.4885 468.517 67.9175C467.263 68.3465 465.888 68.561 464.392 68.561C462.698 68.561 461.202 68.319 459.904 67.835C458.606 67.351 457.5 66.713 456.587 65.921L459.211 62.984C459.893 63.512 460.663 63.952 461.521 64.304C462.39 64.656 463.336 64.832 464.359 64.832Z" fill="black"/>
</svg>
