<svg width="73" height="78" viewBox="0 0 73 78" fill="none" xmlns="http://www.w3.org/2000/svg">
<g clip-path="url(#clip0_53_9618)">
<path d="M66.4453 4.00028H7.13281C5.78705 3.98565 4.49082 4.54204 3.52855 5.54738C2.56627 6.55272 2.01655 7.92488 2 9.36278V72.9937C2.01954 74.4295 2.57058 75.7985 3.53253 76.8013C4.49448 77.804 5.789 78.3587 7.13281 78.344H66.4453C67.7912 78.3554 69.0865 77.7972 70.0483 76.7912C71.0101 75.7852 71.5601 74.4134 71.5781 72.9754V9.3445C71.5541 7.91082 71.0015 6.5452 70.0404 5.54447C69.0792 4.54375 67.7873 3.98881 66.4453 4.00028ZM22.6282 67.3753H12.2998V31.867H22.6282V67.3753ZM17.4954 27.0286C16.3108 27.0298 15.1524 26.6555 14.1669 25.9532C13.1814 25.2509 12.413 24.252 11.9589 23.0829C11.5048 21.9139 11.3854 20.6272 11.6158 19.3856C11.8462 18.144 12.4161 17.0034 13.2533 16.1079C14.0906 15.2125 15.1576 14.6025 16.3193 14.3551C17.4811 14.1077 18.6854 14.2341 19.78 14.7182C20.8745 15.2023 21.8101 16.0224 22.4684 17.0747C23.1266 18.1271 23.478 19.3644 23.478 20.6301C23.4765 21.4714 23.3197 22.3041 23.0167 23.0806C22.7137 23.8571 22.2703 24.5621 21.7119 25.1553C21.1536 25.7484 20.4913 26.2181 19.7629 26.5375C19.0344 26.8569 18.2542 27.0196 17.4669 27.0164L17.4954 27.0286ZM61.3125 67.3753H50.9841V50.0995C50.9841 45.9862 50.9157 40.6907 45.6175 40.6907C40.3193 40.6907 39.4182 45.1758 39.4182 49.8314V67.3753H29.107V31.867H39.0076V36.742H39.1445C40.5246 33.9511 43.8895 31.0078 48.9139 31.0078C59.3734 30.9834 61.3125 38.3386 61.3125 47.8753V67.3753Z" fill="black"/>
</g>
<defs>
<clipPath id="clip0_53_9618">
<rect width="73" height="78" fill="white"/>
</clipPath>
</defs>
</svg>
