<?xml version="1.0" encoding="UTF-8" standalone="no"?>
<!DOCTYPE svg PUBLIC "-//W3C//DTD SVG 1.1//EN" "http://www.w3.org/Graphics/SVG/1.1/DTD/svg11.dtd">
<svg xmlns="http://www.w3.org/2000/svg" version="1.1" viewBox="0.00 0.00 500.00 500.00">
<g stroke-width="2.00" fill="none" stroke-linecap="butt">
<path stroke="#424241" vector-effect="non-scaling-stroke" d="
  M 290.17 290.21
  Q 289.22 290.06 289.62 291.43
  Q 289.82 292.11 289.81 292.61
  Q 289.56 305.20 290.01 318.08
  A 0.48 0.47 -43.0 0 0 290.96 318.11
  C 292.02 308.86 291.39 299.32 291.70 290.00
  Q 291.71 289.69 291.18 289.70"
/>
<path stroke="#424241" vector-effect="non-scaling-stroke" d="
  M 207.36 227.13
  Q 206.89 227.99 207.49 229.75"
/>
<path stroke="#6a6b6a" vector-effect="non-scaling-stroke" d="
  M 207.49 229.75
  L 207.20 235.76"
/>
<path stroke="#424241" vector-effect="non-scaling-stroke" d="
  M 207.37 292.23
  L 207.56 324.53"
/>
<path stroke="#424241" vector-effect="non-scaling-stroke" d="
  M 208.48 324.20
  Q 209.62 310.25 209.00 296.25
  Q 208.95 295.16 208.30 293.50"
/>
<path stroke="#6a6b6a" vector-effect="non-scaling-stroke" d="
  M 208.74 235.80
  Q 209.23 235.80 209.23 235.50
  Q 209.23 232.94 208.98 230.59"
/>
<path stroke="#424241" vector-effect="non-scaling-stroke" d="
  M 208.98 230.59
  Q 210.09 228.60 209.12 227.68"
/>
<path stroke="#a19e9b" vector-effect="non-scaling-stroke" d="
  M 208.98 230.59
  Q 209.14 229.87 208.66 229.62
  Q 208.13 229.34 207.49 229.75"
/>
<path stroke="#090c0c" stroke-opacity="0.784" vector-effect="non-scaling-stroke" d="
  M 297.06 181.66
  Q 296.87 182.57 297.72 183.05
  Q 298.43 183.44 298.07 182.71
  L 297.53 181.60
  Q 297.20 180.93 297.06 181.66"
/>
<path stroke="#424241" vector-effect="non-scaling-stroke" d="
  M 198.3529 188.3223
  A 0.27 0.27 0.0 0 0 198.2496 187.9547
  L 197.5519 187.5632
  A 0.27 0.27 0.0 0 0 197.1843 187.6665
  L 182.7671 213.3577
  A 0.27 0.27 0.0 0 0 182.8704 213.7253
  L 183.5681 214.1168
  A 0.27 0.27 0.0 0 0 183.9357 214.0135
  L 198.3529 188.3223"
/>
<path stroke="#424241" vector-effect="non-scaling-stroke" d="
  M 180.26 192.96
  L 180.49 192.53
  Q 180.64 192.25 180.32 192.25
  Q 180.16 192.25 180.01 192.25
  Q 179.60 192.25 179.60 192.66
  Q 179.59 199.82 179.74 202.25
  Q 179.78 202.76 180.26 202.72
  Q 180.73 202.69 180.69 202.22
  C 180.57 200.87 181.18 194.76 180.97 194.31
  Q 180.80 193.95 180.49 193.77
  Q 179.99 193.48 180.26 192.96"
/>
<path stroke="#6a6b6a" vector-effect="non-scaling-stroke" d="
  M 196.31 204.63
  L 169.81 238.48
  A 0.19 0.18 -73.3 0 0 169.97 238.78
  Q 170.47 238.74 170.96 238.21
  C 177.59 231.05 182.98 223.52 188.97 216.11
  Q 193.18 210.91 196.77 205.35"
/>
<path stroke="#6a6b6a" vector-effect="non-scaling-stroke" d="
  M 332.00 262.98
  Q 331.99 304.06 332.02 345.19
  Q 332.02 346.77 332.68 348.45"
/>
<path stroke="#6a6b6a" vector-effect="non-scaling-stroke" d="
  M 333.85 349.75
  L 333.80 261.18"
/>
<path stroke="#424241" vector-effect="non-scaling-stroke" d="
  M 301.83 201.17
  Q 301.13 198.86 298.82 198.33
  Q 298.28 198.21 298.49 198.73
  Q 299.21 200.50 300.39 201.30"
/>
<path stroke="#424241" vector-effect="non-scaling-stroke" d="
  M 218.50 207.56
  Q 218.54 207.80 218.50 208.11
  A 1.20 1.19 -59.0 0 0 218.71 208.98
  Q 226.31 219.60 233.46 230.52
  Q 234.49 232.08 236.50 233.42
  A 0.34 0.34 0.0 0 0 237.00 233.00
  Q 236.40 231.69 235.34 230.73
  Q 234.98 230.40 234.74 229.97
  C 229.31 220.31 221.25 210.60 214.84 200.58
  A 0.33 0.32 -70.6 0 0 214.26 200.86
  Q 215.44 204.41 218.25 207.14
  Q 218.47 207.34 218.50 207.56"
/>
<path stroke="#6a6b6a" vector-effect="non-scaling-stroke" d="
  M 132.35 268.45
  Q 132.51 291.43 132.72 302.50
  Q 132.73 302.78 133.28 302.82"
/>
<path stroke="#6a6b6a" vector-effect="non-scaling-stroke" d="
  M 134.40 302.19
  Q 133.78 286.25 134.69 270.59"
/>
<path stroke="#424241" vector-effect="non-scaling-stroke" d="
  M 275.76 226.00
  L 272.23 230.15"
/>
<path stroke="#424241" vector-effect="non-scaling-stroke" d="
  M 271.74 231.97
  Q 275.02 229.60 276.67 226.06"
/>
<path stroke="#6a6b6a" vector-effect="non-scaling-stroke" d="
  M 175.43 252.70
  L 201.26 219.22
  A 0.32 0.32 0.0 0 0 200.78 218.81
  C 196.70 223.16 192.94 228.64 189.59 232.62
  Q 181.67 242.04 174.58 252.25"
/>
<path stroke="#090c0c" stroke-opacity="0.784" vector-effect="non-scaling-stroke" d="
  M 187.30 227.89
  C 189.98 226.35 190.81 223.37 192.42 220.92
  A 0.33 0.32 35.4 0 0 192.34 220.47
  L 192.07 220.27
  Q 191.77 220.05 191.52 220.32
  Q 189.08 222.88 186.19 224.94
  Q 183.89 226.57 184.44 229.32
  Q 184.55 229.85 185.07 229.73
  Q 186.18 229.46 186.74 228.46
  Q 186.94 228.10 187.30 227.89"
/>
<path stroke="#424241" vector-effect="non-scaling-stroke" d="
  M 215.32 221.58
  Q 221.62 234.41 230.19 245.85
  Q 230.29 245.98 230.41 246.02
  Q 230.62 246.08 230.78 245.98
  Q 231.13 245.78 230.92 245.44
  L 215.10 220.19
  A 0.38 0.32 -81.7 0 0 214.58 220.66
  C 214.78 221.00 215.12 221.18 215.32 221.58"
/>
<path stroke="#6a6b6a" vector-effect="non-scaling-stroke" d="
  M 364.22 272.37
  L 364.61 299.70"
/>
<path stroke="#6a6b6a" vector-effect="non-scaling-stroke" d="
  M 366.31 300.31
  L 366.38 268.22"
/>
<path stroke="#090c0c" stroke-opacity="0.784" vector-effect="non-scaling-stroke" d="
  M 300.5280 228.9938
  A 2.36 1.47 62.0 0 0 300.7179 226.2199
  A 2.36 1.47 62.0 0 0 298.3120 224.8262
  A 2.36 1.47 62.0 0 0 298.1221 227.6001
  A 2.36 1.47 62.0 0 0 300.5280 228.9938"
/>
<path stroke="#6a6b6a" vector-effect="non-scaling-stroke" d="
  M 202.00 235.21
  Q 201.87 235.22 201.74 235.23
  Q 201.41 235.27 201.23 235.55
  L 198.44 239.81"
/>
<path stroke="#6a6b6a" vector-effect="non-scaling-stroke" d="
  M 200.19 240.95
  L 203.55 235.00"
/>
<path stroke="#424241" vector-effect="non-scaling-stroke" d="
  M 215.9459 237.0698
  A 0.53 0.53 0.0 0 0 215.2024 236.9746
  L 215.1866 236.9868
  A 0.53 0.53 0.0 0 0 215.0913 237.7303
  L 229.0341 255.7702
  A 0.53 0.53 0.0 0 0 229.7776 255.8654
  L 229.7934 255.8532
  A 0.53 0.53 0.0 0 0 229.8887 255.1097
  L 215.9459 237.0698"
/>
<path stroke="#424241" vector-effect="non-scaling-stroke" d="
  M 276.1460 246.3810
  A 2.74 0.59 130.9 0 0 278.3860 244.6963
  A 2.74 0.59 130.9 0 0 279.7340 242.2390
  A 2.74 0.59 130.9 0 0 277.4940 243.9237
  A 2.74 0.59 130.9 0 0 276.1460 246.3810"
/>
<path stroke="#424241" vector-effect="non-scaling-stroke" d="
  M 360.9980 244.3262
  A 0.27 0.27 0.0 0 0 360.8812 243.9627
  L 360.4543 243.7433
  A 0.27 0.27 0.0 0 0 360.0908 243.8600
  L 350.0620 263.3738
  A 0.27 0.27 0.0 0 0 350.1788 263.7373
  L 350.6057 263.9567
  A 0.27 0.27 0.0 0 0 350.9692 263.8400
  L 360.9980 244.3262"
/>
<path stroke="#424241" vector-effect="non-scaling-stroke" d="
  M 272.44 250.22
  Q 270.77 251.06 270.81 252.55
  Q 270.82 253.12 271.31 252.82
  Q 273.37 251.55 274.50 249.46"
/>
<path stroke="#424241" vector-effect="non-scaling-stroke" d="
  M 337.3881 247.9643
  A 0.26 0.26 0.0 0 0 337.0227 247.9233
  L 336.3506 248.4598
  A 0.26 0.26 0.0 0 0 336.3096 248.8252
  L 344.7319 259.3757
  A 0.26 0.26 0.0 0 0 345.0973 259.4167
  L 345.7694 258.8802
  A 0.26 0.26 0.0 0 0 345.8104 258.5148
  L 337.3881 247.9643"
/>
<path stroke="#424241" vector-effect="non-scaling-stroke" d="
  M 147.90 263.37
  L 159.91 278.31
  A 0.23 0.23 0.0 0 0 160.29 278.06
  Q 155.38 269.00 147.83 261.34"
/>
<path stroke="#424241" vector-effect="non-scaling-stroke" d="
  M 215.7473 256.5348
  A 0.26 0.26 0.0 0 0 215.3888 256.4527
  L 215.0161 256.6865
  A 0.26 0.26 0.0 0 0 214.9340 257.0449
  L 219.3127 264.0252
  A 0.26 0.26 0.0 0 0 219.6712 264.1073
  L 220.0439 263.8735
  A 0.26 0.26 0.0 0 0 220.1260 263.5151
  L 215.7473 256.5348"
/>
<path stroke="#424241" vector-effect="non-scaling-stroke" d="
  M 357.62 262.21
  Q 354.65 268.13 351.23 273.99
  Q 350.85 274.64 351.45 275.23
  Q 351.97 275.74 352.29 275.09
  L 358.45 262.97
  Q 358.61 262.65 358.30 262.49
  L 357.97 262.30"
/>
<path stroke="#6a6b6a" vector-effect="non-scaling-stroke" d="
  M 123.23 265.80
  L 112.23 282.51"
/>
<path stroke="#424241" vector-effect="non-scaling-stroke" d="
  M 107.39 288.91
  Q 106.37 289.78 106.52 291.42
  A 0.35 0.35 0.0 0 0 107.08 291.67
  Q 109.16 290.07 109.98 288.22"
/>
<path stroke="#6a6b6a" vector-effect="non-scaling-stroke" d="
  M 112.87 283.11
  C 117.36 278.05 120.10 271.93 124.33 266.63"
/>
<path stroke="#090c0c" stroke-opacity="0.784" vector-effect="non-scaling-stroke" d="
  M 347.32 271.92
  A 1.10 1.10 0.0 0 0 349.11 272.32
  Q 351.58 269.93 350.56 266.49
  Q 350.38 265.89 349.76 265.82
  L 347.60 265.57
  Q 347.00 265.50 347.00 264.90
  Q 347.00 264.66 347.00 264.43
  Q 347.00 264.13 346.70 264.13
  L 346.39 264.12
  Q 345.99 264.12 345.99 264.52
  Q 345.95 268.39 347.32 271.92"
/>
<path stroke="#6a6b6a" vector-effect="non-scaling-stroke" d="
  M 336.2821 264.4498
  A 0.60 0.60 0.0 0 0 335.4346 264.4083
  L 335.3901 264.4486
  A 0.60 0.60 0.0 0 0 335.3487 265.2962
  L 350.7579 282.2902
  A 0.60 0.60 0.0 0 0 351.6054 282.3317
  L 351.6499 282.2914
  A 0.60 0.60 0.0 0 0 351.6913 281.4438
  L 336.2821 264.4498"
/>
<path stroke="#424241" vector-effect="non-scaling-stroke" d="
  M 356.62 277.08
  L 348.15 292.70
  A 0.15 0.14 -66.9 0 0 348.23 292.91
  Q 348.38 292.96 348.52 293.01
  Q 348.84 293.11 349.02 292.82
  Q 354.08 284.64 357.48 276.99
  Q 357.60 276.73 357.22 276.73"
/>
<path stroke="#090c0c" stroke-opacity="0.784" vector-effect="non-scaling-stroke" d="
  M 121.14 277.65
  Q 119.05 279.03 118.40 281.40
  A 1.17 1.17 0.0 0 0 119.90 282.82
  Q 126.33 280.70 126.89 274.10
  A 2.37 2.37 0.0 0 0 125.50 271.74
  Q 123.54 270.86 122.77 273.40
  Q 122.22 275.22 121.59 277.06
  Q 121.47 277.43 121.14 277.65"
/>
<path stroke="#424241" vector-effect="non-scaling-stroke" d="
  M 383.10 288.62
  Q 387.74 295.19 389.97 297.35
  Q 397.07 304.21 391.20 296.28
  Q 388.83 293.08 384.10 288.42"
/>
<path stroke="#424241" vector-effect="non-scaling-stroke" d="
  M 146.53 280.29
  L 146.29 280.46
  Q 146.15 280.56 146.25 280.69
  L 153.46 290.53
  A 0.39 0.39 0.0 0 0 154.10 290.07
  L 146.98 279.90"
/>
<path stroke="#090c0c" stroke-opacity="0.784" vector-effect="non-scaling-stroke" d="
  M 146.98 279.90
  Q 147.00 277.58 144.16 275.78
  Q 143.73 275.51 143.70 276.02
  C 143.60 277.84 144.20 280.40 146.53 280.29"
/>
<path stroke="#4f4d4b" stroke-opacity="0.784" vector-effect="non-scaling-stroke" d="
  M 146.98 279.90
  Q 146.75 280.09 146.53 280.29"
/>
<path stroke="#090c0c" stroke-opacity="0.784" vector-effect="non-scaling-stroke" d="
  M 344.27 285.68
  L 345.48 288.18
  Q 345.67 288.58 345.97 288.25
  C 349.39 284.38 344.68 280.30 341.31 277.53
  A 0.91 0.88 16.5 0 1 341.00 276.98
  Q 340.86 275.89 339.68 276.31
  A 1.28 1.28 0.0 0 0 338.82 277.53
  L 338.86 282.08
  A 1.84 1.83 -88.1 0 0 340.55 283.89
  Q 342.38 284.03 343.89 285.21
  Q 344.13 285.40 344.27 285.68"
/>
<path stroke="#424241" vector-effect="non-scaling-stroke" d="
  M 398.9186 277.1906
  A 0.27 0.27 0.0 0 0 398.6582 276.9113
  L 398.1585 276.8939
  A 0.27 0.27 0.0 0 0 397.8792 277.1543
  L 397.6014 285.1094
  A 0.27 0.27 0.0 0 0 397.8618 285.3887
  L 398.3615 285.4061
  A 0.27 0.27 0.0 0 0 398.6408 285.1457
  L 398.9186 277.1906"
/>
<path stroke="#424241" vector-effect="non-scaling-stroke" d="
  M 126.9675 281.7898
  A 0.28 0.28 0.0 0 0 126.5716 281.7864
  L 115.1453 293.0149
  A 0.28 0.28 0.0 0 0 115.1418 293.4109
  L 115.6325 293.9102
  A 0.28 0.28 0.0 0 0 116.0284 293.9136
  L 127.4547 282.6851
  A 0.28 0.28 0.0 0 0 127.4582 282.2891
  L 126.9675 281.7898"
/>
<path stroke="#424241" vector-effect="non-scaling-stroke" d="
  M 357.45 289.33
  Q 356.98 290.15 356.98 291.33
  Q 356.98 291.81 356.59 292.08
  Q 355.34 292.95 354.66 294.44"
/>
<path stroke="#424241" vector-effect="non-scaling-stroke" d="
  M 355.03 295.42
  L 355.38 295.64
  Q 355.59 295.78 355.69 295.55
  L 358.89 288.51"
/>
<path stroke="#424241" vector-effect="non-scaling-stroke" d="
  M 376.08 292.29
  Q 381.97 300.83 389.27 307.98
  Q 389.98 308.67 390.74 308.76
  A 0.31 0.31 0.0 0 0 391.01 308.25
  L 376.52 291.35
  Q 376.41 291.22 376.30 291.34
  Q 376.22 291.42 376.15 291.55"
/>
<path stroke="#6a6b6a" vector-effect="non-scaling-stroke" d="
  M 356.38 310.08
  C 350.34 302.91 344.66 295.50 338.45 288.55
  Q 338.07 288.12 337.89 288.18
  A 0.72 0.71 -30.9 0 0 337.60 289.31
  C 343.58 296.41 348.77 303.64 355.23 310.28"
/>
<path stroke="#6a6b6a" vector-effect="non-scaling-stroke" d="
  M 161.4944 289.5948
  A 0.61 0.61 0.0 0 0 161.4102 288.7362
  L 161.3793 288.7109
  A 0.61 0.61 0.0 0 0 160.5207 288.7950
  L 143.0656 310.0452
  A 0.61 0.61 0.0 0 0 143.1498 310.9038
  L 143.1807 310.9291
  A 0.61 0.61 0.0 0 0 144.0393 310.8450
  L 161.4944 289.5948"
/>
<path stroke="#6a6b6a" vector-effect="non-scaling-stroke" d="
  M 314.30 307.05
  Q 315.97 306.11 317.20 304.70
  Q 322.66 298.41 328.54 292.50
  A 0.84 0.82 -27.2 0 0 328.77 291.82
  Q 328.74 291.65 328.77 291.50
  Q 328.90 290.74 328.24 291.31
  Q 320.36 298.04 314.05 306.41"
/>
<path stroke="#090c0c" stroke-opacity="0.784" vector-effect="non-scaling-stroke" d="
  M 137.89 309.12
  Q 139.88 306.04 143.35 304.95
  Q 143.84 304.79 144.11 304.35
  L 145.18 302.58
  Q 145.44 302.15 145.06 301.82
  Q 142.90 299.96 141.70 297.44
  C 140.84 295.65 141.38 292.29 138.06 291.94
  A 0.68 0.68 0.0 0 0 137.31 292.61
  L 137.18 308.91
  A 0.39 0.39 0.0 0 0 137.89 309.12"
/>
<path stroke="#090c0c" stroke-opacity="0.784" vector-effect="non-scaling-stroke" d="
  M 359.37 306.95
  Q 359.82 308.10 360.97 308.29
  A 0.60 0.60 0.0 0 0 361.67 307.70
  L 361.80 294.89
  A 1.51 1.50 -22.8 0 0 359.21 293.84
  Q 358.25 294.84 358.39 296.05
  A 0.69 0.67 55.4 0 1 358.33 296.41
  C 356.70 299.96 355.19 303.44 358.96 306.40
  Q 359.24 306.62 359.37 306.95"
/>
<path stroke="#424241" vector-effect="non-scaling-stroke" d="
  M 109.88 297.59
  Q 107.43 298.67 107.22 300.88
  A 0.55 0.55 0.0 0 0 108.12 301.35
  L 110.28 299.52
  Q 110.86 299.03 110.10 298.97
  L 109.64 298.93"
/>
<path stroke="#424241" vector-effect="non-scaling-stroke" d="
  M 373.6744 298.4660
  A 0.26 0.26 0.0 0 0 373.3121 298.4034
  L 372.8055 298.7608
  A 0.26 0.26 0.0 0 0 372.7429 299.1231
  L 385.8856 317.7540
  A 0.26 0.26 0.0 0 0 386.2479 317.8166
  L 386.7545 317.4592
  A 0.26 0.26 0.0 0 0 386.8171 317.0969
  L 373.6744 298.4660"
/>
<path stroke="#090c0c" stroke-opacity="0.784" vector-effect="non-scaling-stroke" d="
  M 351.91 300.64
  L 351.75 301.15
  A 0.46 0.46 0.0 0 0 352.45 301.66
  Q 353.33 301.04 352.68 300.18
  Q 352.44 299.86 352.11 300.10
  Q 351.91 300.23 351.92 300.53
  A 0.56 0.26 70.1 0 1 351.91 300.64"
/>
<path stroke="#6a6b6a" vector-effect="non-scaling-stroke" d="
  M 324.63 307.72
  Q 324.04 307.67 323.60 308.34
  Q 321.64 311.32 319.98 314.51"
/>
<path stroke="#6a6b6a" vector-effect="non-scaling-stroke" d="
  M 320.67 315.16
  L 325.22 308.07"
/>
<path stroke="#6a6b6a" vector-effect="non-scaling-stroke" d="
  M 340.04 303.43
  Q 338.78 303.41 339.15 303.87
  C 342.10 307.55 344.74 312.04 347.42 315.30
  C 350.22 318.70 353.67 321.85 355.70 325.78
  Q 355.82 326.00 355.95 326.04
  Q 356.12 326.10 356.34 325.97
  A 0.48 0.47 -35.5 0 0 356.46 325.30
  L 340.24 303.46"
/>
<path stroke="#6a6b6a" vector-effect="non-scaling-stroke" d="
  M 155.92 308.20
  L 149.32 317.29"
/>
<path stroke="#424241" vector-effect="non-scaling-stroke" d="
  M 146.23 321.55
  Q 143.98 323.03 143.12 325.43
  Q 142.84 326.22 143.52 325.74
  Q 145.62 324.25 146.50 321.44"
/>
<path stroke="#6a6b6a" vector-effect="non-scaling-stroke" d="
  M 149.67 317.91
  Q 154.32 313.55 157.29 308.00"
/>
<path stroke="#090c0c" stroke-opacity="0.784" vector-effect="non-scaling-stroke" d="
  M 340.15 315.93
  Q 340.96 313.56 340.04 311.26
  A 0.44 0.44 0.0 0 0 339.22 311.24
  Q 337.78 314.53 339.78 317.74
  Q 339.94 318.00 340.13 318.04
  Q 340.38 318.09 340.67 317.97
  Q 341.33 317.70 340.83 317.21
  L 340.33 316.71
  Q 340.00 316.37 340.15 315.93"
/>
<path stroke="#090c0c" stroke-opacity="0.784" vector-effect="non-scaling-stroke" d="
  M 137.19 317.63
  L 137.25 326.25
  A 0.68 0.68 0.0 0 0 138.61 326.34
  Q 139.24 321.69 142.61 318.42
  A 1.06 1.06 0.0 0 0 142.08 316.62
  L 139.16 316.02
  A 1.64 1.64 0.0 0 0 137.19 317.63"
/>
<path stroke="#424241" vector-effect="non-scaling-stroke" d="
  M 302.70 343.20
  Q 301.04 342.75 300.31 344.77"
/>
<path stroke="#424241" vector-effect="non-scaling-stroke" d="
  M 261.06 349.35
  Q 260.40 348.93 259.20 349.00
  A 0.81 0.81 0.0 0 0 258.69 350.40
  L 267.65 358.97
  Q 267.76 359.08 267.91 359.03
  Q 268.10 358.97 268.29 358.90
  A 0.15 0.15 0.0 0 0 268.34 358.64
  Q 265.22 356.21 263.41 352.69"
/>
<path stroke="#424241" vector-effect="non-scaling-stroke" d="
  M 300.24 345.50
  Q 301.62 345.04 303.04 343.77"
/>
<path stroke="#424241" vector-effect="non-scaling-stroke" d="
  M 340.05 318.80
  L 343.31 322.25
  A 0.19 0.19 0.0 0 0 343.58 322.26
  L 343.63 322.21
  A 2.32 1.30 46.6 0 0 342.98 319.63
  L 342.65 319.28
  A 2.32 1.30 46.6 0 0 340.11 318.49
  L 340.06 318.54
  A 0.19 0.19 0.0 0 0 340.05 318.80"
/>
<path stroke="#090c0c" stroke-opacity="0.784" vector-effect="non-scaling-stroke" d="
  M 343.95 323.21
  Q 344.20 324.58 345.33 324.66
  A 0.74 0.74 0.0 0 0 345.56 323.21
  L 343.42 322.67
  A 0.11 0.10 -28.7 0 0 343.36 322.87
  Q 343.53 322.93 343.72 322.97
  A 0.31 0.29 3.4 0 1 343.95 323.21"
/>
<path stroke="#090c0c" stroke-opacity="0.784" vector-effect="non-scaling-stroke" d="
  M 339.43 329.10
  Q 339.41 329.45 339.62 329.66
  Q 339.73 329.76 339.92 329.76
  Q 341.56 329.81 343.22 329.05
  A 0.61 0.61 0.0 0 0 343.53 328.25
  Q 342.41 325.63 340.14 323.85
  A 1.21 1.20 14.4 0 0 338.21 324.99
  L 338.83 328.80
  Q 338.86 329.00 339.06 329.00
  Q 339.20 329.00 339.34 329.00
  Q 339.44 329.00 339.43 329.10"
/>
<path stroke="#090c0c" stroke-opacity="0.784" vector-effect="non-scaling-stroke" d="
  M 157.90 325.68
  L 156.41 328.18
  A 0.48 0.48 0.0 0 0 157.09 328.83
  Q 158.67 327.76 158.46 325.80
  A 0.30 0.30 0.0 0 0 157.90 325.68"
/>
<path stroke="#424241" vector-effect="non-scaling-stroke" d="
  M 363.83 349.70
  Q 364.07 351.02 365.19 351.17
  A 0.86 0.86 0.0 0 0 366.17 350.35
  Q 366.23 348.95 364.60 348.71"
/>
<path stroke="#090c0c" stroke-opacity="0.784" vector-effect="non-scaling-stroke" d="
  M 349.10 333.85
  Q 349.93 333.08 352.09 333.18
  Q 352.59 333.20 352.75 333.67
  Q 352.89 334.09 353.35 334.06
  Q 353.92 334.02 354.39 334.33
  L 358.40 336.90
  A 0.63 0.63 0.0 0 0 359.28 336.68
  Q 361.07 333.56 359.53 330.29
  A 1.52 1.49 -1.4 0 0 358.74 329.55
  L 352.36 327.06
  A 0.66 0.65 19.4 0 0 351.50 327.47
  Q 350.71 329.86 348.36 330.67
  A 1.05 1.02 -87.8 0 0 347.73 331.27
  Q 347.33 332.28 346.43 331.84
  Q 345.86 331.56 345.76 332.18
  Q 345.58 333.23 346.69 334.37"
/>
<path stroke="#090c0c" stroke-opacity="0.784" vector-effect="non-scaling-stroke" d="
  M 141.46 336.16
  Q 144.48 333.48 146.85 331.87
  Q 148.46 330.77 147.89 328.93
  Q 147.75 328.45 147.24 328.49
  Q 143.70 328.76 140.75 330.80
  Q 140.39 331.05 140.27 331.47
  L 139.32 334.82
  A 1.32 1.32 0.0 0 0 141.46 336.16"
/>
<path stroke="#090c0c" stroke-opacity="0.784" vector-effect="non-scaling-stroke" d="
  M 340.5314 332.2718
  A 0.70 0.47 64.5 0 0 340.6542 331.4377
  A 0.70 0.47 64.5 0 0 339.9286 331.0082
  A 0.70 0.47 64.5 0 0 339.8058 331.8423
  A 0.70 0.47 64.5 0 0 340.5314 332.2718"
/>
<path stroke="#424241" vector-effect="non-scaling-stroke" d="
  M 343.94 339.44
  L 344.51 338.86
  Q 344.79 338.59 344.59 338.26
  L 341.65 333.39
  Q 341.37 332.94 340.85 333.01
  L 340.58 333.05
  A 0.43 0.42 -19.4 0 0 340.27 333.69
  L 343.19 338.55
  Q 343.42 338.93 343.46 339.37
  Q 343.57 340.56 344.38 341.46
  Q 344.68 341.80 344.62 341.34
  Q 344.54 340.79 344.12 340.58
  A 0.71 0.71 0.0 0 1 343.94 339.44"
/>
<path stroke="#090c0c" stroke-opacity="0.784" vector-effect="non-scaling-stroke" d="
  M 339.33 346.05
  L 342.96 344.87
  A 0.30 0.30 0.0 0 0 343.15 344.49
  L 343.10 344.35
  A 8.01 2.08 71.9 0 0 338.64 337.38
  L 338.39 337.46
  A 8.01 2.08 71.9 0 0 338.90 345.72
  L 338.95 345.86
  A 0.30 0.30 0.0 0 0 339.33 346.05"
/>
<path stroke="#090c0c" stroke-opacity="0.784" vector-effect="non-scaling-stroke" d="
  M 214.80 346.02
  L 209.53 346.60
  A 0.92 0.91 -84.1 0 0 208.75 347.24
  Q 208.53 347.92 207.74 347.75
  A 0.88 0.88 0.0 0 0 206.84 349.12
  Q 209.47 352.80 214.04 353.00
  A 0.54 0.53 60.0 0 1 214.32 353.08
  L 222.97 358.07
  Q 223.49 358.37 224.06 358.23
  C 226.15 357.73 227.78 353.57 228.93 351.53
  A 0.86 0.81 5.0 0 1 229.41 351.15
  Q 230.66 350.75 231.72 351.79"
/>
<path stroke="#424241" vector-effect="non-scaling-stroke" d="
  M 231.72 351.79
  L 229.78 354.99
  Q 229.68 355.16 229.78 355.33
  L 229.96 355.63
  Q 230.20 356.03 230.48 355.66
  L 234.84 349.95"
/>
<path stroke="#4f4d4b" stroke-opacity="0.784" vector-effect="non-scaling-stroke" d="
  M 232.74 351.13
  L 231.72 351.79"
/>
<path stroke="#424241" vector-effect="non-scaling-stroke" d="
  M 342.60 351.90
  Q 342.41 351.99 342.28 352.09
  Q 341.94 352.37 342.21 352.71
  Q 346.19 357.74 350.78 362.22
  Q 351.31 362.74 351.83 362.43
  A 0.51 0.50 53.1 0 0 351.94 361.65
  L 343.52 352.80"
/>
<path stroke="#090c0c" stroke-opacity="0.784" vector-effect="non-scaling-stroke" d="
  M 248.7500 357.8365
  A 3.71 0.39 0.1 0 0 245.0407 357.4400
  A 3.71 0.39 0.1 0 0 241.3300 357.8235
  A 3.71 0.39 0.1 0 0 245.0393 358.2200
  A 3.71 0.39 0.1 0 0 248.7500 357.8365"
/>
<path stroke="#090c0c" stroke-opacity="0.784" vector-effect="non-scaling-stroke" d="
  M 237.56 366.98
  Q 238.02 368.64 239.87 368.98
  Q 240.04 369.01 240.13 369.09
  Q 240.26 369.23 240.30 369.41
  Q 240.35 369.75 240.69 369.83
  C 245.03 370.92 250.54 370.12 253.44 366.49
  Q 253.99 365.80 254.66 365.67
  A 1.24 1.23 41.8 0 0 254.52 363.23
  Q 247.79 362.64 240.31 363.25
  C 238.23 363.43 235.98 363.13 233.76 363.28
  Q 233.19 363.32 233.30 363.88
  L 233.58 365.34
  A 0.56 0.55 74.1 0 0 234.33 365.76
  Q 235.81 365.19 237.03 366.17
  Q 237.43 366.49 237.56 366.98"
/>
</g>
<path fill="#0a0f10" d="
  M 156.97 372.22
  C 149.14 365.60 140.22 358.69 133.87 350.58
  Q 119.31 332.02 110.79 314.48
  Q 106.48 305.62 102.51 291.55
  C 78.88 207.93 128.54 120.81 211.13 96.85
  C 232.70 90.59 256.14 90.10 278.24 93.78
  C 324.30 101.44 364.19 133.70 386.17 173.66
  C 406.95 211.46 410.95 259.32 396.22 300.31
  C 394.62 304.76 393.14 309.64 391.23 313.72
  Q 384.68 327.77 375.61 340.36
  C 337.81 392.86 271.47 419.28 208.86 399.46
  C 189.61 393.36 172.57 385.41 156.97 372.22
  Z
  M 290.17 290.21
  Q 289.22 290.06 289.62 291.43
  Q 289.82 292.11 289.81 292.61
  Q 289.56 305.20 290.01 318.08
  A 0.48 0.47 -43.0 0 0 290.96 318.11
  C 292.02 308.86 291.39 299.32 291.70 290.00
  Q 291.71 289.69 291.18 289.70
  Q 291.73 286.80 291.72 282.75
  Q 291.69 266.71 291.97 235.09
  C 292.04 226.73 291.34 216.36 291.56 206.98
  C 292.13 182.87 291.99 158.81 292.00 134.70
  Q 292.00 133.79 291.81 133.31
  Q 291.46 132.45 290.71 132.32
  A 1.69 1.68 -84.7 0 0 288.73 133.97
  Q 288.19 210.60 289.62 287.44
  Q 289.65 289.10 290.17 290.21
  Z
  M 323.62 144.40
  L 324.26 161.20
  A 0.45 0.44 45.5 0 0 325.15 161.21
  L 326.06 144.14
  A 0.64 0.64 0.0 0 1 326.99 143.60
  L 329.53 144.88
  A 0.61 0.60 -69.4 0 0 330.38 144.49
  L 331.69 139.41
  A 0.58 0.57 -64.5 0 0 331.48 138.80
  Q 327.95 136.12 323.36 136.40
  Q 322.90 136.43 322.54 136.14
  L 320.38 134.38
  A 0.68 0.68 0.0 0 0 319.31 134.66
  L 318.84 135.88
  Q 318.71 136.22 318.36 136.24
  C 316.95 136.35 316.10 137.47 316.70 138.87
  Q 318.05 142.05 322.75 143.32
  Q 323.59 143.54 323.62 144.40
  Z
  M 176.00 148.07
  C 179.84 150.39 179.98 145.37 181.71 143.48
  A 0.59 0.59 0.0 0 0 181.53 142.55
  L 179.56 141.63
  A 0.92 0.86 -1.7 0 1 179.21 141.32
  L 178.13 139.71
  A 0.59 0.58 -40.4 0 0 177.21 139.64
  L 175.55 141.43
  A 0.64 0.64 0.0 0 1 174.45 141.09
  L 174.16 139.18
  A 0.52 0.51 73.7 0 0 173.44 138.78
  Q 172.65 139.13 172.76 140.02
  A 0.48 0.48 0.0 0 1 172.00 140.46
  L 169.84 138.84
  A 0.67 0.67 0.0 0 0 169.04 138.84
  L 164.97 141.89
  A 0.98 0.98 0.0 0 0 165.04 143.51
  L 172.10 147.92
  Q 172.41 148.12 172.43 148.48
  L 173.19 162.95
  A 0.52 0.52 0.0 0 0 174.23 162.96
  L 175.40 148.38
  A 0.40 0.40 0.0 0 1 176.00 148.07
  Z
  M 237.8131 148.0598
  A 0.88 0.71 91.1 0 0 238.5399 147.1936
  A 0.88 0.71 91.1 0 0 237.8469 146.3002
  A 0.88 0.71 91.1 0 0 237.1201 147.1664
  A 0.88 0.71 91.1 0 0 237.8131 148.0598
  Z
  M 283.56 146.55
  L 271.62 188.12
  A 0.44 0.44 0.0 0 0 272.11 188.68
  Q 273.27 188.49 273.75 187.18
  C 277.29 177.65 280.18 167.11 282.32 156.64
  Q 283.26 152.03 284.49 147.51
  Q 284.72 146.65 284.29 146.31
  A 0.46 0.46 0.0 0 0 283.56 146.55
  Z
  M 231.94 149.16
  Q 230.00 148.80 228.33 149.87
  A 1.13 1.13 0.0 0 0 227.86 151.17
  C 228.87 154.21 233.30 155.44 235.98 156.66
  A 1.24 1.21 -39.3 0 0 236.77 156.73
  Q 239.42 156.09 241.97 157.02
  A 0.71 0.68 29.3 0 0 242.76 156.81
  C 244.45 154.73 246.28 149.81 241.99 150.24
  Q 238.36 150.60 235.30 149.78
  Q 234.87 149.66 234.72 149.24
  Q 234.19 147.72 232.81 147.00
  A 0.42 0.42 0.0 0 0 232.22 147.50
  L 232.53 148.49
  Q 232.79 149.31 231.94 149.16
  Z
  M 207.36 227.13
  Q 206.89 227.99 207.49 229.75
  L 207.20 235.76
  Q 206.84 261.21 207.02 286.83
  C 207.03 288.44 207.36 290.44 207.37 292.23
  L 207.56 324.53
  Q 206.64 333.45 207.13 342.91
  A 0.78 0.77 -14.3 0 0 208.24 343.56
  Q 209.15 343.12 209.17 341.75
  Q 209.28 333.53 209.22 325.31
  Q 209.21 324.59 208.48 324.20
  Q 209.62 310.25 209.00 296.25
  Q 208.95 295.16 208.30 293.50
  Q 208.92 293.61 208.98 293.25
  Q 209.40 290.89 209.41 288.50
  Q 209.50 262.72 209.49 236.94
  Q 209.49 236.42 209.09 236.09
  L 208.74 235.80
  Q 209.23 235.80 209.23 235.50
  Q 209.23 232.94 208.98 230.59
  Q 210.09 228.60 209.12 227.68
  Q 209.49 225.08 209.58 222.24
  Q 210.34 198.47 209.72 175.01
  A 0.31 0.31 0.0 0 1 210.32 174.89
  Q 213.53 183.71 216.59 192.13
  C 218.70 197.95 219.64 204.59 224.67 209.16
  Q 228.37 212.53 231.67 216.30
  C 233.57 218.49 236.03 219.85 238.10 221.96
  A 0.66 0.66 0.0 0 0 239.12 221.12
  C 237.75 219.12 235.47 217.52 234.03 215.88
  Q 230.13 211.41 226.02 207.10
  C 222.52 203.42 220.85 196.94 219.27 192.19
  C 216.66 184.30 214.26 178.11 211.61 171.09
  C 209.71 166.05 209.68 161.26 209.53 156.02
  Q 209.47 153.91 207.92 154.44
  A 1.69 1.69 0.0 0 0 206.77 156.04
  Q 206.70 189.00 206.80 221.94
  Q 206.80 223.42 207.36 227.13
  Z
  M 343.1053 160.7100
  A 3.04 0.88 89.9 0 0 343.9800 157.6685
  A 3.04 0.88 89.9 0 0 343.0947 154.6300
  A 3.04 0.88 89.9 0 0 342.2200 157.6715
  A 3.04 0.88 89.9 0 0 343.1053 160.7100
  Z
  M 299.4220 160.9682
  A 0.86 0.86 0.0 0 0 298.3393 160.4142
  L 298.2822 160.4326
  A 0.86 0.86 0.0 0 0 297.7281 161.5153
  L 308.4180 194.6118
  A 0.86 0.86 0.0 0 0 309.5007 195.1658
  L 309.5578 195.1474
  A 0.86 0.86 0.0 0 0 310.1119 194.0647
  L 299.4220 160.9682
  Z
  M 264.5780 161.8065
  A 0.97 0.97 0.0 0 0 263.5945 160.8502
  L 263.5346 160.8510
  A 0.97 0.97 0.0 0 0 262.5782 161.8345
  L 262.7220 172.1335
  A 0.97 0.97 0.0 0 0 263.7055 173.0898
  L 263.7654 173.0890
  A 0.97 0.97 0.0 0 0 264.7218 172.1055
  L 264.5780 161.8065
  Z
  M 358.18 189.83
  Q 358.60 185.65 358.48 181.35
  Q 358.46 180.75 359.06 180.75
  L 361.05 180.75
  Q 361.61 180.75 361.78 180.21
  L 362.75 176.95
  A 0.93 0.90 -54.5 0 0 362.63 176.16
  C 360.96 173.70 356.62 174.16 353.96 172.50
  Q 353.58 172.27 353.16 172.41
  L 349.87 173.58
  A 1.22 1.22 0.0 0 0 349.42 175.61
  Q 352.35 178.46 356.01 180.26
  A 0.75 0.74 12.6 0 1 356.43 180.91
  L 356.68 190.45
  A 0.62 0.62 0.0 0 0 357.67 190.93
  Q 358.10 190.62 358.18 189.83
  Z
  M 175.2364 179.4780
  A 1.46 1.06 87.0 0 0 176.2185 177.9645
  A 1.46 1.06 87.0 0 0 175.0836 176.5620
  A 1.46 1.06 87.0 0 0 174.1015 178.0755
  A 1.46 1.06 87.0 0 0 175.2364 179.4780
  Z
  M 160.1479 178.9966
  A 1.25 1.01 57.7 0 0 160.3337 177.4003
  A 1.25 1.01 57.7 0 0 158.8121 176.8834
  A 1.25 1.01 57.7 0 0 158.6263 178.4797
  A 1.25 1.01 57.7 0 0 160.1479 178.9966
  Z
  M 322.0828 179.8194
  A 1.51 1.32 117.5 0 0 323.9509 179.0895
  A 1.51 1.32 117.5 0 0 323.4772 177.1406
  A 1.51 1.32 117.5 0 0 321.6091 177.8705
  A 1.51 1.32 117.5 0 0 322.0828 179.8194
  Z
  M 236.2218 181.1400
  A 1.57 1.32 90.3 0 0 237.5500 179.5769
  A 1.57 1.32 90.3 0 0 236.2382 178.0000
  A 1.57 1.32 90.3 0 0 234.9100 179.5631
  A 1.57 1.32 90.3 0 0 236.2218 181.1400
  Z
  M 137.84 184.02
  L 138.24 180.90
  A 1.27 1.27 0.0 0 0 137.15 179.48
  L 136.65 179.42
  A 7.57 2.77 7.4 0 0 128.79 181.19
  L 128.77 181.33
  A 7.57 2.77 7.4 0 0 135.92 185.05
  L 136.42 185.11
  A 1.27 1.27 0.0 0 0 137.84 184.02
  Z
  M 198.2663 187.5480
  A 4.63 0.90 118.0 0 0 201.2347 183.8825
  A 4.63 0.90 118.0 0 0 202.6137 179.3720
  A 4.63 0.90 118.0 0 0 199.6453 183.0375
  A 4.63 0.90 118.0 0 0 198.2663 187.5480
  Z
  M 283.55 179.97
  L 272.33 197.44
  A 0.01 0.01 0.0 0 0 272.34 197.45
  L 272.38 197.48
  A 10.22 1.96 -57.3 0 0 279.55 189.94
  L 279.73 189.65
  A 10.22 1.96 -57.3 0 0 283.60 179.99
  L 283.56 179.97
  A 0.01 0.01 0.0 0 0 283.55 179.97
  Z
  M 297.06 181.66
  Q 296.87 182.57 297.72 183.05
  Q 298.43 183.44 298.07 182.71
  L 297.53 181.60
  Q 297.20 180.93 297.06 181.66
  Z
  M 297.09 184.11
  L 307.27 201.87
  A 0.14 0.14 0.0 0 0 307.45 201.92
  L 307.46 201.92
  A 6.85 2.28 60.2 0 0 306.03 194.84
  L 302.53 188.73
  A 6.85 2.28 60.2 0 0 297.15 183.92
  L 297.14 183.92
  A 0.14 0.14 0.0 0 0 297.09 184.11
  Z
  M 198.3529 188.3223
  A 0.27 0.27 0.0 0 0 198.2496 187.9547
  L 197.5519 187.5632
  A 0.27 0.27 0.0 0 0 197.1843 187.6665
  L 182.7671 213.3577
  A 0.27 0.27 0.0 0 0 182.8704 213.7253
  L 183.5681 214.1168
  A 0.27 0.27 0.0 0 0 183.9357 214.0135
  L 198.3529 188.3223
  Z
  M 180.26 192.96
  L 180.49 192.53
  Q 180.64 192.25 180.32 192.25
  Q 180.16 192.25 180.01 192.25
  Q 179.60 192.25 179.60 192.66
  Q 179.59 199.82 179.74 202.25
  Q 179.78 202.76 180.26 202.72
  Q 180.73 202.69 180.69 202.22
  C 180.57 200.87 181.18 194.76 180.97 194.31
  Q 180.80 193.95 180.49 193.77
  Q 179.99 193.48 180.26 192.96
  Z
  M 384.78 196.24
  Q 380.24 192.11 374.15 193.72
  A 0.97 0.97 0.0 0 0 373.74 195.37
  C 376.62 197.98 381.32 200.88 384.81 197.31
  A 0.74 0.74 0.0 0 0 384.78 196.24
  Z
  M 144.36 193.78
  L 143.16 193.78
  A 0.40 0.40 0.0 0 0 142.76 194.17
  L 142.75 194.71
  A 4.78 0.83 -89.6 0 0 143.55 199.50
  L 143.89 199.50
  A 4.78 0.83 -89.6 0 0 144.75 194.73
  L 144.76 194.19
  A 0.40 0.40 0.0 0 0 144.36 193.78
  Z
  M 299.2500 198.1463
  A 2.00 0.61 54.9 0 0 298.5991 196.1592
  A 2.00 0.61 54.9 0 0 296.9500 194.8737
  A 2.00 0.61 54.9 0 0 297.6009 196.8608
  A 2.00 0.61 54.9 0 0 299.2500 198.1463
  Z
  M 337.6904 196.4609
  A 1.07 1.07 0.0 0 0 336.6019 195.4097
  L 336.4819 195.4118
  A 1.07 1.07 0.0 0 0 335.4307 196.5003
  L 335.5696 204.4591
  A 1.07 1.07 0.0 0 0 336.6581 205.5103
  L 336.7781 205.5082
  A 1.07 1.07 0.0 0 0 337.8293 204.4197
  L 337.6904 196.4609
  Z
  M 285.01 196.59
  L 283.88 195.73
  A 0.42 0.42 0.0 0 0 283.29 195.81
  L 283.25 195.86
  A 34.22 1.13 -52.7 0 0 263.42 223.76
  L 263.42 223.76
  A 34.22 1.13 -52.7 0 0 285.05 197.23
  L 285.09 197.18
  A 0.42 0.42 0.0 0 0 285.01 196.59
  Z
  M 196.31 204.63
  L 169.81 238.48
  A 0.19 0.18 -73.3 0 0 169.97 238.78
  Q 170.47 238.74 170.96 238.21
  C 177.59 231.05 182.98 223.52 188.97 216.11
  Q 193.18 210.91 196.77 205.35
  Q 201.10 202.50 202.89 196.80
  A 0.60 0.59 -86.3 0 0 202.22 196.03
  C 201.83 196.10 201.33 196.47 201.10 196.86
  Q 199.19 200.12 196.89 203.12
  A 1.81 1.79 66.5 0 0 196.54 204.02
  Q 196.50 204.47 196.31 204.63
  Z
  M 300.39 201.30
  Q 302.68 204.63 304.73 207.87
  C 308.23 213.42 312.63 218.29 316.46 223.60
  C 321.46 230.54 326.39 236.35 331.51 242.71
  A 1.41 1.39 25.6 0 1 331.83 243.60
  L 332.00 262.98
  Q 331.99 304.06 332.02 345.19
  Q 332.02 346.77 332.68 348.45
  Q 332.05 348.44 332.03 348.75
  Q 331.14 362.49 331.89 376.24
  Q 331.94 377.11 332.25 377.17
  A 1.84 1.83 -83.7 0 0 334.42 375.43
  Q 334.90 362.27 333.85 349.75
  L 333.80 261.18
  L 333.75 247.16
  A 0.64 0.63 -67.9 0 1 334.83 246.70
  L 336.07 247.94
  A 0.37 0.37 0.0 0 0 336.65 247.48
  Q 329.72 236.52 325.33 231.44
  C 321.51 227.01 318.18 221.81 315.38 218.37
  C 310.50 212.37 306.77 206.59 301.83 201.17
  Q 301.13 198.86 298.82 198.33
  Q 298.28 198.21 298.49 198.73
  Q 299.21 200.50 300.39 201.30
  Z
  M 218.50 207.56
  Q 218.54 207.80 218.50 208.11
  A 1.20 1.19 -59.0 0 0 218.71 208.98
  Q 226.31 219.60 233.46 230.52
  Q 234.49 232.08 236.50 233.42
  A 0.34 0.34 0.0 0 0 237.00 233.00
  Q 236.40 231.69 235.34 230.73
  Q 234.98 230.40 234.74 229.97
  C 229.31 220.31 221.25 210.60 214.84 200.58
  A 0.33 0.32 -70.6 0 0 214.26 200.86
  Q 215.44 204.41 218.25 207.14
  Q 218.47 207.34 218.50 207.56
  Z
  M 303.92 212.24
  C 302.26 208.99 299.65 206.28 298.41 202.88
  A 0.61 0.61 0.0 0 0 297.23 203.11
  L 297.52 210.61
  A 0.85 0.84 -80.6 0 0 298.06 211.37
  Q 302.30 213.02 305.04 216.72
  A 0.63 0.62 -59.4 0 0 306.16 216.43
  Q 306.50 213.98 304.53 212.88
  Q 304.13 212.65 303.92 212.24
  Z
  M 201.16 204.39
  C 200.12 206.03 197.85 210.27 198.93 212.01
  Q 199.74 213.33 201.63 212.52
  Q 202.18 212.28 202.19 211.68
  L 202.40 204.77
  A 0.67 0.67 0.0 0 0 201.16 204.39
  Z
  M 132.35 268.45
  Q 132.51 291.43 132.72 302.50
  Q 132.73 302.78 133.28 302.82
  Q 132.53 303.17 132.50 303.75
  Q 131.63 320.80 132.23 341.47
  Q 132.25 342.12 132.52 342.45
  Q 132.97 343.00 133.73 342.70
  A 1.13 1.13 0.0 0 0 134.45 341.65
  L 134.40 302.19
  Q 133.78 286.25 134.69 270.59
  L 134.99 210.24
  A 1.43 1.43 0.0 0 0 133.84 208.84
  Q 131.65 208.41 131.89 210.76
  C 132.56 217.35 131.92 222.28 129.40 228.79
  Q 125.11 239.85 120.39 250.74
  C 117.42 257.61 111.55 264.01 107.44 270.42
  A 0.54 0.54 0.0 0 0 108.03 271.23
  Q 109.36 270.88 110.39 269.61
  Q 115.51 263.31 120.10 256.62
  C 125.41 248.89 128.41 239.07 131.44 230.25
  A 0.32 0.32 0.0 0 1 132.06 230.35
  L 132.35 268.45
  Z
  M 160.7092 222.9380
  A 5.70 1.00 88.5 0 0 161.5597 217.2138
  A 5.70 1.00 88.5 0 0 160.4108 211.5420
  A 5.70 1.00 88.5 0 0 159.5603 217.2662
  A 5.70 1.00 88.5 0 0 160.7092 222.9380
  Z
  M 266.70 312.11
  C 264.61 312.91 263.76 310.85 263.75 309.10
  C 263.66 294.29 263.61 279.28 264.57 264.51
  Q 265.05 256.97 262.54 249.25
  Q 256.87 231.82 250.82 214.70
  A 0.96 0.95 45.3 0 0 249.02 214.69
  Q 242.39 233.31 235.69 252.23
  Q 234.79 254.78 234.97 258.47
  C 235.82 275.46 235.26 292.79 235.24 309.82
  C 235.24 311.13 234.46 312.09 233.22 312.27
  A 1.47 1.47 0.0 0 1 231.56 311.05
  C 230.18 302.56 233.58 291.09 230.60 283.18
  Q 227.95 276.16 225.76 269.00
  Q 225.31 267.53 223.21 267.58
  Q 222.77 267.60 222.74 268.03
  Q 222.56 270.21 222.29 271.01
  Q 219.54 278.99 216.76 286.98
  Q 213.12 297.47 212.73 302.91
  C 210.67 331.40 236.34 352.11 263.60 342.22
  C 271.25 339.44 279.33 331.07 282.75 323.90
  Q 288.82 311.15 285.90 296.90
  C 285.25 293.72 283.37 290.20 282.38 286.73
  Q 280.99 281.91 279.84 279.10
  C 278.35 275.46 277.52 271.04 275.58 267.67
  A 1.08 1.07 -49.3 0 0 273.65 267.82
  C 270.87 274.91 267.66 282.83 267.72 290.48
  Q 267.80 300.53 267.73 310.62
  A 1.61 1.60 79.9 0 1 266.70 312.11
  Z
  M 275.76 226.00
  L 272.23 230.15
  Q 268.10 233.37 266.60 238.23
  A 0.51 0.51 0.0 0 0 267.52 238.65
  L 271.74 231.97
  Q 275.02 229.60 276.67 226.06
  Q 281.19 221.55 284.25 215.71
  A 0.68 0.68 0.0 0 0 283.12 214.97
  C 281.77 216.67 281.15 218.63 279.51 220.24
  Q 277.01 222.70 275.76 226.00
  Z
  M 319.16 244.28
  L 297.89 215.21
  A 0.06 0.06 0.0 0 0 297.80 215.20
  L 297.80 215.20
  A 10.24 1.98 53.8 0 0 302.25 224.63
  L 311.50 237.27
  A 10.24 1.98 53.8 0 0 319.15 244.36
  L 319.15 244.36
  A 0.06 0.06 0.0 0 0 319.16 244.28
  Z
  M 174.58 252.25
  Q 172.23 253.45 171.97 255.73
  Q 171.85 256.82 172.57 255.99
  L 175.43 252.70
  L 201.26 219.22
  A 0.32 0.32 0.0 0 0 200.78 218.81
  C 196.70 223.16 192.94 228.64 189.59 232.62
  Q 181.67 242.04 174.58 252.25
  Z
  M 187.30 227.89
  C 189.98 226.35 190.81 223.37 192.42 220.92
  A 0.33 0.32 35.4 0 0 192.34 220.47
  L 192.07 220.27
  Q 191.77 220.05 191.52 220.32
  Q 189.08 222.88 186.19 224.94
  Q 183.89 226.57 184.44 229.32
  Q 184.55 229.85 185.07 229.73
  Q 186.18 229.46 186.74 228.46
  Q 186.94 228.10 187.30 227.89
  Z
  M 215.32 221.58
  Q 221.62 234.41 230.19 245.85
  Q 230.29 245.98 230.41 246.02
  Q 230.62 246.08 230.78 245.98
  Q 231.13 245.78 230.92 245.44
  L 215.10 220.19
  A 0.38 0.32 -81.7 0 0 214.58 220.66
  C 214.78 221.00 215.12 221.18 215.32 221.58
  Z
  M 364.22 272.37
  L 364.61 299.70
  Q 364.44 299.68 364.28 299.75
  A 0.59 0.58 80.2 0 0 363.91 300.28
  Q 363.48 320.88 364.20 341.47
  Q 364.23 342.13 364.50 342.45
  Q 364.92 342.94 365.56 342.72
  A 1.09 1.07 -9.5 0 0 366.30 341.70
  L 366.31 300.31
  L 366.38 268.22
  L 366.47 223.32
  A 1.16 1.16 0.0 0 0 364.22 222.91
  Q 363.68 224.39 363.65 226.50
  Q 363.39 249.35 364.22 272.37
  Z
  M 116.0621 225.8019
  A 1.51 1.30 121.9 0 0 117.9637 225.2070
  A 1.51 1.30 121.9 0 0 117.6579 223.2381
  A 1.51 1.30 121.9 0 0 115.7563 223.8330
  A 1.51 1.30 121.9 0 0 116.0621 225.8019
  Z
  M 300.5280 228.9938
  A 2.36 1.47 62.0 0 0 300.7179 226.2199
  A 2.36 1.47 62.0 0 0 298.3120 224.8262
  A 2.36 1.47 62.0 0 0 298.1221 227.6001
  A 2.36 1.47 62.0 0 0 300.5280 228.9938
  Z
  M 200.9377 228.7204
  A 1.81 0.61 108.1 0 0 202.0798 227.1895
  A 1.81 0.61 108.1 0 0 202.0623 225.2796
  A 1.81 0.61 108.1 0 0 200.9202 226.8105
  A 1.81 0.61 108.1 0 0 200.9377 228.7204
  Z
  M 283.4181 228.4207
  A 0.51 0.51 0.0 0 0 283.2121 227.7295
  L 283.1241 227.6819
  A 0.51 0.51 0.0 0 0 282.4329 227.8880
  L 280.5019 231.4593
  A 0.51 0.51 0.0 0 0 280.7079 232.1505
  L 280.7959 232.1981
  A 0.51 0.51 0.0 0 0 281.4871 231.9920
  L 283.4181 228.4207
  Z
  M 152.5515 245.6675
  A 10.43 1.02 56.6 0 0 147.6615 236.3985
  A 10.43 1.02 56.6 0 0 141.0685 228.2525
  A 10.43 1.02 56.6 0 0 145.9585 237.5215
  A 10.43 1.02 56.6 0 0 152.5515 245.6675
  Z
  M 344.8052 237.3598
  A 3.99 1.48 90.5 0 0 346.3199 233.3829
  A 3.99 1.48 90.5 0 0 344.8748 229.3802
  A 3.99 1.48 90.5 0 0 343.3601 233.3571
  A 3.99 1.48 90.5 0 0 344.8052 237.3598
  Z
  M 202.00 235.21
  Q 201.87 235.22 201.74 235.23
  Q 201.41 235.27 201.23 235.55
  L 198.44 239.81
  Q 190.84 254.07 183.36 268.65
  Q 181.18 272.90 180.03 277.58
  A 0.53 0.53 0.0 0 0 180.38 278.21
  Q 180.91 278.39 181.18 277.93
  Q 191.39 260.07 200.17 241.46
  Q 200.32 241.16 200.19 240.95
  L 203.55 235.00
  L 203.47 233.94
  A 0.78 0.78 0.0 0 0 202.21 233.39
  Q 201.29 234.11 202.00 235.21
  Z
  M 297.46 233.79
  C 297.41 234.05 297.25 234.20 297.19 234.54
  Q 297.15 234.77 297.28 235.03
  Q 303.65 247.88 310.05 260.72
  C 312.03 264.68 315.90 271.51 318.32 277.22
  A 0.85 0.84 77.1 0 0 319.12 277.73
  Q 319.94 277.71 319.64 276.78
  C 319.00 274.83 318.78 272.71 317.78 270.91
  Q 311.84 260.21 306.88 249.03
  C 304.83 244.40 301.84 239.23 299.75 234.05
  A 1.39 1.38 59.2 0 0 297.58 233.50
  Q 297.51 233.55 297.46 233.79
  Z
  M 140.1972 234.6104
  A 1.01 1.01 0.0 0 0 138.8499 234.1360
  L 138.8138 234.1533
  A 1.01 1.01 0.0 0 0 138.3394 235.5005
  L 147.5428 254.7096
  A 1.01 1.01 0.0 0 0 148.8901 255.1840
  L 148.9262 255.1667
  A 1.01 1.01 0.0 0 0 149.4006 253.8195
  L 140.1972 234.6104
  Z
  M 385.8480 237.7424
  A 1.37 1.18 110.6 0 0 387.4346 236.8752
  A 1.37 1.18 110.6 0 0 386.8120 235.1776
  A 1.37 1.18 110.6 0 0 385.2254 236.0448
  A 1.37 1.18 110.6 0 0 385.8480 237.7424
  Z
  M 283.9013 236.6120
  A 0.57 0.57 0.0 0 0 283.7186 235.8269
  L 283.6676 235.7952
  A 0.57 0.57 0.0 0 0 282.8825 235.9779
  L 279.8387 240.8680
  A 0.57 0.57 0.0 0 0 280.0214 241.6531
  L 280.0724 241.6848
  A 0.57 0.57 0.0 0 0 280.8575 241.5021
  L 283.9013 236.6120
  Z
  M 215.9459 237.0698
  A 0.53 0.53 0.0 0 0 215.2024 236.9746
  L 215.1866 236.9868
  A 0.53 0.53 0.0 0 0 215.0913 237.7303
  L 229.0341 255.7702
  A 0.53 0.53 0.0 0 0 229.7776 255.8654
  L 229.7934 255.8532
  A 0.53 0.53 0.0 0 0 229.8887 255.1097
  L 215.9459 237.0698
  Z
  M 276.1460 246.3810
  A 2.74 0.59 130.9 0 0 278.3860 244.6963
  A 2.74 0.59 130.9 0 0 279.7340 242.2390
  A 2.74 0.59 130.9 0 0 277.4940 243.9237
  A 2.74 0.59 130.9 0 0 276.1460 246.3810
  Z
  M 371.02 243.65
  Q 373.43 253.46 377.16 262.33
  C 378.15 264.66 379.80 265.90 380.67 267.76
  Q 383.80 274.41 387.48 280.79
  Q 387.89 281.49 388.43 281.71
  A 0.53 0.53 0.0 0 0 389.10 280.98
  C 382.98 268.64 377.29 258.88 372.18 244.07
  Q 371.93 243.34 371.52 243.20
  Q 370.86 242.97 371.02 243.65
  Z
  M 164.94 258.19
  Q 165.50 276.57 164.65 346.44
  Q 164.43 364.93 164.55 374.23
  Q 164.56 375.12 164.88 375.57
  Q 165.53 376.47 166.68 375.75
  A 1.30 1.29 74.1 0 0 167.29 374.65
  L 167.06 244.71
  A 0.88 0.86 -61.4 0 0 166.93 244.25
  Q 165.93 242.56 165.05 243.92
  Q 164.83 244.26 164.81 244.76
  Q 164.66 249.24 164.94 258.19
  Z
  M 360.9980 244.3262
  A 0.27 0.27 0.0 0 0 360.8812 243.9627
  L 360.4543 243.7433
  A 0.27 0.27 0.0 0 0 360.0908 243.8600
  L 350.0620 263.3738
  A 0.27 0.27 0.0 0 0 350.1788 263.7373
  L 350.6057 263.9567
  A 0.27 0.27 0.0 0 0 350.9692 263.8400
  L 360.9980 244.3262
  Z
  M 272.44 250.22
  Q 270.77 251.06 270.81 252.55
  Q 270.82 253.12 271.31 252.82
  Q 273.37 251.55 274.50 249.46
  Q 275.59 248.09 275.55 246.73
  Q 275.54 246.10 275.03 246.48
  Q 273.23 247.87 272.44 250.22
  Z
  M 337.3881 247.9643
  A 0.26 0.26 0.0 0 0 337.0227 247.9233
  L 336.3506 248.4598
  A 0.26 0.26 0.0 0 0 336.3096 248.8252
  L 344.7319 259.3757
  A 0.26 0.26 0.0 0 0 345.0973 259.4167
  L 345.7694 258.8802
  A 0.26 0.26 0.0 0 0 345.8104 258.5148
  L 337.3881 247.9643
  Z
  M 147.90 263.37
  L 159.91 278.31
  A 0.23 0.23 0.0 0 0 160.29 278.06
  Q 155.38 269.00 147.83 261.34
  L 140.05 249.86
  A 0.27 0.27 0.0 0 0 139.68 249.78
  L 139.45 249.91
  Q 139.12 250.11 139.29 250.45
  Q 142.63 257.51 147.90 263.37
  Z
  M 378.48 273.95
  L 380.09 273.24
  A 0.24 0.24 0.0 0 0 380.21 272.93
  L 380.17 272.84
  A 21.50 1.10 66.4 0 0 370.56 253.58
  L 370.52 253.59
  A 21.50 1.10 66.4 0 0 378.12 273.73
  L 378.16 273.83
  A 0.24 0.24 0.0 0 0 378.48 273.95
  Z
  M 215.7473 256.5348
  A 0.26 0.26 0.0 0 0 215.3888 256.4527
  L 215.0161 256.6865
  A 0.26 0.26 0.0 0 0 214.9340 257.0449
  L 219.3127 264.0252
  A 0.26 0.26 0.0 0 0 219.6712 264.1073
  L 220.0439 263.8735
  A 0.26 0.26 0.0 0 0 220.1260 263.5151
  L 215.7473 256.5348
  Z
  M 357.62 262.21
  Q 354.65 268.13 351.23 273.99
  Q 350.85 274.64 351.45 275.23
  Q 351.97 275.74 352.29 275.09
  L 358.45 262.97
  Q 358.61 262.65 358.30 262.49
  L 357.97 262.30
  Q 358.83 262.33 359.07 261.81
  Q 360.22 259.33 361.35 257.18
  A 0.59 0.59 0.0 0 0 360.39 256.50
  Q 357.77 259.30 357.62 262.21
  Z
  M 123.23 265.80
  L 112.23 282.51
  L 111.82 282.50
  Q 111.45 282.49 111.25 282.81
  L 107.39 288.91
  Q 106.37 289.78 106.52 291.42
  A 0.35 0.35 0.0 0 0 107.08 291.67
  Q 109.16 290.07 109.98 288.22
  L 112.87 283.11
  C 117.36 278.05 120.10 271.93 124.33 266.63
  Q 127.77 262.83 129.53 258.18
  A 0.59 0.58 -13.4 0 0 128.55 257.58
  Q 125.14 261.28 123.23 265.80
  Z
  M 140.1154 258.6225
  A 1.02 1.02 0.0 0 0 138.7169 258.2686
  L 138.5108 258.3915
  A 1.02 1.02 0.0 0 0 138.1569 259.7899
  L 149.9646 279.5975
  A 1.02 1.02 0.0 0 0 151.3631 279.9514
  L 151.5692 279.8285
  A 1.02 1.02 0.0 0 0 151.9231 278.4301
  L 140.1154 258.6225
  Z
  M 300.2621 261.2700
  A 0.93 0.93 0.0 0 0 298.9570 261.1074
  L 298.9096 261.1442
  A 0.93 0.93 0.0 0 0 298.7471 262.4494
  L 317.6179 286.6900
  A 0.93 0.93 0.0 0 0 318.9230 286.8526
  L 318.9704 286.8158
  A 0.93 0.93 0.0 0 0 319.1329 285.5106
  L 300.2621 261.2700
  Z
  M 202.4516 263.7704
  A 0.98 0.98 0.0 0 0 202.2899 262.3939
  L 202.2742 262.3816
  A 0.98 0.98 0.0 0 0 200.8978 262.5433
  L 182.4284 285.9296
  A 0.98 0.98 0.0 0 0 182.5901 287.3061
  L 182.6058 287.3184
  A 0.98 0.98 0.0 0 0 183.9822 287.1567
  L 202.4516 263.7704
  Z
  M 386.54 266.00
  Q 387.85 267.00 389.30 267.80
  C 395.56 271.26 397.09 258.62 385.61 262.84
  A 1.02 1.01 68.8 0 0 385.03 264.18
  Q 385.43 265.15 386.54 266.00
  Z
  M 347.32 271.92
  A 1.10 1.10 0.0 0 0 349.11 272.32
  Q 351.58 269.93 350.56 266.49
  Q 350.38 265.89 349.76 265.82
  L 347.60 265.57
  Q 347.00 265.50 347.00 264.90
  Q 347.00 264.66 347.00 264.43
  Q 347.00 264.13 346.70 264.13
  L 346.39 264.12
  Q 345.99 264.12 345.99 264.52
  Q 345.95 268.39 347.32 271.92
  Z
  M 336.2821 264.4498
  A 0.60 0.60 0.0 0 0 335.4346 264.4083
  L 335.3901 264.4486
  A 0.60 0.60 0.0 0 0 335.3487 265.2962
  L 350.7579 282.2902
  A 0.60 0.60 0.0 0 0 351.6054 282.3317
  L 351.6499 282.2914
  A 0.60 0.60 0.0 0 0 351.6913 281.4438
  L 336.2821 264.4498
  Z
  M 222.1316 266.9452
  A 1.53 0.75 49.6 0 0 221.7112 265.2939
  A 1.53 0.75 49.6 0 0 220.1484 264.6148
  A 1.53 0.75 49.6 0 0 220.5688 266.2661
  A 1.53 0.75 49.6 0 0 222.1316 266.9452
  Z
  M 141.47 270.70
  L 140.02 268.50
  A 0.40 0.39 24.2 0 0 139.30 268.77
  Q 139.47 269.97 140.20 270.89
  Q 140.54 271.33 140.68 271.86
  Q 141.26 274.11 143.30 275.36
  A 0.44 0.44 0.0 0 0 143.96 274.86
  Q 143.39 272.88 142.04 271.42
  Q 141.73 271.08 141.47 270.70
  Z
  M 356.62 277.08
  L 348.15 292.70
  A 0.15 0.14 -66.9 0 0 348.23 292.91
  Q 348.38 292.96 348.52 293.01
  Q 348.84 293.11 349.02 292.82
  Q 354.08 284.64 357.48 276.99
  Q 357.60 276.73 357.22 276.73
  Q 360.36 273.25 361.05 269.20
  A 0.53 0.53 0.0 0 0 360.07 268.83
  Q 357.37 273.13 356.62 277.08
  Z
  M 121.14 277.65
  Q 119.05 279.03 118.40 281.40
  A 1.17 1.17 0.0 0 0 119.90 282.82
  Q 126.33 280.70 126.89 274.10
  A 2.37 2.37 0.0 0 0 125.50 271.74
  Q 123.54 270.86 122.77 273.40
  Q 122.22 275.22 121.59 277.06
  Q 121.47 277.43 121.14 277.65
  Z
  M 383.10 288.62
  Q 387.74 295.19 389.97 297.35
  Q 397.07 304.21 391.20 296.28
  Q 388.83 293.08 384.10 288.42
  C 382.23 284.18 379.12 281.04 376.96 277.36
  Q 375.52 274.90 373.98 272.49
  Q 373.53 271.79 372.67 271.73
  A 0.61 0.61 0.0 0 0 372.26 272.82
  Q 373.15 273.51 372.99 274.61
  Q 372.86 275.46 372.45 274.71
  L 371.49 272.92
  Q 371.26 272.50 370.78 272.50
  L 370.41 272.50
  Q 369.83 272.50 370.01 273.05
  Q 372.61 280.92 377.13 287.84
  Q 377.67 288.67 378.34 288.92
  A 0.70 0.70 0.0 0 0 379.24 288.03
  Q 377.40 282.94 373.99 278.74
  A 1.22 1.20 -60.2 0 1 373.73 277.75
  Q 373.83 277.18 373.50 276.76
  A 0.29 0.29 0.0 0 1 373.84 276.31
  Q 374.31 276.49 374.50 277.04
  Q 375.53 280.12 377.77 282.31
  C 380.09 284.59 381.30 286.41 383.10 288.62
  Z
  M 311.73 299.21
  Q 311.96 299.88 312.69 299.77
  A 0.67 0.67 0.0 0 0 313.24 299.01
  Q 313.09 298.03 312.52 296.96
  Q 306.07 284.89 298.96 272.73
  A 0.94 0.93 32.3 0 0 297.22 273.12
  C 297.16 273.79 297.32 274.64 297.69 275.30
  Q 304.39 287.06 311.11 298.80
  Q 311.16 298.89 311.25 298.92
  Q 311.39 298.96 311.53 299.01
  A 0.32 0.32 0.0 0 1 311.73 299.21
  Z
  M 146.53 280.29
  L 146.29 280.46
  Q 146.15 280.56 146.25 280.69
  L 153.46 290.53
  A 0.39 0.39 0.0 0 0 154.10 290.07
  L 146.98 279.90
  Q 147.00 277.58 144.16 275.78
  Q 143.73 275.51 143.70 276.02
  C 143.60 277.84 144.20 280.40 146.53 280.29
  Z
  M 344.27 285.68
  L 345.48 288.18
  Q 345.67 288.58 345.97 288.25
  C 349.39 284.38 344.68 280.30 341.31 277.53
  A 0.91 0.88 16.5 0 1 341.00 276.98
  Q 340.86 275.89 339.68 276.31
  A 1.28 1.28 0.0 0 0 338.82 277.53
  L 338.86 282.08
  A 1.84 1.83 -88.1 0 0 340.55 283.89
  Q 342.38 284.03 343.89 285.21
  Q 344.13 285.40 344.27 285.68
  Z
  M 398.9186 277.1906
  A 0.27 0.27 0.0 0 0 398.6582 276.9113
  L 398.1585 276.8939
  A 0.27 0.27 0.0 0 0 397.8792 277.1543
  L 397.6014 285.1094
  A 0.27 0.27 0.0 0 0 397.8618 285.3887
  L 398.3615 285.4061
  A 0.27 0.27 0.0 0 0 398.6408 285.1457
  L 398.9186 277.1906
  Z
  M 143.32 289.83
  C 143.73 286.70 141.13 285.72 140.77 282.80
  A 1.07 1.03 39.5 0 0 138.68 282.96
  Q 138.83 284.30 139.80 285.10
  A 1.50 1.43 8.8 0 1 140.16 285.57
  L 142.20 290.00
  A 0.59 0.59 0.0 0 0 143.32 289.83
  Z
  M 126.9675 281.7898
  A 0.28 0.28 0.0 0 0 126.5716 281.7864
  L 115.1453 293.0149
  A 0.28 0.28 0.0 0 0 115.1418 293.4109
  L 115.6325 293.9102
  A 0.28 0.28 0.0 0 0 116.0284 293.9136
  L 127.4547 282.6851
  A 0.28 0.28 0.0 0 0 127.4582 282.2891
  L 126.9675 281.7898
  Z
  M 357.45 289.33
  Q 356.98 290.15 356.98 291.33
  Q 356.98 291.81 356.59 292.08
  Q 355.34 292.95 354.66 294.44
  Q 353.44 295.25 353.61 296.75
  A 0.62 0.62 0.0 0 0 354.72 297.05
  Q 355.09 296.53 355.03 295.42
  L 355.38 295.64
  Q 355.59 295.78 355.69 295.55
  L 358.89 288.51
  L 359.01 286.57
  Q 359.04 286.08 359.39 285.73
  Q 360.11 285.03 360.27 284.07
  Q 360.40 283.31 359.71 283.64
  Q 358.29 284.33 358.28 285.96
  Q 358.28 286.46 357.88 286.75
  Q 356.74 287.59 357.45 289.33
  Z
  M 376.08 292.29
  Q 381.97 300.83 389.27 307.98
  Q 389.98 308.67 390.74 308.76
  A 0.31 0.31 0.0 0 0 391.01 308.25
  L 376.52 291.35
  Q 376.41 291.22 376.30 291.34
  Q 376.22 291.42 376.15 291.55
  L 371.73 285.76
  A 0.63 0.63 0.0 0 0 370.72 286.52
  L 374.76 291.83
  Q 375.00 292.15 375.40 292.20
  L 376.08 292.29
  Z
  M 355.23 310.28
  Q 355.33 311.45 356.24 312.22
  Q 356.77 312.68 357.07 312.04
  L 357.24 311.67
  Q 357.50 311.10 356.95 310.79
  Q 356.36 310.47 356.38 310.08
  C 350.34 302.91 344.66 295.50 338.45 288.55
  Q 338.07 288.12 337.89 288.18
  A 0.72 0.71 -30.9 0 0 337.60 289.31
  C 343.58 296.41 348.77 303.64 355.23 310.28
  Z
  M 161.4944 289.5948
  A 0.61 0.61 0.0 0 0 161.4102 288.7362
  L 161.3793 288.7109
  A 0.61 0.61 0.0 0 0 160.5207 288.7950
  L 143.0656 310.0452
  A 0.61 0.61 0.0 0 0 143.1498 310.9038
  L 143.1807 310.9291
  A 0.61 0.61 0.0 0 0 144.0393 310.8450
  L 161.4944 289.5948
  Z
  M 314.05 306.41
  Q 314.08 306.29 313.98 306.16
  Q 313.79 305.94 313.53 306.08
  C 309.10 308.61 304.79 315.01 301.18 318.89
  Q 300.62 319.48 301.43 319.45
  Q 302.77 319.40 303.79 318.27
  Q 307.77 313.92 312.15 309.91
  C 313.01 309.12 313.49 307.95 314.30 307.05
  Q 315.97 306.11 317.20 304.70
  Q 322.66 298.41 328.54 292.50
  A 0.84 0.82 -27.2 0 0 328.77 291.82
  Q 328.74 291.65 328.77 291.50
  Q 328.90 290.74 328.24 291.31
  Q 320.36 298.04 314.05 306.41
  Z
  M 171.9694 291.3805
  A 1.03 1.03 0.0 0 0 170.5129 291.3652
  L 170.4843 291.3932
  A 1.03 1.03 0.0 0 0 170.4690 292.8498
  L 196.3706 319.2995
  A 1.03 1.03 0.0 0 0 197.8271 319.3148
  L 197.8557 319.2868
  A 1.03 1.03 0.0 0 0 197.8710 317.8302
  L 171.9694 291.3805
  Z
  M 137.89 309.12
  Q 139.88 306.04 143.35 304.95
  Q 143.84 304.79 144.11 304.35
  L 145.18 302.58
  Q 145.44 302.15 145.06 301.82
  Q 142.90 299.96 141.70 297.44
  C 140.84 295.65 141.38 292.29 138.06 291.94
  A 0.68 0.68 0.0 0 0 137.31 292.61
  L 137.18 308.91
  A 0.39 0.39 0.0 0 0 137.89 309.12
  Z
  M 359.37 306.95
  Q 359.82 308.10 360.97 308.29
  A 0.60 0.60 0.0 0 0 361.67 307.70
  L 361.80 294.89
  A 1.51 1.50 -22.8 0 0 359.21 293.84
  Q 358.25 294.84 358.39 296.05
  A 0.69 0.67 55.4 0 1 358.33 296.41
  C 356.70 299.96 355.19 303.44 358.96 306.40
  Q 359.24 306.62 359.37 306.95
  Z
  M 109.88 297.59
  Q 107.43 298.67 107.22 300.88
  A 0.55 0.55 0.0 0 0 108.12 301.35
  L 110.28 299.52
  Q 110.86 299.03 110.10 298.97
  L 109.64 298.93
  Q 113.60 297.30 114.96 294.06
  Q 115.31 293.21 114.44 293.51
  Q 111.65 294.48 109.88 297.59
  Z
  M 146.52 295.09
  L 144.99 295.54
  A 0.33 0.33 0.0 0 0 144.76 295.95
  L 144.80 296.06
  A 3.60 0.94 73.4 0 0 146.73 299.24
  L 147.09 299.13
  A 3.60 0.94 73.4 0 0 146.96 295.41
  L 146.93 295.31
  A 0.33 0.33 0.0 0 0 146.52 295.09
  Z
  M 125.7611 297.3333
  A 0.53 0.53 0.0 0 0 125.0121 297.3071
  L 114.1295 307.4553
  A 0.53 0.53 0.0 0 0 114.1034 308.2043
  L 114.1989 308.3067
  A 0.53 0.53 0.0 0 0 114.9479 308.3329
  L 125.8305 298.1847
  A 0.53 0.53 0.0 0 0 125.8566 297.4357
  L 125.7611 297.3333
  Z
  M 373.6744 298.4660
  A 0.26 0.26 0.0 0 0 373.3121 298.4034
  L 372.8055 298.7608
  A 0.26 0.26 0.0 0 0 372.7429 299.1231
  L 385.8856 317.7540
  A 0.26 0.26 0.0 0 0 386.2479 317.8166
  L 386.7545 317.4592
  A 0.26 0.26 0.0 0 0 386.8171 317.0969
  L 373.6744 298.4660
  Z
  M 351.91 300.64
  L 351.75 301.15
  A 0.46 0.46 0.0 0 0 352.45 301.66
  Q 353.33 301.04 352.68 300.18
  Q 352.44 299.86 352.11 300.10
  Q 351.91 300.23 351.92 300.53
  A 0.56 0.26 70.1 0 1 351.91 300.64
  Z
  M 324.63 307.72
  Q 324.04 307.67 323.60 308.34
  Q 321.64 311.32 319.98 314.51
  Q 319.65 314.47 319.44 314.51
  Q 319.24 314.55 319.13 314.72
  L 311.52 326.59
  A 0.81 0.81 0.0 0 0 312.79 327.58
  Q 317.77 322.42 320.67 315.16
  L 325.22 308.07
  Q 329.03 305.81 329.02 302.41
  A 0.84 0.84 0.0 0 0 327.52 301.89
  Q 325.38 304.57 324.63 307.72
  Z
  M 340.04 303.43
  Q 338.78 303.41 339.15 303.87
  C 342.10 307.55 344.74 312.04 347.42 315.30
  C 350.22 318.70 353.67 321.85 355.70 325.78
  Q 355.82 326.00 355.95 326.04
  Q 356.12 326.10 356.34 325.97
  A 0.48 0.47 -35.5 0 0 356.46 325.30
  L 340.24 303.46
  Q 340.48 301.90 339.25 302.02
  A 0.58 0.58 0.0 0 0 339.13 303.14
  L 340.04 303.43
  Z
  M 155.92 308.20
  L 149.32 317.29
  Q 146.80 318.33 146.23 321.55
  Q 143.98 323.03 143.12 325.43
  Q 142.84 326.22 143.52 325.74
  Q 145.62 324.25 146.50 321.44
  Q 148.63 319.95 149.67 317.91
  Q 154.32 313.55 157.29 308.00
  L 160.82 303.25
  A 0.61 0.61 0.0 0 0 160.25 302.29
  Q 159.58 302.38 158.96 303.22
  Q 157.25 305.55 155.92 308.20
  Z
  M 171.9399 302.6656
  A 1.10 1.10 0.0 0 0 170.4155 302.3555
  L 170.3821 302.3776
  A 1.10 1.10 0.0 0 0 170.0720 303.9020
  L 185.7801 327.6344
  A 1.10 1.10 0.0 0 0 187.3045 327.9445
  L 187.3379 327.9224
  A 1.10 1.10 0.0 0 0 187.6480 326.3980
  L 171.9399 302.6656
  Z
  M 340.15 315.93
  Q 340.96 313.56 340.04 311.26
  A 0.44 0.44 0.0 0 0 339.22 311.24
  Q 337.78 314.53 339.78 317.74
  Q 339.94 318.00 340.13 318.04
  Q 340.38 318.09 340.67 317.97
  Q 341.33 317.70 340.83 317.21
  L 340.33 316.71
  Q 340.00 316.37 340.15 315.93
  Z
  M 193.2295 318.4712
  A 6.06 1.21 27.0 0 0 188.3793 314.6419
  A 6.06 1.21 27.0 0 0 182.4305 312.9688
  A 6.06 1.21 27.0 0 0 187.2807 316.7981
  A 6.06 1.21 27.0 0 0 193.2295 318.4712
  Z
  M 316.7699 312.9942
  A 5.83 1.20 -27.1 0 0 311.0333 314.5817
  A 5.83 1.20 -27.1 0 0 306.3901 318.3058
  A 5.83 1.20 -27.1 0 0 312.1267 316.7183
  A 5.83 1.20 -27.1 0 0 316.7699 312.9942
  Z
  M 137.19 317.63
  L 137.25 326.25
  A 0.68 0.68 0.0 0 0 138.61 326.34
  Q 139.24 321.69 142.61 318.42
  A 1.06 1.06 0.0 0 0 142.08 316.62
  L 139.16 316.02
  A 1.64 1.64 0.0 0 0 137.19 317.63
  Z
  M 159.7314 317.5979
  A 0.26 0.26 0.0 0 0 159.6948 317.2321
  L 158.8591 316.5480
  A 0.26 0.26 0.0 0 0 158.4932 316.5845
  L 150.5886 326.2421
  A 0.26 0.26 0.0 0 0 150.6252 326.6079
  L 151.4609 327.2920
  A 0.26 0.26 0.0 0 0 151.8268 327.2555
  L 159.7314 317.5979
  Z
  M 302.70 343.20
  Q 301.04 342.75 300.31 344.77
  Q 300.34 344.21 299.64 344.21
  Q 299.30 344.21 298.90 344.45
  Q 292.57 348.36 285.88 351.62
  Q 285.49 351.81 285.68 351.42
  L 285.96 350.84
  A 0.36 0.34 4.4 0 1 286.21 350.64
  Q 286.97 350.52 287.43 349.95
  Q 287.93 349.33 287.13 349.25
  C 284.40 348.98 264.54 346.08 261.06 349.35
  Q 260.40 348.93 259.20 349.00
  A 0.81 0.81 0.0 0 0 258.69 350.40
  L 267.65 358.97
  Q 267.76 359.08 267.91 359.03
  Q 268.10 358.97 268.29 358.90
  A 0.15 0.15 0.0 0 0 268.34 358.64
  Q 265.22 356.21 263.41 352.69
  Q 271.85 353.86 280.09 353.48
  C 281.36 353.43 283.04 352.83 284.43 352.96
  C 290.54 353.51 295.62 348.79 300.24 345.50
  Q 301.62 345.04 303.04 343.77
  Q 305.76 343.34 306.57 342.57
  Q 312.87 336.59 327.39 320.39
  Q 328.34 319.33 328.20 318.35
  A 1.12 1.12 0.0 0 0 326.27 317.75
  L 302.70 343.20
  Z
  M 171.97 318.00
  A 0.74 0.74 0.0 0 0 170.77 318.81
  C 171.67 320.90 173.44 322.63 174.98 324.38
  C 183.94 334.57 190.20 342.02 200.71 346.04
  Q 200.99 346.14 201.19 345.93
  L 201.44 345.69
  A 0.36 0.35 37.1 0 0 201.36 345.13
  Q 193.34 340.61 187.40 333.64
  C 185.87 331.84 183.81 330.55 182.17 328.68
  C 178.92 324.96 175.64 321.68 171.97 318.00
  Z
  M 340.05 318.80
  L 343.31 322.25
  A 0.19 0.19 0.0 0 0 343.58 322.26
  L 343.63 322.21
  A 2.32 1.30 46.6 0 0 342.98 319.63
  L 342.65 319.28
  A 2.32 1.30 46.6 0 0 340.11 318.49
  L 340.06 318.54
  A 0.19 0.19 0.0 0 0 340.05 318.80
  Z
  M 291.6698 320.0302
  A 0.92 0.92 0.0 0 0 290.7403 319.1198
  L 290.5803 319.1215
  A 0.92 0.92 0.0 0 0 289.6699 320.0511
  L 289.9102 342.9898
  A 0.92 0.92 0.0 0 0 290.8397 343.9002
  L 290.9997 343.8985
  A 0.92 0.92 0.0 0 0 291.9101 342.9689
  L 291.6698 320.0302
  Z
  M 343.95 323.21
  Q 344.20 324.58 345.33 324.66
  A 0.74 0.74 0.0 0 0 345.56 323.21
  L 343.42 322.67
  A 0.11 0.10 -28.7 0 0 343.36 322.87
  Q 343.53 322.93 343.72 322.97
  A 0.31 0.29 3.4 0 1 343.95 323.21
  Z
  M 339.43 329.10
  Q 339.41 329.45 339.62 329.66
  Q 339.73 329.76 339.92 329.76
  Q 341.56 329.81 343.22 329.05
  A 0.61 0.61 0.0 0 0 343.53 328.25
  Q 342.41 325.63 340.14 323.85
  A 1.21 1.20 14.4 0 0 338.21 324.99
  L 338.83 328.80
  Q 338.86 329.00 339.06 329.00
  Q 339.20 329.00 339.34 329.00
  Q 339.44 329.00 339.43 329.10
  Z
  M 157.90 325.68
  L 156.41 328.18
  A 0.48 0.48 0.0 0 0 157.09 328.83
  Q 158.67 327.76 158.46 325.80
  A 0.30 0.30 0.0 0 0 157.90 325.68
  Z
  M 346.69 334.37
  Q 354.33 342.86 363.83 349.70
  Q 364.07 351.02 365.19 351.17
  A 0.86 0.86 0.0 0 0 366.17 350.35
  Q 366.23 348.95 364.60 348.71
  C 362.13 345.35 358.01 342.38 355.89 340.34
  Q 352.60 337.18 349.10 333.85
  Q 349.93 333.08 352.09 333.18
  Q 352.59 333.20 352.75 333.67
  Q 352.89 334.09 353.35 334.06
  Q 353.92 334.02 354.39 334.33
  L 358.40 336.90
  A 0.63 0.63 0.0 0 0 359.28 336.68
  Q 361.07 333.56 359.53 330.29
  A 1.52 1.49 -1.4 0 0 358.74 329.55
  L 352.36 327.06
  A 0.66 0.65 19.4 0 0 351.50 327.47
  Q 350.71 329.86 348.36 330.67
  A 1.05 1.02 -87.8 0 0 347.73 331.27
  Q 347.33 332.28 346.43 331.84
  Q 345.86 331.56 345.76 332.18
  Q 345.58 333.23 346.69 334.37
  Z
  M 141.46 336.16
  Q 144.48 333.48 146.85 331.87
  Q 148.46 330.77 147.89 328.93
  Q 147.75 328.45 147.24 328.49
  Q 143.70 328.76 140.75 330.80
  Q 140.39 331.05 140.27 331.47
  L 139.32 334.82
  A 1.32 1.32 0.0 0 0 141.46 336.16
  Z
  M 318.22 341.47
  Q 322.94 336.67 327.85 331.99
  A 1.00 1.00 0.0 0 0 326.97 330.28
  C 323.18 330.98 316.46 340.18 312.17 342.63
  Q 288.44 356.13 264.84 369.86
  Q 261.75 371.66 259.26 373.54
  A 0.52 0.52 0.0 0 0 259.81 374.42
  Q 288.72 359.53 316.24 343.03
  Q 317.34 342.37 318.22 341.47
  Z
  M 171.19 332.30
  Q 177.01 337.10 182.78 340.96
  C 193.61 348.22 203.31 355.37 214.91 360.75
  Q 216.56 361.52 218.97 363.01
  C 221.60 364.64 224.38 365.27 226.88 366.65
  C 230.44 368.62 233.84 369.64 237.84 370.95
  A 0.73 0.73 0.0 0 0 238.65 369.82
  C 237.58 368.39 235.25 368.38 233.83 367.61
  C 228.72 364.87 223.22 362.83 217.96 359.30
  C 215.06 357.35 210.33 356.10 206.88 353.87
  Q 190.26 343.09 174.09 331.65
  Q 172.54 330.55 171.49 330.85
  Q 169.97 331.29 171.19 332.30
  Z
  M 142.26 357.24
  L 144.23 358.47
  A 0.34 0.34 0.0 0 0 144.69 358.36
  L 144.77 358.24
  A 30.80 1.03 -58.0 0 0 160.22 331.58
  L 159.42 331.08
  A 30.80 1.03 -58.0 0 0 142.22 356.65
  L 142.15 356.77
  A 0.34 0.34 0.0 0 0 142.26 357.24
  Z
  M 340.5314 332.2718
  A 0.70 0.47 64.5 0 0 340.6542 331.4377
  A 0.70 0.47 64.5 0 0 339.9286 331.0082
  A 0.70 0.47 64.5 0 0 339.8058 331.8423
  A 0.70 0.47 64.5 0 0 340.5314 332.2718
  Z
  M 153.1057 332.2627
  A 1.21 1.21 0.0 0 0 151.3949 332.2269
  L 135.0686 347.8832
  A 1.21 1.21 0.0 0 0 135.0328 349.5940
  L 135.0743 349.6373
  A 1.21 1.21 0.0 0 0 136.7851 349.6731
  L 153.1114 334.0168
  A 1.21 1.21 0.0 0 0 153.1472 332.3060
  L 153.1057 332.2627
  Z
  M 343.94 339.44
  L 344.51 338.86
  Q 344.79 338.59 344.59 338.26
  L 341.65 333.39
  Q 341.37 332.94 340.85 333.01
  L 340.58 333.05
  A 0.43 0.42 -19.4 0 0 340.27 333.69
  L 343.19 338.55
  Q 343.42 338.93 343.46 339.37
  Q 343.57 340.56 344.38 341.46
  Q 344.68 341.80 344.62 341.34
  Q 344.54 340.79 344.12 340.58
  A 0.71 0.71 0.0 0 1 343.94 339.44
  Z
  M 339.33 346.05
  L 342.96 344.87
  A 0.30 0.30 0.0 0 0 343.15 344.49
  L 343.10 344.35
  A 8.01 2.08 71.9 0 0 338.64 337.38
  L 338.39 337.46
  A 8.01 2.08 71.9 0 0 338.90 345.72
  L 338.95 345.86
  A 0.30 0.30 0.0 0 0 339.33 346.05
  Z
  M 347.5919 342.3007
  A 1.03 1.03 0.0 0 0 346.1671 341.9979
  L 346.1335 342.0196
  A 1.03 1.03 0.0 0 0 345.8307 343.4445
  L 354.8281 357.2993
  A 1.03 1.03 0.0 0 0 356.2529 357.6021
  L 356.2865 357.5804
  A 1.03 1.03 0.0 0 0 356.5893 356.1555
  L 347.5919 342.3007
  Z
  M 175.45 344.01
  Q 186.44 352.17 198.27 359.04
  C 203.26 361.94 208.38 365.61 213.66 368.58
  C 218.98 371.57 224.50 375.27 230.34 378.21
  A 0.72 0.72 0.0 0 0 231.21 377.10
  Q 230.22 375.93 228.33 374.72
  Q 217.97 368.10 207.31 361.95
  C 206.31 361.37 205.68 360.41 204.71 359.89
  Q 189.75 351.88 183.68 347.07
  Q 179.73 343.94 175.17 342.30
  A 0.48 0.48 0.0 0 0 174.56 342.59
  Q 174.28 343.40 174.88 343.70
  Q 175.37 343.95 175.45 344.01
  Z
  M 282.49 377.88
  C 297.41 367.91 312.16 357.46 325.95 345.97
  Q 327.29 344.85 326.62 343.13
  A 0.69 0.68 -29.4 0 0 325.56 342.84
  Q 313.00 352.53 299.94 361.74
  C 283.35 373.44 266.93 385.36 250.52 397.31
  A 1.32 1.18 -4.9 0 0 250.18 397.67
  Q 249.75 398.38 249.22 399.03
  A 0.39 0.39 0.0 0 0 249.73 399.60
  C 260.86 392.64 272.54 384.52 282.49 377.88
  Z
  M 214.80 346.02
  L 209.53 346.60
  A 0.92 0.91 -84.1 0 0 208.75 347.24
  Q 208.53 347.92 207.74 347.75
  A 0.88 0.88 0.0 0 0 206.84 349.12
  Q 209.47 352.80 214.04 353.00
  A 0.54 0.53 60.0 0 1 214.32 353.08
  L 222.97 358.07
  Q 223.49 358.37 224.06 358.23
  C 226.15 357.73 227.78 353.57 228.93 351.53
  A 0.86 0.81 5.0 0 1 229.41 351.15
  Q 230.66 350.75 231.72 351.79
  L 229.78 354.99
  Q 229.68 355.16 229.78 355.33
  L 229.96 355.63
  Q 230.20 356.03 230.48 355.66
  L 234.84 349.95
  L 236.57 348.07
  A 0.97 0.97 0.0 0 0 236.06 346.46
  C 229.09 344.98 221.82 345.62 214.80 346.02
  Z
  M 158.05 348.04
  L 147.95 360.74
  A 0.20 0.20 0.0 0 0 147.98 361.02
  L 148.05 361.07
  A 8.16 2.48 -51.5 0 0 155.07 356.23
  L 155.25 355.99
  A 8.16 2.48 -51.5 0 0 158.39 348.06
  L 158.33 348.01
  A 0.20 0.20 0.0 0 0 158.05 348.04
  Z
  M 342.60 351.90
  Q 342.41 351.99 342.28 352.09
  Q 341.94 352.37 342.21 352.71
  Q 346.19 357.74 350.78 362.22
  Q 351.31 362.74 351.83 362.43
  A 0.51 0.50 53.1 0 0 351.94 361.65
  L 343.52 352.80
  L 342.02 349.60
  A 0.79 0.79 0.0 0 0 340.52 349.92
  Q 340.50 351.08 342.60 351.90
  Z
  M 213.7455 380.2725
  A 1.01 1.01 0.0 0 0 213.5491 378.8577
  L 175.1535 349.8193
  A 1.01 1.01 0.0 0 0 173.7387 350.0156
  L 173.7145 350.0475
  A 1.01 1.01 0.0 0 0 173.9109 351.4623
  L 212.3065 380.5007
  A 1.01 1.01 0.0 0 0 213.7213 380.3044
  L 213.7455 380.2725
  Z
  M 326.4554 356.2149
  A 1.05 1.05 0.0 0 0 324.9708 356.1838
  L 309.2942 371.2172
  A 1.05 1.05 0.0 0 0 309.2631 372.7018
  L 309.3046 372.7451
  A 1.05 1.05 0.0 0 0 310.7892 372.7762
  L 326.4658 357.7428
  A 1.05 1.05 0.0 0 0 326.4969 356.2582
  L 326.4554 356.2149
  Z
  M 248.7500 357.8365
  A 3.71 0.39 0.1 0 0 245.0407 357.4400
  A 3.71 0.39 0.1 0 0 241.3300 357.8235
  A 3.71 0.39 0.1 0 0 245.0393 358.2200
  A 3.71 0.39 0.1 0 0 248.7500 357.8365
  Z
  M 237.56 366.98
  Q 238.02 368.64 239.87 368.98
  Q 240.04 369.01 240.13 369.09
  Q 240.26 369.23 240.30 369.41
  Q 240.35 369.75 240.69 369.83
  C 245.03 370.92 250.54 370.12 253.44 366.49
  Q 253.99 365.80 254.66 365.67
  A 1.24 1.23 41.8 0 0 254.52 363.23
  Q 247.79 362.64 240.31 363.25
  C 238.23 363.43 235.98 363.13 233.76 363.28
  Q 233.19 363.32 233.30 363.88
  L 233.58 365.34
  A 0.56 0.55 74.1 0 0 234.33 365.76
  Q 235.81 365.19 237.03 366.17
  Q 237.43 366.49 237.56 366.98
  Z
  M 262.1992 363.8125
  A 1.21 1.21 0.0 0 0 260.5026 363.5891
  L 215.0276 398.4833
  A 1.21 1.21 0.0 0 0 214.8043 400.1799
  L 214.8408 400.2275
  A 1.21 1.21 0.0 0 0 216.5374 400.4509
  L 262.0124 365.5567
  A 1.21 1.21 0.0 0 0 262.2357 363.8601
  L 262.1992 363.8125
  Z
  M 207.95 389.01
  A 0.55 0.55 0.0 0 0 208.83 388.38
  C 207.60 386.02 204.57 380.22 201.15 381.51
  Q 200.87 381.62 201.08 381.84
  L 207.95 389.01
  Z
  M 196.79 385.62
  C 199.21 385.41 203.18 390.63 205.25 392.07
  A 0.55 0.55 0.0 0 0 206.00 391.29
  C 203.64 388.15 201.08 385.59 198.62 382.80
  Q 196.87 380.82 194.42 382.02
  A 2.15 2.04 30.6 0 1 193.50 382.23
  Q 189.00 382.23 184.70 383.57
  A 0.46 0.46 0.0 0 0 184.76 384.47
  L 193.05 385.85
  Q 193.52 385.93 193.89 386.22
  Q 195.09 387.17 196.63 387.30
  Q 197.55 387.37 196.97 386.65
  L 196.56 386.16
  Q 196.17 385.67 196.79 385.62
  Z"
/>
<path fill="#060806" fill-opacity="0.569" d="
  M 297.53 181.60
  L 298.07 182.71
  Q 298.43 183.44 297.72 183.05
  Q 296.87 182.57 297.06 181.66
  Q 297.20 180.93 297.53 181.60
  Z"
/>
<rect fill="#797572" x="-0.67" y="-15.00" transform="translate(190.56,200.84) rotate(29.3)" width="1.34" height="30.00" rx="0.27"/>
<path fill="#797572" d="
  M 180.49 193.77
  Q 180.80 193.95 180.97 194.31
  C 181.18 194.76 180.57 200.87 180.69 202.22
  Q 180.73 202.69 180.26 202.72
  Q 179.78 202.76 179.74 202.25
  Q 179.59 199.82 179.60 192.66
  Q 179.60 192.25 180.01 192.25
  Q 180.16 192.25 180.32 192.25
  Q 180.64 192.25 180.49 192.53
  L 180.26 192.96
  Q 179.99 193.48 180.49 193.77
  Z"
/>
<path fill="#797572" d="
  M 301.83 201.17
  L 300.39 201.30
  Q 299.21 200.50 298.49 198.73
  Q 298.28 198.21 298.82 198.33
  Q 301.13 198.86 301.83 201.17
  Z"
/>
<path fill="#797572" d="
  M 218.25 207.14
  Q 215.44 204.41 214.26 200.86
  A 0.33 0.32 -70.6 0 1 214.84 200.58
  C 221.25 210.60 229.31 220.31 234.74 229.97
  Q 234.98 230.40 235.34 230.73
  Q 236.40 231.69 237.00 233.00
  A 0.34 0.34 0.0 0 1 236.50 233.42
  Q 234.49 232.08 233.46 230.52
  Q 226.31 219.60 218.71 208.98
  A 1.20 1.19 -59.0 0 1 218.50 208.11
  Q 218.54 207.80 218.50 207.56
  Q 218.47 207.34 218.25 207.14
  Z"
/>
<path fill="#c9c6c4" d="
  M 196.31 204.63
  Q 196.75 205.03 196.77 205.35
  Q 193.18 210.91 188.97 216.11
  C 182.98 223.52 177.59 231.05 170.96 238.21
  Q 170.47 238.74 169.97 238.78
  A 0.19 0.18 -73.3 0 1 169.81 238.48
  L 196.31 204.63
  Z"
/>
<path fill="#c9c6c4" d="
  M 175.43 252.70
  Q 175.00 252.48 174.58 252.25
  Q 181.67 242.04 189.59 232.62
  C 192.94 228.64 196.70 223.16 200.78 218.81
  A 0.32 0.32 0.0 0 1 201.26 219.22
  L 175.43 252.70
  Z"
/>
<path fill="#060806" fill-opacity="0.569" d="
  M 186.74 228.46
  Q 186.18 229.46 185.07 229.73
  Q 184.55 229.85 184.44 229.32
  Q 183.89 226.57 186.19 224.94
  Q 189.08 222.88 191.52 220.32
  Q 191.77 220.05 192.07 220.27
  L 192.34 220.47
  A 0.33 0.32 35.4 0 1 192.42 220.92
  C 190.81 223.37 189.98 226.35 187.30 227.89
  Q 186.94 228.10 186.74 228.46
  Z"
/>
<path fill="#797572" d="
  M 215.32 221.58
  C 215.12 221.18 214.78 221.00 214.58 220.66
  A 0.38 0.32 -81.7 0 1 215.10 220.19
  L 230.92 245.44
  Q 231.13 245.78 230.78 245.98
  Q 230.62 246.08 230.41 246.02
  Q 230.29 245.98 230.19 245.85
  Q 221.62 234.41 215.32 221.58
  Z"
/>
<ellipse fill="#060806" fill-opacity="0.569" cx="0.00" cy="0.00" transform="translate(299.42,226.91) rotate(62.0)" rx="2.36" ry="1.47"/>
<path fill="#797572" d="
  M 275.76 226.00
  Q 276.22 226.03 276.67 226.06
  Q 275.02 229.60 271.74 231.97
  L 272.23 230.15
  L 275.76 226.00
  Z"
/>
<path fill="#797572" d="
  M 207.36 227.13
  L 207.99 228.62
  Q 208.29 229.31 208.63 228.64
  L 209.12 227.68
  Q 210.09 228.60 208.98 230.59
  Q 209.14 229.87 208.66 229.62
  Q 208.13 229.34 207.49 229.75
  Q 206.89 227.99 207.36 227.13
  Z"
/>
<path fill="#c9c6c4" d="
  M 208.98 230.59
  Q 209.23 232.94 209.23 235.50
  Q 209.23 235.80 208.74 235.80
  L 207.20 235.76
  L 207.49 229.75
  Q 208.13 229.34 208.66 229.62
  Q 209.14 229.87 208.98 230.59
  Z"
/>
<path fill="#c9c6c4" d="
  M 203.55 235.00
  L 200.19 240.95
  L 198.44 239.81
  L 201.23 235.55
  Q 201.41 235.27 201.74 235.23
  Q 201.87 235.22 202.00 235.21
  Q 202.80 235.40 203.55 235.00
  Z"
/>
<rect fill="#797572" x="-0.54" y="-11.93" transform="translate(222.49,246.42) rotate(-37.7)" width="1.08" height="23.86" rx="0.53"/>
<ellipse fill="#797572" cx="0.00" cy="0.00" transform="translate(277.94,244.31) rotate(130.9)" rx="2.74" ry="0.59"/>
<rect fill="#797572" x="-0.51" y="-11.24" transform="translate(355.53,253.85) rotate(27.2)" width="1.02" height="22.48" rx="0.27"/>
<rect fill="#797572" x="-0.69" y="-7.01" transform="translate(341.06,253.67) rotate(-38.6)" width="1.38" height="14.02" rx="0.26"/>
<path fill="#797572" d="
  M 274.50 249.46
  Q 273.37 251.55 271.31 252.82
  Q 270.82 253.12 270.81 252.55
  Q 270.77 251.06 272.44 250.22
  Q 273.06 250.46 274.50 249.46
  Z"
/>
<rect fill="#797572" x="-0.48" y="-4.38" transform="translate(217.53,260.28) rotate(-32.1)" width="0.96" height="8.76" rx="0.26"/>
<path fill="#c9c6c4" d="
  M 333.80 261.18
  L 333.85 349.75
  L 332.68 348.45
  Q 332.02 346.77 332.02 345.19
  Q 331.99 304.06 332.00 262.98
  Q 332.94 263.44 333.80 261.18
  Z"
/>
<path fill="#797572" d="
  M 147.83 261.34
  Q 155.38 269.00 160.29 278.06
  A 0.23 0.23 0.0 0 1 159.91 278.31
  L 147.90 263.37
  L 147.83 261.34
  Z"
/>
<path fill="#797572" d="
  M 357.62 262.21
  Q 357.80 262.25 357.97 262.30
  L 358.30 262.49
  Q 358.61 262.65 358.45 262.97
  L 352.29 275.09
  Q 351.97 275.74 351.45 275.23
  Q 350.85 274.64 351.23 273.99
  Q 354.65 268.13 357.62 262.21
  Z"
/>
<path fill="#060806" fill-opacity="0.569" d="
  M 347.32 271.92
  Q 345.95 268.39 345.99 264.52
  Q 345.99 264.12 346.39 264.12
  L 346.70 264.13
  Q 347.00 264.13 347.00 264.43
  Q 347.00 264.66 347.00 264.90
  Q 347.00 265.50 347.60 265.57
  L 349.76 265.82
  Q 350.38 265.89 350.56 266.49
  Q 351.58 269.93 349.11 272.32
  A 1.10 1.10 0.0 0 1 347.32 271.92
  Z"
/>
<rect fill="#c9c6c4" x="-0.63" y="-12.07" transform="translate(343.52,273.37) rotate(-42.2)" width="1.26" height="24.14" rx="0.60"/>
<path fill="#c9c6c4" d="
  M 123.23 265.80
  L 124.33 266.63
  C 120.10 271.93 117.36 278.05 112.87 283.11
  Q 112.30 282.82 112.23 282.51
  L 123.23 265.80
  Z"
/>
<path fill="#c9c6c4" d="
  M 366.38 268.22
  L 366.31 300.31
  L 364.61 299.70
  L 364.22 272.37
  Q 365.99 271.10 366.38 268.22
  Z"
/>
<path fill="#c9c6c4" d="
  M 132.35 268.45
  L 134.69 270.59
  Q 133.78 286.25 134.40 302.19
  L 133.28 302.82
  Q 132.73 302.78 132.72 302.50
  Q 132.51 291.43 132.35 268.45
  Z"
/>
<path fill="#060806" fill-opacity="0.569" d="
  M 121.59 277.06
  Q 122.22 275.22 122.77 273.40
  Q 123.54 270.86 125.50 271.74
  A 2.37 2.37 0.0 0 1 126.89 274.10
  Q 126.33 280.70 119.90 282.82
  A 1.17 1.17 0.0 0 1 118.40 281.40
  Q 119.05 279.03 121.14 277.65
  Q 121.47 277.43 121.59 277.06
  Z"
/>
<path fill="#060806" fill-opacity="0.569" d="
  M 146.98 279.90
  Q 146.75 280.09 146.53 280.29
  C 144.20 280.40 143.60 277.84 143.70 276.02
  Q 143.73 275.51 144.16 275.78
  Q 147.00 277.58 146.98 279.90
  Z"
/>
<path fill="#060806" fill-opacity="0.569" d="
  M 343.89 285.21
  Q 342.38 284.03 340.55 283.89
  A 1.84 1.83 -88.1 0 1 338.86 282.08
  L 338.82 277.53
  A 1.28 1.28 0.0 0 1 339.68 276.31
  Q 340.86 275.89 341.00 276.98
  A 0.91 0.88 16.5 0 0 341.31 277.53
  C 344.68 280.30 349.39 284.38 345.97 288.25
  Q 345.67 288.58 345.48 288.18
  L 344.27 285.68
  Q 344.13 285.40 343.89 285.21
  Z"
/>
<path fill="#797572" d="
  M 357.22 276.73
  Q 357.60 276.73 357.48 276.99
  Q 354.08 284.64 349.02 292.82
  Q 348.84 293.11 348.52 293.01
  Q 348.38 292.96 348.23 292.91
  A 0.15 0.14 -66.9 0 1 348.15 292.70
  L 356.62 277.08
  L 357.22 276.73
  Z"
/>
<rect fill="#797572" x="-0.52" y="-4.25" transform="translate(398.26,281.15) rotate(2.0)" width="1.04" height="8.50" rx="0.27"/>
<path fill="#797572" d="
  M 146.53 280.29
  Q 146.75 280.09 146.98 279.90
  L 154.10 290.07
  A 0.39 0.39 0.0 0 1 153.46 290.53
  L 146.25 280.69
  Q 146.15 280.56 146.29 280.46
  L 146.53 280.29
  Z"
/>
<rect fill="#797572" x="-8.29" y="-0.63" transform="translate(121.30,287.85) rotate(-44.5)" width="16.58" height="1.26" rx="0.28"/>
<path fill="#797572" d="
  M 109.98 288.22
  Q 109.16 290.07 107.08 291.67
  A 0.35 0.35 0.0 0 1 106.52 291.42
  Q 106.37 289.78 107.39 288.91
  Q 108.14 289.72 109.98 288.22
  Z"
/>
<path fill="#c9c6c4" d="
  M 356.38 310.08
  Q 355.82 310.35 355.23 310.28
  C 348.77 303.64 343.58 296.41 337.60 289.31
  A 0.72 0.71 -30.9 0 1 337.89 288.18
  Q 338.07 288.12 338.45 288.55
  C 344.66 295.50 350.34 302.91 356.38 310.08
  Z"
/>
<rect fill="#c9c6c4" x="-0.63" y="-14.36" transform="translate(152.28,299.82) rotate(39.4)" width="1.26" height="28.72" rx="0.61"/>
<path fill="#797572" d="
  M 358.89 288.51
  L 355.69 295.55
  Q 355.59 295.78 355.38 295.64
  L 355.03 295.42
  Q 355.09 294.95 354.66 294.44
  Q 355.34 292.95 356.59 292.08
  Q 356.98 291.81 356.98 291.33
  Q 356.98 290.15 357.45 289.33
  L 358.89 288.51
  Z"
/>
<path fill="#797572" d="
  M 383.10 288.62
  L 384.10 288.42
  Q 388.83 293.08 391.20 296.28
  Q 397.07 304.21 389.97 297.35
  Q 387.74 295.19 383.10 288.62
  Z"
/>
<path fill="#797572" d="
  M 291.18 289.70
  Q 291.71 289.69 291.70 290.00
  C 291.39 299.32 292.02 308.86 290.96 318.11
  A 0.48 0.47 -43.0 0 1 290.01 318.08
  Q 289.56 305.20 289.81 292.61
  Q 289.82 292.11 289.62 291.43
  Q 289.22 290.06 290.17 290.21
  Q 290.92 290.48 291.18 289.70
  Z"
/>
<path fill="#c9c6c4" d="
  M 314.30 307.05
  Q 314.30 306.50 314.05 306.41
  Q 320.36 298.04 328.24 291.31
  Q 328.90 290.74 328.77 291.50
  Q 328.74 291.65 328.77 291.82
  A 0.84 0.82 -27.2 0 1 328.54 292.50
  Q 322.66 298.41 317.20 304.70
  Q 315.97 306.11 314.30 307.05
  Z"
/>
<path fill="#797572" d="
  M 376.08 292.29
  Q 376.45 292.11 376.15 291.55
  Q 376.22 291.42 376.30 291.34
  Q 376.41 291.22 376.52 291.35
  L 391.01 308.25
  A 0.31 0.31 0.0 0 1 390.74 308.76
  Q 389.98 308.67 389.27 307.98
  Q 381.97 300.83 376.08 292.29
  Z"
/>
<path fill="#060806" fill-opacity="0.569" d="
  M 137.89 309.12
  A 0.39 0.39 0.0 0 1 137.18 308.91
  L 137.31 292.61
  A 0.68 0.68 0.0 0 1 138.06 291.94
  C 141.38 292.29 140.84 295.65 141.70 297.44
  Q 142.90 299.96 145.06 301.82
  Q 145.44 302.15 145.18 302.58
  L 144.11 304.35
  Q 143.84 304.79 143.35 304.95
  Q 139.88 306.04 137.89 309.12
  Z"
/>
<path fill="#797572" d="
  M 207.37 292.23
  L 208.30 293.50
  Q 208.95 295.16 209.00 296.25
  Q 209.62 310.25 208.48 324.20
  L 207.56 324.53
  L 207.37 292.23
  Z"
/>
<path fill="#060806" fill-opacity="0.569" d="
  M 358.96 306.40
  C 355.19 303.44 356.70 299.96 358.33 296.41
  A 0.69 0.67 55.4 0 0 358.39 296.05
  Q 358.25 294.84 359.21 293.84
  A 1.51 1.50 -22.8 0 1 361.80 294.89
  L 361.67 307.70
  A 0.60 0.60 0.0 0 1 360.97 308.29
  Q 359.82 308.10 359.37 306.95
  Q 359.24 306.62 358.96 306.40
  Z"
/>
<path fill="#797572" d="
  M 109.88 297.59
  Q 109.47 298.25 109.64 298.93
  L 110.10 298.97
  Q 110.86 299.03 110.28 299.52
  L 108.12 301.35
  A 0.55 0.55 0.0 0 1 107.22 300.88
  Q 107.43 298.67 109.88 297.59
  Z"
/>
<rect fill="#797572" x="-0.57" y="-11.66" transform="translate(379.78,308.11) rotate(-35.2)" width="1.14" height="23.32" rx="0.26"/>
<path fill="#060806" fill-opacity="0.569" d="
  M 351.92 300.53
  Q 351.91 300.23 352.11 300.10
  Q 352.44 299.86 352.68 300.18
  Q 353.33 301.04 352.45 301.66
  A 0.46 0.46 0.0 0 1 351.75 301.15
  L 351.91 300.64
  A 0.56 0.26 70.1 0 0 351.92 300.53
  Z"
/>
<path fill="#c9c6c4" d="
  M 340.04 303.43
  Q 340.14 303.45 340.24 303.46
  L 356.46 325.30
  A 0.48 0.47 -35.5 0 1 356.34 325.97
  Q 356.12 326.10 355.95 326.04
  Q 355.82 326.00 355.70 325.78
  C 353.67 321.85 350.22 318.70 347.42 315.30
  C 344.74 312.04 342.10 307.55 339.15 303.87
  Q 338.78 303.41 340.04 303.43
  Z"
/>
<path fill="#c9c6c4" d="
  M 324.63 307.72
  Q 324.91 308.05 325.22 308.07
  L 320.67 315.16
  Q 320.02 314.77 319.98 314.51
  Q 321.64 311.32 323.60 308.34
  Q 324.04 307.67 324.63 307.72
  Z"
/>
<path fill="#c9c6c4" d="
  M 157.29 308.00
  Q 154.32 313.55 149.67 317.91
  Q 149.49 317.60 149.32 317.29
  L 155.92 308.20
  L 157.29 308.00
  Z"
/>
<path fill="#060806" fill-opacity="0.569" d="
  M 340.33 316.71
  L 340.83 317.21
  Q 341.33 317.70 340.67 317.97
  Q 340.38 318.09 340.13 318.04
  Q 339.94 318.00 339.78 317.74
  Q 337.78 314.53 339.22 311.24
  A 0.44 0.44 0.0 0 1 340.04 311.26
  Q 340.96 313.56 340.15 315.93
  Q 340.00 316.37 340.33 316.71
  Z"
/>
<path fill="#060806" fill-opacity="0.569" d="
  M 137.25 326.25
  L 137.19 317.63
  A 1.64 1.64 0.0 0 1 139.16 316.02
  L 142.08 316.62
  A 1.06 1.06 0.0 0 1 142.61 318.42
  Q 139.24 321.69 138.61 326.34
  A 0.68 0.68 0.0 0 1 137.25 326.25
  Z"
/>
<path fill="#797572" d="
  M 340.05 318.80
  A 0.19 0.19 0.0 0 1 340.06 318.54
  L 340.11 318.49
  A 2.32 1.30 46.6 0 1 342.65 319.28
  L 342.98 319.63
  A 2.32 1.30 46.6 0 1 343.63 322.21
  L 343.58 322.26
  A 0.19 0.19 0.0 0 1 343.31 322.25
  L 340.05 318.80
  Z"
/>
<path fill="#797572" d="
  M 146.23 321.55
  Q 146.36 321.50 146.50 321.44
  Q 145.62 324.25 143.52 325.74
  Q 142.84 326.22 143.12 325.43
  Q 143.98 323.03 146.23 321.55
  Z"
/>
<path fill="#060806" fill-opacity="0.569" d="
  M 343.72 322.97
  Q 343.53 322.93 343.36 322.87
  A 0.11 0.10 -28.7 0 1 343.42 322.67
  L 345.56 323.21
  A 0.74 0.74 0.0 0 1 345.33 324.66
  Q 344.20 324.58 343.95 323.21
  A 0.31 0.29 3.4 0 0 343.72 322.97
  Z"
/>
<path fill="#060806" fill-opacity="0.569" d="
  M 339.34 329.00
  Q 339.20 329.00 339.06 329.00
  Q 338.86 329.00 338.83 328.80
  L 338.21 324.99
  A 1.21 1.20 14.4 0 1 340.14 323.85
  Q 342.41 325.63 343.53 328.25
  A 0.61 0.61 0.0 0 1 343.22 329.05
  Q 341.56 329.81 339.92 329.76
  Q 339.73 329.76 339.62 329.66
  Q 339.41 329.45 339.43 329.10
  Q 339.44 329.00 339.34 329.00
  Z"
/>
<path fill="#060806" fill-opacity="0.569" d="
  M 157.90 325.68
  A 0.30 0.30 0.0 0 1 158.46 325.80
  Q 158.67 327.76 157.09 328.83
  A 0.48 0.48 0.0 0 1 156.41 328.18
  L 157.90 325.68
  Z"
/>
<path fill="#060806" fill-opacity="0.569" d="
  M 349.10 333.85
  Q 348.05 333.10 347.03 332.87
  Q 346.28 332.71 346.69 334.37
  Q 345.58 333.23 345.76 332.18
  Q 345.86 331.56 346.43 331.84
  Q 347.33 332.28 347.73 331.27
  A 1.05 1.02 -87.8 0 1 348.36 330.67
  Q 350.71 329.86 351.50 327.47
  A 0.66 0.65 19.4 0 1 352.36 327.06
  L 358.74 329.55
  A 1.52 1.49 -1.4 0 1 359.53 330.29
  Q 361.07 333.56 359.28 336.68
  A 0.63 0.63 0.0 0 1 358.40 336.90
  L 354.39 334.33
  Q 353.92 334.02 353.35 334.06
  Q 352.89 334.09 352.75 333.67
  Q 352.59 333.20 352.09 333.18
  Q 349.93 333.08 349.10 333.85
  Z"
/>
<path fill="#060806" fill-opacity="0.569" d="
  M 141.46 336.16
  A 1.32 1.32 0.0 0 1 139.32 334.82
  L 140.27 331.47
  Q 140.39 331.05 140.75 330.80
  Q 143.70 328.76 147.24 328.49
  Q 147.75 328.45 147.89 328.93
  Q 148.46 330.77 146.85 331.87
  Q 144.48 333.48 141.46 336.16
  Z"
/>
<ellipse fill="#060806" fill-opacity="0.569" cx="0.00" cy="0.00" transform="translate(340.23,331.64) rotate(64.5)" rx="0.70" ry="0.47"/>
<path fill="#797572" d="
  M 343.94 339.44
  A 0.71 0.71 0.0 0 0 344.12 340.58
  Q 344.54 340.79 344.62 341.34
  Q 344.68 341.80 344.38 341.46
  Q 343.57 340.56 343.46 339.37
  Q 343.42 338.93 343.19 338.55
  L 340.27 333.69
  A 0.43 0.42 -19.4 0 1 340.58 333.05
  L 340.85 333.01
  Q 341.37 332.94 341.65 333.39
  L 344.59 338.26
  Q 344.79 338.59 344.51 338.86
  L 343.94 339.44
  Z"
/>
<path fill="#060806" fill-opacity="0.569" d="
  M 339.33 346.05
  A 0.30 0.30 0.0 0 1 338.95 345.86
  L 338.90 345.72
  A 8.01 2.08 71.9 0 1 338.39 337.46
  L 338.64 337.38
  A 8.01 2.08 71.9 0 1 343.10 344.35
  L 343.15 344.49
  A 0.30 0.30 0.0 0 1 342.96 344.87
  L 339.33 346.05
  Z"
/>
<path fill="#797572" d="
  M 302.70 343.20
  L 303.04 343.77
  Q 301.62 345.04 300.24 345.50
  L 300.31 344.77
  Q 301.04 342.75 302.70 343.20
  Z"
/>
<path fill="#060806" fill-opacity="0.569" d="
  M 214.80 346.02
  L 212.98 346.66
  Q 212.62 346.78 212.80 347.12
  L 213.90 349.18
  Q 214.10 349.57 214.53 349.65
  Q 222.50 351.16 230.57 350.47
  Q 231.62 350.38 232.74 351.13
  L 231.72 351.79
  Q 230.66 350.75 229.41 351.15
  A 0.86 0.81 5.0 0 0 228.93 351.53
  C 227.78 353.57 226.15 357.73 224.06 358.23
  Q 223.49 358.37 222.97 358.07
  L 214.32 353.08
  A 0.54 0.53 60.0 0 0 214.04 353.00
  Q 209.47 352.80 206.84 349.12
  A 0.88 0.88 0.0 0 1 207.74 347.75
  Q 208.53 347.92 208.75 347.24
  A 0.92 0.91 -84.1 0 1 209.53 346.60
  L 214.80 346.02
  Z"
/>
<path fill="#797572" d="
  M 364.60 348.71
  Q 366.23 348.95 366.17 350.35
  A 0.86 0.86 0.0 0 1 365.19 351.17
  Q 364.07 351.02 363.83 349.70
  Q 364.37 349.49 364.60 348.71
  Z"
/>
<path fill="#797572" d="
  M 261.06 349.35
  L 263.41 352.69
  Q 265.22 356.21 268.34 358.64
  A 0.15 0.15 0.0 0 1 268.29 358.90
  Q 268.10 358.97 267.91 359.03
  Q 267.76 359.08 267.65 358.97
  L 258.69 350.40
  A 0.81 0.81 0.0 0 1 259.20 349.00
  Q 260.40 348.93 261.06 349.35
  Z"
/>
<path fill="#797572" d="
  M 234.84 349.95
  L 230.48 355.66
  Q 230.20 356.03 229.96 355.63
  L 229.78 355.33
  Q 229.68 355.16 229.78 354.99
  L 231.72 351.79
  L 232.74 351.13
  Q 233.62 350.00 234.84 349.95
  Z"
/>
<path fill="#797572" d="
  M 342.60 351.90
  Q 342.77 352.28 343.52 352.80
  L 351.94 361.65
  A 0.51 0.50 53.1 0 1 351.83 362.43
  Q 351.31 362.74 350.78 362.22
  Q 346.19 357.74 342.21 352.71
  Q 341.94 352.37 342.28 352.09
  Q 342.41 351.99 342.60 351.90
  Z"
/>
<ellipse fill="#060806" fill-opacity="0.569" cx="0.00" cy="0.00" transform="translate(245.04,357.83) rotate(0.1)" rx="3.71" ry="0.39"/>
<path fill="#060806" fill-opacity="0.569" d="
  M 237.03 366.17
  Q 235.81 365.19 234.33 365.76
  A 0.56 0.55 74.1 0 1 233.58 365.34
  L 233.30 363.88
  Q 233.19 363.32 233.76 363.28
  C 235.98 363.13 238.23 363.43 240.31 363.25
  Q 247.79 362.64 254.52 363.23
  A 1.24 1.23 41.8 0 1 254.66 365.67
  Q 253.99 365.80 253.44 366.49
  C 250.54 370.12 245.03 370.92 240.69 369.83
  Q 240.35 369.75 240.30 369.41
  Q 240.26 369.23 240.13 369.09
  Q 240.04 369.01 239.87 368.98
  Q 238.02 368.64 237.56 366.98
  Q 237.43 366.49 237.03 366.17
  Z"
/>
<ellipse fill="#0a0f10" cx="250.04" cy="454.85" rx="3.96" ry="3.59"/>
<path fill="#0a0f10" d="
  M 182.54 481.78
  L 182.18 485.15
  A 0.67 0.67 0.0 0 1 181.52 485.75
  L 163.95 485.75
  A 0.67 0.67 0.0 0 1 163.28 485.08
  L 163.18 457.17
  A 0.67 0.67 0.0 0 1 163.85 456.50
  L 168.83 456.50
  A 0.67 0.67 0.0 0 1 169.50 457.17
  L 169.50 480.01
  A 0.67 0.67 0.0 0 0 170.15 480.68
  L 181.89 481.04
  A 0.67 0.67 0.0 0 1 182.54 481.78
  Z"
/>
<path fill="#0a0f10" d="
  M 303.99 471.97
  A 1.73 1.73 0.0 0 0 305.00 468.87
  C 302.05 466.60 298.10 467.67 294.70 468.31
  A 0.74 0.74 0.0 0 1 293.84 467.74
  L 293.17 464.63
  Q 293.06 464.14 293.54 463.97
  C 298.73 462.19 307.71 461.03 310.52 466.83
  C 312.08 470.05 311.54 476.25 311.49 480.33
  Q 311.48 480.91 311.86 481.34
  Q 313.20 482.86 312.20 484.85
  A 2.35 2.35 0.0 0 1 308.87 485.80
  L 306.40 484.27
  Q 305.87 483.95 305.37 484.31
  C 299.90 488.19 289.37 487.10 291.46 477.96
  C 292.83 471.95 298.88 472.10 303.99 471.97
  Z
  M 305.6769 477.1006
  A 4.30 3.13 -22.7 0 0 300.5021 475.8725
  A 4.30 3.13 -22.7 0 0 297.7431 480.4194
  A 4.30 3.13 -22.7 0 0 302.9179 481.6475
  A 4.30 3.13 -22.7 0 0 305.6769 477.1006
  Z"
/>
<path fill="#0a0f10" d="
  M 217.70 464.47
  Q 218.06 464.74 218.38 464.43
  Q 222.32 460.74 225.69 464.78
  A 0.54 0.54 0.0 0 0 226.43 464.87
  C 230.55 461.84 234.85 461.66 235.25 467.97
  Q 235.79 476.54 235.40 485.12
  Q 235.37 485.75 234.74 485.75
  L 230.80 485.75
  Q 230.28 485.75 230.28 485.23
  Q 230.20 480.02 230.24 474.86
  C 230.26 472.93 230.78 470.71 230.05 468.37
  Q 229.91 467.91 229.44 467.81
  C 226.84 467.28 225.88 468.73 225.91 471.14
  Q 226.01 478.13 226.10 485.12
  Q 226.11 485.75 225.48 485.75
  L 222.00 485.75
  Q 221.50 485.75 221.50 485.25
  L 221.50 468.31
  A 0.68 0.68 0.0 0 0 220.64 467.65
  L 218.28 468.28
  Q 217.75 468.42 217.75 468.97
  L 217.75 485.13
  Q 217.75 485.75 217.12 485.75
  L 213.00 485.75
  Q 212.25 485.75 212.25 485.00
  L 212.25 464.25
  Q 212.25 463.74 212.74 463.61
  Q 215.53 462.87 217.70 464.47
  Z"
/>
<path fill="#0a0f10" d="
  M 266.78 485.81
  A 0.28 0.27 89.0 0 1 266.50 485.53
  L 266.50 463.98
  Q 266.50 463.59 266.86 463.46
  Q 270.61 462.09 272.50 465.21
  Q 272.89 465.85 273.42 465.32
  C 278.01 460.71 285.48 461.77 285.50 469.61
  Q 285.52 477.42 285.49 485.24
  Q 285.49 485.75 284.98 485.75
  L 280.28 485.75
  Q 279.70 485.75 279.67 485.17
  Q 279.31 477.80 279.65 470.58
  C 279.88 465.67 274.73 467.50 272.78 469.58
  Q 272.50 469.89 272.50 470.30
  L 272.50 484.98
  Q 272.50 485.71 271.77 485.73
  L 266.78 485.81
  Z"
/>
<path fill="#0a0f10" d="
  M 321.70 484.29
  C 316.06 480.86 317.01 470.75 319.78 466.55
  C 321.43 464.06 325.65 462.52 328.73 462.75
  Q 338.36 463.50 339.19 474.44
  A 1.92 1.91 -2.2 0 1 337.28 476.50
  L 325.25 476.50
  A 0.78 0.78 0.0 0 0 324.56 476.92
  Q 323.33 479.27 325.44 480.67
  Q 329.55 483.40 334.88 480.83
  A 0.87 0.87 0.0 0 1 335.89 481.01
  L 337.60 482.80
  A 0.70 0.70 0.0 0 1 337.49 483.86
  Q 329.71 489.17 321.70 484.29
  Z
  M 325.30 472.81
  L 331.24 472.75
  A 1.29 1.29 0.0 0 0 332.52 471.45
  L 332.51 471.09
  A 4.13 4.03 89.4 0 0 328.44 467.00
  L 327.98 467.00
  A 4.13 4.03 89.4 0 0 323.99 471.17
  L 324.00 471.53
  A 1.29 1.29 0.0 0 0 325.30 472.81
  Z"
/>
<path fill="#0a0f10" d="
  M 201.21 484.24
  Q 199.61 484.83 198.07 485.55
  C 191.87 488.43 188.32 484.87 188.26 478.71
  Q 188.18 471.24 188.28 463.80
  Q 188.29 463.38 188.70 463.39
  L 193.98 463.55
  A 0.43 0.43 0.0 0 1 194.40 463.98
  L 194.25 480.61
  Q 194.24 481.23 194.82 481.47
  Q 198.26 482.83 200.84 480.30
  Q 201.25 479.89 201.25 479.31
  L 201.25 464.31
  A 0.86 0.85 0.3 0 1 202.12 463.46
  L 207.01 463.52
  Q 207.50 463.52 207.50 464.01
  L 207.50 485.13
  Q 207.50 485.75 206.87 485.75
  L 203.98 485.75
  Q 203.41 485.75 202.89 485.52
  Q 202.08 485.17 201.93 484.60
  Q 201.77 484.03 201.21 484.24
  Z"
/>
<path fill="#0a0f10" d="
  M 254.66 481.73
  L 259.03 481.76
  A 0.72 0.72 0.0 0 1 259.75 482.48
  L 259.75 485.02
  A 0.72 0.72 0.0 0 1 259.03 485.74
  L 241.97 485.78
  A 0.72 0.72 0.0 0 1 241.25 485.06
  L 241.25 482.45
  A 0.72 0.72 0.0 0 1 241.96 481.73
  L 246.79 481.67
  A 0.72 0.72 0.0 0 0 247.50 480.95
  L 247.50 468.47
  A 0.72 0.72 0.0 0 0 246.78 467.75
  L 241.95 467.75
  A 0.72 0.72 0.0 0 1 241.23 467.02
  L 241.30 463.93
  A 0.72 0.72 0.0 0 1 242.03 463.23
  L 253.44 463.50
  A 0.72 0.72 0.0 0 1 254.14 464.23
  L 253.95 481.01
  A 0.72 0.72 0.0 0 0 254.66 481.73
  Z"
/>
</svg>
