<svg width="73" height="66" viewBox="0 0 73 66" fill="none" xmlns="http://www.w3.org/2000/svg">
<rect width="73" height="66" rx="14" fill="#4AC279"/>
<path d="M18.29 55.0401C18.3314 54.9228 18.3443 54.7974 18.3274 54.6742C18.3105 54.5511 18.2645 54.4337 18.193 54.3319C18.1216 54.2302 18.0269 54.1469 17.9168 54.0892C17.8066 54.0315 17.6843 54.0009 17.56 54.0001H11.26C10.398 54.0001 9.57139 53.6577 8.9619 53.0482C8.35241 52.4387 8.01 51.612 8.01 50.7501C7.99666 40.5367 7.99 30.1967 7.99 19.7301C7.99 16.6434 9.70333 15.4601 13.13 16.1801C13.2068 16.1972 13.2864 16.1983 13.3639 16.1832C13.4413 16.1681 13.5151 16.1371 13.5806 16.0922C13.6461 16.0473 13.7019 15.9894 13.7448 15.922C13.7877 15.8545 13.8167 15.779 13.83 15.7001L14.5 11.2601C14.5467 10.9734 14.7067 10.7767 14.98 10.6701C16.4467 10.1234 17.95 9.92007 19.49 10.0601C24.24 10.4901 30.21 10.0601 33.63 10.0301C42.79 9.97007 51.8733 9.96674 60.88 10.0201C61.7067 10.0254 62.4977 10.3574 63.0803 10.9439C63.663 11.5303 63.99 12.3234 63.99 13.1501C64.0033 23.0701 64.0033 33.1134 63.99 43.2801C63.99 46.1201 63.48 47.9901 60.35 48.0401C60.2722 48.0406 60.1956 48.0588 60.1259 48.0935C60.0563 48.1281 59.9955 48.1783 59.9482 48.24C59.9009 48.3018 59.8684 48.3736 59.8531 48.4498C59.8378 48.5261 59.8402 48.6049 59.86 48.6801C60.83 52.5001 58.94 54.0201 55.28 54.0101C46.6067 53.9901 37.95 53.9901 29.31 54.0101C29.1431 54.0103 28.9786 54.0514 28.8306 54.1298C28.6825 54.2082 28.5554 54.3215 28.46 54.4601C25.8 58.4201 22.1133 60.9101 17.4 61.9301C17.2352 61.9665 17.0639 61.958 16.9035 61.9054C16.7432 61.8528 16.5997 61.758 16.4877 61.6307C16.3757 61.5035 16.2993 61.3483 16.2663 61.1813C16.2333 61.0142 16.2449 60.8412 16.3 60.6801L18.29 55.0401ZM17.06 16.1001L56.73 15.9701C57.1589 15.9688 57.5839 16.0521 57.9806 16.2153C58.3773 16.3786 58.7379 16.6185 59.0416 16.9214C59.3454 17.2242 59.5864 17.584 59.7509 17.9802C59.9153 18.3764 60 18.8011 60 19.2301V45.2701C60 45.6101 60.1567 45.8367 60.47 45.9501C60.91 46.1167 61.2833 46.0667 61.59 45.8001C61.8633 45.5601 62 45.1501 62 44.5701C62.0067 33.9901 62.0067 23.5634 62 13.2901C62 13.1198 61.9663 12.9513 61.9009 12.7941C61.8354 12.6369 61.7395 12.4943 61.6186 12.3743C61.4978 12.2544 61.3544 12.1596 61.1967 12.0954C61.0391 12.0311 60.8702 11.9987 60.7 12.0001C46.72 12.0067 32.64 12.0034 18.46 11.9901C16.04 11.9901 15.24 13.4101 16.23 15.5701C16.39 15.9234 16.6667 16.1001 17.06 16.1001ZM19.19 58.9801C19.176 59.0178 19.1731 59.0587 19.1817 59.098C19.1902 59.1373 19.2099 59.1733 19.2384 59.2017C19.2668 59.2302 19.3028 59.2498 19.3421 59.2584C19.3814 59.267 19.4223 59.2641 19.46 59.2501C22.92 57.9767 25.4967 55.7201 27.19 52.4801C27.3633 52.1601 27.63 52.0001 27.99 52.0001H57C57.2652 52.0001 57.5196 51.8947 57.7071 51.7072C57.8946 51.5196 58 51.2653 58 51.0001V19.0201C58 18.7602 57.8967 18.5109 57.713 18.3271C57.5292 18.1433 57.2799 18.0401 57.02 18.0401L11.21 17.8301C11.0516 17.8287 10.8945 17.8591 10.7477 17.9193C10.601 17.9795 10.4675 18.0684 10.355 18.1809C10.2425 18.2934 10.1532 18.4272 10.0923 18.5747C10.0314 18.7222 10 18.8803 10 19.0401V51.0001C10 51.2653 10.1054 51.5196 10.2929 51.7072C10.4804 51.8947 10.7348 52.0001 11 52.0001H19.26C19.4241 52.001 19.5822 52.0613 19.7054 52.1697C19.8285 52.2782 19.9083 52.4274 19.93 52.5901C20.2167 54.8034 19.97 56.9334 19.19 58.9801Z" fill="black"/>
<path d="M37.01 30.01H19.23C18.6943 30.01 18.26 30.4443 18.26 30.98V31.02C18.26 31.5557 18.6943 31.99 19.23 31.99H37.01C37.5457 31.99 37.98 31.5557 37.98 31.02V30.98C37.98 30.4443 37.5457 30.01 37.01 30.01Z" fill="black"/>
<path d="M45.0552 30.0208L40.9552 29.9993C40.4361 29.9966 40.013 30.4152 40.0103 30.9344L40.0098 31.0344C40.0071 31.5535 40.4257 31.9766 40.9448 31.9793L45.0448 32.0007C45.5639 32.0035 45.987 31.5848 45.9897 31.0657L45.9902 30.9657C45.9929 30.4465 45.5743 30.0235 45.0552 30.0208Z" fill="black"/>
<path d="M41.02 36H19.02C18.4788 36 18.04 36.4388 18.04 36.98V37.02C18.04 37.5612 18.4788 38 19.02 38H41.02C41.5612 38 42 37.5612 42 37.02V36.98C42 36.4388 41.5612 36 41.02 36Z" fill="black"/>
<path d="M12.9403 48.0164C12.9683 49.1593 13.4743 50.074 14.0706 50.0594C14.6669 50.0449 15.1276 49.1066 15.0997 47.9637C15.0717 46.8208 14.5657 45.9061 13.9694 45.9207C13.3731 45.9352 12.9124 46.8736 12.9403 48.0164Z" fill="black"/>
<path d="M17.92 47.9899C17.92 49.1276 18.4035 50.0499 19 50.0499C19.5965 50.0499 20.08 49.1276 20.08 47.9899C20.08 46.8522 19.5965 45.9299 19 45.9299C18.4035 45.9299 17.92 46.8522 17.92 47.9899Z" fill="black"/>
<path d="M22.92 48.0199C22.92 49.1797 23.4035 50.1199 24 50.1199C24.5965 50.1199 25.08 49.1797 25.08 48.0199C25.08 46.8601 24.5965 45.9199 24 45.9199C23.4035 45.9199 22.92 46.8601 22.92 48.0199Z" fill="black"/>
<path d="M27.92 48.0199C27.92 49.1797 28.4035 50.1199 29 50.1199C29.5965 50.1199 30.08 49.1797 30.08 48.0199C30.08 46.8601 29.5965 45.9199 29 45.9199C28.4035 45.9199 27.92 46.8601 27.92 48.0199Z" fill="black"/>
<path d="M32.9303 48.0565C32.9584 49.2049 33.4645 50.124 34.0608 50.1095C34.6571 50.0949 35.1177 49.1521 35.0897 48.0037C35.0616 46.8553 34.5555 45.9361 33.9592 45.9507C33.3629 45.9653 32.9023 46.9081 32.9303 48.0565Z" fill="black"/>
<path d="M37.92 48.0199C37.92 49.1797 38.4035 50.1199 39 50.1199C39.5965 50.1199 40.08 49.1797 40.08 48.0199C40.08 46.8601 39.5965 45.9199 39 45.9199C38.4035 45.9199 37.92 46.8601 37.92 48.0199Z" fill="black"/>
<path d="M42.9303 48.0565C42.9584 49.2049 43.4645 50.124 44.0608 50.1095C44.6571 50.0949 45.1177 49.1521 45.0897 48.0037C45.0616 46.8553 44.5555 45.9361 43.9592 45.9507C43.3629 45.9653 42.9023 46.9081 42.9303 48.0565Z" fill="black"/>
<path d="M47.92 48.0199C47.92 49.1797 48.4035 50.1199 49 50.1199C49.5965 50.1199 50.08 49.1797 50.08 48.0199C50.08 46.8601 49.5965 45.9199 49 45.9199C48.4035 45.9199 47.92 46.8601 47.92 48.0199Z" fill="black"/>
<path d="M52.9201 48.0433C52.934 49.1864 53.4333 50.1071 54.0353 50.0998C54.6372 50.0924 55.1139 49.1598 55.0999 48.0166C55.086 46.8735 54.5867 45.9527 53.9847 45.9601C53.3828 45.9674 52.9061 46.9001 52.9201 48.0433Z" fill="black"/>
</svg>
