<svg width="426" height="324" viewBox="0 0 426 324" fill="none" xmlns="http://www.w3.org/2000/svg">
<rect x="3.5" y="54.5" width="419" height="266" fill="white" stroke="black" stroke-width="7"/>
<g clip-path="url(#clip0_231_2)">
<path fill-rule="evenodd" clip-rule="evenodd" d="M74.5 146.945C58.8992 146.945 46.2475 158.849 46.2475 173.536C46.2475 185.284 54.3424 195.251 65.5684 198.767C66.9802 199.013 67.4988 198.19 67.4988 197.488C67.4988 196.854 67.4722 194.759 67.4603 192.538C59.5998 194.146 57.9416 189.4 57.9416 189.4C56.6566 186.326 54.8046 185.509 54.8046 185.509C52.2413 183.859 54.9972 183.893 54.9972 183.893C57.8347 184.08 59.3288 186.633 59.3288 186.633C61.8483 190.698 65.9382 189.523 67.5499 188.843C67.8043 187.124 68.5361 185.951 69.3442 185.287C63.0688 184.615 56.472 182.334 56.472 172.146C56.472 169.243 57.5757 166.871 59.3833 165.008C59.0898 164.338 58.1229 161.633 59.6569 157.971C59.6569 157.971 62.0289 157.257 67.4264 160.698C69.6809 160.108 72.0981 159.813 74.4987 159.803C76.8999 159.813 79.3184 160.109 81.5763 160.698C86.9684 157.258 89.3378 157.971 89.3378 157.971C90.8758 161.634 89.9089 164.338 89.6154 165.009C91.427 166.87 92.5227 169.243 92.5227 172.146C92.5227 182.359 85.9132 184.608 79.6219 185.265C80.6353 186.09 81.5384 187.709 81.5384 190.19C81.5384 193.748 81.5065 196.611 81.5065 197.486C81.5065 198.193 82.0152 199.023 83.4469 198.761C94.6669 195.241 102.751 185.278 102.751 173.533C102.753 158.85 90.1035 146.945 74.5 146.945Z" fill="#181616"/>
<path d="M56.9488 185.122C56.8858 185.255 56.6646 185.294 56.4641 185.204C56.2582 185.116 56.144 184.937 56.2104 184.804C56.2702 184.669 56.492 184.631 56.6972 184.721C56.903 184.809 57.0192 184.99 56.9488 185.122ZM58.093 186.325C57.9582 186.442 57.6946 186.387 57.5153 186.201C57.3307 186.016 57.2961 185.767 57.4329 185.649C57.5711 185.531 57.8267 185.586 58.0107 185.772C58.1966 185.959 58.2331 186.205 58.0924 186.324L58.093 186.325ZM59.2067 187.855C59.034 187.969 58.7504 187.862 58.5758 187.626C58.4018 187.39 58.4018 187.107 58.5791 186.992C58.7544 186.879 59.0333 186.981 59.21 187.216C59.384 187.456 59.384 187.74 59.2067 187.855ZM60.7327 189.335C60.5779 189.496 60.2479 189.452 60.0068 189.233C59.7598 189.019 59.6914 188.714 59.8461 188.554C60.0035 188.393 60.3349 188.438 60.5779 188.656C60.8236 188.869 60.898 189.175 60.7327 189.335ZM62.8391 190.194C62.77 190.402 62.4526 190.497 62.1325 190.409C61.8124 190.317 61.6039 190.074 61.6677 189.864C61.7341 189.654 62.0542 189.556 62.3762 189.65C62.695 189.74 62.9048 189.981 62.8391 190.194ZM65.15 190.353C65.1586 190.572 64.887 190.754 64.551 190.758C64.2137 190.766 63.9401 190.588 63.9361 190.372C63.9361 190.151 64.2017 189.971 64.5391 189.966C64.8751 189.959 65.15 190.136 65.15 190.353ZM67.3016 190.009C67.3414 190.222 67.109 190.442 66.775 190.501C66.4469 190.558 66.1441 190.426 66.1016 190.213C66.0618 189.994 66.2988 189.776 66.6262 189.718C66.9602 189.663 67.2591 189.791 67.3016 190.009Z" fill="#181616"/>
<path d="M48.5053 213.689H41.3998C41.3118 213.689 41.2273 213.722 41.165 213.78C41.1028 213.839 41.0678 213.918 41.0678 214.001V217.271C41.0678 217.354 41.1028 217.434 41.165 217.492C41.2273 217.551 41.3118 217.584 41.3998 217.584H44.1709V221.646C44.1709 221.646 43.5487 221.846 41.8268 221.846C39.7974 221.846 36.9612 221.149 36.9612 215.279C36.9612 209.408 39.915 208.635 42.6881 208.635C45.088 208.635 46.1213 209.033 46.78 209.224C46.9859 209.283 47.1785 209.089 47.1785 208.917L47.9707 205.758C47.972 205.71 47.9611 205.663 47.9389 205.621C47.9166 205.578 47.8838 205.542 47.8432 205.514C47.5756 205.334 45.946 204.476 41.8281 204.476C37.0841 204.476 32.2178 206.375 32.2178 215.508C32.2178 224.639 37.7893 225.999 42.4842 225.999C46.3716 225.999 48.7297 224.436 48.7297 224.436C48.8267 224.386 48.8373 224.258 48.8373 224.198V214.001C48.8373 213.918 48.8023 213.838 48.7401 213.78C48.6778 213.721 48.5933 213.689 48.5053 213.689ZM84.797 205.256H80.7953C80.7517 205.256 80.7085 205.265 80.6682 205.281C80.6279 205.297 80.5914 205.32 80.5607 205.349C80.53 205.378 80.5057 205.413 80.4892 205.451C80.4727 205.489 80.4644 205.53 80.4646 205.571L80.4659 212.848H74.2291V205.571C74.2293 205.53 74.221 205.489 74.2046 205.451C74.1881 205.413 74.1639 205.378 74.1332 205.349C74.1026 205.32 74.0661 205.297 74.0259 205.281C73.9858 205.265 73.9426 205.257 73.899 205.256H69.8981C69.8544 205.256 69.8112 205.265 69.7709 205.281C69.7307 205.297 69.6941 205.32 69.6634 205.349C69.6327 205.378 69.6084 205.413 69.5919 205.451C69.5754 205.489 69.5671 205.53 69.5674 205.571V225.277C69.5674 225.45 69.7161 225.591 69.8981 225.591H73.899C73.9427 225.591 73.9859 225.583 74.0261 225.567C74.0663 225.551 74.1028 225.528 74.1335 225.498C74.1641 225.469 74.1883 225.434 74.2048 225.396C74.2212 225.358 74.2294 225.317 74.2291 225.276V216.848H80.4659L80.4553 225.276C80.4553 225.45 80.6041 225.591 80.7874 225.591H84.797C84.8406 225.591 84.8838 225.583 84.924 225.567C84.9643 225.551 85.0007 225.528 85.0314 225.498C85.062 225.469 85.0863 225.434 85.1027 225.396C85.1191 225.358 85.1273 225.317 85.127 225.276V205.57C85.1274 205.529 85.1192 205.488 85.1028 205.45C85.0864 205.412 85.0622 205.378 85.0315 205.348C85.0008 205.319 84.9643 205.296 84.924 205.28C84.8838 205.264 84.8406 205.256 84.797 205.256ZM53.4758 205.704C52.052 205.704 50.8966 206.8 50.8966 208.156C50.8966 209.511 52.052 210.609 53.4758 210.609C54.9009 210.609 56.0557 209.511 56.0557 208.156C56.0557 206.8 54.9002 205.704 53.4758 205.704ZM55.4388 211.709H51.4504C51.2671 211.709 51.1038 211.887 51.1038 212.059V225.092C51.1038 225.475 51.3574 225.589 51.6855 225.589H55.2781C55.6732 225.589 55.7695 225.406 55.7695 225.086V212.024C55.7696 211.983 55.7612 211.942 55.7447 211.904C55.7282 211.866 55.7039 211.832 55.6731 211.802C55.6424 211.773 55.6059 211.75 55.5657 211.734C55.5255 211.718 55.4824 211.71 55.4388 211.709ZM100.333 211.739H96.3623C96.3187 211.739 96.2756 211.748 96.2354 211.764C96.1953 211.78 96.1588 211.803 96.1283 211.832C96.0977 211.861 96.0735 211.896 96.0571 211.934C96.0408 211.972 96.0325 212.013 96.0329 212.054V221.716C96.0329 221.716 95.0235 222.41 93.5925 222.41C92.1614 222.41 91.7816 221.799 91.7816 220.48V212.054C91.7819 212.013 91.7737 211.972 91.7572 211.934C91.7408 211.896 91.7166 211.861 91.686 211.832C91.6553 211.803 91.6188 211.779 91.5786 211.763C91.5384 211.747 91.4952 211.739 91.4515 211.739H87.422C87.3338 211.739 87.2495 211.773 87.1875 211.832C87.1255 211.891 87.0909 211.971 87.0913 212.054V221.118C87.0913 225.036 89.4122 225.995 92.6043 225.995C95.2234 225.995 97.3351 224.633 97.3351 224.633C97.3351 224.633 97.4347 225.351 97.4812 225.436C97.5277 225.521 97.6452 225.606 97.7734 225.606L100.337 225.596C100.38 225.596 100.424 225.587 100.464 225.571C100.505 225.555 100.541 225.532 100.572 225.503C100.603 225.474 100.627 225.439 100.644 225.401C100.66 225.363 100.669 225.322 100.669 225.281L100.667 212.052C100.666 211.969 100.631 211.89 100.569 211.831C100.507 211.772 100.423 211.739 100.335 211.738L100.333 211.739ZM111.185 211.296C108.93 211.296 107.396 212.243 107.396 212.243V205.57C107.397 205.529 107.388 205.488 107.372 205.45C107.355 205.412 107.331 205.378 107.3 205.349C107.27 205.319 107.233 205.296 107.193 205.28C107.153 205.264 107.11 205.256 107.066 205.256H103.055C103.011 205.256 102.968 205.264 102.927 205.28C102.887 205.295 102.85 205.319 102.819 205.348C102.788 205.377 102.764 205.412 102.747 205.45C102.731 205.488 102.722 205.529 102.723 205.57V225.276C102.722 225.318 102.731 225.358 102.747 225.396C102.764 225.435 102.788 225.469 102.819 225.499C102.85 225.528 102.887 225.551 102.927 225.567C102.968 225.583 103.011 225.591 103.055 225.591H105.838C105.965 225.591 106.059 225.53 106.129 225.423C106.197 225.317 106.297 224.514 106.297 224.514C106.297 224.514 107.938 225.977 111.044 225.977C114.69 225.977 116.782 224.237 116.782 218.163C116.782 212.089 113.441 211.296 111.185 211.296L111.185 211.296ZM109.618 222.399C108.242 222.359 107.307 221.771 107.307 221.771V215.531C107.307 215.531 108.229 214.999 109.359 214.903C110.789 214.783 112.167 215.189 112.167 218.399C112.167 221.785 111.546 222.453 109.619 222.398L109.618 222.399ZM67.3248 222.325C67.1502 222.325 66.7026 222.392 66.2424 222.392C64.7682 222.392 64.2681 221.747 64.2681 220.912V215.371H67.2697C67.3135 215.371 67.3569 215.363 67.3974 215.347C67.4378 215.331 67.4746 215.308 67.5054 215.278C67.5363 215.249 67.5607 215.214 67.5772 215.176C67.5937 215.138 67.6021 215.097 67.6017 215.056V212.021C67.6019 211.98 67.5934 211.939 67.5768 211.901C67.5602 211.863 67.5358 211.828 67.5049 211.799C67.4741 211.77 67.4374 211.747 67.3971 211.731C67.3567 211.715 67.3134 211.707 67.2697 211.707H64.2681L64.2635 207.976C64.2635 207.834 64.1865 207.763 64.0125 207.763H59.9218C59.7638 207.763 59.6781 207.829 59.6781 207.973V211.829C59.6781 211.829 57.6282 212.294 57.49 212.332C57.4211 212.351 57.3605 212.39 57.3174 212.444C57.2743 212.499 57.251 212.564 57.251 212.632V215.055C57.2507 215.096 57.259 215.137 57.2755 215.175C57.2919 215.213 57.3162 215.247 57.3468 215.277C57.3775 215.306 57.4139 215.329 57.4541 215.345C57.4943 215.361 57.5374 215.369 57.581 215.369H59.6781V221.199C59.6781 225.531 62.9055 225.956 65.0836 225.956C66.0777 225.956 67.2684 225.656 67.4649 225.587C67.5845 225.545 67.6529 225.429 67.6529 225.304L67.6555 222.638C67.6542 222.556 67.6188 222.477 67.5568 222.418C67.4949 222.36 67.4112 222.326 67.3235 222.324L67.3248 222.325Z" fill="#100E0F"/>
</g>
<path d="M226.188 148.406H175.812C174.67 148.395 173.569 148.823 172.751 149.596C171.934 150.37 171.467 151.425 171.453 152.531V201.478C171.47 202.583 171.938 203.636 172.755 204.407C173.572 205.178 174.671 205.605 175.812 205.594H226.188C227.331 205.602 228.431 205.173 229.248 204.399C230.064 203.625 230.532 202.57 230.547 201.464V152.517C230.526 151.414 230.057 150.364 229.241 149.594C228.425 148.824 227.327 148.397 226.188 148.406ZM188.973 197.156H180.201V169.842H188.973V197.156ZM184.614 166.12C183.607 166.121 182.624 165.833 181.787 165.293C180.95 164.753 180.297 163.984 179.911 163.085C179.526 162.186 179.424 161.196 179.62 160.241C179.816 159.286 180.3 158.409 181.011 157.72C181.722 157.031 182.628 156.562 183.615 156.371C184.601 156.181 185.624 156.278 186.554 156.651C187.484 157.023 188.278 157.654 188.837 158.463C189.396 159.273 189.695 160.225 189.695 161.198C189.693 161.846 189.56 162.486 189.303 163.083C189.046 163.681 188.669 164.223 188.195 164.679C187.721 165.136 187.158 165.497 186.539 165.743C185.921 165.988 185.258 166.113 184.589 166.111L184.614 166.12ZM221.828 197.156H213.056V183.867C213.056 180.703 212.998 176.63 208.498 176.63C203.998 176.63 203.233 180.08 203.233 183.661V197.156H194.475V169.842H202.884V173.592H203C204.173 171.445 207.03 169.181 211.298 169.181C220.181 169.162 221.828 174.82 221.828 182.156V197.156Z" fill="black"/>
<path d="M286.126 177.072L285.883 176.973C285.336 176.724 284.911 176.35 284.607 175.877C284.182 175.23 284 174.632 284 174.009L284.061 173.685C284.061 173.187 284.213 172.739 284.486 172.316L284.729 171.942C284.85 171.743 285.032 171.569 285.184 171.394C285.366 171.22 285.397 170.996 285.336 170.796L285.184 170.398C285.002 169.9 284.881 169.402 284.881 168.904L284.789 168.605C284.789 168.057 284.972 167.509 285.397 167.111L285.7 166.787C285.913 166.538 286.247 166.388 286.611 166.289C286.915 166.214 287.128 165.965 287.158 165.666L287.219 164.819C287.219 164.147 287.613 163.524 288.221 163.076L288.95 162.628C289.101 162.503 289.253 162.379 289.375 162.179C289.526 162.03 289.557 161.831 289.526 161.681C289.466 161.432 289.526 161.358 289.678 161.333C290.164 161.482 290.468 161.432 290.68 161.233L291.075 160.81L292.168 159.813C292.472 159.564 292.593 159.116 292.411 158.767L292.047 158.12C291.986 157.971 292.047 157.796 292.199 157.746C292.593 157.746 292.867 157.871 292.988 158.07L293.11 158.244C293.292 158.543 293.717 158.693 294.021 158.568C294.689 158.369 295.235 158.319 295.751 158.319H296.723C297.391 158.319 297.938 157.946 298.059 157.373C298.181 156.675 298.484 156.128 298.909 155.754C299.365 155.331 299.881 155.007 300.488 154.758C301.278 154.409 301.764 153.911 301.916 153.264C302.128 152.467 302.644 151.894 303.343 151.52L305.65 150.449L306.318 150.126C306.713 149.926 307.078 149.677 307.381 149.378L307.989 148.781C308.292 148.532 308.596 148.357 308.96 148.283C309.264 148.208 309.689 148.158 310.053 148.183L311.268 148.258C311.875 148.258 312.361 148.382 312.847 148.557L313.151 148.681C313.454 148.781 313.758 148.731 313.91 148.557L314.183 148.432L315.489 147.311C315.792 147.062 316.157 146.963 316.552 147.012C316.946 147.062 317.341 147.187 317.705 147.336C318.252 147.585 318.708 147.685 319.224 147.685H319.527C320.195 147.685 320.863 147.76 321.531 147.884L321.987 147.984C322.442 148.083 322.898 147.934 323.202 147.635C323.293 147.511 323.505 147.486 323.627 147.585C323.718 147.635 323.748 147.685 323.779 147.76C323.839 148.258 324.204 148.631 324.689 148.756L325.175 148.88C325.692 149.005 326.147 149.279 326.451 149.627C326.754 150.001 327.119 150.375 327.544 150.624L327.847 150.873C328.151 151.122 328.576 151.221 329.001 151.196H330.793C331.522 151.196 332.22 151.296 332.918 151.545C333.587 151.794 334.285 151.844 334.923 151.645C335.591 151.47 336.289 151.396 336.987 151.47L338.293 151.645C338.9 151.695 339.508 151.944 339.872 152.317L340.024 152.442C340.328 152.691 340.631 153.014 340.935 153.363C341.117 153.687 341.542 153.861 341.967 153.861H343.85C344.305 153.861 344.761 153.936 345.125 154.11C345.52 154.359 345.854 154.608 346.158 154.857L346.461 155.181C346.826 155.53 347.008 156.003 346.978 156.501C346.978 156.9 347.342 157.248 347.828 157.248L348.435 157.298C348.86 157.298 349.225 157.547 349.437 157.871L349.741 158.369L350.53 159.813C350.652 160.063 350.682 160.312 350.652 160.511C350.652 160.76 350.743 160.959 350.955 161.059L351.259 161.233C351.654 161.482 351.866 161.856 351.806 162.279L351.593 163.45L351.532 163.948C351.472 164.197 351.623 164.52 351.897 164.695C352.352 164.944 352.565 165.268 352.595 165.641V166.139C352.595 166.388 352.534 166.687 352.292 166.886C352.109 167.086 351.988 167.335 351.988 167.634L352.079 168.206C352.079 168.605 352.383 168.954 352.686 169.203C353.111 169.452 353.354 169.85 353.415 170.249C353.536 170.871 353.567 171.369 353.567 171.867V172.44C353.567 172.639 353.567 172.839 353.658 173.038C353.719 173.212 353.871 173.387 354.053 173.486L354.66 173.86C355.267 174.184 355.692 174.607 355.935 175.18C356.239 175.728 356.33 176.3 356.33 176.873V177.072C356.33 177.521 356.269 177.994 356.087 178.417C355.935 178.866 355.966 179.289 356.178 179.663C356.421 180.011 356.573 180.41 356.634 180.833C356.755 181.331 356.694 181.829 356.482 182.228L356.421 182.402C356.269 182.701 356.026 182.975 355.723 183.199C355.419 183.448 355.115 183.598 354.933 183.772C354.751 183.921 354.63 184.17 354.721 184.394L354.812 184.743C354.964 185.241 354.964 185.739 354.812 186.188V186.387C354.69 186.76 354.508 187.084 354.326 187.383C354.113 187.707 353.81 187.956 353.415 188.13L352.96 188.379C352.747 188.479 352.595 188.703 352.595 188.927C352.595 189.176 352.474 189.425 352.292 189.575L351.836 190.073C351.532 190.397 351.138 190.67 350.713 190.82C350.287 191.069 349.923 191.318 349.65 191.567C349.346 191.866 349.103 192.215 348.982 192.563C348.86 193.012 348.435 193.261 347.98 193.261H346.34C345.915 193.261 345.52 193.51 345.338 193.808C345.125 194.207 344.913 194.481 344.639 194.73C344.336 194.979 344.154 195.278 344.032 195.627C343.971 195.925 343.668 196.125 343.364 196.025C342.969 195.876 342.575 196.025 342.392 196.274C342.028 196.772 341.664 197.146 341.269 197.469L341.056 197.619C340.662 197.868 340.145 198.067 339.69 198.067C339.143 198.067 338.87 198.266 338.779 198.565C338.688 198.814 338.627 199.138 338.597 199.412C338.536 199.711 338.415 199.985 338.293 200.234L338.141 200.383C337.838 200.757 337.595 201.13 337.291 201.454L337.17 201.604C336.775 202.027 336.259 202.351 335.651 202.475C334.923 202.675 334.285 202.724 333.647 202.724H333.222C332.918 202.724 332.615 202.874 332.402 203.123L332.22 203.372L332.038 203.671L331.643 204.219C331.339 204.667 330.884 204.966 330.277 205.115C329.669 205.24 328.971 205.29 328.333 205.265L327.847 205.215C327.422 205.215 327.028 205.115 326.633 204.966C326.329 204.866 325.904 204.966 325.722 205.215C325.418 205.564 325.054 205.763 324.659 205.862L323.748 206.111C323.141 206.236 322.473 206.236 321.835 206.111L321.349 205.987C321.046 205.987 320.742 205.862 320.499 205.738C320.195 205.613 319.892 205.564 319.588 205.588L319.193 205.638C318.586 205.688 318.039 205.638 317.493 205.514L316.673 205.364C316.309 205.265 315.975 205.065 315.762 204.791C315.61 204.542 315.276 204.343 314.851 204.293H313.879C313.272 204.219 312.726 204.044 312.361 203.671L311.147 202.724L310.721 202.426L310.053 202.027L309.659 201.778C309.203 201.529 308.657 201.33 308.08 201.28L306.258 201.031C306.076 201.031 305.954 200.981 305.772 200.956L305.074 200.832C304.77 200.782 304.466 200.583 304.254 200.334C304.071 200.084 303.737 199.985 303.434 200.084C302.826 200.284 302.341 200.334 301.855 200.408H301.43C300.64 200.458 299.911 200.358 299.183 200.084C298.454 199.835 297.968 199.462 297.513 198.989C297.148 198.565 296.602 198.242 295.934 198.142L295.083 197.992C294.476 197.893 293.869 197.694 293.322 197.395C292.715 197.046 292.411 196.722 292.168 196.324C291.925 195.95 291.774 195.527 291.743 195.079V194.879C291.682 194.381 291.257 193.933 290.68 193.808C289.982 193.634 289.466 193.385 289.01 193.061C288.585 192.738 288.342 192.264 288.342 191.766L288.403 190.67C288.403 190.247 288.251 189.874 287.887 189.6C287.522 189.301 287.279 188.927 287.279 188.529L287.188 187.632C287.128 186.985 286.976 186.337 286.794 185.69C286.611 185.117 286.885 184.544 287.462 184.27L287.674 184.145C287.978 183.971 288.099 183.647 287.917 183.348L287.674 183.099C287.371 182.85 287.067 182.676 286.763 182.601C286.52 182.552 286.46 182.352 286.46 182.228L286.763 181.929C286.945 181.755 286.915 181.481 286.763 181.331C286.52 181.132 286.399 180.883 286.368 180.634L286.308 178.891C286.308 178.542 286.368 178.193 286.49 177.845C286.611 177.546 286.49 177.197 286.126 177.048V177.072ZM316.187 173.785C316.4 173.611 316.369 173.287 316.187 173.162C315.884 172.963 315.671 172.739 315.489 172.49L315.185 172.092C314.973 171.768 314.699 171.494 314.396 171.245L314.335 171.195C314.031 170.996 313.819 170.747 313.637 170.448C313.485 170.199 313.485 169.95 313.637 169.701L313.819 169.452C314.001 169.203 314.122 168.854 314.122 168.555V168.455C314.122 168.206 314.001 167.957 313.819 167.708C313.697 167.509 313.576 167.26 313.515 167.011V166.862C313.424 166.563 313.515 166.239 313.758 165.99C314.001 165.666 314.183 165.367 314.274 164.994V164.944C314.396 164.695 314.335 164.371 314.153 164.122C313.971 163.873 313.91 163.624 314.031 163.325L314.244 162.827C314.426 162.379 314.699 161.98 315.064 161.632L315.489 161.258L315.792 160.959L315.975 160.81C316.157 160.66 316.187 160.411 316.035 160.212C315.884 159.963 315.792 159.714 315.853 159.465L315.914 159.116C316.005 158.618 316.218 158.12 316.612 157.721L316.734 157.622C317.189 157.124 317.766 156.8 318.434 156.626L319.254 156.377C319.618 156.277 319.861 155.953 319.861 155.629C319.861 155.231 320.013 154.882 320.287 154.559L320.438 154.434C320.742 154.011 321.106 153.587 321.349 153.139L321.562 152.815C321.623 152.741 321.653 152.641 321.653 152.566C321.653 152.143 321.349 151.769 320.863 151.744L319.527 151.67C318.768 151.62 318.009 151.67 317.28 151.67L314.699 151.919C314.305 151.919 314.001 152.168 313.971 152.516C313.971 152.865 313.667 153.164 313.302 153.264L312.209 153.513L311.906 153.587L310.995 153.836C310.327 154.011 309.78 154.409 309.476 154.957L309.234 155.281C308.93 155.829 308.414 156.277 307.776 156.601C307.169 156.925 306.865 157.448 306.804 158.045V158.294C306.744 158.792 306.561 159.29 306.197 159.639L306.045 159.838C305.802 160.087 305.742 160.411 305.893 160.685C306.045 160.984 306.136 161.308 306.106 161.632V162.951C306.106 163.3 305.802 163.599 305.499 163.699C305.074 163.823 304.8 164.097 304.679 164.446L304.527 164.944C304.405 165.442 304.618 165.94 305.134 166.239C305.62 166.538 305.924 166.986 306.045 167.534V167.982C306.136 168.48 306.47 168.978 307.017 169.227C307.563 169.526 307.989 169.975 308.231 170.473L308.383 170.871C308.626 171.419 309.173 171.743 309.78 171.793H309.962C310.509 171.793 310.995 172.042 311.298 172.44C311.602 172.839 312.088 173.113 312.634 173.187L313.485 173.387C314.001 173.511 314.487 173.735 314.881 174.059L314.942 174.109C315.246 174.308 315.732 174.283 316.005 174.009L316.218 173.81L316.187 173.785ZM319.649 171.494C319.952 171.643 320.256 171.569 320.378 171.344L320.469 171.22C320.681 170.871 320.955 170.523 321.258 170.224L321.866 169.477C321.957 169.477 321.987 169.427 322.017 169.377L322.746 168.58C323.05 168.331 323.414 168.157 323.839 168.157C324.234 168.157 324.568 167.982 324.75 167.658C324.872 167.31 325.054 166.986 325.418 166.712L325.57 166.563C325.874 166.314 326.177 166.189 326.481 166.065C326.876 166.015 327.24 165.965 327.605 165.965H328.515C328.88 165.965 329.184 165.84 329.366 165.591C329.548 165.342 329.821 165.168 330.125 165.043L330.429 164.944C330.914 164.77 331.461 164.645 332.008 164.595L332.615 164.545C332.979 164.545 333.374 164.545 333.738 164.72C334.042 164.894 334.437 164.869 334.74 164.67L334.953 164.57C335.408 164.321 335.925 164.122 336.471 164.072H336.532C337.139 163.973 337.686 163.973 338.293 163.997H338.597C339.204 164.072 339.72 164.247 340.115 164.62L340.206 164.72C340.51 164.969 340.996 165.168 341.421 165.168H341.937C342.089 165.168 342.241 165.118 342.332 164.994C342.423 164.919 342.575 164.844 342.726 164.844H343.03C343.455 164.844 343.85 164.944 344.245 165.043L344.761 165.218C345.247 165.342 345.763 165.467 346.279 165.517H346.644C346.886 165.517 347.038 165.392 347.038 165.218C347.038 164.969 346.978 164.72 346.826 164.52L346.613 164.122C346.37 163.798 346.188 163.45 346.006 163.126L345.945 163.001C345.793 162.752 345.793 162.503 345.945 162.254V162.13C346.006 161.93 345.884 161.706 345.642 161.632H345.399C344.913 161.507 344.488 161.283 344.184 160.959L343.88 160.71C343.577 160.461 343.394 160.087 343.273 159.714C343.121 159.39 342.787 159.141 342.362 159.141H341.087C340.631 159.091 340.236 158.892 339.963 158.593L339.842 158.469C339.629 158.22 339.447 157.921 339.326 157.622C339.174 157.373 338.84 157.223 338.536 157.298L338.172 157.398C337.564 157.572 336.957 157.647 336.35 157.597L335.864 157.547C335.348 157.547 334.862 157.373 334.467 157.124L334.163 156.949C333.921 156.8 333.678 156.7 333.404 156.601C333.101 156.501 332.858 156.551 332.676 156.725L332.524 156.875C332.22 157.124 331.795 157.323 331.37 157.373L329.73 157.448C329.426 157.448 329.123 157.572 328.91 157.746C328.667 157.921 328.394 158.045 328.09 158.095H328.03C327.726 158.095 327.422 158.269 327.119 158.444V158.494C326.815 158.743 326.42 158.867 326.026 158.867L325.904 158.917C325.54 158.917 325.175 158.917 324.811 158.992H324.447C323.93 159.066 323.536 159.415 323.414 159.863L323.293 160.436C323.202 160.835 322.989 161.183 322.685 161.507C322.382 161.806 322.017 162.005 321.562 162.005H321.106H321.046C320.742 162.055 320.438 162.329 320.499 162.628C320.56 163.051 320.499 163.425 320.408 163.798L320.287 164.222C320.165 164.595 319.861 164.894 319.467 165.019L319.284 165.093H319.224C319.042 165.193 318.92 165.417 319.072 165.591C319.254 165.84 319.315 166.089 319.284 166.339L319.193 167.135C319.193 167.434 319.042 167.708 318.89 167.957C318.708 168.206 318.708 168.455 318.829 168.704L319.133 169.252C319.284 169.501 319.315 169.75 319.224 170.049C319.133 170.298 319.072 170.547 319.102 170.796C319.102 171.046 319.284 171.295 319.527 171.394L319.588 171.444L319.649 171.494ZM343.637 189.5C343.941 189.749 344.397 189.849 344.761 189.649L345.368 189.326C345.672 189.151 345.915 188.902 346.036 188.578V188.529L346.34 187.782L346.522 187.532L346.644 187.283L346.765 187.109C346.886 186.91 347.069 186.76 347.372 186.686L347.494 186.636C347.737 186.586 347.889 186.387 347.889 186.188C347.889 185.939 348.04 185.739 348.192 185.565L348.435 185.391L349.042 184.743V184.693C349.225 184.494 349.346 184.27 349.407 184.021C349.468 183.772 349.407 183.523 349.285 183.274L349.225 183.174C349.103 182.925 349.042 182.751 349.012 182.527L348.921 181.829L348.83 181.082C348.83 180.833 348.951 180.584 349.134 180.335C349.346 180.136 349.498 179.887 349.619 179.638V179.538L349.68 179.488C349.741 179.239 349.589 178.99 349.316 178.99C349.012 178.866 348.708 178.666 348.617 178.368L348.526 178.218C348.374 177.77 348.283 177.322 348.283 176.873L348.344 175.628V175.553C348.344 175.13 347.919 174.806 347.433 174.806H347.372C346.765 174.806 346.279 174.657 345.854 174.308L345.611 174.059L345.004 173.486L344.214 172.739C343.911 172.39 343.607 172.092 343.212 171.793C342.909 171.544 342.453 171.295 341.998 171.245L341.39 171.17C341.087 171.12 340.692 170.996 340.358 170.821C340.115 170.672 339.751 170.722 339.508 170.921L339.113 171.27L338.931 171.369C338.718 171.419 338.506 171.319 338.415 171.12C338.293 170.821 338.293 170.473 338.475 170.174V170.024C338.475 169.85 338.293 169.726 338.111 169.775H337.625C337.079 169.775 336.532 169.726 336.016 169.526L335.712 169.427C335.408 169.302 335.044 169.227 334.71 169.227C334.406 169.227 334.103 169.277 333.799 169.427L333.678 169.501C333.313 169.701 332.888 169.8 332.463 169.825H331.461C331.005 169.825 330.55 169.95 330.246 170.149C329.852 170.348 329.426 170.473 328.971 170.547L328.151 170.647C327.787 170.722 327.392 170.846 327.058 171.07C326.754 171.319 326.329 171.469 325.934 171.569L325.783 171.618C325.297 171.743 324.872 171.992 324.568 172.365L324.204 172.664C323.991 172.913 323.991 173.212 324.204 173.461C324.386 173.71 324.75 173.785 325.115 173.71L325.57 173.561C325.813 173.486 326.086 173.561 326.299 173.661C326.481 173.785 326.754 173.86 327.028 173.835L327.787 173.76C328.212 173.76 328.637 173.76 329.062 173.86C329.518 173.984 329.912 174.109 330.277 174.358C330.641 174.607 331.036 174.707 331.491 174.756C331.947 174.806 332.402 174.881 332.827 175.005L333.131 175.055C333.435 175.13 333.678 175.304 333.86 175.553C334.012 175.753 334.163 176.051 334.163 176.3V176.375C334.163 176.674 334.467 176.873 334.771 176.873H334.953C335.439 176.873 335.955 176.923 336.471 177.048L336.684 177.122C336.987 177.222 337.291 177.371 337.504 177.62C337.747 177.869 337.898 178.118 337.989 178.368L338.081 178.716C338.172 179.09 338.202 179.463 338.202 179.862V179.986C338.202 180.235 338.415 180.484 338.749 180.584C339.052 180.634 339.417 180.733 339.751 180.883L339.902 180.933C340.297 181.132 340.692 181.381 340.996 181.68L341.147 181.854C341.542 182.228 341.755 182.701 341.755 183.174V183.348C341.755 183.722 341.664 184.096 341.512 184.444C341.39 184.743 341.512 185.092 341.907 185.191L342.119 185.316C342.575 185.465 342.969 185.739 343.273 186.063C343.577 186.437 343.698 186.86 343.698 187.308V188.055C343.637 188.305 343.546 188.504 343.394 188.678C343.243 188.852 343.243 189.101 343.394 189.276L343.577 189.525L343.637 189.5ZM324.204 176.749H324.143C324.021 176.749 323.961 176.873 323.991 176.998L324.113 177.496C324.234 177.894 324.295 178.293 324.355 178.691C324.416 179.09 324.659 179.438 325.023 179.687H325.145C325.6 179.986 325.874 180.435 325.904 180.883V182.128C325.843 182.377 325.904 182.626 326.086 182.825L326.238 182.95C326.542 183.249 326.663 183.598 326.694 183.946L326.785 185.316C326.785 185.64 326.542 185.914 326.177 185.963L325.874 186.013C325.661 186.013 325.57 186.213 325.57 186.387C325.57 186.586 325.661 186.81 325.752 187.009V187.059C325.843 187.308 325.874 187.557 325.843 187.806L325.722 188.479C325.6 188.977 325.418 189.425 325.115 189.874L324.902 190.172C324.75 190.421 324.538 190.571 324.295 190.67C323.991 190.77 323.779 190.969 323.687 191.218L323.444 192.115C323.293 192.613 323.019 193.111 322.655 193.609H322.594C322.23 194.008 321.774 194.356 321.228 194.605L320.863 194.805L319.952 195.178C319.649 195.278 319.467 195.502 319.406 195.776L319.254 196.598C319.163 197.096 318.95 197.519 318.525 197.843L318.131 198.217L317.675 198.59L317.22 198.989C316.855 199.337 316.309 199.487 315.701 199.412L314.608 199.238L313.606 199.138H313.333C313.211 199.238 313.181 199.387 313.272 199.537C313.485 199.835 313.819 200.035 314.183 200.035L314.851 200.134C315.155 200.134 315.519 200.259 315.823 200.383C316.126 200.558 316.43 200.682 316.794 200.757H316.855C317.25 200.881 317.675 200.906 318.07 200.881L318.525 200.832C319.042 200.782 319.527 200.832 319.952 200.981L320.317 201.081C320.469 201.13 320.712 201.081 320.863 200.956C321.046 200.807 321.228 200.707 321.471 200.632L321.714 200.583C322.108 200.483 322.503 200.433 322.928 200.433H323.171C323.536 200.433 323.87 200.483 324.173 200.632L324.295 200.682C324.507 200.757 324.75 200.682 324.902 200.533C324.993 200.358 325.206 200.184 325.418 200.035L326.177 199.611L326.663 199.362L326.906 199.238C327.21 199.063 327.635 198.989 327.999 198.989L329.092 198.914C329.518 198.864 329.882 198.615 330.003 198.266C330.125 197.893 330.307 197.519 330.611 197.196C330.914 196.872 331.218 196.598 331.522 196.349C331.916 196.1 332.311 195.975 332.736 195.95H332.979C333.465 195.876 333.829 195.502 333.799 195.104V195.054V193.435C333.86 193.186 333.981 192.862 334.163 192.613L334.771 191.866L335.014 191.617C335.196 191.492 335.317 191.318 335.53 191.119L335.834 190.795C336.016 190.546 336.016 190.222 335.773 189.998C335.469 189.749 335.317 189.4 335.257 189.052V188.952C335.196 188.554 335.196 188.13 335.348 187.707V187.582C335.5 187.259 335.712 186.935 335.955 186.636C336.198 186.387 336.168 186.038 335.864 185.839L335.348 185.465C334.923 185.167 334.68 184.718 334.619 184.27L334.558 183.772C334.558 183.622 334.558 183.448 334.497 183.274L334.437 182.9C334.376 182.477 334.072 182.153 333.647 181.904L333.435 181.854C333.131 181.705 332.827 181.481 332.584 181.182C332.342 180.933 332.22 180.584 332.129 180.235L332.038 179.812C332.038 179.663 331.916 179.563 331.734 179.488L331.248 179.364L330.277 179.115C329.973 179.065 329.669 178.866 329.457 178.691H329.396C329.214 178.492 328.91 178.492 328.728 178.641L328.424 178.891C328.364 178.965 328.303 178.99 328.212 178.965C328.03 178.965 327.908 178.841 327.969 178.716C328.03 178.318 327.847 177.919 327.453 177.67L327.058 177.421L326.147 176.923C325.904 176.848 325.54 176.923 325.418 177.172L325.297 177.322C325.297 177.371 325.206 177.396 325.175 177.421C325.054 177.421 324.872 177.421 324.872 177.297L324.781 177.172C324.689 177.023 324.477 176.923 324.295 176.873L324.204 176.749ZM320.56 179.239L320.408 179.115C320.256 179.015 320.104 179.04 319.952 179.164C319.74 179.463 319.558 179.787 319.467 180.111V180.161C319.376 180.484 319.011 180.709 318.647 180.659H318.343H318.282C317.857 180.659 317.523 180.958 317.523 181.306C317.523 181.755 317.341 182.203 317.007 182.552L316.825 182.701C316.521 183.025 316.066 183.249 315.61 183.373L315.367 183.423C315.064 183.498 314.821 183.672 314.76 183.971C314.76 184.22 314.578 184.469 314.335 184.668L314.031 184.868C313.667 185.191 313.12 185.366 312.574 185.416L311.055 185.54C310.57 185.54 310.145 185.789 309.841 186.163C309.537 186.536 309.082 186.785 308.626 186.835L307.958 186.885C307.472 186.935 306.956 186.935 306.44 186.835L306.136 186.785L305.316 186.611C305.013 186.536 304.77 186.611 304.588 186.785L304.284 187.109C303.889 187.483 303.312 187.657 302.766 187.607L300.792 187.408C300.488 187.408 300.245 187.283 299.972 187.159C299.668 187.009 299.456 186.835 299.243 186.661L298.484 185.914C298.393 185.864 298.241 185.839 298.089 185.864L297.664 186.013L295.964 186.362C295.66 186.437 295.266 186.362 294.962 186.213C294.658 186.013 294.294 185.963 293.929 185.963H293.535C293.17 186.038 292.927 186.362 293.049 186.661L293.17 187.159C293.261 187.408 293.231 187.707 293.079 187.956C292.927 188.205 292.958 188.454 293.17 188.703L293.353 188.902C293.595 189.201 293.96 189.45 294.263 189.699C294.567 189.948 294.871 190.197 295.114 190.521L295.569 191.193C295.812 191.542 296.176 191.741 296.662 191.741C297.118 191.741 297.573 191.866 297.938 192.115L298.849 192.812C299.092 192.987 299.456 193.012 299.699 192.862L299.851 192.812C300.033 192.812 300.154 192.912 300.154 193.061V193.186C300.154 193.51 300.458 193.808 300.853 193.933L302.219 194.182C302.705 194.307 303.191 194.431 303.646 194.68H303.889C304.132 194.68 304.345 194.506 304.314 194.282V193.41C304.314 193.161 304.436 192.912 304.679 192.812L304.831 192.762C304.982 192.812 305.134 192.912 305.074 193.012V193.435C305.074 193.759 305.195 194.058 305.468 194.282C305.772 194.531 306.167 194.581 306.501 194.481C306.865 194.356 307.229 194.331 307.624 194.356L308.748 194.406C309.294 194.456 309.81 194.406 310.266 194.232C310.813 194.082 311.268 193.883 311.693 193.609L311.875 193.51L312.786 192.837C313.09 192.588 313.485 192.464 313.849 192.464H315.064C315.671 192.414 316.218 191.966 316.278 191.467L316.4 190.969C316.4 190.646 316.582 190.347 316.855 190.098C317.159 189.849 317.463 189.699 317.766 189.6L318.131 189.475C318.647 189.301 319.042 188.927 319.224 188.479L319.406 187.881C319.558 187.383 319.861 186.885 320.317 186.561L320.378 186.511C320.742 186.262 320.803 185.764 320.56 185.416L320.469 185.241C320.256 184.992 320.226 184.619 320.378 184.295C320.529 183.946 320.681 183.647 320.924 183.348L321.228 183C321.349 182.801 321.349 182.502 321.167 182.327C320.985 182.128 320.863 181.879 320.863 181.63L320.803 181.281V180.435C320.863 180.186 320.803 179.862 320.712 179.613L320.59 179.314L320.56 179.239ZM316.218 177.346V177.272C316.218 177.023 316.035 176.873 315.792 176.873H315.003C314.699 176.923 314.396 176.923 314.153 176.873H312.786C312.088 176.873 311.42 176.774 310.752 176.624L310.023 176.475L309.416 176.325L308.049 175.952C307.321 175.777 306.774 175.379 306.44 174.831L306.288 174.582C306.076 174.208 305.62 174.009 305.165 174.084C304.648 174.084 304.132 174.084 303.646 173.885L303.282 173.76C302.584 173.511 302.067 173.013 302.067 172.341L301.946 171.668C301.855 171.319 301.581 170.996 301.217 170.871C300.792 170.722 300.397 170.523 300.003 170.298L299.851 170.224C299.395 169.925 299 169.526 298.788 169.053L298.727 168.904C298.575 168.505 298.545 168.082 298.666 167.658L298.727 167.509C298.849 167.185 298.879 166.862 298.879 166.513C298.879 166.214 298.727 165.915 298.454 165.691L298.029 165.367C297.543 165.043 297.239 164.57 297.209 164.047C297.148 163.499 297.148 162.976 297.27 162.453V162.379V162.304C297.27 162.005 296.966 161.806 296.662 161.806H296.571C296.176 161.806 295.842 162.005 295.66 162.304C295.508 162.653 295.266 162.927 294.992 163.201L294.871 163.325L294.263 163.823L293.96 164.072C293.656 164.321 293.474 164.695 293.413 165.068C293.353 165.442 293.231 165.816 293.049 166.164L292.988 166.289C292.836 166.588 292.593 166.862 292.29 167.036C291.986 167.235 291.774 167.534 291.774 167.833L291.713 168.978C291.713 169.477 291.622 169.975 291.409 170.473L291.348 170.672C291.197 170.996 291.348 171.344 291.713 171.494L292.988 171.942L293.11 171.992C293.201 171.992 293.231 172.042 293.261 172.116C293.353 172.216 293.261 172.365 293.17 172.365L292.867 172.49C292.684 172.54 292.563 172.689 292.502 172.864L292.442 173.113V173.162L292.138 174.557C292.077 174.756 292.077 174.98 292.077 175.205C292.077 175.404 292.229 175.578 292.442 175.653L293.11 175.902C293.413 176.051 293.778 176.226 294.021 176.4L294.324 176.599C294.415 176.699 294.567 176.799 294.689 176.848L294.81 176.948C295.023 177.097 295.174 177.297 295.235 177.521L295.539 178.641C295.539 178.94 295.842 179.189 296.146 179.264L296.632 179.389C296.632 179.389 296.723 179.389 296.784 179.438L297.391 179.588C297.877 179.712 298.302 179.937 298.666 180.235C299.031 180.484 299.395 180.808 299.699 181.157L299.82 181.256C300.063 181.506 300.428 181.63 300.792 181.555C301.156 181.481 301.551 181.456 301.946 181.456H302.401C302.705 181.456 303.1 181.53 303.434 181.705C303.737 181.854 304.132 181.954 304.497 182.078H304.588C304.952 182.203 305.347 182.153 305.65 181.979C305.954 181.779 306.349 181.68 306.744 181.68L308.171 181.755C308.474 181.755 308.778 181.705 308.93 181.506H308.991L309.507 181.107L309.659 180.983C309.902 180.733 310.266 180.634 310.63 180.609H311.997C312.361 180.609 312.695 180.36 312.847 180.111C312.999 179.862 313.302 179.663 313.667 179.613L314.274 179.513C314.517 179.513 314.73 179.339 314.821 179.115C314.912 178.866 315.064 178.666 315.276 178.517L315.762 178.118C316.066 177.869 316.218 177.62 316.278 177.322L316.218 177.346Z" fill="black"/>
<path d="M138.915 9.345L140.085 30H137.58L136.935 19.215C136.905 18.485 136.875 17.745 136.845 16.995C136.815 16.245 136.795 15.525 136.785 14.835C136.775 14.145 136.77 13.53 136.77 12.99C136.77 12.45 136.77 12.03 136.77 11.73L133.29 26.295H130.68L126.945 11.73C126.955 12.02 126.965 12.45 126.975 13.02C126.985 13.58 126.99 14.215 126.99 14.925C127 15.635 126.995 16.365 126.975 17.115C126.965 17.855 126.945 18.545 126.915 19.185L126.36 30H123.915L125.085 9.345H128.715L132.06 23.49L135.255 9.345H138.915ZM157.143 14.205L151.593 30.105C151.223 31.175 150.753 32.155 150.183 33.045C149.623 33.935 148.888 34.67 147.978 35.25C147.078 35.84 145.933 36.205 144.543 36.345L144.153 34.335C145.243 34.155 146.103 33.88 146.733 33.51C147.363 33.14 147.858 32.665 148.218 32.085C148.588 31.505 148.913 30.81 149.193 30H148.353L142.833 14.205H145.533L150.063 28.08L154.533 14.205H157.143ZM193.06 24.285C193.06 25.465 192.765 26.515 192.175 27.435C191.585 28.345 190.73 29.06 189.61 29.58C188.49 30.09 187.125 30.345 185.515 30.345C184.005 30.345 182.635 30.115 181.405 29.655C180.185 29.195 179.14 28.545 178.27 27.705L179.815 25.965C180.535 26.635 181.36 27.17 182.29 27.57C183.22 27.96 184.31 28.155 185.56 28.155C186.4 28.155 187.185 28.02 187.915 27.75C188.645 27.47 189.235 27.05 189.685 26.49C190.135 25.92 190.36 25.2 190.36 24.33C190.36 23.66 190.23 23.09 189.97 22.62C189.71 22.15 189.25 21.735 188.59 21.375C187.93 21.005 187.01 20.645 185.83 20.295C184.47 19.895 183.29 19.445 182.29 18.945C181.3 18.435 180.53 17.81 179.98 17.07C179.44 16.33 179.17 15.415 179.17 14.325C179.17 13.295 179.455 12.38 180.025 11.58C180.595 10.78 181.38 10.155 182.38 9.705C183.39 9.245 184.55 9.015 185.86 9.015C187.29 9.015 188.53 9.22 189.58 9.63C190.64 10.03 191.6 10.61 192.46 11.37L190.93 13.065C190.19 12.405 189.395 11.93 188.545 11.64C187.695 11.34 186.83 11.19 185.95 11.19C185.2 11.19 184.51 11.305 183.88 11.535C183.26 11.755 182.76 12.09 182.38 12.54C182.01 12.98 181.825 13.545 181.825 14.235C181.825 14.825 181.985 15.335 182.305 15.765C182.625 16.195 183.165 16.59 183.925 16.95C184.685 17.3 185.72 17.67 187.03 18.06C188.1 18.37 189.09 18.76 190 19.23C190.92 19.69 191.66 20.32 192.22 21.12C192.78 21.91 193.06 22.965 193.06 24.285ZM203.983 13.875C205.473 13.875 206.718 14.215 207.718 14.895C208.728 15.565 209.483 16.515 209.983 17.745C210.493 18.975 210.748 20.425 210.748 22.095C210.748 23.705 210.488 25.13 209.968 26.37C209.448 27.61 208.683 28.585 207.673 29.295C206.673 29.995 205.433 30.345 203.953 30.345C202.473 30.345 201.228 30.005 200.218 29.325C199.208 28.645 198.443 27.69 197.923 26.46C197.413 25.22 197.158 23.775 197.158 22.125C197.158 20.495 197.418 19.06 197.938 17.82C198.458 16.58 199.223 15.615 200.233 14.925C201.253 14.225 202.503 13.875 203.983 13.875ZM203.983 15.93C202.623 15.93 201.593 16.435 200.893 17.445C200.203 18.445 199.858 20.005 199.858 22.125C199.858 24.205 200.198 25.75 200.878 26.76C201.568 27.77 202.593 28.275 203.953 28.275C205.313 28.275 206.333 27.77 207.013 26.76C207.703 25.75 208.048 24.195 208.048 22.095C208.048 19.995 207.708 18.445 207.028 17.445C206.348 16.435 205.333 15.93 203.983 15.93ZM223.096 28.17C223.886 28.17 224.621 28.04 225.301 27.78C225.991 27.52 226.626 27.19 227.206 26.79L228.436 28.44C227.746 29.03 226.916 29.495 225.946 29.835C224.976 30.175 224.026 30.345 223.096 30.345C221.526 30.345 220.186 30.01 219.076 29.34C217.976 28.66 217.136 27.71 216.556 26.49C215.976 25.26 215.686 23.82 215.686 22.17C215.686 20.59 215.976 19.175 216.556 17.925C217.146 16.665 217.991 15.675 219.091 14.955C220.201 14.235 221.546 13.875 223.126 13.875C224.136 13.875 225.081 14.03 225.961 14.34C226.851 14.64 227.666 15.095 228.406 15.705L227.176 17.385C226.506 16.915 225.831 16.565 225.151 16.335C224.481 16.095 223.796 15.975 223.096 15.975C221.736 15.975 220.616 16.485 219.736 17.505C218.856 18.525 218.416 20.08 218.416 22.17C218.416 23.57 218.616 24.715 219.016 25.605C219.426 26.485 219.981 27.135 220.681 27.555C221.391 27.965 222.196 28.17 223.096 28.17ZM241.94 14.205V28.005H246.395V30H234.545V28.005H239.42V16.2H234.695V14.205H241.94ZM239.93 6.81C240.49 6.81 240.935 6.98 241.265 7.32C241.605 7.66 241.775 8.075 241.775 8.565C241.775 9.075 241.605 9.505 241.265 9.855C240.935 10.195 240.49 10.365 239.93 10.365C239.4 10.365 238.965 10.195 238.625 9.855C238.285 9.505 238.115 9.075 238.115 8.565C238.115 8.075 238.285 7.66 238.625 7.32C238.965 6.98 239.4 6.81 239.93 6.81ZM263.243 26.55C263.243 27.18 263.348 27.64 263.558 27.93C263.768 28.22 264.093 28.435 264.533 28.575L263.918 30.345C263.238 30.255 262.643 30.04 262.133 29.7C261.623 29.35 261.253 28.825 261.023 28.125C260.453 28.855 259.743 29.41 258.893 29.79C258.043 30.16 257.103 30.345 256.073 30.345C254.493 30.345 253.248 29.9 252.338 29.01C251.428 28.12 250.973 26.94 250.973 25.47C250.973 23.84 251.608 22.59 252.878 21.72C254.148 20.85 255.983 20.415 258.383 20.415H260.708V19.095C260.708 17.955 260.373 17.15 259.703 16.68C259.043 16.2 258.123 15.96 256.943 15.96C256.423 15.96 255.813 16.025 255.113 16.155C254.413 16.275 253.653 16.48 252.833 16.77L252.173 14.865C253.143 14.505 254.053 14.25 254.903 14.1C255.753 13.95 256.563 13.875 257.333 13.875C259.303 13.875 260.778 14.335 261.758 15.255C262.748 16.165 263.243 17.405 263.243 18.975V26.55ZM256.718 28.425C257.498 28.425 258.243 28.23 258.953 27.84C259.663 27.44 260.248 26.89 260.708 26.19V22.125H258.428C256.688 22.125 255.458 22.425 254.738 23.025C254.028 23.625 253.673 24.43 253.673 25.44C253.673 26.42 253.923 27.165 254.423 27.675C254.933 28.175 255.698 28.425 256.718 28.425ZM276.071 7.845V26.1C276.071 26.88 276.311 27.435 276.791 27.765C277.281 28.085 277.911 28.245 278.681 28.245C279.161 28.245 279.616 28.195 280.046 28.095C280.476 27.995 280.906 27.86 281.336 27.69L282.011 29.535C281.581 29.745 281.046 29.93 280.406 30.09C279.776 30.26 279.061 30.345 278.261 30.345C276.861 30.345 275.726 29.96 274.856 29.19C273.986 28.41 273.551 27.335 273.551 25.965V9.84H268.706V7.845H276.071ZM293.28 28.26C294.49 28.26 295.445 28.035 296.145 27.585C296.855 27.125 297.21 26.515 297.21 25.755C297.21 25.275 297.12 24.86 296.94 24.51C296.77 24.16 296.415 23.845 295.875 23.565C295.335 23.285 294.505 23.005 293.385 22.725C292.295 22.455 291.345 22.145 290.535 21.795C289.735 21.435 289.11 20.97 288.66 20.4C288.22 19.83 288 19.09 288 18.18C288 17.29 288.25 16.525 288.75 15.885C289.26 15.235 289.965 14.74 290.865 14.4C291.765 14.05 292.81 13.875 294 13.875C295.27 13.875 296.375 14.045 297.315 14.385C298.265 14.715 299.07 15.125 299.73 15.615L298.62 17.325C298.02 16.915 297.36 16.58 296.64 16.32C295.92 16.05 295.05 15.915 294.03 15.915C292.79 15.915 291.91 16.11 291.39 16.5C290.87 16.88 290.61 17.375 290.61 17.985C290.61 18.445 290.735 18.83 290.985 19.14C291.245 19.44 291.68 19.715 292.29 19.965C292.9 20.205 293.74 20.47 294.81 20.76C295.84 21.03 296.735 21.355 297.495 21.735C298.265 22.115 298.865 22.615 299.295 23.235C299.725 23.855 299.94 24.655 299.94 25.635C299.94 26.755 299.62 27.665 298.98 28.365C298.34 29.055 297.51 29.56 296.49 29.88C295.48 30.19 294.41 30.345 293.28 30.345C291.85 30.345 290.63 30.14 289.62 29.73C288.62 29.31 287.78 28.805 287.1 28.215L288.54 26.55C289.16 27.06 289.87 27.475 290.67 27.795C291.48 28.105 292.35 28.26 293.28 28.26Z" fill="#4AC279"/>
<defs>
<clipPath id="clip0_231_2">
<rect width="85" height="80" fill="white" transform="translate(32 146)"/>
</clipPath>
</defs>
</svg>
