<svg width="401" height="212" viewBox="0 0 401 212" fill="none" xmlns="http://www.w3.org/2000/svg">
<rect x="3.5" y="47.9517" width="394" height="160.548" fill="white" stroke="black" stroke-width="7"/>
<path d="M18.915 9.345L20.085 30H17.58L16.935 19.215C16.905 18.485 16.875 17.745 16.845 16.995C16.815 16.245 16.795 15.525 16.785 14.835C16.775 14.145 16.77 13.53 16.77 12.99C16.77 12.45 16.77 12.03 16.77 11.73L13.29 26.295H10.68L6.945 11.73C6.955 12.02 6.965 12.45 6.975 13.02C6.985 13.58 6.99 14.215 6.99 14.925C7 15.635 6.995 16.365 6.975 17.115C6.965 17.855 6.945 18.545 6.915 19.185L6.36 30H3.915L5.085 9.345H8.715L12.06 23.49L15.255 9.345H18.915ZM37.1433 14.205L31.5933 30.105C31.2233 31.175 30.7533 32.155 30.1833 33.045C29.6233 33.935 28.8883 34.67 27.9783 35.25C27.0783 35.84 25.9333 36.205 24.5433 36.345L24.1533 34.335C25.2433 34.155 26.1033 33.88 26.7333 33.51C27.3633 33.14 27.8583 32.665 28.2183 32.085C28.5883 31.505 28.9133 30.81 29.1933 30H28.3533L22.8333 14.205H25.5333L30.0633 28.08L34.5333 14.205H37.1433ZM73.0598 24.285C73.0598 25.465 72.7648 26.515 72.1748 27.435C71.5848 28.345 70.7298 29.06 69.6098 29.58C68.4898 30.09 67.1248 30.345 65.5148 30.345C64.0048 30.345 62.6348 30.115 61.4048 29.655C60.1848 29.195 59.1398 28.545 58.2698 27.705L59.8148 25.965C60.5348 26.635 61.3598 27.17 62.2898 27.57C63.2198 27.96 64.3098 28.155 65.5598 28.155C66.3998 28.155 67.1848 28.02 67.9148 27.75C68.6448 27.47 69.2348 27.05 69.6848 26.49C70.1348 25.92 70.3598 25.2 70.3598 24.33C70.3598 23.66 70.2298 23.09 69.9698 22.62C69.7098 22.15 69.2498 21.735 68.5898 21.375C67.9298 21.005 67.0098 20.645 65.8298 20.295C64.4698 19.895 63.2898 19.445 62.2898 18.945C61.2998 18.435 60.5298 17.81 59.9798 17.07C59.4398 16.33 59.1698 15.415 59.1698 14.325C59.1698 13.295 59.4548 12.38 60.0248 11.58C60.5948 10.78 61.3798 10.155 62.3798 9.705C63.3898 9.245 64.5498 9.015 65.8598 9.015C67.2898 9.015 68.5298 9.22 69.5798 9.63C70.6398 10.03 71.5998 10.61 72.4598 11.37L70.9298 13.065C70.1898 12.405 69.3948 11.93 68.5448 11.64C67.6948 11.34 66.8298 11.19 65.9498 11.19C65.1998 11.19 64.5098 11.305 63.8798 11.535C63.2598 11.755 62.7598 12.09 62.3798 12.54C62.0098 12.98 61.8248 13.545 61.8248 14.235C61.8248 14.825 61.9848 15.335 62.3048 15.765C62.6248 16.195 63.1648 16.59 63.9248 16.95C64.6848 17.3 65.7198 17.67 67.0298 18.06C68.0998 18.37 69.0898 18.76 69.9998 19.23C70.9198 19.69 71.6598 20.32 72.2198 21.12C72.7798 21.91 73.0598 22.965 73.0598 24.285ZM83.9831 13.875C85.4731 13.875 86.7181 14.215 87.7181 14.895C88.7281 15.565 89.4831 16.515 89.9831 17.745C90.4931 18.975 90.7481 20.425 90.7481 22.095C90.7481 23.705 90.4881 25.13 89.9681 26.37C89.4481 27.61 88.6831 28.585 87.6731 29.295C86.6731 29.995 85.4331 30.345 83.9531 30.345C82.4731 30.345 81.2281 30.005 80.2181 29.325C79.2081 28.645 78.4431 27.69 77.9231 26.46C77.4131 25.22 77.1581 23.775 77.1581 22.125C77.1581 20.495 77.4181 19.06 77.9381 17.82C78.4581 16.58 79.2231 15.615 80.2331 14.925C81.2531 14.225 82.5031 13.875 83.9831 13.875ZM83.9831 15.93C82.6231 15.93 81.5931 16.435 80.8931 17.445C80.2031 18.445 79.8581 20.005 79.8581 22.125C79.8581 24.205 80.1981 25.75 80.8781 26.76C81.5681 27.77 82.5931 28.275 83.9531 28.275C85.3131 28.275 86.3331 27.77 87.0131 26.76C87.7031 25.75 88.0481 24.195 88.0481 22.095C88.0481 19.995 87.7081 18.445 87.0281 17.445C86.3481 16.435 85.3331 15.93 83.9831 15.93ZM103.096 28.17C103.886 28.17 104.621 28.04 105.301 27.78C105.991 27.52 106.626 27.19 107.206 26.79L108.436 28.44C107.746 29.03 106.916 29.495 105.946 29.835C104.976 30.175 104.026 30.345 103.096 30.345C101.526 30.345 100.186 30.01 99.0764 29.34C97.9764 28.66 97.1364 27.71 96.5564 26.49C95.9764 25.26 95.6864 23.82 95.6864 22.17C95.6864 20.59 95.9764 19.175 96.5564 17.925C97.1464 16.665 97.9914 15.675 99.0914 14.955C100.201 14.235 101.546 13.875 103.126 13.875C104.136 13.875 105.081 14.03 105.961 14.34C106.851 14.64 107.666 15.095 108.406 15.705L107.176 17.385C106.506 16.915 105.831 16.565 105.151 16.335C104.481 16.095 103.796 15.975 103.096 15.975C101.736 15.975 100.616 16.485 99.7364 17.505C98.8564 18.525 98.4164 20.08 98.4164 22.17C98.4164 23.57 98.6164 24.715 99.0164 25.605C99.4264 26.485 99.9814 27.135 100.681 27.555C101.391 27.965 102.196 28.17 103.096 28.17ZM121.94 14.205V28.005H126.395V30H114.545V28.005H119.42V16.2H114.695V14.205H121.94ZM119.93 6.81C120.49 6.81 120.935 6.98 121.265 7.32C121.605 7.66 121.775 8.075 121.775 8.565C121.775 9.075 121.605 9.505 121.265 9.855C120.935 10.195 120.49 10.365 119.93 10.365C119.4 10.365 118.965 10.195 118.625 9.855C118.285 9.505 118.115 9.075 118.115 8.565C118.115 8.075 118.285 7.66 118.625 7.32C118.965 6.98 119.4 6.81 119.93 6.81ZM143.243 26.55C143.243 27.18 143.348 27.64 143.558 27.93C143.768 28.22 144.093 28.435 144.533 28.575L143.918 30.345C143.238 30.255 142.643 30.04 142.133 29.7C141.623 29.35 141.253 28.825 141.023 28.125C140.453 28.855 139.743 29.41 138.893 29.79C138.043 30.16 137.103 30.345 136.073 30.345C134.493 30.345 133.248 29.9 132.338 29.01C131.428 28.12 130.973 26.94 130.973 25.47C130.973 23.84 131.608 22.59 132.878 21.72C134.148 20.85 135.983 20.415 138.383 20.415H140.708V19.095C140.708 17.955 140.373 17.15 139.703 16.68C139.043 16.2 138.123 15.96 136.943 15.96C136.423 15.96 135.813 16.025 135.113 16.155C134.413 16.275 133.653 16.48 132.833 16.77L132.173 14.865C133.143 14.505 134.053 14.25 134.903 14.1C135.753 13.95 136.563 13.875 137.333 13.875C139.303 13.875 140.778 14.335 141.758 15.255C142.748 16.165 143.243 17.405 143.243 18.975V26.55ZM136.718 28.425C137.498 28.425 138.243 28.23 138.953 27.84C139.663 27.44 140.248 26.89 140.708 26.19V22.125H138.428C136.688 22.125 135.458 22.425 134.738 23.025C134.028 23.625 133.673 24.43 133.673 25.44C133.673 26.42 133.923 27.165 134.423 27.675C134.933 28.175 135.698 28.425 136.718 28.425ZM156.071 7.845V26.1C156.071 26.88 156.311 27.435 156.791 27.765C157.281 28.085 157.911 28.245 158.681 28.245C159.161 28.245 159.616 28.195 160.046 28.095C160.476 27.995 160.906 27.86 161.336 27.69L162.011 29.535C161.581 29.745 161.046 29.93 160.406 30.09C159.776 30.26 159.061 30.345 158.261 30.345C156.861 30.345 155.726 29.96 154.856 29.19C153.986 28.41 153.551 27.335 153.551 25.965V9.84H148.706V7.845H156.071ZM173.28 28.26C174.49 28.26 175.445 28.035 176.145 27.585C176.855 27.125 177.21 26.515 177.21 25.755C177.21 25.275 177.12 24.86 176.94 24.51C176.77 24.16 176.415 23.845 175.875 23.565C175.335 23.285 174.505 23.005 173.385 22.725C172.295 22.455 171.345 22.145 170.535 21.795C169.735 21.435 169.11 20.97 168.66 20.4C168.22 19.83 168 19.09 168 18.18C168 17.29 168.25 16.525 168.75 15.885C169.26 15.235 169.965 14.74 170.865 14.4C171.765 14.05 172.81 13.875 174 13.875C175.27 13.875 176.375 14.045 177.315 14.385C178.265 14.715 179.07 15.125 179.73 15.615L178.62 17.325C178.02 16.915 177.36 16.58 176.64 16.32C175.92 16.05 175.05 15.915 174.03 15.915C172.79 15.915 171.91 16.11 171.39 16.5C170.87 16.88 170.61 17.375 170.61 17.985C170.61 18.445 170.735 18.83 170.985 19.14C171.245 19.44 171.68 19.715 172.29 19.965C172.9 20.205 173.74 20.47 174.81 20.76C175.84 21.03 176.735 21.355 177.495 21.735C178.265 22.115 178.865 22.615 179.295 23.235C179.725 23.855 179.94 24.655 179.94 25.635C179.94 26.755 179.62 27.665 178.98 28.365C178.34 29.055 177.51 29.56 176.49 29.88C175.48 30.19 174.41 30.345 173.28 30.345C171.85 30.345 170.63 30.14 169.62 29.73C168.62 29.31 167.78 28.805 167.1 28.215L168.54 26.55C169.16 27.06 169.87 27.475 170.67 27.795C171.48 28.105 172.35 28.26 173.28 28.26Z" fill="#4AC279"/>
</svg>
