<svg width="96" height="25" viewBox="0 0 96 25" fill="none" xmlns="http://www.w3.org/2000/svg">
<g clip-path="url(#clip0_118_6428)">
<path d="M6.8319 24.2361C5.43174 24.2361 4.26187 23.9781 3.32229 23.462C2.38271 22.9459 1.67342 22.1527 1.19441 21.0823C0.715411 19.9929 0.448275 18.588 0.393005 16.8678L4.62112 16.2084C4.63955 17.2023 4.72245 18.0051 4.86984 18.6167C5.03565 19.2283 5.25672 19.6679 5.53307 19.9355C5.82784 20.2031 6.17788 20.3369 6.58319 20.3369C7.09904 20.3369 7.43066 20.1553 7.57804 19.7922C7.74385 19.429 7.82676 19.0467 7.82676 18.6454C7.82676 17.6897 7.60568 16.8869 7.16352 16.237C6.72137 15.5681 6.12261 14.8991 5.36726 14.2301L3.43283 12.4812C2.58536 11.7358 1.86686 10.8948 1.27732 9.95821C0.706199 9.00253 0.42064 7.82704 0.42064 6.43174C0.42064 4.46304 0.982547 2.96262 2.10636 1.93048C3.23017 0.879233 4.7593 0.353607 6.69373 0.353607C7.89124 0.353607 8.84924 0.563857 9.56775 0.984358C10.3047 1.40486 10.8574 1.95915 11.2258 2.64724C11.6127 3.31622 11.8706 4.03298 11.9996 4.79753C12.147 5.54296 12.2299 6.25972 12.2483 6.94781L7.99256 7.49255C7.97414 6.80446 7.92808 6.21194 7.85439 5.71498C7.79912 5.19891 7.67016 4.80709 7.4675 4.53949C7.26485 4.25279 6.95166 4.10944 6.52792 4.10944C6.06734 4.10944 5.72651 4.31013 5.50544 4.71152C5.30278 5.1129 5.20145 5.51429 5.20145 5.91568C5.20145 6.77579 5.3949 7.48299 5.78178 8.03729C6.18709 8.57247 6.71215 9.13632 7.35697 9.72885L9.20849 11.4204C10.1849 12.2805 11.0048 13.2553 11.668 14.3448C12.3496 15.4343 12.6905 16.7818 12.6905 18.3873C12.6905 19.4768 12.451 20.4707 11.972 21.3691C11.493 22.2483 10.8113 22.9459 9.927 23.462C9.06111 23.9781 8.02941 24.2361 6.8319 24.2361ZM20.0875 24.1788C18.9453 24.1788 17.9504 23.9781 17.103 23.5767C16.2739 23.1753 15.6291 22.5732 15.1685 21.7704C14.7264 20.9677 14.5053 19.9642 14.5053 18.76V12.4525C14.5053 11.2484 14.7264 10.2449 15.1685 9.44214C15.6291 8.63937 16.2739 8.03729 17.103 7.6359C17.9504 7.23452 18.9453 7.03382 20.0875 7.03382C21.2298 7.03382 22.2154 7.23452 23.0445 7.6359C23.8919 8.03729 24.5459 8.63937 25.0065 9.44214C25.4671 10.2449 25.6974 11.2484 25.6974 12.4525V18.76C25.6974 19.9642 25.4671 20.9677 25.0065 21.7704C24.5459 22.5732 23.8919 23.1753 23.0445 23.5767C22.2154 23.9781 21.2298 24.1788 20.0875 24.1788ZM20.1152 21.0823C20.4099 21.0823 20.6402 21.0059 20.806 20.853C20.9718 20.681 21.0824 20.4516 21.1377 20.1649C21.2113 19.8591 21.2482 19.4959 21.2482 19.0754V12.1372C21.2482 11.7167 21.2113 11.3631 21.1377 11.0764C21.0824 10.7705 20.9718 10.5412 20.806 10.3883C20.6402 10.2162 20.4099 10.1302 20.1152 10.1302C19.8204 10.1302 19.5901 10.2162 19.4243 10.3883C19.2585 10.5412 19.1387 10.7705 19.065 11.0764C18.9914 11.3631 18.9545 11.7167 18.9545 12.1372V19.0754C18.9545 19.4959 18.9914 19.8591 19.065 20.1649C19.1387 20.4516 19.2585 20.681 19.4243 20.853C19.5901 21.0059 19.8204 21.0823 20.1152 21.0823ZM31.0142 24.1788C30.3694 24.1788 29.8167 24.0163 29.3562 23.6914C28.914 23.3473 28.5824 22.879 28.3613 22.2865C28.1402 21.694 28.0297 21.0346 28.0297 20.3082V7.32053H32.5342V19.7635C32.5342 20.1649 32.5986 20.4803 32.7276 20.7096C32.875 20.9199 33.1237 21.025 33.4737 21.025C33.6764 21.025 33.8883 20.9772 34.1093 20.8817C34.3304 20.767 34.5607 20.6427 34.8002 20.5089V7.32053H39.277V23.8921H34.8002V22.3725C34.2291 22.9268 33.6211 23.3664 32.9763 23.6914C32.3499 24.0163 31.6959 24.1788 31.0142 24.1788Z" fill="#3FBF72"/>
<path d="M48.7809 24.2361C47.0859 24.2361 45.741 23.9207 44.7462 23.29C43.7698 22.6401 43.0789 21.7418 42.6736 20.5949C42.2683 19.429 42.0656 18.0624 42.0656 16.4951V8.1233C42.0656 6.51776 42.2683 5.14157 42.6736 3.99476C43.0789 2.82882 43.7698 1.93048 44.7462 1.29973C45.741 0.668981 47.0859 0.353607 48.7809 0.353607C50.4389 0.353607 51.7286 0.640312 52.6497 1.21372C53.5893 1.76802 54.2525 2.55168 54.6394 3.5647C55.0263 4.57772 55.2198 5.74365 55.2198 7.06249V9.06943H50.3837V6.74712C50.3837 6.28839 50.356 5.84878 50.3008 5.42828C50.2639 5.00778 50.135 4.66373 49.9139 4.39614C49.6928 4.10944 49.3151 3.96609 48.7809 3.96609C48.265 3.96609 47.8781 4.10944 47.6202 4.39614C47.3807 4.68285 47.2241 5.04601 47.1504 5.48562C47.0951 5.90612 47.0675 6.35529 47.0675 6.83313V17.7566C47.0675 18.2726 47.1044 18.7505 47.178 19.1901C47.2702 19.6106 47.436 19.9546 47.6755 20.2222C47.9334 20.4707 48.3019 20.5949 48.7809 20.5949C49.2967 20.5949 49.6652 20.4612 49.8862 20.1936C50.1073 19.9069 50.2455 19.5437 50.3008 19.1041C50.356 18.6645 50.3837 18.2153 50.3837 17.7566V15.3196H55.2198V17.3265C55.2198 18.6454 55.0263 19.8304 54.6394 20.8817C54.271 21.9138 53.6169 22.7357 52.6774 23.3473C51.7562 23.9398 50.4574 24.2361 48.7809 24.2361ZM62.943 24.1788C61.8007 24.1788 60.8059 23.9781 59.9584 23.5767C59.1294 23.1753 58.4846 22.5732 58.024 21.7704C57.5818 20.9677 57.3608 19.9642 57.3608 18.76V12.4525C57.3608 11.2484 57.5818 10.2449 58.024 9.44214C58.4846 8.63937 59.1294 8.03729 59.9584 7.6359C60.8059 7.23452 61.8007 7.03382 62.943 7.03382C64.0852 7.03382 65.0709 7.23452 65.8999 7.6359C66.7474 8.03729 67.4014 8.63937 67.862 9.44214C68.3225 10.2449 68.5528 11.2484 68.5528 12.4525V18.76C68.5528 19.9642 68.3225 20.9677 67.862 21.7704C67.4014 22.5732 66.7474 23.1753 65.8999 23.5767C65.0709 23.9781 64.0852 24.1788 62.943 24.1788ZM62.9706 21.0823C63.2654 21.0823 63.4957 21.0059 63.6615 20.853C63.8273 20.681 63.9378 20.4516 63.9931 20.1649C64.0668 19.8591 64.1036 19.4959 64.1036 19.0754V12.1372C64.1036 11.7167 64.0668 11.3631 63.9931 11.0764C63.9378 10.7705 63.8273 10.5412 63.6615 10.3883C63.4957 10.2162 63.2654 10.1302 62.9706 10.1302C62.6759 10.1302 62.4456 10.2162 62.2798 10.3883C62.1139 10.5412 61.9942 10.7705 61.9205 11.0764C61.8468 11.3631 61.81 11.7167 61.81 12.1372V19.0754C61.81 19.4959 61.8468 19.8591 61.9205 20.1649C61.9942 20.4516 62.1139 20.681 62.2798 20.853C62.4456 21.0059 62.6759 21.0823 62.9706 21.0823ZM74.5054 24.1788C73.3263 24.1788 72.4143 23.7487 71.7695 22.8886C71.1247 22.0285 70.8023 20.7574 70.8023 19.0754V12.2232C70.8023 11.191 70.9405 10.2927 71.2168 9.52815C71.4932 8.74449 71.9077 8.13286 72.4604 7.69324C73.0131 7.25363 73.6947 7.03382 74.5054 7.03382C75.0949 7.03382 75.6568 7.15806 76.1911 7.40654C76.7254 7.6359 77.2138 7.95128 77.656 8.35266V0.668981H82.1604V23.8921H77.656V22.6019C77.1585 23.0988 76.6425 23.4907 76.1082 23.7774C75.5739 24.045 75.0396 24.1788 74.5054 24.1788ZM76.4674 21.197C76.6148 21.197 76.7901 21.1588 76.9927 21.0823C77.2138 21.0059 77.4349 20.9008 77.656 20.767V10.3023C77.4717 10.2067 77.2783 10.1207 77.0756 10.0442C76.873 9.96777 76.6793 9.92954 76.4951 9.92954C76.0898 9.92954 75.795 10.1111 75.6108 10.4743C75.4265 10.8183 75.3344 11.2388 75.3344 11.7358V19.3621C75.3344 19.7062 75.3713 20.0215 75.445 20.3082C75.5186 20.5758 75.6384 20.7956 75.8042 20.9677C75.97 21.1206 76.1911 21.197 76.4674 21.197ZM90.1722 24.1788C89.0115 24.1788 88.0167 23.9685 87.1877 23.548C86.3586 23.1084 85.723 22.4776 85.2809 21.6558C84.8387 20.8148 84.6176 19.8113 84.6176 18.6454V12.5672C84.6176 11.3822 84.8387 10.3787 85.2809 9.55682C85.723 8.73494 86.3586 8.11374 87.1877 7.69324C88.0351 7.25363 89.03 7.03382 90.1722 7.03382C91.3513 7.03382 92.3277 7.24407 93.1015 7.66457C93.8937 8.08507 94.4832 8.70627 94.8701 9.52815C95.2754 10.35 95.4781 11.3631 95.4781 12.5672V15.893H89.0668V19.0754C89.0668 19.4959 89.1129 19.84 89.205 20.1076C89.2971 20.3751 89.4261 20.5663 89.5919 20.681C89.7577 20.7956 89.9511 20.853 90.1722 20.853C90.3933 20.853 90.5867 20.8052 90.7525 20.7096C90.9368 20.5949 91.0749 20.4229 91.1671 20.1936C91.2776 19.9642 91.3329 19.6488 91.3329 19.2474V17.4985H95.4781V19.1041C95.4781 20.7861 95.0083 22.0571 94.0687 22.9173C93.1291 23.7583 91.8303 24.1788 90.1722 24.1788ZM89.0668 13.714H91.3329V12.0512C91.3329 11.6115 91.2776 11.2675 91.1671 11.019C91.0749 10.7705 90.9368 10.5985 90.7525 10.5029C90.5867 10.4074 90.3841 10.3596 90.1446 10.3596C89.9235 10.3596 89.7301 10.4169 89.5642 10.5316C89.4169 10.6463 89.2971 10.847 89.205 11.1337C89.1129 11.4013 89.0668 11.7931 89.0668 12.3092V13.714Z" fill="#222831"/>
</g>
<defs>
<clipPath id="clip0_118_6428">
<rect width="95.954" height="24.6884" fill="white"/>
</clipPath>
</defs>
</svg>
