<svg width="456" height="168" viewBox="0 0 456 168" fill="none" xmlns="http://www.w3.org/2000/svg">
<line y1="-5.5" x2="210.39" y2="-5.5" transform="matrix(0.650717 0.759321 -0.801102 0.598528 0 7.98132)" stroke="black" stroke-width="11"/>
<path d="M138.416 162.215L454.698 158.817" stroke="black" stroke-width="11"/>
<path d="M451.149 159.327V0.834553" stroke="black" stroke-width="8"/>
<line y1="-5" x2="445.748" y2="-5" transform="matrix(-0.999996 0.0028153 -0.00327818 -0.999995 452.05 0)" stroke="black" stroke-width="10"/>
<path d="M127.456 75.5933V93.7533H122.208V75.5933H115.984V71.5773H133.936L133.392 75.5933H127.456ZM144.051 76.2013C145.801 76.2013 147.289 76.5746 148.515 77.3213C149.742 78.068 150.681 79.1186 151.331 80.4733C151.982 81.8173 152.307 83.396 152.307 85.2093C152.307 87.0973 151.977 88.724 151.315 90.0893C150.665 91.444 149.726 92.484 148.499 93.2093C147.273 93.9346 145.79 94.2973 144.051 94.2973C142.323 94.2973 140.841 93.94 139.603 93.2253C138.377 92.5106 137.433 91.476 136.771 90.1213C136.121 88.7666 135.795 87.14 135.795 85.2413C135.795 83.4386 136.121 81.86 136.771 80.5053C137.433 79.1506 138.377 78.0946 139.603 77.3373C140.841 76.58 142.323 76.2013 144.051 76.2013ZM144.051 79.9293C143.017 79.9293 142.249 80.356 141.747 81.2093C141.257 82.052 141.011 83.396 141.011 85.2413C141.011 87.1186 141.257 88.4786 141.747 89.3213C142.249 90.164 143.017 90.5853 144.051 90.5853C145.086 90.5853 145.849 90.164 146.339 89.3213C146.841 88.4786 147.091 87.108 147.091 85.2093C147.091 83.3746 146.841 82.036 146.339 81.1933C145.849 80.3506 145.086 79.9293 144.051 79.9293ZM185.69 87.0493C185.69 86.2706 185.536 85.6573 185.226 85.2093C184.928 84.7506 184.501 84.4253 183.946 84.2333C183.402 84.0413 182.762 83.9453 182.026 83.9453H179.866V89.9293H181.802C182.314 89.9293 182.8 89.892 183.258 89.8173C183.728 89.7426 184.144 89.604 184.506 89.4013C184.88 89.1986 185.168 88.9106 185.37 88.5373C185.584 88.1533 185.69 87.6573 185.69 87.0493ZM184.858 77.7693C184.858 76.8946 184.581 76.2653 184.026 75.8813C183.482 75.4866 182.634 75.2893 181.482 75.2893H179.866V80.4253H181.642C182.773 80.4253 183.589 80.2173 184.09 79.8013C184.602 79.3853 184.858 78.708 184.858 77.7693ZM191.098 87.2573C191.098 88.5373 190.853 89.5986 190.362 90.4413C189.872 91.284 189.2 91.9453 188.346 92.4253C187.493 92.9053 186.517 93.2466 185.418 93.4493C184.33 93.652 183.184 93.7533 181.978 93.7533H174.618V71.5773H181.642C182.784 71.5773 183.861 71.6733 184.874 71.8653C185.898 72.0466 186.805 72.356 187.594 72.7933C188.384 73.22 189.002 73.8013 189.45 74.5373C189.909 75.2626 190.138 76.164 190.138 77.2413C190.138 78.1266 189.952 78.8946 189.578 79.5453C189.205 80.1853 188.709 80.7133 188.09 81.1293C187.472 81.5346 186.8 81.828 186.074 82.0093C186.864 82.1373 187.642 82.388 188.41 82.7613C189.189 83.124 189.829 83.668 190.33 84.3933C190.842 85.1186 191.098 86.0733 191.098 87.2573ZM198.638 86.7293C198.755 87.6573 198.995 88.4093 199.358 88.9853C199.731 89.5506 200.206 89.9666 200.782 90.2333C201.358 90.4893 202.003 90.6173 202.718 90.6173C203.497 90.6173 204.249 90.4893 204.974 90.2333C205.699 89.9773 206.398 89.636 207.07 89.2093L209.102 91.9613C208.302 92.644 207.331 93.204 206.19 93.6413C205.059 94.0786 203.769 94.2973 202.318 94.2973C200.377 94.2973 198.75 93.9133 197.438 93.1453C196.126 92.3666 195.139 91.3 194.478 89.9453C193.817 88.5906 193.486 87.0333 193.486 85.2733C193.486 83.5986 193.806 82.0786 194.446 80.7133C195.086 79.3373 196.019 78.244 197.246 77.4333C198.483 76.612 199.993 76.2013 201.774 76.2013C203.395 76.2013 204.798 76.548 205.982 77.2413C207.177 77.9346 208.099 78.932 208.75 80.2333C209.411 81.5346 209.742 83.0973 209.742 84.9213C209.742 85.2093 209.731 85.5186 209.71 85.8493C209.699 86.18 209.678 86.4733 209.646 86.7293H198.638ZM201.774 79.5933C200.867 79.5933 200.137 79.9186 199.582 80.5693C199.027 81.22 198.691 82.26 198.574 83.6893H204.814C204.803 82.452 204.563 81.46 204.094 80.7133C203.625 79.9666 202.851 79.5933 201.774 79.5933ZM415.364 71.5773L414.724 85.5933H410.644L409.988 71.5773H415.364ZM412.676 88.5053C413.487 88.5053 414.17 88.7933 414.724 89.3693C415.29 89.9346 415.572 90.612 415.572 91.4013C415.572 92.1906 415.29 92.8733 414.724 93.4493C414.17 94.0146 413.487 94.2973 412.676 94.2973C411.887 94.2973 411.204 94.0146 410.628 93.4493C410.063 92.8733 409.78 92.1906 409.78 91.4013C409.78 90.612 410.063 89.9346 410.628 89.3693C411.204 88.7933 411.887 88.5053 412.676 88.5053Z" fill="black"/>
<path d="M241.845 71.0173C243.434 71.0173 244.784 71.2306 245.893 71.6573C247.013 72.0733 248.037 72.6653 248.965 73.4333L246.389 76.5373C245.781 76.036 245.109 75.6413 244.373 75.3533C243.637 75.0546 242.837 74.9053 241.973 74.9053C241.045 74.9053 240.197 75.172 239.429 75.7053C238.661 76.228 238.048 77.06 237.589 78.2013C237.13 79.332 236.901 80.804 236.901 82.6173C236.901 84.3986 237.12 85.8546 237.557 86.9853C238.005 88.1053 238.618 88.932 239.397 89.4653C240.176 89.988 241.066 90.2493 242.069 90.2493C243.178 90.2493 244.101 90.0413 244.837 89.6253C245.573 89.2093 246.25 88.756 246.869 88.2653L249.253 91.3053C248.421 92.1266 247.397 92.8306 246.181 93.4173C244.965 94.004 243.498 94.2973 241.781 94.2973C239.776 94.2973 237.994 93.8546 236.437 92.9693C234.89 92.0733 233.674 90.7613 232.789 89.0333C231.914 87.2946 231.477 85.156 231.477 82.6173C231.477 80.1426 231.93 78.0413 232.837 76.3133C233.754 74.5853 234.997 73.2733 236.565 72.3773C238.133 71.4706 239.893 71.0173 241.845 71.0173ZM259.176 76.2013C260.926 76.2013 262.414 76.5746 263.64 77.3213C264.867 78.068 265.806 79.1186 266.456 80.4733C267.107 81.8173 267.432 83.396 267.432 85.2093C267.432 87.0973 267.102 88.724 266.44 90.0893C265.79 91.444 264.851 92.484 263.624 93.2093C262.398 93.9346 260.915 94.2973 259.176 94.2973C257.448 94.2973 255.966 93.94 254.728 93.2253C253.502 92.5106 252.558 91.476 251.896 90.1213C251.246 88.7666 250.92 87.14 250.92 85.2413C250.92 83.4386 251.246 81.86 251.896 80.5053C252.558 79.1506 253.502 78.0946 254.728 77.3373C255.966 76.58 257.448 76.2013 259.176 76.2013ZM259.176 79.9293C258.142 79.9293 257.374 80.356 256.872 81.2093C256.382 82.052 256.136 83.396 256.136 85.2413C256.136 87.1186 256.382 88.4786 256.872 89.3213C257.374 90.164 258.142 90.5853 259.176 90.5853C260.211 90.5853 260.974 90.164 261.464 89.3213C261.966 88.4786 262.216 87.108 262.216 85.2093C262.216 83.3746 261.966 82.036 261.464 81.1933C260.974 80.3506 260.211 79.9293 259.176 79.9293ZM271.004 93.7533V76.7613H275.42L275.772 78.7293C276.529 77.876 277.329 77.2413 278.172 76.8253C279.015 76.4093 279.975 76.2013 281.052 76.2013C282.503 76.2013 283.644 76.644 284.476 77.5293C285.308 78.4146 285.724 79.6626 285.724 81.2733V93.7533H280.668V82.7293C280.668 82.036 280.62 81.4866 280.524 81.0813C280.428 80.6653 280.257 80.372 280.012 80.2013C279.777 80.02 279.452 79.9293 279.036 79.9293C278.684 79.9293 278.337 80.0093 277.996 80.1693C277.665 80.3186 277.34 80.5373 277.02 80.8253C276.7 81.1133 276.38 81.46 276.06 81.8653V93.7533H271.004ZM305.487 92.7613C304.826 93.188 304.026 93.5506 303.087 93.8493C302.149 94.148 301.093 94.2973 299.919 94.2973C297.701 94.2973 296.053 93.732 294.975 92.6013C293.898 91.46 293.359 89.9133 293.359 87.9613V80.2493H289.791V76.7613H293.359V73.0813L298.415 72.4733V76.7613H303.887L303.391 80.2493H298.415V87.9613C298.415 88.804 298.607 89.4066 298.991 89.7693C299.375 90.132 299.989 90.3133 300.831 90.3133C301.429 90.3133 301.973 90.244 302.463 90.1053C302.965 89.956 303.413 89.7693 303.807 89.5453L305.487 92.7613ZM319.763 76.7613V90.2973H324.083V93.7533H309.891V90.2973H314.707V80.2173H310.051V76.7613H319.763ZM316.707 67.8653C317.582 67.8653 318.296 68.1373 318.851 68.6813C319.406 69.2253 319.683 69.9026 319.683 70.7133C319.683 71.524 319.406 72.2066 318.851 72.7613C318.296 73.3053 317.582 73.5773 316.707 73.5773C315.822 73.5773 315.096 73.3053 314.531 72.7613C313.976 72.2066 313.699 71.524 313.699 70.7133C313.699 69.9026 313.976 69.2253 314.531 68.6813C315.096 68.1373 315.822 67.8653 316.707 67.8653ZM328.566 93.7533V76.7613H332.982L333.334 78.7293C334.092 77.876 334.892 77.2413 335.734 76.8253C336.577 76.4093 337.537 76.2013 338.614 76.2013C340.065 76.2013 341.206 76.644 342.038 77.5293C342.87 78.4146 343.286 79.6626 343.286 81.2733V93.7533H338.23V82.7293C338.23 82.036 338.182 81.4866 338.086 81.0813C337.99 80.6653 337.82 80.372 337.574 80.2013C337.34 80.02 337.014 79.9293 336.598 79.9293C336.246 79.9293 335.9 80.0093 335.558 80.1693C335.228 80.3186 334.902 80.5373 334.582 80.8253C334.262 81.1133 333.942 81.46 333.622 81.8653V93.7533H328.566ZM352.81 76.7613V88.3933C352.81 89.2146 352.959 89.78 353.258 90.0893C353.567 90.3986 353.994 90.5533 354.538 90.5533C355.061 90.5533 355.583 90.388 356.106 90.0573C356.629 89.7266 357.066 89.2786 357.418 88.7133V76.7613H362.474V93.7533H358.058L357.834 91.7693C357.258 92.6013 356.501 93.2306 355.562 93.6573C354.623 94.084 353.642 94.2973 352.618 94.2973C350.975 94.2973 349.754 93.8226 348.954 92.8733C348.154 91.9133 347.754 90.628 347.754 89.0173V76.7613H352.81ZM371.325 86.7293C371.443 87.6573 371.683 88.4093 372.045 88.9853C372.419 89.5506 372.893 89.9666 373.469 90.2333C374.045 90.4893 374.691 90.6173 375.405 90.6173C376.184 90.6173 376.936 90.4893 377.661 90.2333C378.387 89.9773 379.085 89.636 379.757 89.2093L381.789 91.9613C380.989 92.644 380.019 93.204 378.877 93.6413C377.747 94.0786 376.456 94.2973 375.005 94.2973C373.064 94.2973 371.437 93.9133 370.125 93.1453C368.813 92.3666 367.827 91.3 367.165 89.9453C366.504 88.5906 366.173 87.0333 366.173 85.2733C366.173 83.5986 366.493 82.0786 367.133 80.7133C367.773 79.3373 368.707 78.244 369.933 77.4333C371.171 76.612 372.68 76.2013 374.461 76.2013C376.083 76.2013 377.485 76.548 378.669 77.2413C379.864 77.9346 380.787 78.932 381.437 80.2333C382.099 81.5346 382.429 83.0973 382.429 84.9213C382.429 85.2093 382.419 85.5186 382.397 85.8493C382.387 86.18 382.365 86.4733 382.333 86.7293H371.325ZM374.461 79.5933C373.555 79.5933 372.824 79.9186 372.269 80.5693C371.715 81.22 371.379 82.26 371.261 83.6893H377.501C377.491 82.452 377.251 81.46 376.781 80.7133C376.312 79.9666 375.539 79.5933 374.461 79.5933ZM395.793 69.4813L400.849 70.0093V93.7533H396.369L396.113 91.8813C395.644 92.5426 395.02 93.1133 394.241 93.5933C393.462 94.0626 392.518 94.2973 391.409 94.2973C390.001 94.2973 388.833 93.9186 387.905 93.1613C386.988 92.404 386.3 91.348 385.841 89.9933C385.393 88.628 385.169 87.0333 385.169 85.2093C385.169 83.46 385.441 81.908 385.985 80.5533C386.529 79.1986 387.308 78.1373 388.321 77.3693C389.334 76.5906 390.54 76.2013 391.937 76.2013C392.694 76.2013 393.398 76.3346 394.049 76.6013C394.7 76.868 395.281 77.2573 395.793 77.7693V69.4813ZM393.297 79.8973C392.422 79.8973 391.718 80.3133 391.185 81.1453C390.652 81.9666 390.385 83.332 390.385 85.2413C390.385 86.6386 390.497 87.7266 390.721 88.5053C390.945 89.2733 391.254 89.812 391.649 90.1213C392.044 90.4306 392.497 90.5853 393.009 90.5853C393.574 90.5853 394.086 90.4093 394.545 90.0573C395.014 89.7053 395.43 89.2253 395.793 88.6173V81.2893C395.441 80.852 395.068 80.5106 394.673 80.2653C394.278 80.02 393.82 79.8973 393.297 79.8973Z" fill="#4AC279"/>
</svg>
