<svg width="1234" height="274" viewBox="0 0 1234 274" fill="none" xmlns="http://www.w3.org/2000/svg">
<g filter="url(#filter0_d_16_1139)">
<rect x="4" width="1226" height="266" rx="12" fill="#252424"/>
<rect x="4.5" y="0.5" width="1225" height="265" rx="11.5" stroke="#4AC279"/>
</g>
<g clip-path="url(#clip0_16_1139)">
<path d="M130.991 100.063C123.809 100.063 119.322 103.396 117.525 110.063C120.217 106.73 123.36 105.481 126.95 106.314C129 106.788 130.465 108.168 132.087 109.697C134.727 112.184 137.783 115.064 144.457 115.064C151.638 115.064 156.126 111.731 157.922 105.062C155.23 108.397 152.087 109.647 148.497 108.813C146.447 108.339 144.984 106.959 143.36 105.43C140.722 102.943 137.667 100.063 130.991 100.063ZM117.525 115.064C110.344 115.064 105.856 118.397 104.059 125.066C106.752 121.731 109.894 120.482 113.485 121.315C115.534 121.79 116.999 123.169 118.621 124.698C121.261 127.186 124.317 130.065 130.991 130.065C138.172 130.065 142.66 126.733 144.457 120.065C141.764 123.398 138.621 124.648 135.031 123.814C132.982 123.34 131.519 121.96 129.894 120.431C127.256 117.944 124.201 115.064 117.525 115.064Z" fill="#41B883"/>
</g>
<path fill-rule="evenodd" clip-rule="evenodd" d="M414.707 100.059C416.372 100.059 418.037 100.084 419.7 100.041C420.141 100.029 420.933 100.396 420.897 99.4746C420.87 98.7248 420.178 98.9961 419.759 98.9894C417.88 98.9596 415.996 98.8878 414.125 99.0059C412.793 99.0892 412.401 98.5813 412.568 97.3544C412.626 96.9312 412.57 96.4928 412.579 96.0616C412.638 93.1898 413.328 92.2124 416.1 91.5041C419.154 90.7244 422.279 90.7503 425.325 91.4221C428.062 92.0262 429.199 94.1664 429.061 96.1462C428.893 98.5622 429.023 100.999 429.021 103.427C429.017 106.48 427.447 108.1 424.384 108.143C421.861 108.177 419.335 108.205 416.814 108.135C413.809 108.05 411.605 110.558 411.59 113.401C411.59 113.616 411.626 113.839 411.584 114.047C411.368 115.091 412.232 116.778 411.131 117.088C409.455 117.561 407.493 117.561 406.015 116.058C405.514 115.551 405.092 114.982 404.869 114.324C403.681 110.82 403.494 107.272 404.612 103.713C405.309 101.492 407.205 100.11 409.553 100.071C411.27 100.042 412.988 100.065 414.706 100.065L414.707 100.059ZM417.767 95.1046C417.695 94.2568 417.241 93.638 416.306 93.6122C415.282 93.5855 414.753 94.2074 414.752 95.2196C414.751 96.1578 415.259 96.7588 416.189 96.7859C417.21 96.8158 417.704 96.1801 417.767 95.1046Z" fill="#41B883"/>
<path fill-rule="evenodd" clip-rule="evenodd" d="M427.559 117.235C425.68 117.235 423.799 117.219 421.919 117.248C421.496 117.254 420.786 116.985 420.763 117.712C420.739 118.537 421.501 118.322 421.985 118.327C423.865 118.351 425.746 118.371 427.626 118.318C428.591 118.292 428.985 118.478 429.058 119.622C429.384 124.801 427.148 125.248 423.022 126.191C420.656 126.731 418.118 126.444 415.785 125.394C413.855 124.527 412.671 123.276 412.82 120.936C412.968 118.625 412.993 116.285 412.816 113.977C412.603 111.191 414.328 109.142 417.682 109.142C419.938 109.141 422.21 108.968 424.447 109.175C427.646 109.47 430.154 106.684 430.264 103.444C430.268 103.337 430.241 103.221 430.268 103.121C430.55 102.126 429.547 100.646 430.889 100.143C432.916 99.3832 435.203 100.182 436.238 101.727C437.544 103.674 437.721 105.964 437.932 108.201C438.16 110.611 437.487 112.881 436.479 115.055C435.795 116.53 434.644 117.243 433.04 117.245C431.214 117.246 429.387 117.245 427.56 117.245C427.559 117.241 427.559 117.238 427.559 117.235ZM427.07 122.046C426.869 121.126 426.456 120.498 425.392 120.472C424.285 120.445 424 121.277 424.006 122.019C424.012 122.809 424.231 123.78 425.429 123.689C426.425 123.612 426.91 122.993 427.07 122.046Z" fill="#BBE8CD"/>
<path fill-rule="evenodd" clip-rule="evenodd" d="M397.99 140.97C397.99 142.12 398.042 143.198 397.966 144.265C397.933 144.726 398.439 145.593 397.477 145.592C396.629 145.592 396.412 144.914 396.439 144.095C396.491 142.531 396.454 140.964 396.454 139.399V135.836C396.454 133.689 397.027 132.962 399.071 132.517C400.971 132.102 402.464 132.745 403.232 134.416C404 136.088 404.059 137.811 403.291 139.512C402.534 141.188 401.139 141.813 399.352 141.317C398.945 141.205 398.534 141.109 397.99 140.97ZM397.99 136.761C397.99 137.353 398.07 137.958 397.974 138.534C397.751 139.867 398.598 140.195 399.597 140.432C400.584 140.666 401.261 140.244 401.657 139.37C402.322 137.905 402.434 136.393 401.929 134.843C401.48 133.466 400.444 133.304 399.234 133.475C398.04 133.646 397.878 134.462 397.982 135.471C398.027 135.897 397.99 136.331 397.99 136.761ZM410.842 140.899C410.024 141.113 409.313 141.341 408.586 141.478C406.995 141.777 405.816 140.899 405.402 139.298C404.888 137.316 405.323 135.342 405.336 133.365C405.342 132.464 406.172 132.815 406.746 132.332C406.746 134.448 406.754 136.275 406.743 138.1C406.738 139.017 406.974 139.771 407.836 140.254C408.789 140.788 409.57 140.28 410.399 139.937C410.993 139.691 410.919 139.19 410.92 138.714C410.924 136.989 410.919 135.265 410.925 133.54C410.926 133.115 410.882 132.595 411.507 132.616C412.064 132.634 412.307 132.967 412.298 133.577C412.257 136.432 412.338 139.29 412.222 142.14C412.135 144.296 410.622 145.612 408.445 145.709C408.119 145.723 407.778 145.753 407.656 145.347C407.47 144.721 407.974 144.839 408.305 144.733C410.7 143.967 411.013 143.51 410.842 140.899ZM420.961 133.492C421.594 133.192 421.958 132.916 422.359 132.842C424.605 132.424 426.327 132.583 426.322 135.624C426.319 137.19 426.323 138.756 426.319 140.322C426.318 140.76 426.346 141.187 425.696 141.225C425.01 141.266 424.859 140.872 424.862 140.331C424.87 138.822 424.911 137.313 424.91 135.805C424.909 134.633 424.671 133.596 423.188 133.6C421.887 133.602 420.966 134.578 420.959 135.924C420.951 137.381 420.952 138.839 420.96 140.296C420.962 140.814 420.973 141.268 420.228 141.225C419.557 141.185 419.64 140.73 419.64 140.312C419.635 136.481 419.654 132.645 419.621 128.811C419.616 128.14 419.879 127.723 420.473 127.694C421.31 127.655 420.926 128.391 420.939 128.76C420.993 130.262 420.961 131.767 420.961 133.492ZM428.05 136.928C427.965 133.936 429.377 132.339 431.934 132.432C433.217 132.479 434.179 133.051 434.8 134.165C435.898 136.135 435.749 138.106 434.562 139.95C433.746 141.217 432.491 141.815 430.962 141.489C429.453 141.168 428.272 139.803 428.059 138.213C428.002 137.792 428.05 137.356 428.05 136.928ZM433.955 136.998C433.888 136.475 433.9 135.747 433.683 135.098C433.388 134.207 432.849 133.49 431.749 133.441C430.639 133.393 430.085 134.044 429.715 134.946C429.134 136.363 429.171 137.785 429.801 139.176C430.205 140.072 430.83 140.727 431.911 140.546C432.977 140.367 433.605 139.665 433.823 138.624C433.922 138.152 433.906 137.658 433.955 136.998ZM437.062 137.396C437.062 136.856 437.052 136.317 437.064 135.78C437.088 134.744 436.76 133.597 438.15 133.067C439.741 132.463 441.319 132.011 442.921 132.946C443.52 133.296 443.741 133.932 443.747 134.607C443.764 136.492 443.739 138.378 443.764 140.263C443.773 140.921 443.601 141.249 442.866 141.232C442.06 141.212 442.229 140.66 442.235 140.219C442.254 138.713 442.358 137.209 442.33 135.705C442.292 133.812 441.258 133.04 439.497 133.504C438.766 133.698 438.31 134.054 438.346 134.963C438.417 136.737 438.362 138.517 438.369 140.294C438.371 140.809 438.378 141.265 437.639 141.222C436.961 141.183 437.072 140.712 437.067 140.304C437.054 139.334 437.063 138.364 437.062 137.396ZM417.746 133.198C417.635 133.33 417.542 133.536 417.444 133.538C415.687 133.563 416.175 134.881 416.13 135.859C416.087 136.77 416.13 137.685 416.117 138.599C416.103 139.507 416.182 140.351 417.281 140.592C417.597 140.66 417.74 140.843 417.675 141.159C417.602 141.509 417.325 141.495 417.051 141.491C415.787 141.469 414.85 140.571 414.813 139.257C414.775 137.914 414.827 136.569 414.795 135.227C414.779 134.59 415.108 133.777 414.086 133.524C413.974 133.497 413.934 133.178 413.861 132.996C415.225 132.566 414.659 131.384 414.846 130.487C414.935 130.062 415.336 129.946 415.715 129.91C416.098 129.874 416.102 130.185 416.114 130.446C416.165 131.48 415.632 132.863 417.526 132.788C417.589 132.785 417.663 133.038 417.746 133.198Z" fill="#41B883"/>
<path fill-rule="evenodd" clip-rule="evenodd" d="M430.679 164.732C429.602 161.176 427.876 158.028 425.444 155.32C424.829 154.634 424.145 154.007 423.716 153.154C423.445 152.615 423.187 152.068 422.922 151.525L422.755 151.077L422.708 151.253C422.686 152.139 422.213 152.74 421.625 153.301C420.962 153.932 420.345 154.617 419.709 155.279L417.751 158.011L416.169 161.1L415.11 164.133L415.079 164.18C414.496 166.211 414.209 168.299 414.068 170.407C414.015 171.2 414.076 172.003 414.118 172.8C414.178 173.938 414.364 175.057 414.643 176.16C415.659 180.163 417.72 183.483 420.538 186.304C421.061 186.829 421.627 187.305 422.173 187.804L422.415 188.685L422.64 190.051L422.747 191.478C422.746 191.768 422.735 192.059 422.751 192.347C422.755 192.421 422.846 192.49 422.898 192.561L423.354 192.731L423.829 192.927L423.747 191.659L423.744 190.41L423.908 188.507L424.027 188.093L424.368 187.452C424.788 187.093 425.239 186.767 425.622 186.367C426.316 185.645 427.007 184.912 427.628 184.12C428.435 183.094 429.124 181.97 429.681 180.771C430.053 179.967 430.403 179.147 430.693 178.306C430.949 177.566 431.107 176.787 431.308 176.026L431.361 175.861C431.776 173.805 431.846 171.727 431.694 169.637C431.571 167.952 431.198 166.326 430.679 164.732ZM422.454 186.786C422.518 186.447 422.597 186.111 422.654 185.771C422.597 186.111 422.518 186.447 422.454 186.786ZM440.462 194.883C440.12 194.188 439.619 193.661 438.957 193.315C438.403 193.025 437.806 192.898 437.193 192.88C436.733 192.866 436.272 192.891 435.812 192.897C435.403 192.902 434.994 192.91 434.585 192.906C434.104 192.9 433.624 192.885 433.143 192.871C433.063 192.868 433.007 192.885 432.97 192.971C432.911 193.105 432.842 193.234 432.771 193.38L432.851 193.407C433.089 193.452 433.329 193.49 433.566 193.541C433.871 193.605 434.009 193.791 434.023 194.064C434.043 194.453 434.052 194.842 434.05 195.232C434.044 196.773 434.034 198.315 434.023 199.856C434.022 199.957 434.021 200.064 433.994 200.159C433.964 200.27 433.932 200.413 433.854 200.467C433.714 200.562 433.557 200.626 433.393 200.653C433.161 200.694 433.122 200.705 433.05 200.947L433.019 201.068C432.984 201.2 433.003 201.226 433.132 201.227C433.877 201.236 434.621 201.253 435.366 201.25C436.045 201.248 436.724 201.292 437.4 201.156C438.04 201.029 438.637 200.805 439.181 200.426C439.888 199.935 440.396 199.277 440.665 198.42C440.881 197.727 440.93 197.021 440.856 196.296C440.81 195.803 440.676 195.323 440.462 194.883ZM439.157 199.12C438.758 199.907 438.164 200.433 437.315 200.571C436.783 200.658 436.25 200.633 435.743 200.419C435.422 200.284 435.303 199.99 435.293 199.642C435.284 199.301 435.279 198.96 435.279 198.619C435.277 197.42 435.277 196.22 435.279 195.022C435.28 194.644 435.286 194.265 435.292 193.887C435.296 193.621 435.348 193.532 435.593 193.511C436.666 193.415 437.689 193.538 438.539 194.34C439.065 194.835 439.364 195.467 439.489 196.193C439.54 196.496 439.556 196.806 439.588 197.113C439.562 197.814 439.473 198.496 439.157 199.12ZM448.162 197.822C447.95 197.275 447.55 196.932 447.046 196.713C446.874 196.638 446.697 196.576 446.511 196.503L446.576 196.46C446.776 196.323 447 196.213 447.172 196.045C447.592 195.637 447.767 195.123 447.685 194.513C447.607 193.933 447.334 193.507 446.847 193.23C446.405 192.98 445.928 192.889 445.434 192.889C444.581 192.89 443.726 192.904 442.872 192.906C442.578 192.906 442.284 192.883 441.99 192.878C441.933 192.878 441.848 192.893 441.823 192.933C441.756 193.043 441.711 193.169 441.664 193.291C441.636 193.362 441.663 193.401 441.74 193.412C441.945 193.442 442.15 193.479 442.356 193.511C442.64 193.557 442.778 193.714 442.795 194.018L442.799 194.198C442.799 195.143 442.802 196.088 442.798 197.034C442.793 197.978 442.785 198.922 442.773 199.866C442.772 199.985 442.757 200.104 442.741 200.222C442.716 200.4 442.626 200.523 442.455 200.561L441.968 200.663C441.911 200.675 441.828 200.674 441.804 200.711C441.715 200.853 441.643 201.008 441.653 201.195L441.703 201.209L443.337 201.252L443.664 201.25C444.23 201.243 444.796 201.255 445.36 201.225C445.972 201.192 446.546 201 447.076 200.668C447.641 200.315 448.076 199.85 448.231 199.15C448.33 198.703 448.33 198.253 448.162 197.822ZM444.011 193.794C444.014 193.604 444.093 193.522 444.271 193.517C444.708 193.504 445.143 193.507 445.565 193.667C446.112 193.874 446.448 194.374 446.442 194.985C446.439 195.22 446.442 195.452 446.361 195.678C446.2 196.122 445.891 196.356 445.454 196.402C445.226 196.426 444.996 196.429 444.793 196.44L444.114 196.409C444.024 196.405 443.985 196.363 443.985 196.265L444.011 193.794ZM446.824 199.713C446.606 200.218 446.207 200.484 445.708 200.576C445.311 200.648 444.903 200.629 444.513 200.52C444.221 200.441 444.102 200.192 444.044 199.916C444.005 199.731 444.011 199.512 444.008 199.32C444.003 199.023 444.007 198.408 444.007 198.408H444.001C444.001 197.969 444.002 197.589 444 197.168C443.999 197.078 444.014 197.032 444.118 197.036C444.49 197.048 444.862 197.054 445.233 197.07C445.565 197.083 445.876 197.188 446.168 197.355C446.613 197.609 446.88 197.999 446.954 198.534C447.01 198.94 446.986 199.339 446.824 199.713ZM406.079 200.186L406.087 197.801C406.088 197.443 406.045 197.091 405.935 196.75C405.629 195.813 404.787 195.386 403.91 195.723C403.511 195.876 403.154 196.108 402.812 196.371C402.613 196.524 402.613 196.524 402.47 196.306C402.062 195.686 401.481 195.474 400.804 195.703C400.366 195.85 399.984 196.103 399.621 196.396C399.587 196.423 399.519 196.453 399.499 196.437C399.465 196.41 399.441 196.346 399.442 196.299L399.467 195.875C399.469 195.786 399.453 195.696 399.445 195.603C399.281 195.663 399.15 195.723 399.014 195.758C398.591 195.868 398.165 195.969 397.74 196.072C397.637 196.097 397.528 196.13 397.518 196.255C397.508 196.378 397.62 196.399 397.707 196.436C397.889 196.514 398.071 196.597 398.251 196.681C398.403 196.752 398.46 196.881 398.459 197.053C398.456 197.793 398.461 198.531 398.456 199.27C398.455 199.57 398.442 199.87 398.429 200.171C398.417 200.437 398.332 200.549 398.089 200.616C397.96 200.652 397.829 200.676 397.699 200.708C397.67 200.715 397.622 200.735 397.621 200.75C397.616 200.88 397.609 201.013 397.63 201.14C397.634 201.163 397.764 201.163 397.836 201.172L397.884 201.168C398.385 201.161 398.886 201.152 399.387 201.147C399.653 201.143 399.918 201.146 400.207 201.146L400.238 200.721C400.072 200.689 399.925 200.664 399.779 200.631C399.553 200.578 399.456 200.45 399.45 200.207L399.446 199.86C399.443 198.957 399.44 198.055 399.44 197.153C399.44 197.022 399.491 196.918 399.6 196.839C399.83 196.675 400.073 196.543 400.342 196.47C400.909 196.316 401.401 196.53 401.619 197.042C401.688 197.204 401.743 197.382 401.758 197.557C401.838 198.462 401.803 199.367 401.755 200.272C401.745 200.467 401.658 200.565 401.477 200.613L401.05 200.709C401.016 200.718 400.966 200.693 400.963 200.724C400.954 200.849 400.959 201.04 400.959 201.04H401.061L402.36 201.086C402.715 201.085 403.072 201.13 403.427 201.14C403.491 201.141 403.547 201.151 403.551 201.073C403.555 200.952 403.554 200.831 403.547 200.71L403.479 200.697L403.113 200.61C402.866 200.548 402.781 200.448 402.78 200.183C402.777 199.53 402.786 198.877 402.78 198.225C402.777 197.851 402.764 197.478 402.741 197.106C402.735 197.007 402.749 196.942 402.824 196.886C403.039 196.719 403.282 196.595 403.54 196.52C404.339 196.296 404.994 196.761 405.035 197.636C405.076 198.48 405.059 199.327 405.053 200.173C405.051 200.468 404.959 200.557 404.686 200.636L404.591 200.661C404.312 200.732 404.314 200.732 404.331 201.048C404.336 201.147 404.362 201.172 404.461 201.169C405.031 201.156 405.601 201.152 406.171 201.147C406.404 201.145 406.637 201.147 406.89 201.147L406.942 200.736C406.719 200.674 406.514 200.627 406.316 200.558C406.14 200.495 406.078 200.383 406.079 200.186ZM425.706 196.571C425.941 196.34 425.942 196.035 425.877 195.696C425.691 195.902 425.482 195.998 425.245 196.016C424.926 196.04 424.613 196.01 424.316 195.876C423.514 195.51 422.724 195.536 421.936 195.937C421.273 196.274 420.866 196.799 420.825 197.595C420.799 198.105 420.889 198.588 421.21 198.994C421.402 199.237 421.649 199.395 421.927 199.503C422.047 199.55 422.056 199.611 421.955 199.692C421.881 199.751 421.804 199.807 421.725 199.859C421.557 199.971 421.388 200.081 421.218 200.189C421.119 200.253 421.085 200.335 421.118 200.46C421.213 200.828 421.459 201.04 421.766 201.195L421.878 201.278L421.781 201.382C421.479 201.641 421.166 201.886 420.877 202.161C420.635 202.392 420.557 202.702 420.63 203.043C420.778 203.725 421.204 204.147 421.809 204.341C422.865 204.681 423.858 204.486 424.762 203.821C425.299 203.427 425.684 202.914 425.801 202.208C425.932 201.414 425.516 200.725 424.773 200.583C424.281 200.489 423.778 200.461 423.28 200.401C423.048 200.373 422.812 200.356 422.586 200.299C422.394 200.251 422.298 200.085 422.316 199.923C422.334 199.763 422.494 199.614 422.677 199.599C423.046 199.567 423.407 199.506 423.747 199.341C424.647 198.905 425.065 198.14 424.96 197.11C424.946 196.971 424.917 196.834 424.89 196.673C425.178 196.724 425.472 196.802 425.706 196.571ZM422.975 201.404C423.341 201.415 423.757 201.44 424.16 201.565C424.514 201.674 424.805 201.866 424.891 202.286C424.995 202.793 424.765 203.298 424.303 203.569C423.87 203.822 423.399 203.843 422.922 203.791C422.514 203.746 422.147 203.596 421.852 203.276C421.465 202.855 421.463 202.271 421.851 201.851C422.198 201.476 422.383 201.398 422.975 201.404ZM423.891 198.35C423.678 199.074 423.057 199.174 422.57 198.943C422.156 198.746 421.975 198.358 421.881 197.915C421.844 197.745 421.835 197.568 421.814 197.394C421.822 197.145 421.861 196.905 421.962 196.681C422.273 195.989 423.035 196.03 423.457 196.343C423.638 196.478 423.764 196.66 423.843 196.876C424.019 197.347 424.036 197.868 423.891 198.35ZM420.018 200.659C419.871 200.635 419.725 200.6 419.581 200.555C419.33 200.474 419.3 200.424 419.297 200.142C419.289 199.356 419.284 198.569 419.276 197.784C419.272 197.43 419.232 197.082 419.13 196.744C418.861 195.853 418.039 195.375 417.215 195.638C416.759 195.784 416.367 196.056 416.002 196.374L415.869 196.483L415.87 196.338C415.878 196.17 415.895 196.003 415.894 195.836C415.893 195.749 415.862 195.661 415.846 195.584C415.535 195.684 415.256 195.784 414.972 195.86C414.686 195.937 414.395 195.988 414.106 196.051C413.962 196.081 413.857 196.174 413.859 196.278C413.863 196.426 413.978 196.455 414.079 196.499C414.262 196.578 414.444 196.659 414.625 196.744C414.754 196.805 414.806 196.918 414.805 197.065C414.796 198.087 414.79 199.109 414.776 200.131C414.772 200.453 414.695 200.539 414.396 200.61L414.265 200.637C413.988 200.688 413.98 200.7 414 201.01L414.001 201.061C413.998 201.18 414.047 201.219 414.163 201.218C414.898 201.208 415.634 201.204 416.37 201.207C416.685 201.208 416.719 201.182 416.713 200.838L416.698 200.69C416.518 200.658 416.345 200.635 416.177 200.596C416 200.554 415.937 200.477 415.92 200.287C415.905 200.113 415.9 199.936 415.899 199.76C415.89 198.957 415.884 198.154 415.88 197.351C415.879 197.149 415.914 196.961 416.09 196.831C416.347 196.635 416.651 196.52 416.968 196.497C417.624 196.449 418.123 196.862 418.158 197.556C418.202 198.413 418.189 199.273 418.199 200.131C418.2 200.195 418.189 200.26 418.181 200.323C418.165 200.449 418.108 200.543 417.988 200.575C417.871 200.608 417.752 200.637 417.633 200.656C417.455 200.684 417.451 200.683 417.437 200.874L417.442 201.002C417.463 201.224 417.463 201.218 417.675 201.215C418.387 201.209 419.098 201.205 419.809 201.206C420.107 201.207 420.128 201.192 420.13 200.867L420.129 200.789C420.134 200.706 420.099 200.672 420.018 200.659ZM429.959 195.692C429.213 195.498 428.505 195.642 427.833 196.011C427.18 196.37 426.744 196.924 426.578 197.689C426.41 198.462 426.49 199.216 426.812 199.935C427.021 200.401 427.344 200.761 427.783 200.996C428.81 201.545 430.067 201.296 430.873 200.561C431.509 199.981 431.742 199.21 431.757 198.255C431.748 198.159 431.739 197.975 431.715 197.793C431.58 196.753 430.902 195.937 429.959 195.692ZM430.524 199.708C430.326 200.535 429.652 200.903 428.891 200.618C428.503 200.474 428.213 200.197 428.018 199.823C427.569 198.963 427.483 198.049 427.738 197.111C427.908 196.486 428.393 196.145 428.969 196.188C429.484 196.226 429.88 196.488 430.17 196.933C430.477 197.402 430.595 197.936 430.626 198.497C430.632 198.587 430.627 198.676 430.627 198.767L430.663 198.771C430.618 199.084 430.596 199.403 430.524 199.708ZM411.197 195.678C410.412 195.488 409.676 195.676 408.995 196.099C408.406 196.465 408.026 197.012 407.88 197.726C407.743 198.393 407.799 199.049 408.022 199.688C408.157 200.078 408.363 200.42 408.664 200.687C409.298 201.249 410.04 201.391 410.829 201.235C411.497 201.102 412.083 200.787 412.51 200.198C412.909 199.647 413.061 199.014 413.077 198.329C413.053 198.112 413.048 197.89 413.004 197.679C412.789 196.621 412.206 195.923 411.197 195.678ZM411.837 199.705C411.645 200.528 410.961 200.905 410.205 200.621C409.721 200.438 409.405 200.061 409.205 199.578C408.885 198.802 408.82 197.994 409.027 197.176C409.186 196.55 409.664 196.089 410.396 196.199C410.845 196.267 411.196 196.51 411.457 196.898C411.81 197.42 411.926 198.019 411.942 198.647V198.776L411.972 198.78C411.929 199.089 411.907 199.403 411.837 199.705Z" fill="#41B883"/>
<g clip-path="url(#clip1_16_1139)">
<path d="M332.111 129.877C331.92 129.877 331.732 129.921 331.572 130.003C331.409 130.087 331.26 130.232 331.26 130.417C331.26 130.441 331.242 130.496 331.303 130.592L331.287 130.561L334.563 138.829C334.621 138.984 334.762 139.102 334.92 139.171C335.079 139.239 335.251 139.264 335.42 139.264C335.778 139.264 336.171 139.131 336.291 138.832V138.831L339.564 130.532V130.502C339.564 130.544 339.579 130.52 339.579 130.429C339.579 130.241 339.425 130.102 339.259 130.015C339.093 129.926 338.897 129.878 338.696 129.877C338.446 129.877 338.159 129.995 338.063 130.22L338.061 130.223L335.419 137.082L332.767 130.235C332.728 130.113 332.622 130.01 332.499 129.953C332.376 129.896 332.241 129.877 332.111 129.877ZM358.199 130.303C357.678 130.303 357.239 130.614 357.239 131.003C357.239 131.392 357.671 131.713 358.199 131.713C358.717 131.713 359.129 131.386 359.129 131.003C359.129 130.62 358.71 130.303 358.199 130.303ZM350.52 132.95C348.738 132.95 347.27 134.06 347.27 135.394V136.76C347.27 137.507 347.652 138.148 348.302 138.589C348.951 139.032 349.857 139.276 350.896 139.276C351.663 139.276 352.289 139.142 352.736 138.961C352.96 138.87 353.14 138.768 353.273 138.657C353.405 138.546 353.502 138.425 353.502 138.273C353.502 138.134 353.434 138.013 353.322 137.904C353.211 137.796 353.035 137.696 352.808 137.696C352.645 137.696 352.519 137.75 352.41 137.802C352.301 137.853 352.199 137.911 352.076 137.966C351.83 138.076 351.504 138.184 350.927 138.184C350.285 138.184 349.751 138.041 349.382 137.802C349.014 137.563 348.799 137.232 348.799 136.797V136.544H352.088C352.439 136.544 352.828 136.544 353.166 136.377C353.503 136.209 353.707 135.876 353.707 135.37C353.707 133.967 352.203 132.95 350.52 132.95ZM362.878 132.95C361.931 132.95 361.234 133.189 360.786 133.547C360.339 133.906 360.146 134.373 360.146 134.808C360.146 135.364 360.434 135.762 360.847 136.017C361.261 136.273 361.775 136.401 362.264 136.516C362.753 136.63 363.221 136.732 363.535 136.883C363.849 137.034 364.018 137.197 364.018 137.54C364.018 137.725 363.946 137.872 363.754 137.992C363.561 138.113 363.217 138.207 362.659 138.207C361.998 138.207 361.629 138.081 361.359 137.951C361.225 137.887 361.117 137.819 361.005 137.759C360.894 137.699 360.767 137.635 360.59 137.635C360.377 137.635 360.219 137.737 360.124 137.843C360.027 137.946 359.974 138.071 359.973 138.199C359.973 138.36 360.074 138.502 360.217 138.624C360.36 138.747 360.552 138.857 360.789 138.952C361.263 139.143 361.916 139.276 362.69 139.276C363.532 139.276 364.224 139.116 364.714 138.806C365.203 138.496 365.47 138.035 365.47 137.504C365.47 136.904 365.19 136.473 364.777 136.187C364.363 135.902 363.842 135.755 363.345 135.637C362.849 135.519 362.371 135.426 362.052 135.297C361.732 135.167 361.582 135.048 361.582 134.772C361.582 134.623 361.659 134.435 361.853 134.287C362.048 134.14 362.366 134.02 362.894 134.02C363.316 134.02 363.63 134.095 363.881 134.175C364.007 134.215 364.116 134.256 364.22 134.291C364.323 134.326 364.419 134.36 364.556 134.36C364.804 134.36 364.974 134.233 365.075 134.115C365.176 133.997 365.234 133.88 365.234 133.747C365.234 133.58 365.101 133.461 364.953 133.373C364.806 133.285 364.62 133.213 364.405 133.152C363.976 133.03 363.428 132.95 362.878 132.95ZM340.468 133.024C340.054 133.024 339.696 133.226 339.696 133.527V136.784C339.696 138.106 341.14 139.276 342.93 139.276C344.691 139.276 346.165 138.119 346.165 136.784V133.515C346.165 133.365 346.059 133.234 345.919 133.151C345.779 133.069 345.601 133.024 345.408 133.024C345.214 133.024 345.036 133.068 344.892 133.149C344.749 133.23 344.635 133.36 344.635 133.515V136.784C344.635 137.477 343.859 138.147 342.93 138.147C341.987 138.147 341.226 137.465 341.226 136.784V133.527C341.226 133.371 341.116 133.251 340.981 133.166C340.846 133.08 340.667 133.024 340.468 133.024ZM358.2 133.024C358.006 133.024 357.827 133.063 357.684 133.147C357.541 133.23 357.444 133.369 357.444 133.515V139.517C357.444 139.967 357.403 140.345 357.276 140.574C357.149 140.802 356.999 140.903 356.57 140.903C356.192 140.903 355.875 141.161 355.875 141.469C355.875 141.596 355.929 141.737 356.063 141.846C356.197 141.956 356.406 142.021 356.648 142.021C357.463 142.021 358.086 141.739 358.457 141.283C358.829 140.826 358.973 140.216 358.973 139.517V133.515C358.973 133.359 358.859 133.223 358.712 133.143C358.562 133.063 358.382 133.021 358.2 133.024ZM350.504 134.007C351.521 134.007 352.209 134.67 352.209 135.345C352.209 135.418 352.198 135.467 352.188 135.488C352.179 135.51 352.18 135.507 352.166 135.515C352.138 135.529 351.98 135.561 351.68 135.561H348.799V135.296C348.799 134.59 349.558 134.007 350.504 134.007ZM355.364 137.732C354.809 137.732 354.387 138.09 354.387 138.504C354.387 138.902 354.802 139.264 355.364 139.264C355.897 139.264 356.325 138.913 356.325 138.504C356.325 138.08 355.89 137.732 355.364 137.732Z" fill="#BBE8CD"/>
<path d="M331.709 91.0951L341.79 91.0975L348.38 99.6073L354.946 91.0987L365.019 91.0967L348.43 113.482L331.709 91.0951Z" fill="#BBE8CD"/>
<path d="M320.715 91.1547L331.701 91.0967L348.421 113.483L365.01 91.0979L376.015 91.107L348.419 127.951L320.715 91.1547Z" fill="#41B883"/>
</g>
<g clip-path="url(#clip2_16_1139)">
<path d="M348.48 176.641C350.719 176.641 352.534 174.986 352.534 172.944C352.534 170.902 350.719 169.247 348.48 169.247C346.242 169.247 344.427 170.902 344.427 172.944C344.427 174.986 346.242 176.641 348.48 176.641Z" fill="#4AC279"/>
<path d="M348.48 186.539C351.662 189.362 354.8 191.031 357.328 191.031C358.156 191.031 358.94 190.872 359.594 190.514C361.861 189.322 362.689 186.34 361.904 182.087C361.773 181.332 361.599 180.576 361.381 179.781C362.253 179.543 363.037 179.304 363.822 179.066C368.224 177.515 370.664 175.369 370.664 173.023C370.664 170.638 368.224 168.492 363.822 166.981C363.037 166.703 362.253 166.464 361.381 166.265C361.599 165.47 361.773 164.715 361.904 163.96C362.645 159.627 361.817 156.605 359.551 155.413C358.897 155.055 358.112 154.896 357.284 154.896C354.8 154.896 351.618 156.566 348.437 159.388C345.299 156.566 342.161 154.896 339.633 154.896C338.805 154.896 338.02 155.055 337.367 155.413C335.1 156.605 334.272 159.587 335.057 163.84C335.188 164.596 335.362 165.351 335.58 166.146C334.708 166.385 333.924 166.623 333.139 166.862C328.737 168.412 326.297 170.559 326.297 172.904C326.297 175.289 328.737 177.436 333.139 178.946C333.924 179.225 334.708 179.463 335.58 179.662C335.362 180.457 335.188 181.212 335.057 181.968C334.316 186.221 335.144 189.242 337.367 190.395C338.02 190.753 338.805 190.912 339.633 190.912C342.161 190.991 345.299 189.322 348.48 186.539ZM346.04 181.173C346.824 181.212 347.652 181.212 348.48 181.212C349.309 181.212 350.137 181.212 350.921 181.173C350.137 182.127 349.309 183.001 348.48 183.836C347.652 183.001 346.824 182.127 346.04 181.173ZM340.635 177.078C341.071 177.754 341.464 178.39 341.943 179.026C340.592 178.867 339.328 178.668 338.108 178.43C338.5 177.356 338.936 176.243 339.459 175.13C339.807 175.766 340.2 176.442 340.635 177.078ZM338.108 167.498C339.328 167.259 340.592 167.06 341.943 166.901C341.507 167.537 341.071 168.173 340.635 168.849C340.2 169.525 339.807 170.161 339.459 170.837C338.892 169.684 338.456 168.571 338.108 167.498ZM340.505 172.944C341.071 171.87 341.681 170.797 342.379 169.724C343.033 168.69 343.773 167.657 344.514 166.623C345.822 166.544 347.129 166.504 348.48 166.504C349.875 166.504 351.183 166.544 352.447 166.623C353.231 167.657 353.928 168.69 354.582 169.724C355.279 170.797 355.89 171.87 356.456 172.944C355.89 174.017 355.279 175.09 354.582 176.164C353.928 177.197 353.187 178.231 352.447 179.264C351.139 179.344 349.832 179.384 348.48 179.384C347.086 179.384 345.778 179.344 344.514 179.264C343.73 178.231 343.033 177.197 342.379 176.164C341.681 175.09 341.071 174.017 340.505 172.944ZM357.546 170.797L356.369 168.81C355.933 168.134 355.541 167.498 355.062 166.862C356.413 167.021 357.677 167.219 358.897 167.458C358.505 168.571 358.069 169.684 357.546 170.797ZM357.546 175.09C358.069 176.204 358.505 177.317 358.897 178.39C357.677 178.628 356.413 178.827 355.062 178.986C355.497 178.35 355.933 177.714 356.369 177.038C356.761 176.442 357.154 175.766 357.546 175.09ZM358.548 188.885C358.2 189.083 357.764 189.163 357.284 189.163C355.149 189.163 352.49 187.573 349.875 185.188C351.139 183.955 352.359 182.564 353.58 181.014C355.628 180.855 357.589 180.576 359.42 180.179C359.638 180.894 359.769 181.61 359.899 182.325C360.509 185.704 360.03 188.129 358.548 188.885ZM360.815 167.935C365.696 169.207 368.616 171.155 368.616 172.944C368.616 174.494 366.611 176.044 363.081 177.277C362.384 177.515 361.599 177.754 360.815 177.953C360.248 176.323 359.551 174.653 358.679 172.944C359.551 171.234 360.292 169.565 360.815 167.935ZM357.328 156.725C357.807 156.725 358.2 156.804 358.592 157.003C360.03 157.758 360.553 160.143 359.943 163.562C359.812 164.238 359.638 164.954 359.463 165.709C357.633 165.351 355.672 165.073 353.623 164.874C352.447 163.324 351.183 161.932 349.919 160.7C352.534 158.355 355.192 156.725 357.328 156.725ZM350.921 164.715C350.137 164.675 349.309 164.675 348.48 164.675C347.652 164.675 346.824 164.675 346.04 164.715C346.824 163.761 347.652 162.886 348.48 162.052C349.309 162.886 350.137 163.801 350.921 164.715ZM338.413 157.003C338.761 156.804 339.197 156.725 339.677 156.725C341.812 156.725 344.471 158.315 347.086 160.7C345.822 161.932 344.602 163.324 343.381 164.874C341.333 165.033 339.372 165.311 337.541 165.709C337.323 164.993 337.192 164.278 337.062 163.562C336.451 160.183 336.931 157.798 338.413 157.003ZM336.146 177.953C331.265 176.681 328.345 174.733 328.345 172.944C328.345 171.393 330.35 169.843 333.88 168.611C334.577 168.372 335.362 168.134 336.146 167.935C336.713 169.565 337.41 171.234 338.282 172.944C337.41 174.653 336.669 176.363 336.146 177.953ZM337.062 182.325C337.192 181.65 337.367 180.934 337.541 180.179C339.372 180.537 341.333 180.815 343.381 181.014C344.558 182.564 345.822 183.955 347.086 185.188C344.471 187.533 341.812 189.163 339.677 189.163C339.197 189.163 338.805 189.083 338.413 188.885C336.931 188.129 336.451 185.704 337.062 182.325ZM335.231 198.703C336.19 197.63 336.234 196.438 335.711 195.245C335.188 194.052 334.098 193.496 332.747 193.456C331.134 193.416 329.478 193.456 327.866 193.456H327.56V203.752H328.868V199.856H330.916C331.178 199.856 331.396 199.936 331.527 200.135L334.142 203.832C334.185 203.911 334.316 204.03 334.403 204.03H336.103C335.057 202.559 334.054 201.168 333.008 199.737C333.924 199.618 334.708 199.34 335.231 198.703ZM328.868 198.624V194.688H329.347C330.35 194.688 331.396 194.649 332.398 194.728C333.575 194.768 334.403 195.603 334.403 196.676C334.403 197.749 333.444 198.584 332.267 198.624C331.221 198.664 330.175 198.624 328.868 198.624ZM345.735 199.141C345.037 196.358 342.248 195.643 340.112 196.517C338.456 197.193 337.715 198.505 337.672 200.135C337.628 201.367 338.02 202.48 339.066 203.315C340.243 204.269 341.681 204.388 343.163 204.15C343.991 203.991 344.732 203.633 345.299 203.076C345.081 202.798 344.863 202.52 344.645 202.281C343.425 203.235 342.074 203.553 340.592 202.917C339.633 202.48 339.154 201.407 339.066 200.612H345.822V200.095C345.865 199.737 345.822 199.419 345.735 199.141ZM339.154 199.777C339.023 198.584 340.33 197.312 341.769 197.312C343.425 197.272 344.471 198.187 344.514 199.777H339.154ZM352.534 196.318C351.88 196.199 351.183 196.159 350.529 196.199C349.483 196.279 348.568 196.716 347.827 197.431C348.045 197.71 348.219 197.988 348.48 198.306C348.568 198.226 348.655 198.147 348.742 198.107C349.439 197.511 350.267 197.193 351.27 197.272C352.054 197.312 352.795 197.551 353.013 198.266C353.187 198.823 353.144 199.419 353.187 200.015C353.057 200.015 353.013 199.976 352.97 199.936C351.924 199.141 350.747 198.982 349.483 199.26C348.306 199.538 347.565 200.373 347.478 201.446C347.391 202.679 348.001 203.593 349.178 204.03C349.919 204.309 350.747 204.309 351.531 204.15C352.141 204.03 352.403 203.712 353.275 203.275V203.792H354.495C354.495 202.202 354.539 200.254 354.495 198.425C354.495 197.272 353.754 196.557 352.534 196.318ZM353.144 201.327C353.1 201.446 353.144 201.566 353.144 201.685C353.144 202.52 352.926 202.798 352.054 203.116C351.444 203.315 350.79 203.394 350.137 203.196C349.396 202.997 348.873 202.4 348.873 201.725C348.829 201.049 349.309 200.373 350.049 200.174C351.052 199.856 351.967 200.055 352.795 200.612C353.057 200.81 353.231 201.009 353.144 201.327ZM359.943 197.392C361.076 197.074 362.122 197.272 362.907 198.147L363.037 198.226C363.342 197.988 363.604 197.749 363.953 197.471C363.822 197.352 363.778 197.272 363.691 197.153C362.427 195.921 359.943 195.762 358.417 196.756C356.282 198.187 356.325 200.969 357.371 202.44C358.374 203.832 359.812 204.309 361.512 204.11C362.514 203.991 363.342 203.553 363.996 202.798C363.691 202.559 363.386 202.321 363.081 202.043C362.994 202.122 362.95 202.162 362.907 202.241C361.73 203.434 359.769 203.315 358.723 202.043C358.112 201.287 357.982 200.413 358.156 199.538C358.243 198.544 358.81 197.749 359.943 197.392ZM369.008 202.798C368.921 202.838 368.877 202.877 368.877 202.877C368.529 203.116 368.18 203.156 367.788 203.037C367.396 202.877 367.352 202.559 367.308 202.241V197.71C367.308 197.63 367.308 197.789 367.352 197.392H369.008V196.199H367.265V194.211H365.957V196.358H364.824C364.737 196.358 364.606 196.438 364.606 196.517C364.563 196.795 364.606 196.994 364.606 197.392H366.001V202.48C366.001 203.116 366.175 203.673 366.785 203.991C367.439 204.348 368.703 204.269 369.27 203.832C369.357 203.792 369.4 203.633 369.4 203.593C369.27 203.355 369.139 203.076 369.008 202.798Z" fill="#4AC279"/>
</g>
<path d="M296.863 202.825C296.752 202.825 296.641 202.79 296.544 202.722L295.528 202.002C295.377 201.901 295.451 201.864 295.501 201.844C295.703 201.759 295.744 201.74 295.96 201.593C295.983 201.578 296.012 201.584 296.035 201.6L296.815 202.156C296.83 202.165 296.846 202.17 296.862 202.17C296.879 202.17 296.895 202.165 296.91 202.156L299.951 200.052C299.966 200.042 299.977 200.027 299.986 200.01C299.994 199.993 299.998 199.973 299.998 199.953V195.747C299.998 195.727 299.994 195.707 299.985 195.689C299.977 195.672 299.965 195.657 299.951 195.646L296.91 193.544C296.896 193.535 296.88 193.53 296.863 193.53C296.847 193.53 296.831 193.535 296.816 193.544L293.776 195.647C293.762 195.657 293.75 195.672 293.741 195.689C293.733 195.707 293.729 195.727 293.728 195.747V199.953C293.728 199.994 293.747 200.032 293.776 200.051L294.609 200.628C295.062 200.898 295.339 200.58 295.339 200.259V196.105C295.339 196.047 295.378 196.001 295.427 196.001H295.813C295.861 196.001 295.901 196.047 295.901 196.105V200.259C295.901 200.982 295.572 201.396 295 201.396C294.824 201.396 294.686 201.396 294.299 201.169L293.502 200.619C293.405 200.551 293.324 200.454 293.268 200.337C293.212 200.22 293.183 200.088 293.183 199.954V195.747C293.183 195.474 293.304 195.219 293.502 195.083L296.544 192.977C296.642 192.913 296.751 192.879 296.863 192.879C296.975 192.879 297.084 192.913 297.182 192.977L300.224 195.083C300.421 195.22 300.543 195.474 300.543 195.747V199.954C300.543 200.088 300.514 200.22 300.458 200.337C300.402 200.454 300.321 200.551 300.224 200.619L297.182 202.723C297.085 202.79 296.975 202.826 296.863 202.825ZM297.803 199.927C296.471 199.927 296.193 199.195 296.193 198.581C296.193 198.553 296.202 198.526 296.218 198.506C296.235 198.487 296.257 198.475 296.281 198.475H296.674C296.695 198.475 296.715 198.484 296.731 198.501C296.747 198.517 296.758 198.54 296.761 198.565C296.82 199.044 296.998 199.286 297.803 199.286C298.443 199.286 298.716 199.113 298.716 198.705C298.716 198.47 298.639 198.296 297.643 198.179C296.811 198.08 296.296 197.86 296.296 197.062C296.296 196.326 296.813 195.887 297.68 195.887C298.655 195.887 299.137 196.293 299.198 197.163C299.199 197.177 299.197 197.192 299.193 197.206C299.189 197.22 299.183 197.232 299.175 197.243C299.167 197.254 299.157 197.262 299.145 197.268C299.134 197.274 299.123 197.277 299.11 197.277H298.715C298.695 197.277 298.676 197.269 298.661 197.254C298.645 197.239 298.634 197.218 298.63 197.195C298.535 196.69 298.305 196.528 297.68 196.528C296.98 196.528 296.899 196.821 296.899 197.039C296.899 197.304 296.995 197.381 297.94 197.531C298.874 197.679 299.319 197.889 299.319 198.676C299.319 199.472 298.766 199.927 297.803 199.927ZM290.6 197.168C290.72 197.084 290.794 196.931 290.794 196.764V195.683C290.794 195.517 290.72 195.363 290.6 195.279L287.394 193.049C287.335 193.008 287.268 192.986 287.199 192.986C287.131 192.986 287.063 193.007 287.004 193.048L283.778 195.28C283.719 195.321 283.67 195.38 283.636 195.451C283.602 195.522 283.584 195.602 283.584 195.684V200.146C283.584 200.313 283.659 200.468 283.781 200.552L286.986 202.74C287.104 202.821 287.249 202.821 287.368 202.742L289.306 201.451C289.336 201.431 289.362 201.402 289.379 201.366C289.397 201.331 289.406 201.29 289.406 201.249C289.407 201.207 289.398 201.167 289.381 201.131C289.363 201.095 289.338 201.065 289.309 201.045L286.063 198.813C286.034 198.793 286.009 198.763 285.992 198.728C285.974 198.692 285.965 198.652 285.965 198.611V197.212C285.965 197.129 286.002 197.052 286.063 197.011L287.073 196.313C287.103 196.292 287.136 196.281 287.17 196.281C287.204 196.281 287.238 196.292 287.267 196.313L288.278 197.011C288.308 197.031 288.332 197.06 288.349 197.096C288.367 197.131 288.376 197.171 288.376 197.212V198.312C288.376 198.354 288.384 198.394 288.402 198.43C288.419 198.465 288.443 198.495 288.473 198.516C288.503 198.536 288.537 198.547 288.571 198.547C288.605 198.546 288.639 198.535 288.669 198.514L290.6 197.168ZM287.151 196.959C287.163 196.951 287.176 196.947 287.189 196.947C287.202 196.947 287.215 196.951 287.226 196.959L287.845 197.387C287.868 197.403 287.882 197.433 287.882 197.465V198.321C287.882 198.353 287.868 198.383 287.845 198.399L287.226 198.827C287.215 198.835 287.202 198.839 287.189 198.839C287.176 198.839 287.163 198.835 287.151 198.827L286.533 198.399C286.521 198.391 286.512 198.38 286.505 198.366C286.499 198.352 286.495 198.337 286.495 198.321V197.465C286.495 197.433 286.509 197.403 286.533 197.387L287.151 196.959ZM278.758 198.74C278.758 198.782 278.74 198.82 278.709 198.841L277.602 199.606C277.587 199.617 277.57 199.622 277.553 199.622C277.536 199.622 277.519 199.617 277.505 199.606L276.397 198.841C276.382 198.831 276.37 198.816 276.361 198.799C276.353 198.781 276.348 198.761 276.348 198.74V197.208C276.348 197.166 276.367 197.127 276.397 197.106L277.505 196.34C277.519 196.33 277.536 196.324 277.553 196.324C277.571 196.324 277.588 196.33 277.602 196.34L278.71 197.106C278.725 197.117 278.737 197.131 278.746 197.149C278.754 197.167 278.758 197.187 278.758 197.208L278.758 198.74ZM279.057 187.391C279.028 187.371 278.994 187.361 278.96 187.362C278.927 187.362 278.894 187.374 278.864 187.394C278.835 187.415 278.811 187.444 278.794 187.479C278.777 187.514 278.768 187.554 278.768 187.594V193.525C278.768 193.554 278.761 193.582 278.749 193.607C278.738 193.631 278.72 193.652 278.7 193.667C278.679 193.681 278.656 193.688 278.632 193.688C278.608 193.688 278.584 193.681 278.563 193.667L277.756 193.109C277.696 193.068 277.629 193.046 277.561 193.046C277.493 193.046 277.426 193.068 277.367 193.109L274.141 195.339C274.081 195.38 274.032 195.439 273.998 195.51C273.964 195.581 273.946 195.662 273.945 195.744V200.207C273.945 200.374 274.02 200.528 274.14 200.612L277.366 202.844C277.487 202.927 277.635 202.927 277.756 202.844L280.983 200.612C281.042 200.571 281.091 200.512 281.125 200.441C281.159 200.37 281.177 200.289 281.177 200.207V189.082C281.177 188.913 281.101 188.757 280.978 188.674L279.057 187.391ZM267.704 193.025C267.763 192.984 267.83 192.962 267.898 192.962C267.967 192.962 268.034 192.984 268.093 193.025L271.319 195.255C271.44 195.339 271.514 195.493 271.514 195.66V200.124C271.514 200.291 271.44 200.445 271.319 200.529L268.094 202.761C268.034 202.802 267.967 202.823 267.899 202.823C267.83 202.823 267.763 202.802 267.704 202.761L264.479 200.529C264.42 200.487 264.371 200.428 264.336 200.357C264.302 200.286 264.284 200.206 264.284 200.124V195.659C264.284 195.493 264.359 195.339 264.479 195.255L267.704 193.025ZM261.837 195.622C261.837 195.454 261.764 195.3 261.643 195.217L258.418 192.993C258.363 192.955 258.302 192.934 258.24 192.932H258.206C258.144 192.934 258.083 192.955 258.029 192.993L254.803 195.217C254.744 195.258 254.695 195.317 254.661 195.388C254.626 195.46 254.608 195.54 254.608 195.622L254.615 201.61C254.615 201.694 254.652 201.772 254.713 201.812C254.742 201.833 254.775 201.844 254.809 201.844C254.843 201.844 254.877 201.833 254.906 201.812L256.822 200.497C256.943 200.411 257.017 200.259 257.017 200.092V197.294C257.017 197.127 257.091 196.973 257.212 196.89L258.028 196.327C258.087 196.285 258.154 196.264 258.223 196.264C258.289 196.264 258.357 196.284 258.417 196.327L259.232 196.89C259.353 196.973 259.427 197.127 259.427 197.294V200.092C259.427 200.259 259.502 200.411 259.623 200.497L261.539 201.812C261.568 201.832 261.602 201.843 261.636 201.843C261.67 201.843 261.703 201.832 261.733 201.812C261.762 201.791 261.787 201.762 261.804 201.727C261.821 201.691 261.83 201.651 261.83 201.61L261.837 195.622Z" fill="#4AC279"/>
<g clip-path="url(#clip3_16_1139)">
<path d="M253.864 91.2949V135.845H298.95V91.2949H253.864ZM277.713 129.256C277.047 130.593 275.777 131.47 274.305 131.894C272.043 132.407 269.88 132.115 268.27 131.16C267.193 130.507 266.352 129.502 265.781 128.344L269.215 126.267C269.245 126.279 269.335 126.44 269.455 126.648C269.893 127.373 270.271 127.886 271.013 128.247C271.743 128.493 273.344 128.65 273.962 127.382C274.34 126.737 274.219 124.663 274.219 122.369C274.219 118.764 274.236 115.174 274.236 111.61H278.459C278.459 115.53 278.481 119.243 278.459 123.069C278.468 125.414 278.674 127.505 277.713 129.256ZM295.233 128.077C293.765 133.039 285.58 133.2 282.309 129.922C281.618 129.151 281.185 128.747 280.773 127.857C282.511 126.869 282.511 126.869 284.202 125.902C285.121 127.297 285.97 128.065 287.499 128.379C289.572 128.629 291.658 127.925 291.19 125.749C290.709 123.972 286.945 123.54 284.383 121.639C281.782 119.913 281.172 115.719 283.31 113.323C284.022 112.436 285.237 111.775 286.511 111.457L287.842 111.287C290.396 111.236 291.992 111.902 293.164 113.196C293.49 113.522 293.756 113.874 294.254 114.637C292.893 115.494 292.898 115.486 290.949 116.732C290.533 115.846 289.842 115.29 289.112 115.049C287.979 114.709 286.55 115.078 286.253 116.262C286.15 116.626 286.172 116.966 286.335 117.568C286.794 118.602 288.335 119.052 289.717 119.68C293.696 121.274 295.04 122.984 295.37 125.019C295.688 126.771 295.293 127.908 295.233 128.077Z" fill="#4AC279"/>
</g>
<g clip-path="url(#clip4_16_1139)">
<path d="M181.533 98.0254L185.726 136.236L204.542 140.35L223.41 136.314L227.607 98.0254H181.533ZM218.886 106.724L218.623 109.204L218.507 110.349H196.436L196.963 115.448H217.982L217.842 116.396L216.486 128.681L216.387 129.399L204.57 132.005V132.003L204.556 132.008L192.746 129.494L191.945 122.247H197.735L198.145 125.842L204.567 127.176L204.57 127.077V127.082L211.006 125.956L211.678 120.122H191.687L190.27 107.019L190.131 105.674H219.024L218.886 106.724ZM185.882 87.2434H188.797V89.6044H191.464V87.2434H194.379V94.3918H191.464V91.9981H188.797V94.3918H185.882V87.2434ZM198.212 89.6142H195.646V87.2434H203.695V89.6142H201.128V94.3918H198.212V89.6142ZM204.973 87.2434H208.012L209.883 89.7552L211.751 87.2434H214.792V94.3918H211.888V90.8486L209.883 93.3902H209.832L207.825 90.8486V94.3918H204.972L204.973 87.2434ZM216.243 87.2434H219.159V92.0291H223.259V94.3922H216.243V87.2434Z" fill="#4AC279"/>
</g>
<path d="M102.617 204.057H100.889V191.849H108.705V193.355H102.617V197.367H108.124V198.833H102.628V204.057H102.617ZM111.679 193.61C111.443 193.825 111.152 193.93 110.817 193.93C110.483 193.93 110.187 193.825 109.956 193.61C109.72 193.395 109.605 193.13 109.605 192.824C109.605 192.519 109.72 192.249 109.956 192.039C110.192 191.824 110.483 191.719 110.817 191.719C111.152 191.719 111.448 191.824 111.679 192.039C111.909 192.254 112.03 192.519 112.03 192.824C112.03 193.13 111.909 193.38 111.679 193.61ZM111.679 204.057H109.956V195.701H111.679V204.057ZM115.272 204.057H113.549V195.701H115.2V197.062H115.272C115.447 196.607 115.798 196.237 116.352 195.942C116.895 195.646 117.422 195.501 117.932 195.501C118.442 195.501 118.87 195.566 119.216 195.701L118.557 197.167C118.338 197.087 118.031 197.047 117.636 197.047C117.005 197.047 116.467 197.272 115.985 197.728C115.502 198.183 115.266 198.768 115.266 199.489V204.057H115.272ZM123.368 204.337C121.98 204.337 120.856 203.912 119.995 203.071C119.133 202.231 118.695 201.165 118.695 199.884C118.695 198.673 119.117 197.618 119.951 196.737C120.801 195.856 121.865 195.416 123.182 195.416C124.542 195.416 125.623 195.816 126.44 196.627C127.257 197.443 127.669 198.518 127.669 199.864L127.652 200.159H120.417C120.461 201 120.785 201.665 121.339 202.161C121.909 202.656 122.567 202.896 123.324 202.896C124.553 202.896 125.398 202.416 125.837 201.455L127.373 202.041C127.082 202.696 126.583 203.226 125.897 203.667C125.211 204.112 124.361 204.337 123.368 204.337ZM125.842 198.873C125.798 198.393 125.562 197.938 125.124 197.513C124.685 197.087 124.026 196.857 123.149 196.857C122.507 196.857 121.964 197.042 121.498 197.402C121.031 197.763 120.708 198.258 120.532 198.868L125.842 198.873ZM133.719 204.337C133.017 204.337 132.392 204.202 131.832 203.922C131.278 203.657 130.867 203.306 130.593 202.896H130.521V204.057H128.87V191.849H130.593V195.701L130.521 196.862H130.593C130.872 196.447 131.278 196.117 131.832 195.836C132.386 195.571 133.017 195.421 133.719 195.421C134.904 195.421 135.925 195.846 136.791 196.702C137.652 197.558 138.075 198.608 138.075 199.874C138.075 201.14 137.652 202.196 136.791 203.046C135.925 203.912 134.904 204.337 133.719 204.337ZM133.423 202.901C134.229 202.901 134.915 202.621 135.486 202.076C136.056 201.53 136.347 200.795 136.347 199.889C136.347 198.984 136.056 198.248 135.486 197.703C134.915 197.157 134.229 196.877 133.423 196.877C132.617 196.877 131.92 197.142 131.361 197.693C130.807 198.238 130.51 198.974 130.51 199.894C130.51 200.815 130.79 201.545 131.361 202.096C131.937 202.631 132.622 202.901 133.423 202.901ZM142.354 204.337C141.372 204.337 140.571 204.082 139.912 203.562C139.254 203.056 138.931 202.376 138.931 201.535C138.931 200.63 139.309 199.909 140.083 199.389C140.856 198.868 141.805 198.613 142.946 198.613C143.955 198.613 144.789 198.788 145.431 199.119V198.878C145.431 198.263 145.195 197.773 144.745 197.397C144.279 197.022 143.719 196.837 143.05 196.837C142.551 196.837 142.101 196.942 141.69 197.157C141.278 197.372 141.004 197.663 140.856 198.053L139.276 197.438C139.496 196.932 139.907 196.477 140.532 196.052C141.163 195.626 141.98 195.411 143.001 195.411C144.169 195.411 145.151 195.716 145.925 196.347C146.698 196.972 147.077 197.853 147.077 198.989V204.052H145.425V202.891H145.354C144.679 203.857 143.67 204.337 142.354 204.337ZM142.633 202.901C143.352 202.901 143.994 202.661 144.564 202.181C145.151 201.7 145.442 201.13 145.442 200.46C144.959 200.099 144.23 199.914 143.248 199.914C142.414 199.914 141.788 200.074 141.361 200.41C140.938 200.745 140.719 201.13 140.719 201.57C140.719 201.986 140.911 202.306 141.306 202.546C141.695 202.781 142.134 202.901 142.633 202.901ZM151.871 204.337C150.845 204.337 150 204.112 149.342 203.657C148.691 203.223 148.186 202.632 147.883 201.951L149.419 201.365C149.902 202.416 150.735 202.936 151.904 202.936C152.447 202.936 152.886 202.831 153.22 202.616C153.555 202.401 153.73 202.111 153.73 201.76C153.73 201.215 153.308 200.84 152.474 200.655L150.615 200.244C150.028 200.109 149.474 199.844 148.947 199.469C148.42 199.084 148.157 198.573 148.157 197.923C148.157 197.187 148.525 196.592 149.238 196.122C149.956 195.656 150.801 195.426 151.794 195.426C152.6 195.426 153.33 195.601 153.955 195.932C154.597 196.267 155.052 196.747 155.316 197.372L153.824 197.933C153.489 197.197 152.787 196.827 151.734 196.827C151.224 196.827 150.796 196.922 150.45 197.122C150.099 197.322 149.923 197.578 149.923 197.908C149.923 198.388 150.335 198.708 151.136 198.883L152.946 199.269C153.807 199.454 154.438 199.764 154.86 200.204C155.272 200.645 155.475 201.15 155.475 201.71C155.475 202.456 155.14 203.081 154.465 203.592C153.802 204.097 152.935 204.337 151.871 204.337ZM160.862 204.337C159.474 204.337 158.349 203.912 157.488 203.071C156.627 202.231 156.188 201.165 156.188 199.884C156.188 198.673 156.61 197.618 157.444 196.737C158.294 195.856 159.359 195.416 160.675 195.416C162.035 195.416 163.116 195.816 163.933 196.627C164.751 197.443 165.162 198.518 165.162 199.864L165.146 200.159H157.91C157.954 201 158.278 201.665 158.832 202.161C159.402 202.656 160.061 202.896 160.818 202.896C162.046 202.896 162.891 202.416 163.33 201.455L164.866 202.041C164.575 202.696 164.076 203.226 163.39 203.667C162.699 204.112 161.854 204.337 160.862 204.337ZM163.33 198.873C163.286 198.393 163.05 197.938 162.611 197.513C162.173 197.087 161.514 196.857 160.637 196.857C159.995 196.857 159.452 197.042 158.986 197.402C158.519 197.763 158.196 198.258 158.02 198.868L163.33 198.873ZM117.894 175.938L122.112 151.282C122.26 150.441 123.494 150.241 123.928 150.996L128.459 158.737L117.894 175.938ZM147.883 181.927L143.857 159.217C143.736 158.512 142.765 158.221 142.205 158.732L116.851 181.927L130.889 189.112C131.761 189.552 132.853 189.552 133.725 189.112L147.883 181.927ZM136.484 162.119L133.237 156.48C132.875 155.84 131.882 155.84 131.514 156.48L117.235 179.696L136.484 162.119Z" fill="#4AC279"/>
<path d="M217.654 153.324H213.825L217.807 157.208V159.057H209.606V156.892H213.587L209.606 153.008V151.157H217.654V153.324ZM207.98 153.324H204.152L208.133 157.208V159.057H199.932V156.892H203.914L199.932 153.008V151.157H207.98V153.324ZM198.402 153.413H194.27V156.801H198.402V159.057H191.334V151.157H198.402V153.413Z" fill="#4AC279"/>
<path d="M185.704 204.987L181.506 162.663H227.634L223.432 204.98L204.542 209.689L185.704 204.987Z" fill="#4AC279"/>
<path d="M204.571 206.09L219.835 202.286L223.426 166.124H204.571V206.09Z" fill="#46AF6F"/>
<path d="M204.57 181.458H212.212L212.74 176.142H204.57V170.951H219.051L218.913 172.344L217.494 186.648H204.57V181.458Z" fill="#252424"/>
<path d="M204.605 194.939L204.579 194.946L198.148 193.384L197.736 189.244H191.94L192.75 197.395L204.578 200.346L204.605 200.339L204.605 194.939Z" fill="#252424"/>
<path d="M211.721 186.429L211.025 193.381L204.585 194.943V200.344L216.423 197.395L216.51 196.518L217.515 186.429H211.721Z" fill="#252424"/>
<path d="M204.59 170.951V176.142H190.641L190.525 174.975L190.262 172.344L190.124 170.951H204.59ZM204.57 181.458V186.649H198.22L198.105 185.483L197.841 182.851L197.703 181.458H204.57Z" fill="#252424"/>
<path d="M176.507 36.3751C176.507 28.0908 183.223 21.3751 191.507 21.3751H360.517C368.802 21.3751 375.517 28.0908 375.517 36.3751V42.2588C375.517 50.5431 368.802 57.2588 360.517 57.2588H191.507C183.223 57.2588 176.507 50.543 176.507 42.2588V36.3751Z" fill="white"/>
<path d="M231.502 32.5222L232.282 46.3822H229.422L229.252 40.4522C229.239 39.8989 229.232 39.4055 229.232 38.9722C229.239 38.5389 229.249 38.1322 229.262 37.7522C229.275 37.3655 229.295 36.9789 229.322 36.5922C229.355 36.1989 229.389 35.7722 229.422 35.3122L227.862 44.0222H225.382L223.702 35.3122C223.742 35.7522 223.775 36.1689 223.802 36.5622C223.835 36.9489 223.859 37.3389 223.872 37.7322C223.885 38.1255 223.895 38.5489 223.902 39.0022C223.909 39.4489 223.905 39.9489 223.892 40.5022L223.792 46.3822H220.982L221.762 32.5222H225.132L226.672 41.4822L228.132 32.5222H231.502ZM244.064 35.7622L240.524 46.3822C240.211 47.3222 239.794 48.1089 239.274 48.7422C238.761 49.3822 238.117 49.8755 237.344 50.2222C236.577 50.5689 235.654 50.7722 234.574 50.8322L234.214 48.6022C234.914 48.5155 235.477 48.3855 235.904 48.2122C236.337 48.0389 236.684 47.8022 236.944 47.5022C237.211 47.2089 237.441 46.8355 237.634 46.3822H236.554L233.184 35.7622H236.524L238.584 44.3622L240.824 35.7622H244.064ZM264.228 35.0322V46.3822H260.948V35.0322H257.058V32.5222H268.278L267.938 35.0322H264.228ZM274.601 35.4122C275.694 35.4122 276.624 35.6455 277.391 36.1122C278.157 36.5789 278.744 37.2355 279.151 38.0822C279.557 38.9222 279.761 39.9089 279.761 41.0422C279.761 42.2222 279.554 43.2389 279.141 44.0922C278.734 44.9389 278.147 45.5889 277.381 46.0422C276.614 46.4955 275.687 46.7222 274.601 46.7222C273.521 46.7222 272.594 46.4989 271.821 46.0522C271.054 45.6055 270.464 44.9589 270.051 44.1122C269.644 43.2655 269.441 42.2489 269.441 41.0622C269.441 39.9355 269.644 38.9489 270.051 38.1022C270.464 37.2555 271.054 36.5955 271.821 36.1222C272.594 35.6489 273.521 35.4122 274.601 35.4122ZM274.601 37.7422C273.954 37.7422 273.474 38.0089 273.161 38.5422C272.854 39.0689 272.701 39.9089 272.701 41.0622C272.701 42.2355 272.854 43.0855 273.161 43.6122C273.474 44.1389 273.954 44.4022 274.601 44.4022C275.247 44.4022 275.724 44.1389 276.031 43.6122C276.344 43.0855 276.501 42.2289 276.501 41.0422C276.501 39.8955 276.344 39.0589 276.031 38.5322C275.724 38.0055 275.247 37.7422 274.601 37.7422ZM286.593 35.4122C287.686 35.4122 288.616 35.6455 289.383 36.1122C290.149 36.5789 290.736 37.2355 291.143 38.0822C291.549 38.9222 291.753 39.9089 291.753 41.0422C291.753 42.2222 291.546 43.2389 291.133 44.0922C290.726 44.9389 290.139 45.5889 289.373 46.0422C288.606 46.4955 287.679 46.7222 286.593 46.7222C285.513 46.7222 284.586 46.4989 283.813 46.0522C283.046 45.6055 282.456 44.9589 282.043 44.1122C281.636 43.2655 281.433 42.2489 281.433 41.0622C281.433 39.9355 281.636 38.9489 282.043 38.1022C282.456 37.2555 283.046 36.5955 283.813 36.1222C284.586 35.6489 285.513 35.4122 286.593 35.4122ZM286.593 37.7422C285.946 37.7422 285.466 38.0089 285.153 38.5422C284.846 39.0689 284.693 39.9089 284.693 41.0622C284.693 42.2355 284.846 43.0855 285.153 43.6122C285.466 44.1389 285.946 44.4022 286.593 44.4022C287.239 44.4022 287.716 44.1389 288.023 43.6122C288.336 43.0855 288.493 42.2289 288.493 41.0422C288.493 39.8955 288.336 39.0589 288.023 38.5322C287.716 38.0055 287.239 37.7422 286.593 37.7422ZM299.525 31.5422V43.0422C299.525 43.4689 299.645 43.7755 299.885 43.9622C300.132 44.1422 300.468 44.2322 300.895 44.2322C301.168 44.2322 301.432 44.2022 301.685 44.1422C301.938 44.0755 302.175 43.9989 302.395 43.9122L303.155 46.0222C302.795 46.2089 302.362 46.3722 301.855 46.5122C301.348 46.6522 300.758 46.7222 300.085 46.7222C298.805 46.7222 297.865 46.3555 297.265 45.6222C296.665 44.8822 296.365 43.8922 296.365 42.6522V33.7022H293.235V31.5422H299.525ZM310.237 44.4622C310.764 44.4622 311.187 44.3789 311.507 44.2122C311.834 44.0455 311.997 43.7955 311.997 43.4622C311.997 43.2355 311.934 43.0455 311.807 42.8922C311.68 42.7389 311.437 42.5922 311.077 42.4522C310.717 42.3122 310.184 42.1455 309.477 41.9522C308.83 41.7789 308.257 41.5589 307.757 41.2922C307.264 41.0255 306.877 40.6822 306.597 40.2622C306.324 39.8422 306.187 39.3189 306.187 38.6922C306.187 38.0589 306.364 37.4955 306.717 37.0022C307.07 36.5089 307.59 36.1222 308.277 35.8422C308.964 35.5555 309.804 35.4122 310.797 35.4122C311.744 35.4122 312.567 35.5355 313.267 35.7822C313.974 36.0222 314.584 36.3289 315.097 36.7022L313.837 38.5622C313.397 38.2889 312.924 38.0722 312.417 37.9122C311.91 37.7455 311.4 37.6622 310.887 37.6622C310.374 37.6622 309.99 37.7322 309.737 37.8722C309.49 38.0055 309.367 38.2089 309.367 38.4822C309.367 38.6622 309.43 38.8189 309.557 38.9522C309.69 39.0789 309.937 39.2122 310.297 39.3522C310.657 39.4855 311.184 39.6522 311.877 39.8522C312.564 40.0455 313.16 40.2689 313.667 40.5222C314.18 40.7755 314.577 41.1155 314.857 41.5422C315.137 41.9622 315.277 42.5189 315.277 43.2122C315.277 43.9855 315.047 44.6355 314.587 45.1622C314.127 45.6822 313.517 46.0722 312.757 46.3322C311.997 46.5922 311.164 46.7222 310.257 46.7222C309.23 46.7222 308.324 46.5755 307.537 46.2822C306.75 45.9889 306.08 45.6022 305.527 45.1222L307.117 43.3422C307.53 43.6622 307.997 43.9289 308.517 44.1422C309.044 44.3555 309.617 44.4622 310.237 44.4622Z" fill="black"/>
<defs>
<filter id="filter0_d_16_1139" x="0" y="0" width="1234" height="274" filterUnits="userSpaceOnUse" color-interpolation-filters="sRGB">
<feFlood flood-opacity="0" result="BackgroundImageFix"/>
<feColorMatrix in="SourceAlpha" type="matrix" values="0 0 0 0 0 0 0 0 0 0 0 0 0 0 0 0 0 0 127 0" result="hardAlpha"/>
<feOffset dy="4"/>
<feGaussianBlur stdDeviation="2"/>
<feComposite in2="hardAlpha" operator="out"/>
<feColorMatrix type="matrix" values="0 0 0 0 0 0 0 0 0 0 0 0 0 0 0 0 0 0 0.25 0"/>
<feBlend mode="normal" in2="BackgroundImageFix" result="effect1_dropShadow_16_1139"/>
<feBlend mode="normal" in="SourceGraphic" in2="effect1_dropShadow_16_1139" result="shape"/>
</filter>
<clipPath id="clip0_16_1139">
<rect width="53.863" height="50.006" fill="white" transform="translate(104.058 90.0612)"/>
</clipPath>
<clipPath id="clip1_16_1139">
<rect width="65.4051" height="50.8833" fill="white" transform="translate(315.663 90.9385)"/>
</clipPath>
<clipPath id="clip2_16_1139">
<rect width="55.7867" height="50.8833" fill="white" transform="translate(320.587 154.061)"/>
</clipPath>
<clipPath id="clip3_16_1139">
<rect width="46.1683" height="45.6195" fill="white" transform="translate(253.143 90.9385)"/>
</clipPath>
<clipPath id="clip4_16_1139">
<rect width="66.3669" height="54.3925" fill="white" transform="translate(171.387 86.552)"/>
</clipPath>
</defs>
</svg>
